<svg width="383" height="95" viewBox="0 0 383 95" fill="none" xmlns="http://www.w3.org/2000/svg">
<path d="M45.0396 82.5549L9.55528 37.8729L14.5567 35.6137L49.99 80.3188L45.0396 82.5549Z" fill="#E60012"/>
<path d="M70.8641 14.0806L106.883 4.40599L108.568 10.6796L72.5491 20.3543L70.8641 14.0806ZM88.9267 42.6863L105.53 38.2267L106.997 43.6891L90.3939 48.1487L88.9267 42.6863ZM86.3164 53.4768L112.709 46.3879L114.205 51.9584L87.8127 59.0474L86.3164 53.4768ZM75.3248 25.2912L108.586 16.3575L118.478 53.1881L111.934 54.9458L103.553 23.7398L83.0551 29.2453L91.4514 60.5054L85.2319 62.1759L75.3248 25.2912ZM59.0552 20.8475L61.4545 15.1004C64.605 15.8198 69.3504 16.8646 71.8374 17.7042L69.421 24.0357C67.0673 23.0443 62.3178 21.7687 59.0552 20.8475ZM61.149 35.7671L63.4797 29.9804C66.5866 30.5375 71.4112 31.4451 73.8836 32.2306L71.6045 38.6413C69.2257 37.7726 64.4367 36.5656 61.149 35.7671ZM69.0597 61.7649C70.3063 56.9073 71.8146 49.1381 72.6569 42.1276L78.8366 44.4107C78.1195 50.8077 77.1149 57.8618 75.9425 63.8592L69.0597 61.7649ZM82.1817 14.9837L87.8064 13.473L90.9586 25.209L85.334 26.7197L82.1817 14.9837ZM91.2136 12.5578L97.0005 11.0035L100.167 22.7936L94.3804 24.3479L91.2136 12.5578ZM86.0145 26.0151L91.1524 24.6351L92.1402 28.3127C93.1571 32.0986 93.2125 36.8384 89.0753 41.0808C88.0026 40.3252 85.3309 39.0134 84.0604 38.6008C87.7624 35.1131 87.656 32.1265 86.9732 29.5846L86.0145 26.0151ZM94.0333 23.9193L99.0631 22.5683L100.806 29.0583C101.097 30.1399 101.234 30.2191 102.153 29.9721C102.532 29.8704 104.154 29.4346 104.587 29.3184C105.29 29.1296 105.477 28.9633 105.528 28.7179C106.665 29.2822 109.046 29.5124 110.662 29.4842C110.671 32.3232 109.443 33.5807 106.685 34.3215C105.874 34.5394 103.602 35.1496 102.737 35.382C98.4641 36.5296 97.0839 35.2767 95.8201 30.5715L94.0333 23.9193Z" fill="#E60012"/>
<path d="M144.631 -2.95002C145.341 8.79938 145.437 17.3469 134.458 23.3249C136.028 24.3448 138.102 26.4383 138.994 27.9787C151.763 20.802 152.417 10.2627 151.706 -3.68221L144.631 -2.95002ZM146.599 16.6073C151.572 18.9638 158.149 22.6745 161.284 25.2213L165.316 19.5682C161.969 17.1559 155.204 13.8025 150.366 11.6572L146.599 16.6073ZM147.368 22.9458C146.78 28.6929 145.348 34.9777 136.186 39.4729C137.755 40.4927 139.718 42.5978 140.61 44.1382C151.21 38.3119 153.607 30.4635 154.275 22.231L147.368 22.9458ZM148.65 32.6092C153.039 35.3077 159.076 39.2431 161.932 41.8187L166.505 36.5037C163.432 34.0068 157.256 30.3672 152.952 27.9415L148.65 32.6092ZM125.157 6.89116L129.752 51.286L136.436 50.5942L132.516 12.7165L168.11 9.03254L167.435 2.51535L125.157 6.89116ZM164.929 2.77479L168.739 39.5941C168.832 40.4853 168.582 40.7927 167.696 40.9406C166.805 41.0329 163.742 41.35 160.995 41.4653C162.071 43.1556 163.273 46.0713 163.692 47.9421C168.092 47.4866 171.25 46.9909 173.252 45.6578C175.259 44.3804 175.731 42.4173 175.385 39.0752L171.557 2.08873L164.929 2.77479Z" fill="#E60012"/>
<path d="M191.274 4.11401L231.363 6.36679L230.995 12.9085L190.907 10.6557L191.274 4.11401ZM228.735 6.21912L230.245 6.30395L231.605 6.04389L236.505 9.68452C228.076 20.9333 213.789 32.6382 200.965 39.2651C199.988 37.6958 197.979 35.5077 196.486 34.1337C208.766 28.2054 222.6 16.5872 228.65 7.72874L228.735 6.21912ZM208.599 -2.76477L214.82 -5.66832C216.732 -2.75648 219.422 1.26481 220.629 3.74443L213.992 7.07328C213.015 4.49441 210.505 0.258896 208.599 -2.76477ZM198.459 32.9546C200.304 33.0583 201.611 34.7583 204.579 36.8321C207.973 39.3224 212.815 39.9871 218.91 40.3296C224.669 40.6532 233.251 40.6307 238.663 40.1496C237.836 41.8979 236.519 45.3575 236.36 47.1995C232.318 47.2528 223.857 47.1138 218.322 46.8028C211.389 46.4132 207.016 45.3822 203.231 42.8699C200.908 41.2811 199.17 39.2764 197.94 39.2073C196.151 39.1067 193.421 42.7673 190.986 46.1641L186.474 39.6286C190.745 35.4937 195.328 32.7786 198.459 32.9546Z" fill="#E60012"/>
<path d="M249.842 28.8555L299.46 39.7119L298.275 45.1278L248.657 34.2714L249.842 28.8555ZM272.135 30.9816L278.754 32.4299L273.584 56.0628L266.964 54.6145L272.135 30.9816ZM275.329 21.3619L274.503 25.1366L278.551 26.0224L279.377 22.2477L275.329 21.3619ZM277.124 13.156L276.31 16.876L280.359 17.7618L281.173 14.0418L277.124 13.156ZM272.586 7.17574L288.013 10.5512L283.297 32.1053L267.87 28.7298L272.586 7.17574ZM279.072 3.20641L284.765 5.48383C283.187 7.71817 281.585 10.0619 280.393 11.5783L276.299 9.59325C277.277 7.74354 278.489 5.08521 279.072 3.20641ZM295.994 27.2592L300.379 27.1295C300.651 30.3418 300.719 34.4841 300.539 37.1391L295.899 37.385C296.212 34.6446 296.199 30.5143 295.994 27.2592ZM263.162 19.3304L267.578 19.322C267.728 22.5651 267.675 26.7382 267.417 29.4906L262.746 29.6152C263.126 26.832 263.246 22.6162 263.162 19.3304ZM254.454 16.1638C254.395 15.1193 254.114 12.478 253.842 11.1C254.656 11.0488 255.589 10.4505 256.618 9.41453C257.623 8.48799 260.976 4.69289 263.101 0.743871L267.806 3.60763C264.988 7.57713 261.114 11.6594 257.994 14.1296L257.958 14.2937C257.958 14.2937 254.669 15.1791 254.454 16.1638ZM254.454 16.1638L255.146 12.4746L257.658 11.4763L265.557 12.5742C264.997 13.8273 264.437 15.5967 264.155 16.6242C257.028 15.9246 255.425 15.9177 254.454 16.1638ZM251.931 26.905C251.94 25.8177 251.658 23.1764 251.301 21.6651C252.498 21.6976 253.776 20.8309 255.479 19.5984C257.182 18.3659 263.106 13.299 266.989 8.12942L271.076 11.718C266.415 16.7747 260.473 21.6655 255.132 24.8536L255.096 25.0178C255.096 25.0178 252.135 25.975 251.931 26.905ZM251.931 26.905L252.581 23.1491L255.147 22.1628L266.692 23.3703C266.198 24.5806 265.682 26.4167 265.466 27.4014C254.937 26.5307 253.091 26.5853 251.931 26.905ZM286.932 23.614C286.898 22.46 286.616 19.8187 286.301 18.3741C287.103 18.3776 288.06 17.6698 289.078 16.6886C290.095 15.7073 293.471 11.8028 295.706 7.87775L300.623 10.5586C297.757 14.7469 293.738 18.9694 290.539 21.537L290.515 21.6464C290.515 21.6464 287.159 22.5746 286.932 23.614ZM286.932 23.614L287.617 19.694L290.238 18.7196L299.28 19.8381C298.707 21.1459 298.112 23.0794 297.818 24.1616C289.694 23.3013 287.957 23.3798 286.932 23.614ZM284.957 34.4748C284.911 33.3756 284.653 30.6248 284.35 29.1255C285.559 29.1034 286.814 28.3461 288.528 27.0588C290.286 25.8383 296.295 20.9047 300.287 15.7591L304.46 19.4811C299.714 24.4044 293.705 29.338 288.278 32.3927L288.243 32.5568C288.243 32.5568 285.172 33.4901 284.957 34.4748ZM284.957 34.4748L285.606 30.7189L288.337 29.7685L300.15 31.3214C299.589 32.5745 298.951 34.4413 298.736 35.426C288.048 34.2339 286.158 34.2219 284.957 34.4748ZM262.643 38.9939L267.561 42.191C262.691 46.1126 255.307 48.6817 248.347 49.0506C247.776 47.206 246.357 44.2586 245.21 42.6892C251.655 42.8382 258.654 41.5034 262.643 38.9939ZM278.617 46.1578L283.399 42.9047C287.632 46.3531 293.468 51.6428 296.218 55.0535L290.977 58.8365C288.512 55.431 282.899 49.9036 278.617 46.1578Z" fill="#E60012"/>
<path d="M314.816 80.1718L348.214 33.8927L353.264 35.8938L319.918 82.1936L314.816 80.1718Z" fill="#E60012"/>
</svg>
