<svg width="369" height="87" viewBox="0 0 369 87" fill="none" xmlns="http://www.w3.org/2000/svg">
<path d="M27.1083 79.7157L5.82179 55.0186L8.59694 53.6281L29.8834 78.3252L27.1083 79.7157Z" fill="black"/>
<path d="M45.7967 44.6093L46.3954 46.2302L59.6633 41.3295L59.0645 39.7085L45.7967 44.6093ZM44.2777 40.4968L44.8653 42.0878L58.1332 37.1871L57.5455 35.5961L44.2777 40.4968ZM60.5335 57.7235L71.8502 53.5435L72.9922 56.6353L46.5466 66.4035L45.4046 63.3117L56.8413 59.0873L56.0874 57.0461L48.3428 59.9067L47.3116 57.115L55.0562 54.2544L54.3799 52.4233L48.0161 54.7739C47.5669 56.2361 46.9944 57.6416 46.3632 58.7958C45.44 58.4204 43.5889 57.842 42.5821 57.7021C44.0089 55.4695 45.0573 52.4896 45.2731 49.7491L43.8923 50.2591L39.7677 39.0925L60.2698 31.5196L64.3944 42.6862L46.4438 49.3166L49.2014 49.1168C49.1308 49.7569 49.0602 50.397 48.9407 51.0893L53.2933 49.4816L52.6169 47.6505L56.3091 46.2868L56.9855 48.1178L66.411 44.6363L67.4976 47.5781L58.0721 51.0596L58.7484 52.8907L66.7932 49.9192L67.8243 52.7108L59.7796 55.6823L60.5335 57.7235Z" fill="black"/>
<path d="M97.2359 43.3775L98.0281 46.4449L107.881 43.9004L108.697 47.0607L85.4594 53.0619L84.6432 49.9016L94.465 47.3651L93.6728 44.2977L85.803 46.3301L84.9789 43.1388L92.8487 41.1064L91.8805 37.3574L90.6286 40.0603C89.8708 39.4298 88.5993 38.6014 87.3128 37.843C86.9213 39.3983 86.3188 40.7767 85.4664 41.9553C84.8037 41.5646 83.3323 40.9862 82.3907 40.6675C83.2481 45.1392 83.7538 50.2966 82.7679 54.2858C81.9573 53.8341 80.0661 53.1658 79.1025 53.0181C80.383 47.9943 78.8966 41.4707 77.7203 36.9162L75.5519 28.5196L87.7284 25.375C87.1955 24.7194 86.6397 24.1028 86.0769 23.5872L89.3209 21.5596C90.2586 22.375 91.2053 23.3534 91.9731 24.2788L101.919 21.7103L102.799 25.1184L80.0571 30.9916L81.3534 36.011C81.6974 37.3432 82.0505 38.8384 82.3657 40.4426C84.2024 38.0844 84.6356 34.8989 84.2362 31.4327L87.6394 30.9173C87.7736 32.2047 87.8218 33.4151 87.753 34.5565C89.1944 35.2749 90.7458 36.1632 91.7445 36.8307L89.8641 29.5496L93.4272 28.6294L95.3876 36.2204C96.7675 34.0132 97.2038 31.2235 96.9084 28.16L100.297 27.7146C100.424 29.1029 100.411 30.4613 100.265 31.6887C102.174 32.5509 104.238 33.5051 105.454 34.2485L103.995 37.1704C103.035 36.5258 101.344 35.6076 99.7072 34.7743C99.2757 36.1747 98.6492 37.4602 97.8428 38.5608C97.4059 38.277 96.5333 37.8414 95.7236 37.5217L96.4118 40.1862L104.56 38.0818L105.385 41.2731L97.2359 43.3775Z" fill="black"/>
<path d="M117.28 21.4482L118.348 28.439C119.112 33.437 119.82 41.0333 117.824 46.1939C117.117 45.5898 115.451 44.6466 114.629 44.3514C116.318 39.7233 115.523 33.4674 114.837 28.9756L113.295 18.8847L124.936 17.1058C124.664 16.5971 124.392 16.0883 124.13 15.6428L127.948 14.1529C128.381 14.8637 128.864 15.6963 129.27 16.4436L140.341 14.7517L140.815 17.8518L117.28 21.4482ZM136.416 27.1994L133.728 27.6103L132.978 22.7072L129.594 23.2245L129.27 21.1051L132.654 20.5878L132.49 19.5123L135.179 19.1014L135.343 20.177L139.803 19.4954L140.127 21.6148L135.667 22.2964L136.416 27.1994ZM132.162 23.5117L132.336 24.6505C132.457 25.4413 132.536 27.0155 131.506 28.1117C131.09 27.722 130.312 27.2906 129.743 26.9567L129.833 27.3315C129.626 27.4602 129.156 27.5643 128.777 27.6224L128.745 27.6272L128.713 27.632L128.618 27.6465C127.163 27.8689 126.794 27.1484 126.577 25.7249L126.374 24.3963L128.43 24.0821L128.638 25.4423C128.691 25.7903 128.751 25.9752 128.946 25.9779C129.131 25.9172 129.352 25.8834 129.501 25.796C129.581 26.1075 129.634 26.4554 129.719 26.7985C130.301 26.1593 130.246 25.1642 130.198 24.8478L130.043 23.8356L132.162 23.5117ZM140.57 26.2086L139.242 26.4116C137.628 26.6581 137.237 26.0057 137.005 24.4873L136.744 22.7792L138.801 22.465L139.062 24.1731C139.139 24.6793 139.226 24.8278 139.574 24.7746L140.27 24.6682C140.555 24.6247 141.219 24.5232 141.548 24.3435C141.652 24.8132 141.739 25.3826 141.88 25.879C141.614 26.0491 141.045 26.1361 140.57 26.2086ZM137.451 40.5402L141.026 39.9939C141.754 39.8828 141.978 39.6543 141.949 38.6227L140.995 39.157L140.718 38.6166C137.895 39.6307 137.292 39.9172 136.977 40.1918C136.824 39.8267 136.409 39.0161 136.12 38.6071C136.427 38.4955 136.612 38.4348 136.768 38.1844C136.897 37.9704 137.341 37.061 137.485 36.1001L135.461 36.4095L135.988 39.8575C136.108 40.6483 136.313 40.7142 137.451 40.5402ZM124.397 34.7658L124.586 35.9995L129.742 35.2116L129.554 33.9779L124.397 34.7658ZM123.962 31.9189L124.141 33.0893L129.297 32.3014L129.118 31.131L123.962 31.9189ZM137.364 31.0687L137.185 29.8983L132.313 30.6427L132.492 31.8132L137.364 31.0687ZM132.937 34.7234L137.808 33.979L137.62 32.7453L132.748 33.4897L132.937 34.7234ZM139.467 36.5741L140.775 36.0183C141.302 36.7146 141.931 37.6544 142.29 38.3116C143.003 38.5265 143.964 38.671 144.674 38.6595C144.779 41.039 144.053 41.7974 141.776 42.1454L137.347 42.8221C134.089 43.32 133.133 42.7863 132.766 40.3822L132.234 36.9026L130.304 37.1974C129.946 40.7807 128.191 43.2824 122.311 45.4759C121.906 44.7285 120.89 43.5889 120.161 43.0529C124.848 41.5274 126.295 39.9791 126.698 37.7485L121.7 38.5122L120.458 30.3826L125.266 29.6479C125.393 29.2076 125.52 28.7674 125.62 28.3636L123.406 28.702L122.729 24.2734L119.06 24.8341L118.736 22.7147L122.405 22.154L122.241 21.0785L124.867 20.6773L125.031 21.7528L128.637 21.2017L128.961 23.3211L125.355 23.8722L125.964 27.8579L129.538 27.7326C129.321 28.219 129.036 28.6834 128.809 29.1065L140.229 27.3614L141.471 35.4911L138.402 35.9599L139.3 36.1141C139.134 36.7222 138.895 37.2767 138.642 37.7362L139.973 37.3386C139.803 37.0732 139.633 36.8078 139.467 36.5741ZM121.977 25.0682L122.151 26.207C122.286 27.0927 122.258 28.8128 120.463 29.9933C120.048 29.6037 119.192 29.087 118.654 28.7483C120.059 27.9834 120.08 26.8472 120.017 26.436L119.857 25.3921L121.977 25.0682Z" fill="black"/>
<path d="M159.987 14.4805L157.94 17.7241C156.607 16.7021 153.909 15.3007 151.816 14.4773L153.751 11.5598C155.805 12.257 158.593 13.5257 159.987 14.4805ZM158.464 23.0164L156.515 26.287C155.215 25.2954 152.455 23.9291 150.364 23.1378L152.234 20.1915C154.254 20.8583 157.037 22.0312 158.464 23.0164ZM155.611 40.7191L152.254 38.3257C153.857 35.8095 156.087 31.7556 157.785 27.953L160.727 30.3674C159.201 33.7769 157.34 37.5237 155.611 40.7191ZM180.661 38.0741L177.329 39.9729C177.095 39.1516 176.63 38.1819 176.1 37.2154C165.491 39.0338 163.874 39.3719 162.846 39.9686C162.581 39.149 161.846 37.2957 161.312 36.2334C162.035 35.9725 162.609 35.2706 163.286 34.0829C163.817 33.1909 165.209 30.3009 166.327 27.0723L160.319 27.3762L160.138 23.7968L167.712 23.4136L167.484 18.9074L161.188 19.2259L161.006 15.6145L167.302 15.296L167.061 10.5341L170.928 10.3384L171.169 15.1004L177.688 14.7705L177.871 18.3819L171.351 18.7117L171.579 23.218L179.281 22.8283L179.462 26.4078L170.77 26.8475C169.638 29.8205 168.186 32.7776 166.743 35.2858L174.214 34.1388C173.485 33.0222 172.692 31.9089 171.907 30.9553L174.929 29.2645C177.179 31.9382 179.7 35.5274 180.661 38.0741Z" fill="black"/>
<path d="M216.887 27.0215L205.734 26.4572C207.714 31.6519 211.615 35.598 217.765 37.5432C216.798 38.2953 215.563 39.899 214.965 40.9581C209.053 38.7366 205.374 34.8337 202.955 29.4566C200.982 33.6183 197.167 37.4624 189.84 39.7832C189.377 38.7986 188.307 37.1424 187.514 36.3653C195.029 34.1181 198.369 30.1539 199.885 26.1613L189.179 25.6197L189.376 21.7207L200.881 22.3027C200.989 21.4431 201.061 20.6457 201.102 19.8467L201.265 16.6189L190.814 16.0902L191.012 12.1912L216.323 13.4717L216.126 17.3707L205.26 16.821L205.093 20.1128C205.055 20.8798 204.982 21.6771 204.908 22.5065L217.085 23.1225L216.887 27.0215Z" fill="black"/>
<path d="M241.056 39.9197L253.329 41.7952L252.763 45.4962L224.326 41.1506L224.891 37.4495L237.101 39.3154L238.073 32.9572L229.501 31.6473L230.056 28.0095L238.629 29.3195L239.48 23.7521L232.932 22.7515C231.748 24.3511 230.521 25.8145 229.289 26.8887C228.622 26.1716 227.119 24.7767 226.247 24.1255C229.121 21.8454 231.844 17.7943 233.577 13.6566L237.337 15.1052C236.662 16.5559 235.929 17.9653 235.169 19.3383L240.04 20.0827L240.911 14.3888L244.865 14.993L243.995 20.6869L254.655 22.3159L254.094 25.9853L243.434 24.3563L242.583 29.9237L252.041 31.369L251.485 35.0068L242.027 33.5615L241.056 39.9197Z" fill="black"/>
<path d="M263.918 31.0349L292.423 38.3964L291.39 42.3933L262.886 35.0318L263.918 31.0349Z" fill="black"/>
<path d="M311.531 42.1992L306.698 40.4141C307.097 41.5507 307.44 42.8374 307.452 43.7288L305.304 44.0952L308.516 45.2816C309.475 44.4416 310.708 43.2258 311.531 42.1992ZM306.605 53.411L305.895 55.3321C307.864 55.8205 309.893 56.3311 311.892 56.8306L310.81 59.9446C305.403 58.6979 299.598 57.2359 295.48 56.1926L296.227 52.7844C297.964 53.2552 300.131 53.8512 302.472 54.4427L303.303 52.1913L298.8 50.5282L299.865 47.6465L304.367 49.3096L305.11 47.2984L300.037 45.4246L301.102 42.5429L304.344 43.7404C304.226 42.6735 303.856 41.2746 303.476 40.1791L305.317 39.9041L301.565 38.5181L302.652 35.5764L306.734 37.0843L307.255 35.6735L305.325 36.1886C305.282 35.0128 304.756 33.1128 304.194 31.6773L306.877 31.0648C307.244 31.9169 307.635 32.9824 307.898 33.9324L309.085 30.7205L311.876 31.7517L309.526 38.1154L310.906 38.6255L313.257 32.2617L316.109 33.315L314.823 36.7971C315.752 36.2195 316.693 35.6118 317.308 35.0545L319.535 37.6165C317.857 38.4638 316.12 39.2888 314.837 39.8046L314.08 38.8083L313.758 39.6788L317.66 41.1202L316.574 44.0619L312.672 42.6205L314.447 44.0949C313.559 44.927 312.612 45.737 311.728 46.468L314.37 47.4437L313.305 50.3254L308.412 48.5181L307.669 50.5293L312.172 52.1924L311.108 55.0741L306.605 53.411ZM329.535 46.8368L328.305 50.1688L326.023 49.3261L321.189 62.4139C320.513 64.2449 319.82 65.0124 318.499 65.1725C317.226 65.3848 315.591 64.9172 313.261 64.0224C313.424 63.0253 313.449 61.2948 313.313 60.1869C314.822 60.8124 316.322 61.3668 316.803 61.5442C317.313 61.7326 317.549 61.6491 317.737 61.1388L322.571 48.051L316.117 45.6672L317.348 42.3352L323.802 44.7191L326.574 37.2146L330.026 38.4897L327.254 45.9942L329.535 46.8368ZM318.678 56.0966L315.116 56.0431C315.59 54.2055 315.702 51.0401 315.461 48.4608L318.768 48.5568C319.103 51.0682 319.115 54.1768 318.678 56.0966Z" fill="black"/>
<path d="M337.972 78.0633L359.258 53.3663L362.033 54.7567L340.775 79.4681L337.972 78.0633Z" fill="black"/>
</svg>
