<svg width="143" height="79" viewBox="0 0 143 79" fill="none" xmlns="http://www.w3.org/2000/svg">
<path d="M23.936 0.0319996C28.48 0.0319996 32.48 0.991999 35.936 2.912C39.392 4.768 42.08 7.392 44 10.784C45.92 14.176 46.88 18.112 46.88 22.592V46.784C46.88 52.544 45.248 57.344 41.984 61.184C38.784 65.024 34.432 67.392 28.928 68.288C28.672 68.352 28.544 68.512 28.544 68.768V77.504C28.544 78.144 28.224 78.464 27.584 78.464H20.288C19.648 78.464 19.328 78.144 19.328 77.504V68.768C19.328 68.512 19.2 68.352 18.944 68.288C13.44 67.392 9.056 65.024 5.792 61.184C2.592 57.344 0.992 52.544 0.992 46.784V22.592C0.992 18.112 1.952 14.176 3.872 10.784C5.792 7.392 8.48 4.768 11.936 2.912C15.392 0.991999 19.392 0.0319996 23.936 0.0319996ZM37.664 22.112C37.664 17.888 36.384 14.496 33.824 11.936C31.328 9.312 28.032 8 23.936 8C19.84 8 16.512 9.312 13.952 11.936C11.456 14.496 10.208 17.888 10.208 22.112V46.688C10.208 50.912 11.456 54.336 13.952 56.96C16.512 59.52 19.84 60.8 23.936 60.8C28.032 60.8 31.328 59.52 33.824 56.96C36.384 54.336 37.664 50.912 37.664 46.688V22.112ZM78.659 59.552C78.595 59.68 78.595 59.808 78.659 59.936C78.723 60 78.819 60.032 78.947 60.032H107.843C108.483 60.032 108.803 60.352 108.803 60.992V67.04C108.803 67.68 108.483 68 107.843 68H67.619C66.979 68 66.659 67.68 66.659 67.04V61.184C66.659 60.736 66.819 60.352 67.139 60.032C69.315 57.536 74.307 51.68 82.115 42.464L88.739 34.496C94.691 27.392 97.667 21.888 97.667 17.984C97.667 14.976 96.643 12.576 94.595 10.784C92.611 8.928 89.955 8 86.627 8C83.299 8 80.643 8.928 78.659 10.784C76.675 12.64 75.715 15.072 75.779 18.08V20.96C75.779 21.6 75.459 21.92 74.819 21.92H67.427C66.787 21.92 66.467 21.6 66.467 20.96V16.832C66.595 13.504 67.523 10.56 69.251 8C71.043 5.44 73.443 3.488 76.451 2.144C79.459 0.735998 82.851 0.0319996 86.627 0.0319996C90.723 0.0319996 94.307 0.799999 97.379 2.336C100.451 3.872 102.819 5.984 104.483 8.672C106.147 11.36 106.979 14.4 106.979 17.792C106.979 23.104 104.099 29.376 98.339 36.608C95.779 39.872 92.739 43.552 89.219 47.648C85.699 51.68 82.179 55.648 78.659 59.552ZM136.254 68C134.462 68 132.99 67.424 131.838 66.272C130.686 65.12 130.11 63.648 130.11 61.856C130.11 60.064 130.686 58.592 131.838 57.44C132.99 56.288 134.462 55.712 136.254 55.712C138.046 55.712 139.518 56.288 140.67 57.44C141.822 58.592 142.398 60.064 142.398 61.856C142.398 63.648 141.822 65.12 140.67 66.272C139.518 67.424 138.046 68 136.254 68Z" fill="white"/>
</svg>
