<svg width="141" height="79" viewBox="0 0 141 79" fill="none" xmlns="http://www.w3.org/2000/svg">
<path d="M23.936 0.0319996C28.48 0.0319996 32.48 0.991999 35.936 2.912C39.392 4.768 42.08 7.392 44 10.784C45.92 14.176 46.88 18.112 46.88 22.592V46.784C46.88 52.544 45.248 57.344 41.984 61.184C38.784 65.024 34.432 67.392 28.928 68.288C28.672 68.352 28.544 68.512 28.544 68.768V77.504C28.544 78.144 28.224 78.464 27.584 78.464H20.288C19.648 78.464 19.328 78.144 19.328 77.504V68.768C19.328 68.512 19.2 68.352 18.944 68.288C13.44 67.392 9.056 65.024 5.792 61.184C2.592 57.344 0.992 52.544 0.992 46.784V22.592C0.992 18.112 1.952 14.176 3.872 10.784C5.792 7.392 8.48 4.768 11.936 2.912C15.392 0.991999 19.392 0.0319996 23.936 0.0319996ZM37.664 22.112C37.664 17.888 36.384 14.496 33.824 11.936C31.328 9.312 28.032 8 23.936 8C19.84 8 16.512 9.312 13.952 11.936C11.456 14.496 10.208 17.888 10.208 22.112V46.688C10.208 50.912 11.456 54.336 13.952 56.96C16.512 59.52 19.84 60.8 23.936 60.8C28.032 60.8 31.328 59.52 33.824 56.96C36.384 54.336 37.664 50.912 37.664 46.688V22.112ZM104.387 36.128C105.667 39.264 106.307 42.88 106.307 46.976C106.307 50.368 105.795 53.504 104.771 56.384C103.363 60.352 101.027 63.424 97.763 65.6C94.499 67.712 90.563 68.768 85.955 68.768C81.347 68.768 77.347 67.584 73.955 65.216C70.627 62.848 68.291 59.648 66.947 55.616C66.243 53.824 65.827 51.264 65.699 47.936C65.699 47.296 66.019 46.976 66.659 46.976H74.051C74.691 46.976 75.011 47.296 75.011 47.936C75.139 50.24 75.395 51.936 75.779 53.024C76.419 55.392 77.603 57.28 79.331 58.688C81.123 60.096 83.331 60.8 85.955 60.8C90.819 60.8 94.083 58.592 95.747 54.176C96.579 52.256 96.995 49.76 96.995 46.688C96.995 43.424 96.483 40.512 95.459 37.952C93.667 33.984 90.467 32 85.859 32C84.771 32 83.395 32.48 81.731 33.44C81.475 33.568 81.283 33.632 81.155 33.632C80.835 33.632 80.579 33.472 80.387 33.152L76.739 28.16C76.611 27.904 76.547 27.68 76.547 27.488C76.547 27.296 76.643 27.072 76.835 26.816L93.251 9.248C93.443 8.928 93.379 8.768 93.059 8.768H67.523C66.883 8.768 66.563 8.448 66.563 7.808V1.75999C66.563 1.12 66.883 0.799995 67.523 0.799995H104.771C105.411 0.799995 105.731 1.12 105.731 1.75999V8.672C105.731 8.992 105.571 9.376 105.251 9.824L90.659 25.76C90.531 25.888 90.499 26.016 90.563 26.144C90.627 26.208 90.755 26.272 90.947 26.336C94.211 26.656 96.963 27.68 99.203 29.408C101.443 31.072 103.171 33.312 104.387 36.128ZM134.379 68C132.587 68 131.115 67.424 129.963 66.272C128.811 65.12 128.235 63.648 128.235 61.856C128.235 60.064 128.811 58.592 129.963 57.44C131.115 56.288 132.587 55.712 134.379 55.712C136.171 55.712 137.643 56.288 138.795 57.44C139.947 58.592 140.523 60.064 140.523 61.856C140.523 63.648 139.947 65.12 138.795 66.272C137.643 67.424 136.171 68 134.379 68Z" fill="white"/>
</svg>
