<svg width="145" height="79" viewBox="0 0 145 79" fill="none" xmlns="http://www.w3.org/2000/svg">
<path d="M23.936 0.0319996C28.48 0.0319996 32.48 0.991999 35.936 2.912C39.392 4.768 42.08 7.392 44 10.784C45.92 14.176 46.88 18.112 46.88 22.592V46.784C46.88 52.544 45.248 57.344 41.984 61.184C38.784 65.024 34.432 67.392 28.928 68.288C28.672 68.352 28.544 68.512 28.544 68.768V77.504C28.544 78.144 28.224 78.464 27.584 78.464H20.288C19.648 78.464 19.328 78.144 19.328 77.504V68.768C19.328 68.512 19.2 68.352 18.944 68.288C13.44 67.392 9.056 65.024 5.792 61.184C2.592 57.344 0.992 52.544 0.992 46.784V22.592C0.992 18.112 1.952 14.176 3.872 10.784C5.792 7.392 8.48 4.768 11.936 2.912C15.392 0.991999 19.392 0.0319996 23.936 0.0319996ZM37.664 22.112C37.664 17.888 36.384 14.496 33.824 11.936C31.328 9.312 28.032 8 23.936 8C19.84 8 16.512 9.312 13.952 11.936C11.456 14.496 10.208 17.888 10.208 22.112V46.688C10.208 50.912 11.456 54.336 13.952 56.96C16.512 59.52 19.84 60.8 23.936 60.8C28.032 60.8 31.328 59.52 33.824 56.96C36.384 54.336 37.664 50.912 37.664 46.688V22.112ZM109.859 41.696C110.499 41.696 110.819 42.016 110.819 42.656V48.992C110.819 49.632 110.499 49.952 109.859 49.952H105.731C105.475 49.952 105.347 50.08 105.347 50.336V67.04C105.347 67.68 105.027 68 104.387 68H97.091C96.451 68 96.131 67.68 96.131 67.04V50.336C96.131 50.08 96.003 49.952 95.747 49.952H66.563C65.923 49.952 65.603 49.632 65.603 48.992V43.808C65.603 43.488 65.699 43.104 65.891 42.656L84.803 1.472C84.995 1.024 85.347 0.799995 85.859 0.799995H93.539C93.859 0.799995 94.083 0.927996 94.211 1.184C94.403 1.376 94.435 1.632 94.307 1.952L76.259 41.216C76.195 41.344 76.195 41.472 76.259 41.6C76.323 41.664 76.419 41.696 76.547 41.696H95.747C96.003 41.696 96.131 41.568 96.131 41.312V27.008C96.131 26.368 96.451 26.048 97.091 26.048H104.387C105.027 26.048 105.347 26.368 105.347 27.008V41.312C105.347 41.568 105.475 41.696 105.731 41.696H109.859ZM138.785 68C136.993 68 135.521 67.424 134.369 66.272C133.217 65.12 132.641 63.648 132.641 61.856C132.641 60.064 133.217 58.592 134.369 57.44C135.521 56.288 136.993 55.712 138.785 55.712C140.577 55.712 142.049 56.288 143.201 57.44C144.353 58.592 144.929 60.064 144.929 61.856C144.929 63.648 144.353 65.12 143.201 66.272C142.049 67.424 140.577 68 138.785 68Z" fill="white"/>
</svg>
