<svg width="124" height="79" viewBox="0 0 124 79" fill="none" xmlns="http://www.w3.org/2000/svg">
<path d="M23.936 0.0319996C28.48 0.0319996 32.48 0.991999 35.936 2.912C39.392 4.768 42.08 7.392 44 10.784C45.92 14.176 46.88 18.112 46.88 22.592V46.784C46.88 52.544 45.248 57.344 41.984 61.184C38.784 65.024 34.432 67.392 28.928 68.288C28.672 68.352 28.544 68.512 28.544 68.768V77.504C28.544 78.144 28.224 78.464 27.584 78.464H20.288C19.648 78.464 19.328 78.144 19.328 77.504V68.768C19.328 68.512 19.2 68.352 18.944 68.288C13.44 67.392 9.056 65.024 5.792 61.184C2.592 57.344 0.992 52.544 0.992 46.784V22.592C0.992 18.112 1.952 14.176 3.872 10.784C5.792 7.392 8.48 4.768 11.936 2.912C15.392 0.991999 19.392 0.0319996 23.936 0.0319996ZM37.664 22.112C37.664 17.888 36.384 14.496 33.824 11.936C31.328 9.312 28.032 8 23.936 8C19.84 8 16.512 9.312 13.952 11.936C11.456 14.496 10.208 17.888 10.208 22.112V46.688C10.208 50.912 11.456 54.336 13.952 56.96C16.512 59.52 19.84 60.8 23.936 60.8C28.032 60.8 31.328 59.52 33.824 56.96C36.384 54.336 37.664 50.912 37.664 46.688V22.112ZM77.795 1.088C78.179 0.895996 78.595 0.799995 79.043 0.799995H86.627C87.267 0.799995 87.587 1.12 87.587 1.75999V67.04C87.587 67.68 87.267 68 86.627 68H79.331C78.691 68 78.371 67.68 78.371 67.04V10.688C78.371 10.56 78.307 10.464 78.179 10.4C78.115 10.336 78.019 10.336 77.891 10.4L67.811 13.856C67.683 13.92 67.523 13.952 67.331 13.952C66.947 13.952 66.723 13.696 66.659 13.184L66.275 7.712C66.275 7.072 66.467 6.688 66.851 6.56L77.795 1.088ZM117.785 68C115.993 68 114.521 67.424 113.369 66.272C112.217 65.12 111.641 63.648 111.641 61.856C111.641 60.064 112.217 58.592 113.369 57.44C114.521 56.288 115.993 55.712 117.785 55.712C119.577 55.712 121.049 56.288 122.201 57.44C123.353 58.592 123.929 60.064 123.929 61.856C123.929 63.648 123.353 65.12 122.201 66.272C121.049 67.424 119.577 68 117.785 68Z" fill="white"/>
</svg>
