<svg width="141" height="79" viewBox="0 0 141 79" fill="none" xmlns="http://www.w3.org/2000/svg">
<path d="M23.936 0.0319996C28.48 0.0319996 32.48 0.991999 35.936 2.912C39.392 4.768 42.08 7.392 44 10.784C45.92 14.176 46.88 18.112 46.88 22.592V46.784C46.88 52.544 45.248 57.344 41.984 61.184C38.784 65.024 34.432 67.392 28.928 68.288C28.672 68.352 28.544 68.512 28.544 68.768V77.504C28.544 78.144 28.224 78.464 27.584 78.464H20.288C19.648 78.464 19.328 78.144 19.328 77.504V68.768C19.328 68.512 19.2 68.352 18.944 68.288C13.44 67.392 9.056 65.024 5.792 61.184C2.592 57.344 0.992 52.544 0.992 46.784V22.592C0.992 18.112 1.952 14.176 3.872 10.784C5.792 7.392 8.48 4.768 11.936 2.912C15.392 0.991999 19.392 0.0319996 23.936 0.0319996ZM37.664 22.112C37.664 17.888 36.384 14.496 33.824 11.936C31.328 9.312 28.032 8 23.936 8C19.84 8 16.512 9.312 13.952 11.936C11.456 14.496 10.208 17.888 10.208 22.112V46.688C10.208 50.912 11.456 54.336 13.952 56.96C16.512 59.52 19.84 60.8 23.936 60.8C28.032 60.8 31.328 59.52 33.824 56.96C36.384 54.336 37.664 50.912 37.664 46.688V22.112ZM106.403 38.24C107.107 41.056 107.459 43.968 107.459 46.976C107.459 49.984 107.075 52.768 106.307 55.328C105.091 59.424 102.755 62.688 99.299 65.12C95.907 67.488 91.843 68.672 87.107 68.672C82.435 68.672 78.435 67.52 75.107 65.216C71.779 62.912 69.443 59.776 68.099 55.808C67.459 54.016 67.107 52.448 67.043 51.104V50.912C67.043 50.4 67.331 50.144 67.907 50.144H75.491C76.067 50.144 76.387 50.432 76.451 51.008C76.515 51.456 76.675 52.128 76.931 53.024C77.635 55.392 78.851 57.28 80.579 58.688C82.371 60.032 84.515 60.704 87.011 60.704C89.635 60.704 91.843 60 93.635 58.592C95.491 57.12 96.739 55.104 97.379 52.544C97.827 51.2 98.051 49.344 98.051 46.976C98.051 44.864 97.859 42.912 97.475 41.12C97.027 38.688 95.875 36.832 94.019 35.552C92.227 34.208 89.987 33.536 87.299 33.536C84.803 33.536 82.563 34.112 80.579 35.264C78.595 36.352 77.315 37.824 76.739 39.68C76.547 40.256 76.195 40.544 75.683 40.544H68.003C67.363 40.544 67.043 40.224 67.043 39.584V1.75999C67.043 1.12 67.363 0.799995 68.003 0.799995H103.907C104.547 0.799995 104.867 1.12 104.867 1.75999V7.808C104.867 8.448 104.547 8.768 103.907 8.768H76.643C76.387 8.768 76.259 8.896 76.259 9.152L76.163 29.216C76.163 29.6 76.323 29.696 76.643 29.504C78.179 28.16 79.939 27.168 81.923 26.528C83.971 25.824 86.115 25.472 88.355 25.472C92.835 25.472 96.675 26.592 99.875 28.832C103.139 31.072 105.315 34.208 106.403 38.24ZM134.285 68C132.493 68 131.021 67.424 129.869 66.272C128.717 65.12 128.141 63.648 128.141 61.856C128.141 60.064 128.717 58.592 129.869 57.44C131.021 56.288 132.493 55.712 134.285 55.712C136.077 55.712 137.549 56.288 138.701 57.44C139.853 58.592 140.429 60.064 140.429 61.856C140.429 63.648 139.853 65.12 138.701 66.272C137.549 67.424 136.077 68 134.285 68Z" fill="white"/>
</svg>
