<svg width="392" height="121" viewBox="0 0 392 121" fill="none" xmlns="http://www.w3.org/2000/svg">
<path d="M363 114L390 87" stroke="white" stroke-width="4" stroke-linecap="round"/>
<path d="M2 87L29 114" stroke="white" stroke-width="4" stroke-linecap="round"/>
<path d="M70.623 61.6602L99.6099 51.4879L101.178 55.9568L72.1912 66.1291L70.623 61.6602ZM67.6561 53.2057L96.643 43.0334L98.1477 47.3211L69.1607 57.4934L67.6561 53.2057ZM100.146 89.3506L98.1959 83.7948L115.045 77.8821L113.498 73.4737L96.6489 79.3863L94.9747 74.6156L114.42 67.7916L112.767 63.0813L93.3217 69.9052L91.7958 65.5571L85.9984 67.5916L87.5243 71.9396L76.9561 75.6483C77.2538 73.9838 77.6118 72.2982 77.7887 70.6761L72.5909 70.9401L108.523 58.3307L100.893 36.5905L60.6136 50.7258L68.2428 72.466L71.685 71.258C71.1492 77.0757 68.88 83.3659 65.7156 88.0712C67.3588 88.3084 70.2682 89.2544 71.6943 89.8392C73.0334 87.4701 74.2633 84.5968 75.3481 81.503L89.1773 76.65L90.8515 81.4208L74.6671 87.1003L76.2141 91.5087L92.3985 85.8292L94.3482 91.385L70.9775 99.5864L72.6728 104.418L125.091 86.0227L123.396 81.1916L100.146 89.3506Z" fill="white"/>
<path d="M139.284 37.6669L186.599 32.3213L185.981 26.8521L165.376 29.18C164.114 27.1327 162.357 24.6906 160.53 22.7715L155.142 25.2481C156.325 26.5958 157.614 28.3179 158.635 29.9416L132.879 32.8515L134.833 50.1494C135.875 59.3708 136.881 72.2673 133.075 81.9075C134.483 82.3926 137.213 83.7587 138.417 84.7177C142.596 74.3912 141.741 59.4165 140.62 49.4956L139.284 37.6669ZM148.879 39.932C148.589 47.6292 146.495 54.1777 141.909 58.6246C143.197 59.1876 145.68 60.6461 146.671 61.4358C148.963 58.9226 150.753 55.9509 151.977 52.5279C154.659 54.6079 157.307 56.9495 158.843 58.5793L161.832 54.2484C160.019 52.4565 156.488 49.6996 153.409 47.5355C153.907 45.0963 154.206 42.615 154.349 39.8937L148.879 39.932ZM169.403 66.5321L186.765 64.5706L186.183 59.4194L168.821 61.3809L168.146 55.4029C169.455 56.1567 171.125 57.2562 171.91 57.9403C174.104 55.6958 175.852 52.9221 177.175 49.8099C180.6 52.1924 184.188 54.8786 186.206 56.7761L189.202 52.5088C186.852 50.52 182.528 47.5949 178.763 45.0575C179.388 42.6039 179.8 39.981 179.993 37.1254L174.572 37.0293C174.266 44.0198 172.178 50.0523 168.023 54.3218L166.062 36.9602L160.402 37.5997L163.161 62.0203L146.308 63.9243L146.89 69.0755L163.743 67.1715L164.655 75.2482L143.733 77.612L144.307 82.6996L192.004 77.311L191.429 72.2234L170.315 74.6087L169.403 66.5321Z" fill="white"/>
<path d="M235.196 53.7833L243.018 54.667L241.419 55.7101C242.64 56.2989 243.911 57.0222 245.111 57.8018L234.858 56.7722L235.196 53.7833ZM216.47 47.9321L216.844 44.6251L230.199 46.1339L229.825 49.4409L216.47 47.9321ZM217.612 37.8204L230.968 39.3292L230.608 42.509L217.253 41.0002L217.612 37.8204ZM250.555 41.5422L250.196 44.7219L236.395 43.1628L236.755 39.983L250.555 41.5422ZM249.413 51.6538L235.612 50.0947L235.986 46.7878L249.786 48.3469L249.413 51.6538ZM259.937 66.8192L245.246 65.1595L245.634 61.7253L251.181 62.2232C252.36 63.1936 253.418 64.0861 254.222 64.9498L258.079 62.1652C255.991 60.1259 252.49 57.4762 248.869 55.328L254.783 55.9962L256.773 38.3802L237.186 36.1673L237.523 33.1783L260.99 35.8295L261.507 31.2507L238.041 28.5995L238.544 24.1478L232.757 23.494L232.254 27.9456L208.405 25.2513L207.888 29.8302L231.736 32.5245L231.399 35.5135L212.447 33.3724L210.457 50.9884L229.408 53.1294L229.071 56.1184C220.224 55.1833 212.076 54.3273 205.971 53.6375L205.659 58.1108C214.704 59.0038 227.07 60.1433 239.825 61.2623L239.459 64.5056L202.637 60.3456L202.098 65.1153L215.008 66.5738L211.866 68.7307C215.225 71.4933 219.154 75.4796 220.917 78.1261L225.672 74.799C224.058 72.5556 220.813 69.355 217.806 66.8899L238.92 69.2753L238.058 76.9067C237.972 77.6699 237.688 77.8955 236.664 77.8442C235.703 77.8 232.078 77.3905 228.594 76.8681C229.199 78.3534 229.775 80.6727 229.864 82.1641C234.761 82.7173 238.131 83.0981 240.38 82.5793C242.762 82.0112 243.507 80.5496 243.823 77.7514L244.707 69.9291L259.398 71.5888L259.937 66.8192Z" fill="white"/>
<path d="M289.989 52.6754L294.337 54.2012L296.032 49.3701L291.684 47.8442L295.965 35.6455L291.496 34.0773L287.215 46.276L282.082 44.4746L280.387 49.3058L285.52 51.1071L285.117 52.2545C281.04 59.2342 275.231 66.8951 270.598 70.6274C270.935 72.3735 271.274 75.2733 271.185 77.0733C273.914 74.7076 277.01 70.9106 280.052 66.6876L272.084 89.3941L276.553 90.9623L286.725 61.9754C286.886 64.6092 286.884 67.3215 286.755 69.04L291.068 66.4158C290.915 64.531 289.9 56.9853 289.395 54.3663L289.989 52.6754ZM312.026 47.861L310.818 51.3032L303.571 48.7601L304.779 45.3179L312.026 47.861ZM301.028 56.0069L302.279 52.4439L309.525 54.987L308.275 58.5499L301.028 56.0069ZM311.245 64.0011L317.751 45.4615L301.567 39.782L282.833 93.1663L287.423 94.7769L299.651 59.9322L311.245 64.0011ZM310.393 83.4394C311.417 82.6458 312.711 81.472 314.044 80.3797L312.149 78.6294C311.508 79.4897 310.044 81.1466 309.056 82.2241L310.393 83.4394ZM302.313 75.9241C302.472 77.4042 302.465 79.1651 302.304 80.3972L304.714 80.2935C304.73 79.2817 304.638 77.4181 304.518 76.0196L302.313 75.9241ZM302.037 74.1993L307.17 76.0006L305.03 82.0999L299.897 80.2986L302.037 74.1993ZM313.182 84.9609L307.808 83.0748L309.948 76.9754L315.323 78.8616L313.182 84.9609ZM313.938 94.7897C312.514 92.6622 309.82 88.9359 307.536 86.1674L315.508 88.9648L319.64 77.1888L311.608 74.3703L312.393 72.1358L321.934 75.4842L323.057 72.2836L313.516 68.9352L314.554 65.9761L310.629 64.5986L309.59 67.5577L300.17 64.2517L299.046 67.4524L308.467 70.7583L307.683 72.9928L299.832 70.2378L295.7 82.0137L302.343 84.3449C299.055 86.1755 294.599 87.6639 291.032 87.972C291.584 88.9118 292.346 90.6038 292.632 91.7216C295.596 91.2015 299.221 89.7608 302.325 88.0689L299.4 96.4027L303.265 97.759L305.978 90.0291C307.761 92.4861 309.583 95.0247 310.648 96.8227L313.938 94.7897ZM320.111 62.7036L321.362 59.1406L328.85 61.7685L327.6 65.3315L320.111 62.7036ZM331.351 54.6425L330.143 58.0847L322.654 55.4569L323.862 52.0147L331.351 54.6425ZM337.378 52.349L320.892 46.5635L314.386 65.1031L326.222 69.2568L315.732 99.1496C315.52 99.7535 315.275 99.8711 314.671 99.6591C314.249 99.5108 312.959 99.1261 311.41 98.5148C311.572 99.7925 311.58 101.898 311.358 103.109C313.895 103.999 315.749 104.514 317.271 104.234C318.815 103.894 319.619 102.955 320.382 100.781L337.378 52.349Z" fill="white"/>
</svg>
