<svg width="491" height="122" viewBox="0 0 491 122" fill="none" xmlns="http://www.w3.org/2000/svg">
<path d="M40.7594 111.316L8.70683 71.7185L13.108 69.6809L45.1606 109.279L40.7594 111.316Z" fill="white"/>
<path d="M59.8792 48.1194L65.7926 47.9899C65.6522 51.674 65.243 55.5006 64.5335 59.2166L75.4285 91.8457L70.0219 93.651L61.9298 69.4163C61.3615 71.1875 60.6983 72.8322 60.035 74.3188C59.0382 73.0702 56.4438 70.5101 55.0361 69.4515C57.8792 63.7579 59.7566 55.6457 59.8792 48.1194ZM75.6366 66.1046L81.5181 65.4059C82.1539 71.8883 81.7305 78.6716 80.3573 83.3999C78.9656 82.863 76.1192 82.232 74.5064 81.9799C76.1011 77.7574 76.3036 71.7332 75.6366 66.1046ZM92.8954 52.1185L86.5403 54.2405L94.6483 78.5226C95.5509 81.2259 95.5992 82.9493 94.2086 84.4679C92.8496 85.9233 90.6523 86.9205 87.6171 87.934C86.8257 86.3533 85.1327 84.1247 83.7723 82.8922C85.78 82.2745 87.7719 81.6094 88.4359 81.3877C89.0524 81.1818 89.2262 80.9129 89.0203 80.2964L80.9441 56.1091L75.4427 57.9461C75.0332 61.1402 74.3074 64.1763 73.4075 66.6908C72.079 66.0274 69.1849 64.9379 67.6194 64.5118C69.8777 59.2771 70.538 51.7822 69.9809 44.7464L75.8941 44.1425C76.0852 46.7671 76.1023 49.3443 76.0246 51.9533L92.3391 46.5057L93.1769 46.0151L97.4141 45.4438C98.1276 49.4753 98.7941 54.1551 99.0486 57.1275L93.9894 57.9207C93.7356 56.3713 93.3551 54.2844 92.8954 52.1185ZM91.1298 62.3019L95.5869 58.916C99.6841 62.9774 103.83 68.6041 105.919 72.6508L101.13 76.3057C99.1987 72.259 95.0373 66.4267 91.1298 62.3019Z" fill="white"/>
<path d="M128.782 56.7787L123.262 57.9832C122.842 58.6378 122.373 59.3031 121.904 59.9684C123.507 60.7446 125.19 61.6567 126.597 62.4756C127.547 60.733 128.308 58.8269 128.782 56.7787ZM122.999 38.9518L116.648 40.3376L116.201 41.1006C117.82 41.7196 119.618 42.4532 121.063 43.2126C121.843 41.8652 122.505 40.4414 122.999 38.9518ZM130.208 51.35L131.131 50.8925L134.979 51.6394C134.264 64.0777 127.73 72.3612 118.462 77.966C117.588 76.7749 115.853 75.1576 114.593 74.3067C118.12 72.4112 121.264 69.934 123.722 66.89C122.38 65.9033 120.546 64.7682 118.755 63.8286C118.052 64.596 117.301 65.3741 116.49 66.114C115.599 65.0801 113.614 63.7221 112.379 63.2239C116.623 59.6879 119.328 55.6687 120.872 51.9542C118.945 53.9101 116.866 55.643 114.588 57.1637C113.638 56.0916 111.914 54.5231 110.675 53.77C113.479 52.0832 116.129 49.9186 118.232 47.3614C116.982 46.5594 115.369 45.7343 113.669 44.9794C113.152 45.6553 112.634 46.3313 112.056 46.969C111.1 46.1031 109.136 44.8428 107.814 44.4147C111.849 40.1566 114.135 35.1542 115.154 31.1448L120.388 30.975C119.998 32.2372 119.581 33.6077 119.104 34.94L124.624 33.7354L125.558 33.3268L129.33 34.1927C128.716 40.0584 126.43 45.0608 123.187 49.1972L127.158 49.0985C126.823 50.1439 126.488 51.1893 126.104 52.2454L130.208 51.35ZM142.693 46.8855L139.469 47.5891L141.377 56.3333L144.601 55.6298L142.693 46.8855ZM152.252 30.419L152.828 33.0569C157.453 55.8959 158.904 63.7164 157.814 66.4618C157.123 68.455 156.068 69.2482 154.471 69.9037C152.972 70.5379 150.627 71.0496 148.261 71.4636C147.822 69.9217 146.616 67.6772 145.347 66.3165C147.636 66.0216 149.59 65.5952 150.616 65.3713C151.408 65.2496 151.795 64.9095 152.123 64.0701C152.9 62.4678 151.668 55.4182 147.89 36.6933L136.459 39.1877C135.997 40.8238 135.503 42.3133 134.901 43.7753L146.332 41.2809L150.233 59.1602L142.368 60.8764L143.104 64.2471L138.463 65.2598L134.156 45.5242C133.779 46.3742 133.353 47.2349 132.905 47.9978C131.764 47.2234 129.122 45.9063 127.709 45.2934C130.699 40.7005 132.552 33.9501 132.897 27.3242L138.559 27.4706C138.399 29.5525 138.12 31.5581 137.792 33.5743L152.252 30.419Z" fill="white"/>
<path d="M202.735 20.2445L207.883 23.2097C203.835 28.5746 198.09 34.5249 192.272 38.8737L194.342 58.0624C194.706 61.4428 194.082 63.1194 191.743 64.2769C189.354 65.4397 185.84 65.9695 181.063 66.4344C180.577 64.7266 179.149 62.2152 178.033 60.7263C181.579 60.4948 185.65 60.0055 186.744 59.8876C187.837 59.7696 188.203 59.4285 188.112 58.5834L185.737 36.561C189.394 34.1047 193.327 30.4621 196.291 27.1753L167.608 30.2685L166.98 24.4522L201.48 20.7318L202.735 20.2445Z" fill="white"/>
<path d="M244.608 32.55V45.2C246.258 42.6 247.458 39 248.058 35.45C247.708 35.6 247.358 35.8 247.008 35.95C246.558 34.95 245.558 33.55 244.608 32.55ZM236.908 44.9H239.758V40.75H236.908V44.9ZM230.158 40.75V41.6C230.158 42.65 230.158 43.75 230.108 44.9H232.958V40.75H230.158ZM235.408 24.8H231.408C230.858 26.05 230.308 27.3 229.708 28.45H234.008C234.508 27.35 234.958 26.05 235.408 24.8ZM236.908 32.8V36.55H239.758V32.8H236.908ZM230.158 32.8V36.55H232.958V32.8H230.158ZM268.808 48.8V53.9H260.308V62.15H254.658V53.9H245.408V48.8H254.658V44.3H250.508C249.908 45.75 249.258 47.05 248.508 48.15C247.658 47.55 245.858 46.6 244.608 46.05V56.6C244.608 58.95 244.208 60.45 242.708 61.3C241.158 62.15 239.108 62.3 236.058 62.3C235.908 60.85 235.108 58.6 234.358 57.25C236.358 57.35 238.308 57.35 238.908 57.35C239.508 57.35 239.758 57.15 239.758 56.5V49.3H229.808C229.308 54 228.158 58.85 225.858 62.45C225.008 61.65 222.858 60.3 221.758 59.8C225.108 54.65 225.358 47.2 225.358 41.6V34.2C224.358 33.2 222.508 31.7 221.458 31C224.858 27.35 227.508 21.5 228.858 15.65L234.108 16.75C233.808 17.95 233.458 19.15 233.058 20.3H237.608L238.358 20.05L241.758 22.15C241.058 24.1 240.058 26.4 239.008 28.45H244.608V31.5C248.758 29.6 250.258 26.7 250.958 23.05H245.358V18.2H267.558C267.558 18.2 267.508 19.45 267.458 20.1C267.208 28.05 266.758 31.5 265.708 32.8C264.858 33.85 263.908 34.25 262.658 34.45C261.558 34.6 259.608 34.65 257.608 34.6C257.508 33.05 257.008 31.05 256.258 29.8C257.808 29.95 259.158 30 259.858 30C260.458 30 260.858 29.9 261.208 29.45C261.658 28.9 261.908 27.2 262.108 23.05H256.308C255.458 28.25 253.558 32.4 248.458 35.2L252.908 36.1C252.708 37.15 252.508 38.25 252.208 39.3H254.658V34.8H260.308V39.3H267.808V44.3H260.308V48.8H268.808Z" fill="white"/>
<path d="M288.202 55.9745L311.815 58.5209L312.373 53.3508L288.76 50.8045L288.202 55.9745ZM313.515 42.7622L289.902 40.2159L289.35 45.3362L312.963 47.8825L313.515 42.7622ZM314.657 32.1736L291.044 29.6272L290.491 34.7476L314.104 37.2939L314.657 32.1736ZM304.53 25.3485L321.581 27.1873L317.276 67.1059L310.963 66.425L311.226 63.9892L287.613 61.4428L287.345 63.9284L281.329 63.2797L285.64 23.3114L298.366 24.6838C299.143 22.6052 299.947 20.278 300.41 18.3163L307.483 19.8836C306.523 21.7917 305.518 23.6447 304.53 25.3485Z" fill="white"/>
<path d="M348.346 66.0449L363.979 69.456C368.864 70.522 369.814 69.45 371.984 62.5541C373.355 63.7745 375.77 65.376 377.415 66.0422C374.305 75.1381 371.601 77.2093 362.857 75.3012L347.029 71.8475C337.894 69.8541 335.298 67.4452 336.822 60.4596L340.66 42.8734L368.505 48.9495L370.615 39.2771L342.184 33.0731L343.485 27.1134L378.12 34.6711L372.854 58.8032L366.65 57.4495L367.257 54.665L345.47 49.9107L342.901 61.6837C342.336 64.2728 343.119 64.9043 348.346 66.0449Z" fill="white"/>
<path d="M403.341 49.1645L399.737 47.961L394.179 64.6075L397.783 65.811L403.341 49.1645ZM401.068 72.7065L392.437 69.8244L391.138 73.7133L386.158 72.0505L396.499 41.0813L410.11 45.6262L401.068 72.7065ZM399.022 84.8328L395.64 81.5422C398.329 79.4882 400.829 75.6315 402.571 71.9957L406.348 74.5749C404.433 78.4161 401.948 82.6997 399.022 84.8328ZM407.471 74.6862L411.328 75.289C411.058 78.6251 410.155 82.7514 409.189 85.3281L405.094 84.6461C406.155 82.1011 407.105 77.9906 407.471 74.6862ZM412.814 76.0487L416.498 76.2246C416.766 79.213 416.574 82.9444 416.13 85.221L412.146 85.1557C412.716 82.816 412.987 79.0055 412.814 76.0487ZM422.186 84.4494L418.502 84.5898C418.74 82.6135 418.615 79.5144 418.205 77.1109L421.542 77.0652C422.11 79.4688 422.298 82.5363 422.186 84.4494ZM412.472 65.0754L411.522 67.921L416.597 69.6154L417.547 66.7699L412.472 65.0754ZM422.297 52.5421L417.223 50.8476L416.32 53.5509L421.395 55.2454L422.297 52.5421ZM419.004 62.4067L419.922 59.656L414.847 57.9615L413.929 60.7123L419.004 62.4067ZM421.813 71.3574L432.057 74.7779C432.057 74.7779 431.551 76.1374 431.282 76.7856C427.292 87.3139 425.282 91.4396 423.589 92.5614C422.308 93.3987 421.233 93.4614 419.936 93.2394C418.735 93.049 416.917 92.4947 414.941 91.7822C415.4 90.2487 415.543 88.0826 415.212 86.5487C416.73 87.2136 418.01 87.6412 418.722 87.8787C419.338 88.0846 419.797 88.1322 420.334 87.7847C421.204 87.2317 422.55 84.6235 425.225 77.7153L404.642 70.8426L413.542 44.1892L438.109 52.3921L436.478 57.277L427.514 54.284L426.612 56.9873L434.247 59.5369L432.774 63.9475L425.139 61.3979L424.22 64.1486L431.856 66.6982L430.399 71.0614L422.764 68.5118L421.813 71.3574Z" fill="white"/>
<path d="M445.012 109.027L477.064 69.4291L481.465 71.4668L449.458 111.086L445.012 109.027Z" fill="white"/>
</svg>
