<svg width="369" height="87" fill="none" xmlns="http://www.w3.org/2000/svg"><path d="M27.108 79.716 5.822 55.019l2.775-1.39 21.286 24.696-2.775 1.39Zm19.333-35.208-1.47.543c.567 2.553.052 4.483-3.13 6.58-.432-.523-1.47-1.3-2.187-1.58 2.355-1.382 2.877-2.462 2.645-4.013l-3.002 1.108-.909-2.461 5.013-1.852-.543-1.47-3.993 1.474-.887-2.401 3.993-1.475-.588-1.59 3.152-1.165.588 1.59 4.022-1.485.887 2.401-4.022 1.486.543 1.471 4.833-1.785.909 2.462-3.332 1.23.321.87c.211.571.349.759.739.615l1.2-.444c.36-.133 1.1-.44 1.416-.693.293.608.611 1.378.934 1.975-.316.253-.965.527-1.535.737l-1.771.655c-2.072.765-2.795.008-3.504-1.913l-.322-.87Zm3.084 21.648-3.86-.109c.888-1.659 1.504-4.24 1.541-6.54l3.785-.374c.003 2.319-.546 5.08-1.466 7.023Zm3.251-7.546 3.21-1.56c1.023 1.566 2.132 3.647 2.65 4.956l-3.406 1.77c-.499-1.35-1.51-3.536-2.454-5.166Zm5.993-2.247 3.173-1.752c1.29 1.366 2.778 3.272 3.528 4.564l-3.317 2.01c-.69-1.315-2.122-3.344-3.384-4.822Zm5.951-2.267 3.045-2.284c1.912 1.204 4.386 2.916 5.755 4.22l-3.271 2.504c-1.174-1.238-3.584-3.145-5.529-4.44Zm-4.716-15.724-1.711.632c.53 1.715.946 3.3 1.268 4.82 1.021.27 1.971.534 2.738.762l-2.295-6.214Zm7.478 9.348.36-.133c.12-.044.23-.119.275-.272.046-.153.017-.415-.164-.997-.15-.592-.575-1.834-1.14-3.365.747.27 1.784.398 2.634.391.525 1.512 1.092 3.418 1.178 4.205.105.745-.018 1.337-.286 1.81-.268.475-.854.828-1.425 1.039l-1.35.499c-.69.255-1.489.31-2.188-.011-.65-.374-1.081-.897-1.902-3.118l-.831-2.251-.314 2.844c-.606-.253-1.425-.53-2.325-.846.158 2.738-.33 5.204-1.603 7.483-.437-.35-1.139-.774-1.849-1.126l.023.06c-4.476 2.2-9.131 4.465-12.51 6.122l-1.316-2.823c1.408-.622 3.183-1.449 5.11-2.33l-.677-1.832-4.413 1.63-.92-2.491 4.413-1.63-.6-1.621 3.153-1.164.598 1.62 4.083-1.507.92 2.491-4.082 1.508.587 1.591 4.648-2.194.355.96c.743-1.775.864-3.662.676-5.742a43.979 43.979 0 0 0-3.003-.835l.473-3.245 1.847.478c-.23-.904-.462-1.808-.776-2.75l-2.522.932-1.164-3.152 2.612-.965c-.425-1.241-.86-2.513-1.37-3.894l3.211-1.186c.47 1.361.935 2.622 1.37 3.894l4.773-1.763 4.613 12.488c.244.66.388 1.05.492 1.148.105.098.206.095.326.05Zm18.085-19.837 1.714-1.17c-1.742.55-3.445 1.121-5.195 1.64.82.614 1.61 1.369 2.002 1.994l-1.157.894 4.523-1.168c-.448-.71-1.191-1.543-1.887-2.19Zm3.25 1.838 4.772-1.233c.394-1.291.892-3.072 1.122-4.487a175.88 175.88 0 0 1-6.215 2.3c.836.676 1.658 1.554 2.005 2.258l-1.683 1.162Zm-8.876 5.3.736 2.85-3.501.904-1.464-5.67 5.112-1.32c-.494-.633-1.198-1.31-1.861-1.833l1.404-1.09-3.787 1.078c-.262-.759-.915-1.88-1.401-2.48 7.55-2.116 16.415-5.033 21.232-7.368l3.08 1.816c-1.144.56-2.413 1.151-3.767 1.666l2.99.187a80.996 80.996 0 0 1-1.5 3.791l4.988-1.288 1.577 6.104-2.944.76c1.037.558 1.919 1.157 2.528 1.727l-2.121 2.663c-1.275-1.224-3.856-2.772-6.02-3.733l2.022-2.407c.848.343 1.791.794 2.703 1.252l-.672-2.602-8.397 2.168c.949.218 1.79.53 2.428.827l-1.3 2.517c-1.176-.588-3.362-1.246-5.119-1.52l.49-.92-7.436 1.92Zm1.325.781 3.101.488c-.226 1.942-.729 4.088-2.043 5.783l-3.084-1.319c1.154-1.29 1.846-3.22 2.026-4.952Zm6.79 8.757-.054.047c1.688.522 3.514.81 5.51.99 1.35-1.044 2.46-2.123 3.312-3.302l-8.768 2.265Zm11.31-5.863 2.715.919c-.805 2.256-2.11 4.246-3.857 6.052a72.466 72.466 0 0 0 9.808-1.31c-.528 1.029-1.026 2.81-1.196 3.944-4.681.813-8.971 1.094-12.846.806-3.36 2.223-7.381 4.055-11.638 5.617-.526-.757-1.777-2.02-2.65-2.588 3.452-1.09 6.655-2.38 9.454-3.83a22.31 22.31 0 0 1-3.65-1.205c-.932.868-1.95 1.66-2.892 2.366-.757-.498-2.285-1.426-3.165-1.76a26.9 26.9 0 0 0 3.05-2.143c-.866-.536-1.709-1.112-2.514-1.797l2.609-1.93c.71.577 1.506 1.1 2.348 1.543 1.016-1.056 1.916-2.18 2.551-3.303-1.467-.05-2.063-.822-2.527-2.62l-.552-2.137 3.377-.872.552 2.137c.184.713.417.719 1.47.447l3.254-.84c.743-.192.912-.434.685-1.697.786.226 2.152.27 3.06.2.275 2.475-.394 3.341-2.717 3.941l-2.85.737.201.014c-.252.56-.504 1.121-.825 1.667l8.148-2.105.596-.253Zm22.5 1.539 15.026-2.296-.503-3.29-15.025 2.296.502 3.29ZM135.36 27.91l-15.026 2.296.498 3.258 15.026-2.296-.498-3.258Zm-1.03-6.738-15.025 2.297.497 3.258 15.026-2.296-.498-3.259Zm-7.384-2.562 10.85-1.658 3.882 25.402-4.017.613-.237-1.55-15.026 2.297.242 1.581-3.828.585-3.886-25.433 8.098-1.237c.14-1.414.256-2.985.221-4.275l4.632-.19a67.44 67.44 0 0 1-.931 3.865Zm35.588 17.722 10.227-.518c3.196-.161 3.603-.983 3.786-5.606 1.052.523 2.811 1.107 3.94 1.243-.395 6.14-1.717 7.872-7.438 8.162l-10.354.523c-5.977.303-7.984-.75-8.216-5.32l-.582-11.505 18.217-.921-.32-6.328-18.6.941-.198-3.899 22.66-1.146.798 15.787-4.059.206-.092-1.822-14.254.721.39 7.702c.086 1.694.676 1.953 4.095 1.78Zm42.291-10.273-.057 1.118 4.028.172c-.437-.214-.873-.46-1.281-.642l.665-.479-3.355-.17Zm-9.246-2.807 5.656.286.062-1.214-5.657-.286-.061 1.214Zm.231-4.57-.06 1.182 5.657.287.06-1.183-5.657-.286Zm15.308.774-5.944-.3-.06 1.182 5.944.3.06-1.182Zm-6.175 4.27 5.944.3.061-1.214-5.944-.3-.061 1.214Zm12.391 7.772-.152 3.004-7.127-.36-.157 3.1c-.089 1.757-.454 2.636-1.79 3.08-1.303.416-3.094.357-5.523.234-.108-1.03-.519-2.397-.918-3.379 1.531.142 3.352.234 3.864.26.513-.006.677-.094.698-.51l.151-2.972-9.013-.456c1.294 1.027 2.58 2.214 3.271 3.114l-2.935 2.286c-.864-1.293-2.913-3.223-4.579-4.493l1.399-1.05-6.392-.324.152-3.004 18.249.923.059-1.182c-6.302-.19-12.347-.4-16.823-.595l.041-2.721c3.003.184 6.936.35 11.25.569l.058-1.15-9.204-.466.466-9.205 9.204.466.058-1.15-11.729-.594.146-2.876 11.729.593.102-2.013 3.707.187-.102 2.014 11.665.59-.145 2.876-11.666-.59-.058 1.15 9.652.489-.466 9.204-2.141-.108c1.556.912 3.009 1.946 3.993 2.765l-2.431 1.831c-.368-.338-.796-.745-1.289-1.122l-2.336-.054-.065 1.278 7.127.36Zm33.78-5.709.222-1.455-5.757-.88-.223 1.455 5.758.88Zm-.595 3.89.222-1.454-5.757-.88-.222 1.455 5.757.88Zm-.599 3.923.232-1.518-5.758-.88-.232 1.518 5.758.88Zm-7.276-13.186 4.049.619c.272-.51.522-1.086.799-1.627l-5.568-.85.402-2.626 14.487 2.214-.401 2.626-5.536-.846-1.02 1.592 5.378.822-2.195 14.361-12.59-1.924 2.195-14.361Zm4.584 16.821 2.801-.964c1.508 1.364 3.213 3.34 4.01 4.692l-2.931 1.17c-.792-1.383-2.468-3.549-3.88-4.898Zm-4.25-1.847 2.918 1.45c-1.631 1.563-4.12 3.028-6.241 3.772-.446-.683-1.484-1.942-2.071-2.55 1.997-.569 4.084-1.512 5.394-2.672Zm-5.992-16.292.227-1.487-4.523-.691-.227 1.487 4.523.691Zm-.599 3.922.237-1.55-4.524-.69-.237 1.55 4.524.69Zm4.688-7.376-1.595 10.439-11.357-1.735 1.596-10.44 11.356 1.736Zm-6.863 19.701-.57 3.733c1.811.86 4.1 1.339 6.916 1.77 2.151.328 10.786 1.648 13.4 1.917-.618.65-1.346 2.028-1.676 2.917l-12.179-1.861c-5.947-.91-9.777-2.11-11.781-5.944-.733 1.83-1.685 3.4-2.959 4.533-.353-.863-1.119-2.21-1.791-2.896 2.105-1.912 2.992-5.596 3.667-9.378l3.005.46a62.36 62.36 0 0 1-.717 3.418c.288 1.08.701 1.985 1.232 2.746l1.102-7.212-5.852-.895.415-2.72 14.172 2.166-.416 2.72-5.156-.788-.396 2.594 4.555.696-.416 2.72-4.555-.696Zm41.879-8.702-.753 2.913-10.565-2.729.752-2.912 5.205 1.344c-.261-1.29-.861-3.065-1.393-4.458l3.15-.806c.702 1.503 1.408 3.503 1.709 4.77l-2.412.766 4.307 1.112Zm-2.135 4.043-.72 2.788-8.366-2.16.72-2.789 8.366 2.16Zm-10.158 4.78.72-2.789 8.366 2.16-.72 2.79-8.366-2.161Zm4.65 5.927-3.13-.809-.896 3.47 3.13.809.896-3.47Zm3.548-2.224-2.424 9.388-5.918-1.528-.336 1.301-2.727-.704 2.761-10.69 8.644 2.233Zm10.666-7.26-.352 1.364 3.285.848.352-1.363-3.285-.848Zm.945-3.655-.312 1.208 3.284.848.312-1.208-3.284-.848Zm2.896 12.844-2.479-.64-.368 1.425 2.479.64.368-1.425Zm-3.831 4.596 2.479.64.4-1.549-2.479-.64-.4 1.55Zm-5.332-3.03-.4 1.55 2.355.608.4-1.55-2.355-.607Zm3.307-3.078-2.355-.608-.368 1.425 2.355.608.368-1.425Zm11.835-.91-7.498-1.936-.296 1.146 6.011 1.553-2.016 7.807 1.487.384-.664 2.572-1.487-.384-.424 1.642c-.4 1.55-.91 2.244-2.123 2.46-1.212.215-2.738-.146-4.814-.682.069-.907-.037-2.29-.263-3.207 1.232.35 2.626.71 2.998.807.403.104.589.02.677-.321l.417-1.611-8.211-2.12-1.296 5.019-3.408-.88 1.296-5.02-1.642-.424.664-2.572 1.642.425 2.016-7.808 5.763 1.488.296-1.146-7.343-1.897.672-2.602 4.028 1.04.352-1.363-2.757-.712.632-2.448 2.757.712.312-1.208-3.501-.905.672-2.602 3.502.904.56-2.169 3.346.864-.56 2.17 3.284.847.56-2.168 3.439.888-.56 2.168 3.47.897-.672 2.602-3.47-.896-.312 1.209 2.974.768-.632 2.447-2.974-.768-.352 1.364 4.121 1.064-.673 2.602Zm22.7 18.483-1.098 2.972 9.546 3.526-1.131 3.061-22.514-8.315 1.131-3.062 9.516 3.514 1.098-2.971-7.625-2.816 1.142-3.092 7.625 2.816 1.341-3.632-2.569 1.507c-.263-.95-.836-2.355-1.46-3.712-1.209 1.055-2.489 1.844-3.862 2.326-.321-.699-1.201-2.013-1.793-2.811-1.844 4.163-4.369 8.688-7.453 11.404-.408-.833-1.581-2.46-2.288-3.131 3.915-3.398 6.413-9.605 8.043-14.018l3.004-8.134 11.797 4.357a16.95 16.95 0 0 0-.337-2.41l3.821.183a24.43 24.43 0 0 1 .629 3.746l9.635 3.56-1.219 3.301-22.033-8.138-1.796 4.863a77.29 77.29 0 0 1-1.695 4.218c2.853-.89 5.025-3.261 6.673-6.337l3.09 1.517c-.624 1.134-1.274 2.156-1.981 3.055.775 1.412 1.543 3.026 1.983 4.144l2.605-7.055 3.452 1.275-2.716 7.355c2.392-1.027 4.341-3.07 5.844-5.756l3.038 1.566a19.264 19.264 0 0 1-2.291 3.247c1.076 1.796 2.228 3.757 2.804 5.061l-2.865 1.569c-.421-1.077-1.287-2.795-2.157-4.413-1.152.905-2.4 1.604-3.69 2.048-.197-.482-.666-1.337-1.149-2.061l-.953 2.581 7.894 2.916-1.142 3.092-7.894-2.916Zm22.79 20.904 21.286-24.697 2.775 1.39-21.258 24.712-2.803-1.405Z" fill="#000"/></svg>