<svg width="285" height="77" fill="none" xmlns="http://www.w3.org/2000/svg"><path d="M26.897 69.571 5.763 44.744l2.783-1.374L29.68 68.198l-2.783 1.373Zm19.231-31.603-7.431 2.786c0 2.187-.094 4.307-.218 6.165 2.09.105 4.21.198 6.24.326 1.187-2.667 1.592-5.69 1.409-9.277Zm8.689-3.258-4.584 1.719c.363 4.34.01 7.959-1.106 11.18 4.165.352 7.97.84 10.813 1.311l-1.506 4.46c-2.94-.64-6.873-1.284-11.225-1.772-2.307 3.6-5.877 6.749-10.926 9.872-.813-.891-2.243-2.064-3.43-2.678 4.273-2.457 7.442-4.943 9.6-7.666-2.896-.247-5.87-.431-8.757-.476.367-2.393.626-5.259.776-8.322l-6.322 2.37-1.438-3.835 7.82-2.932a73.636 73.636 0 0 0-.374-7.652l4.008-.887c.273 2.187.464 4.61.501 6.989l7.041-2.64a63.064 63.064 0 0 0-.591-3.128l4.172-.539c.139.734.277 1.468.404 2.173l3.686-1.382 1.438 3.835ZM77.54 24.212l12.634-2.887s.261 1.287.313 1.8c2.213 12.559 2.658 17.38 1.656 19.316-.658 1.43-1.484 1.98-2.782 2.474-1.12.42-3.053.862-4.978 1.203-.319-1.109-1.195-2.648-2.155-3.545 2-.293 3.841-.713 4.652-.899.655-.15 1.008-.328 1.352-.834.715-1.18.406-5.41-1.212-14.79l-8.735 1.997c.976 6.571.525 14.65-7.108 21.614-.807-.8-2.531-1.883-3.593-2.363 6.774-5.98 7.425-12.759 6.708-18.339l-9.39 2.146-.87-3.806 9.546-2.181-1.468-6.427 3.962-.905 1.468 6.426Zm40.838 2.382.102 1.115 4.012-.396c-.463-.15-.93-.333-1.359-.455l.591-.568-3.346.304Zm-9.549-1.478 5.641-.513-.11-1.21-5.641.512.11 1.21Zm-.414-4.558.108 1.18 5.64-.513-.107-1.179-5.641.512Zm15.266-1.386-5.928.538.107 1.18 5.928-.539-.107-1.179Zm-5.514 5.096 5.927-.539-.11-1.21-5.927.538.11 1.21Zm13.361 5.951.272 2.996-7.107.646.281 3.09c.159 1.754-.078 2.675-1.339 3.303-1.231.594-3.013.788-5.435 1.008-.252-1.005-.851-2.3-1.384-3.216 1.535-.075 3.352-.24 3.862-.286.507-.078.657-.188.62-.603l-.27-2.963-8.987.816c1.426.834 2.866 1.828 3.677 2.622l-2.585 2.677c-1.037-1.16-3.337-2.782-5.165-3.805l1.237-1.237-6.374.58-.272-2.996 18.197-1.653-.107-1.18c-6.266.698-12.281 1.341-16.74 1.778l-.341-2.7c2.998-.24 6.915-.628 11.218-1.019l-.105-1.147-9.178.834-.833-9.179 9.178-.833-.104-1.148-11.696 1.063-.261-2.869 11.696-1.062-.182-2.008 3.696-.335.183 2.007 11.632-1.056.26 2.868-11.632 1.057.105 1.147 9.624-.874.834 9.178-2.136.194c1.669.684 3.254 1.504 4.343 2.176l-2.15 2.155c-.411-.284-.892-.626-1.434-.93l-2.32.275.115 1.275 7.107-.645Zm33.054-9.458.064-1.47-5.819-.253-.064 1.47 5.819.253Zm-.171 3.933.064-1.471-5.819-.253-.064 1.47 5.819.253Zm-.173 3.964.067-1.535-5.819-.253-.066 1.535 5.818.253Zm-8.656-12.324 4.092.178c.215-.535.402-1.136.618-1.703l-5.626-.245.115-2.653 14.642.637-.115 2.653-5.595-.243-.842 1.693 5.435.236-.632 14.515-12.724-.554.632-14.514Zm6.372 16.228 2.682-1.26c1.645 1.192 3.554 2.973 4.492 4.23l-2.787 1.481c-.937-1.29-2.837-3.262-4.387-4.45Zm-4.424-1.377 3.058 1.126c-1.453 1.73-3.77 3.455-5.798 4.424-.517-.631-1.684-1.771-2.334-2.312 1.924-.781 3.897-1.944 5.074-3.238Zm-7.715-15.55.065-1.503-4.572-.199-.065 1.503 4.572.199Zm-.173 3.964.068-1.567-4.571-.199-.069 1.567 4.572.199Zm3.865-7.84-.459 10.55-11.478-.499.459-10.55 11.478.5Zm-4.696 20.328-.165 3.772c1.894.659 4.222.888 7.067 1.012 2.174.095 10.902.474 13.529.46-.544.713-1.119 2.162-1.351 3.08l-12.309-.535c-6.01-.261-9.948-1.041-12.354-4.637-.531 1.899-1.308 3.562-2.452 4.826-.445-.82-1.351-2.077-2.093-2.686 1.886-2.128 2.37-5.886 2.633-9.718l3.037.132a61.542 61.542 0 0 1-.343 3.476c.403 1.043.91 1.897 1.52 2.597l.317-7.29-5.914-.257.119-2.75 14.323.624-.12 2.75-5.211-.228-.114 2.622 4.604.2-.12 2.75-4.603-.2Zm41.195-12.607-.531 2.96-10.741-1.927.531-2.96 5.292.949c-.358-1.267-1.089-2.991-1.725-4.34l3.08-1.041c.814 1.446 1.668 3.388 2.063 4.629l-2.347.944 4.378.786Zm-1.825 4.191-.509 2.835-8.504-1.526.509-2.835 8.504 1.526Zm-9.77 5.53.508-2.835 8.505 1.526-.509 2.835-8.504-1.526Zm5.081 5.56-3.181-.57-.633 3.527 3.182.571.632-3.528Zm3.372-2.483-1.712 9.544-6.016-1.08-.238 1.323-2.771-.497 1.949-10.867 8.788 1.577Zm10.091-8.04-.249 1.385 3.339.6.248-1.386-3.338-.6Zm.667-3.717-.221 1.228 3.339.6.22-1.229-3.338-.6Zm3.853 12.59-2.52-.452-.26 1.449 2.52.452.26-1.449ZM198 37.982l2.519.452.283-1.575-2.52-.452-.282 1.575Zm-5.545-2.62-.282 1.575 2.394.43.282-1.576-2.394-.43Zm3.067-3.319-2.394-.43-.26 1.45 2.394.429.26-1.449Zm11.733-1.796-7.622-1.367-.209 1.165 6.11 1.096-1.424 7.938 1.512.27-.469 2.615-1.512-.271-.299 1.67c-.283 1.574-.739 2.305-1.932 2.611-1.193.306-2.742.06-4.852-.318.001-.91-.209-2.28-.503-3.179 1.255.258 2.672.512 3.05.58.409.074.589-.024.652-.37l.293-1.639-8.346-1.497-.916 5.102-3.464-.621.915-5.103-1.669-.3.469-2.613 1.669.299 1.424-7.937 5.859 1.05.209-1.165-7.465-1.339.475-2.646 4.094.735.249-1.386-2.803-.503.446-2.488 2.803.503.221-1.228-3.559-.639.474-2.646 3.56.639.395-2.205 3.402.61-.396 2.205 3.339.6.396-2.206 3.496.628-.396 2.205 3.528.633-.475 2.645-3.528-.633-.22 1.229 3.024.542-.447 2.488-3.023-.542-.249 1.386 4.189.751-.475 2.646Zm23.812 17.456-.971 3.016 9.686 3.12-1.001 3.106-22.844-7.358 1-3.107 9.656 3.11.971-3.015-7.736-2.492 1.01-3.137 7.737 2.492 1.187-3.686-2.504 1.614c-.303-.938-.934-2.318-1.615-3.647-1.163 1.105-2.409 1.948-3.76 2.488-.351-.685-1.285-1.96-1.91-2.734-1.667 4.237-3.998 8.866-6.965 11.709-.443-.815-1.684-2.392-2.419-3.032 3.769-3.56 6.002-9.867 7.444-14.344l2.659-8.255 11.97 3.856a16.777 16.777 0 0 0-.439-2.394l3.825.022a24.2 24.2 0 0 1 .787 3.716l9.777 3.15-1.079 3.35-22.357-7.201-1.589 4.934a77.391 77.391 0 0 1-1.515 4.286c2.813-1.01 4.883-3.47 6.4-6.613l3.151 1.385c-.575 1.16-1.182 2.208-1.851 3.136.834 1.378 1.67 2.958 2.157 4.056l2.305-7.157 3.503 1.128-2.404 7.462c2.347-1.127 4.207-3.25 5.596-5.997l3.101 1.436a19.211 19.211 0 0 1-2.152 3.341c1.152 1.75 2.385 3.66 3.016 4.938l-2.796 1.688c-.467-1.058-1.405-2.738-2.341-4.317-1.114.952-2.331 1.703-3.601 2.202-.217-.474-.722-1.308-1.235-2.012l-.843 2.62 8.01 2.58-1.01 3.137-8.011-2.58Zm23.116 20.237 21.134-24.828 2.784 1.373-21.106 24.842-2.812-1.388Z" fill="#000"/></svg>