<svg width="297" height="78" fill="none" xmlns="http://www.w3.org/2000/svg"><path d="M26.961 71.102 5.781 46.314l2.78-1.379 21.181 24.788-2.78 1.379ZM50.62 29.178l.976 2.946-12.727 4.219-.977-2.946 4.739-1.571a40.724 40.724 0 0 0-1.374-1.601l3.06-2.06c.707.71 1.566 1.572 2.232 2.362l4.07-1.349Zm-5.308 8.805-2.684 1.665c-.383-.85-1.241-2.117-1.938-2.998l2.623-1.544c.727.871 1.555 2.046 2 2.877ZM44.99 48.81l3.138-.197c.066 2.54-.202 5.596-.67 7.538-.729-.265-2.196-.621-2.995-.795.438-1.83.615-4.35.527-6.546Zm10.825-4.465-4.343 1.44L54.824 55.9l-3.28 1.087-3.353-10.114-5.498 1.822-.996-3.007 5.497-1.823-.694-2.095-5.802 1.923-1.007-3.038 8.202-2.718c-.049-1.366-.157-3.117-.378-4.393l3.462-.44c-.022 1.357-.025 2.672-.047 3.826l2.673-.886 1.007 3.037-4.83 1.601.695 2.096 4.344-1.44.996 3.007Zm2.24 4.416-1.897 2.213c-.808-1.013-2.383-2.513-3.616-3.588l1.845-1.96c1.273.994 2.819 2.403 3.667 3.335Zm.715-10.148.624 1.883 5.71-1.893-.624-1.883-5.71 1.893Zm-1.56-4.708.623 1.883 5.71-1.893-.623-1.883-5.71 1.893Zm-1.551-4.678.624 1.883 5.71-1.893-.624-1.883-5.71 1.893Zm13.448 18.197.79-.262c.455-.151.415-.576-.601-3.846.789.345 2.357.398 3.349.34 1.156 4.403.668 5.779-1.337 6.443l-1.761.584c-2.552.846-3.44-.006-4.397-2.891l-1.712-5.164-1.367.453c1.105 4.657 1.008 8.229-3.116 11.753-.636-.699-1.94-1.683-2.83-2.028 3.394-2.676 3.46-5.226 2.635-8.628l-1.549.514-5.82-17.557 12.333-4.088 5.82 17.557-2.825.937 1.701 5.133c.262.79.353.86.687.75Zm36.886-20.649.727 3.738-12.188 2.37 1.472 7.57c.41 2.105.14 3.233-1.22 4.117-1.424.896-3.541 1.406-6.437 1.936-.434-1.056-1.518-2.606-2.353-3.552 2.223-.302 4.673-.778 5.326-.938.685-.166.875-.365.77-.9l-1.453-7.475-12.439 2.418-.727-3.738 12.44-2.418-.85-4.367c1.796-1.327 3.783-3.18 5.342-4.885l-15.392 2.993-.72-3.707 19.57-3.805.842-.36 3.249 1.618c-2.157 3.158-5.377 6.718-8.61 9.368l.463 2.387 12.188-2.37Zm25.339-.725.072 1.117 4.021-.29c-.459-.163-.92-.358-1.346-.49l.606-.553-3.353.215Zm-9.506-1.732 5.652-.363-.078-1.213-5.652.362.078 1.214Zm-.293-4.567.076 1.182 5.652-.363-.076-1.181-5.652.362Zm15.297-.98-5.94.38.076 1.182 5.939-.38-.075-1.183Zm-5.647 4.947 5.939-.38-.077-1.214-5.94.38.078 1.214Zm13.198 6.305.192 3.001-7.121.457.198 3.097c.113 1.757-.149 2.671-1.426 3.266-1.246.561-3.033.708-5.46.863-.225-1.011-.79-2.322-1.298-3.251 1.537-.035 3.357-.151 3.868-.184.509-.065.662-.17.636-.586l-.191-2.97-9.005.578c1.403.872 2.815 1.903 3.605 2.719l-2.654 2.607c-1.006-1.186-3.263-2.87-5.063-3.94l1.27-1.204-6.387.41-.193-3.003 18.235-1.169-.076-1.181c-6.283.53-12.312 1.014-16.781 1.332l-.27-2.708c3.004-.16 6.93-.444 11.241-.72l-.073-1.15-9.198.59-.589-9.198 9.197-.59-.074-1.15-11.72.752-.184-2.874 11.72-.751-.129-2.012 3.705-.238.128 2.012 11.657-.747.184 2.874-11.656.747.073 1.15 9.645-.618.589 9.197-2.139.137c1.649.728 3.212 1.59 4.283 2.29l-2.206 2.098c-.404-.295-.876-.65-1.409-.968l-2.327.214.081 1.277 7.122-.456Zm33.224-8.753.094-1.47-5.812-.372-.094 1.47 5.812.372Zm-.252 3.928.095-1.47-5.812-.372-.095 1.47 5.812.372Zm-.253 3.96.098-1.533-5.812-.373-.098 1.533 5.812.373Zm-8.402-12.5 4.088.262c.226-.53.425-1.127.653-1.69l-5.62-.36.169-2.65 14.626.938-.169 2.65-5.589-.358-.877 1.675 5.429.348-.929 14.498-12.71-.814.929-14.498Zm6.038 16.356 2.707-1.205c1.621 1.226 3.492 3.046 4.404 4.323l-2.817 1.422c-.91-1.309-2.769-3.32-4.294-4.54Zm-4.395-1.468 3.034 1.189c-1.488 1.7-3.84 3.377-5.887 4.304-.504-.642-1.648-1.805-2.286-2.36 1.939-.74 3.935-1.863 5.139-3.133Zm-7.395-15.705.097-1.501-4.567-.293-.096 1.501 4.566.293Zm-.253 3.96.1-1.565-4.567-.293-.1 1.565 4.567.293Zm4.024-7.759-.675 10.539-11.465-.735.676-10.539 11.464.735Zm-5.112 20.227-.242 3.768c1.88.698 4.203.975 7.045 1.157 2.171.14 10.889.698 13.516.738-.558.702-1.163 2.138-1.414 3.052l-12.295-.788c-6.003-.385-9.924-1.246-12.256-4.89-.57 1.887-1.381 3.535-2.551 4.774-.428-.829-1.308-2.104-2.037-2.727 1.929-2.09 2.49-5.837 2.832-9.663l3.033.194a61.799 61.799 0 0 1-.414 3.469c.381 1.05.871 1.916 1.467 2.627l.466-7.281-5.908-.379.176-2.746 14.307.917-.176 2.746-5.205-.333-.168 2.618 4.598.295-.176 2.746-4.598-.294Zm41.357-11.865-.574 2.952-10.712-2.082.575-2.953 5.277 1.026c-.34-1.272-1.046-3.007-1.662-4.365l3.095-.996c.793 1.458 1.619 3.412 1.996 4.659l-2.361.91 4.366.849Zm-1.886 4.164-.549 2.827-8.481-1.649.549-2.827 8.481 1.65Zm-9.849 5.387.55-2.826 8.481 1.648-.55 2.828-8.481-1.65Zm5.001 5.635-3.173-.617-.684 3.518 3.173.617.684-3.518Zm3.407-2.435-1.851 9.518-5.999-1.167-.257 1.32-2.764-.538 2.107-10.837 8.764 1.704Zm10.206-7.893-.269 1.382 3.33.648.269-1.383-3.33-.647Zm.721-3.707-.238 1.226 3.329.647.238-1.225-3.329-.648Zm3.67 12.645-2.513-.488-.281 1.445 2.513.488.281-1.445Zm-3.545 4.82 2.513.489.305-1.57-2.513-.49-.305 1.571Zm-5.506-2.7-.305 1.57 2.387.465.305-1.571-2.387-.464Zm3.114-3.274-2.387-.464-.281 1.445 2.387.464.281-1.445Zm11.758-1.626-7.601-1.478-.226 1.163 6.094 1.184-1.539 7.916 1.507.293-.507 2.608-1.507-.294-.324 1.665c-.305 1.57-.772 2.295-1.969 2.584-1.197.289-2.743.02-4.847-.389.014-.91-.176-2.283-.457-3.185 1.251.276 2.664.55 3.041.624.408.08.59-.016.657-.361l.318-1.634-8.324-1.618-.99 5.088-3.455-.672.989-5.088-1.664-.324.506-2.607 1.665.323 1.539-7.915 5.843 1.136.226-1.162-7.445-1.448.513-2.639 4.084.794.269-1.382-2.796-.543.483-2.482 2.795.544.238-1.225-3.549-.69.513-2.639 3.549.69.428-2.199 3.392.66-.427 2.199 3.33.647.427-2.199 3.487.678-.428 2.2 3.518.683-.513 2.639-3.518-.684-.238 1.225 3.016.586-.483 2.482-3.016-.587-.268 1.382 4.178.813-.514 2.638Zm23.599 17.667-.997 3.008 9.659 3.201-1.027 3.099-22.781-7.552 1.027-3.098 9.629 3.192.997-3.007-7.715-2.558 1.037-3.128 7.715 2.557 1.218-3.675-2.517 1.593c-.295-.94-.915-2.326-1.585-3.66-1.172 1.094-2.425 1.926-3.78 2.454-.345-.687-1.268-1.97-1.887-2.749-1.703 4.223-4.073 8.831-7.064 11.65-.436-.82-1.664-2.406-2.393-3.053 3.799-3.528 6.085-9.816 7.565-14.28l2.729-8.232 11.937 3.956a16.732 16.732 0 0 0-.419-2.397l3.825.054c.346 1.194.612 2.529.755 3.723l9.751 3.232-1.108 3.341-22.295-7.39-1.631 4.92a78.06 78.06 0 0 1-1.551 4.274c2.821-.987 4.912-3.429 6.455-6.558l3.139 1.41c-.585 1.155-1.2 2.199-1.877 3.12.822 1.386 1.645 2.973 2.122 4.075l2.366-7.138 3.493 1.158-2.466 7.442c2.356-1.107 4.234-3.215 5.646-5.95l3.089 1.462a19.184 19.184 0 0 1-2.18 3.323c1.136 1.76 2.354 3.68 2.973 4.964l-2.81 1.664c-.457-1.062-1.381-2.75-2.304-4.337-1.122.943-2.345 1.684-3.619 2.171-.214-.475-.711-1.314-1.218-2.021l-.866 2.612 7.989 2.648-1.038 3.129-7.988-2.648Zm23.041 20.377 21.181-24.788 2.781 1.378-21.152 24.802-2.81-1.392Z" fill="#000"/></svg>