<svg width="360" height="96" viewBox="0 0 360 96" fill="none" xmlns="http://www.w3.org/2000/svg">
<path d="M32.8651 86.199L6.91456 54.7728L10.4194 53.1084L36.3699 84.5345L32.8651 86.199Z" fill="black"/>
<path d="M68.5089 48.8093L68.9371 50.1423L73.7234 48.563C73.1168 48.5057 72.498 48.4104 71.9418 48.379L72.5077 47.525L68.5089 48.8093ZM56.4574 49.6131L63.1983 47.4481L62.7335 46.0009L55.9926 48.1659L56.4574 49.6131ZM54.7083 44.1671L55.1609 45.5762L61.9017 43.4112L61.4491 42.0021L54.7083 44.1671ZM72.9505 38.3081L65.8669 40.5832L66.3194 41.9923L73.403 39.7172L72.9505 38.3081ZM67.616 46.0292L74.6996 43.7541L74.2348 42.3069L67.1512 44.582L67.616 46.0292ZM85.5392 49.6414L86.689 53.2213L78.1963 55.949L79.3827 59.6431C80.0555 61.7378 80.0172 62.9264 78.6514 64.0373C77.3115 65.0978 75.1911 65.8209 72.2967 66.7505C71.7149 65.593 70.6299 64.1769 69.7297 63.2056C71.5822 62.6947 73.753 61.9975 74.3624 61.8018C74.9595 61.568 75.1132 61.3926 74.9542 60.8975L73.8166 57.3557L63.077 60.805C65.0434 61.4338 67.0711 62.253 68.2773 63L65.8555 66.9707C64.274 65.8402 61.0252 64.4889 58.5161 63.7403L59.6875 61.8937L52.0707 64.34L50.9209 60.7601L72.6668 53.7758L72.2142 52.3667C64.7606 54.9287 57.5995 57.3547 52.28 59.1053L51.126 55.9048C54.7181 54.7931 59.3902 53.2505 64.5316 51.5992L64.0912 50.2282L53.123 53.751L49.6003 42.7828L60.5684 39.2601L60.1281 37.889L46.1513 42.3781L45.0504 38.9506L59.0272 34.4615L58.2566 32.0622L62.6744 30.6433L63.445 33.0426L77.3456 28.578L78.4465 32.0055L64.5458 36.4702L64.9862 37.8412L76.4875 34.1472L80.0103 45.1153L77.4587 45.9349C79.6809 46.3135 81.8378 46.8811 83.35 47.4037L81.316 50.6197C80.7367 50.3857 80.0568 50.0999 79.3129 49.8767L76.5572 50.8458L77.0465 52.3691L85.5392 49.6414Z" fill="black"/>
<path d="M121.915 29.0581L121.574 27.25L114.42 28.5996L114.762 30.4077L121.915 29.0581ZM122.827 33.8929L122.486 32.0848L115.332 33.4344L115.674 35.2425L122.827 33.8929ZM123.747 38.7669L123.391 36.8802L116.237 38.2298L116.593 40.1165L123.747 38.7669ZM109.7 26.2337L114.731 25.2846C114.841 24.5719 114.897 23.7879 114.999 23.0359L108.081 24.3411L107.466 21.0786L125.468 17.6823L126.083 20.9448L119.205 22.2425L118.662 24.543L125.344 23.2824L128.711 41.1276L113.067 44.0789L109.7 26.2337ZM122.08 44.1696L124.984 41.8714C127.327 42.8541 130.157 44.4776 131.657 45.7414L128.687 48.337C127.179 47.0339 124.304 45.1746 122.08 44.1696ZM116.302 43.7534L120.345 44.2527C119.07 46.7727 116.741 49.5322 114.549 51.2891C113.74 50.6684 111.994 49.6137 111.05 49.1405C113.169 47.6417 115.238 45.6639 116.302 43.7534ZM102.482 27.0256L102.133 25.1782L96.5123 26.2386L96.8608 28.086L102.482 27.0256ZM103.401 31.8997L103.038 29.9736L97.417 31.034L97.7803 32.9601L103.401 31.8997ZM105.871 21.2573L108.318 34.2285L94.207 36.8906L91.7599 23.9194L105.871 21.2573ZM105.947 47.3353L106.822 51.9735C109.314 52.2361 112.213 51.852 115.711 51.192C118.384 50.6877 129.115 48.6633 132.308 47.898C131.85 48.9207 131.562 50.8475 131.541 52.0319L116.408 54.8868C109.018 56.2809 104.004 56.4536 100.051 52.7624C99.9454 55.2246 99.4736 57.471 98.4412 59.3347C97.6663 58.4633 96.2053 57.1921 95.1284 56.6625C96.8179 53.5351 96.336 48.8228 95.5641 44.0837L99.2982 43.3793C99.5333 44.841 99.7216 46.2709 99.8706 47.7082C100.658 48.8622 101.519 49.7581 102.461 50.4352L100.77 41.4733L93.4986 42.8452L92.8609 39.4648L110.47 36.1427L111.108 39.5231L104.701 40.7318L105.309 43.9549L110.969 42.8871L111.607 46.2675L105.947 47.3353Z" fill="black"/>
<path d="M151.102 20.237L151.335 23.9897L137.721 24.837L137.488 21.0842L144.195 20.6668C143.384 19.2344 141.985 17.3577 140.813 15.9077L144.244 13.7304C145.661 15.2453 147.275 17.3491 148.123 18.7391L145.552 20.5824L151.102 20.237ZM150.13 25.8682L150.353 29.4613L139.574 30.1321L139.35 26.5391L150.13 25.8682ZM139.907 35.4818L139.683 31.8887L150.462 31.2179L150.686 34.8109L139.907 35.4818ZM147.728 40.7261L143.696 40.9771L143.974 45.4484L148.006 45.1975L147.728 40.7261ZM151.085 36.7098L151.838 48.8064L144.212 49.281L144.317 50.9578L140.804 51.1764L139.946 37.403L151.085 36.7098ZM160.951 23.9524L161.061 25.709L165.293 25.4456L165.183 23.689L160.951 23.9524ZM160.658 19.2415L160.755 20.7985L164.987 20.5351L164.89 18.9781L160.658 19.2415ZM169.073 33.3861L165.879 33.5849L165.994 35.4213L169.187 35.2225L169.073 33.3861ZM166.299 40.3318L169.493 40.133L169.369 38.1369L166.175 38.3357L166.299 40.3318ZM158.789 38.7953L158.913 40.7915L161.948 40.6026L161.823 38.6065L158.789 38.7953ZM161.528 33.8557L158.494 34.0445L158.608 35.881L161.642 35.6921L161.528 33.8557ZM175.242 28.1929L165.581 28.7941L165.673 30.2713L173.418 29.7893L174.044 39.8498L175.96 39.7305L176.167 43.0441L174.25 43.1634L174.382 45.2793C174.506 47.2754 174.169 48.2983 172.812 49.0241C171.454 49.7498 169.5 49.9115 166.826 50.0779C166.556 48.9725 165.896 47.3705 165.272 46.3673C166.871 46.3078 168.668 46.196 169.147 46.1662C169.666 46.1339 169.856 45.9618 169.828 45.5226L169.699 43.4466L159.12 44.105L159.522 50.5725L155.131 50.8458L154.728 44.3784L152.612 44.51L152.406 41.1964L154.522 41.0648L153.896 31.0042L161.321 30.5421L161.229 29.065L151.768 29.6538L151.559 26.3003L156.749 25.9773L156.64 24.2207L153.087 24.4418L152.89 21.2879L156.443 21.0668L156.347 19.5098L151.835 19.7906L151.627 16.437L156.138 16.1563L155.964 13.3617L160.276 13.0934L160.45 15.888L164.681 15.6246L164.507 12.83L168.939 12.5542L169.113 15.3488L173.584 15.0705L173.793 18.424L169.321 18.7023L169.418 20.2593L173.251 20.0208L173.447 23.1747L169.615 23.4132L169.724 25.1698L175.034 24.8393L175.242 28.1929Z" fill="black"/>
<path d="M208.176 42.0418L207.93 45.9942L220.625 46.7843L220.372 50.8564L190.43 48.993L190.683 44.9208L203.339 45.7085L203.585 41.7561L193.444 41.125L193.7 37.013L203.841 37.6441L204.141 32.8134L201.607 35.5413C200.95 34.4985 199.76 33.0217 198.524 31.6222C197.457 33.3192 196.207 34.7243 194.738 35.7951C194.101 35.0742 192.577 33.817 191.581 33.0737C190.869 38.7204 189.473 45.0459 186.757 49.4056C185.968 48.555 183.979 47.0285 182.891 46.4799C186.358 41.0046 187.117 32.6757 187.482 26.807L188.155 15.988L203.845 16.9644C203.466 15.9789 203.044 15.0309 202.574 14.2001L207.215 13.0462C208.014 14.3783 208.76 15.9077 209.315 17.3048L222.13 18.1023L221.856 22.4939L192.553 20.6702L192.151 27.1377C192.044 28.8543 191.885 30.7681 191.638 32.7967C194.734 30.705 196.482 27.0866 197.349 22.8122L201.594 23.5172C201.255 25.0992 200.844 26.5565 200.32 27.8865C201.755 29.2984 203.255 30.9548 204.183 32.1347L204.767 22.7529L209.358 23.0386L208.75 32.8197C211.244 30.7306 212.843 27.5838 213.678 23.8284L217.877 24.6108C217.491 26.3101 216.95 27.9196 216.302 29.322C218.236 31.0855 220.32 33.0187 221.478 34.3733L218.612 37.2809C217.721 36.1433 216.066 34.3972 214.444 32.7733C213.389 34.2706 212.146 35.5559 210.762 36.5519C210.352 36.0455 209.484 35.1899 208.645 34.4964L208.432 37.9298L218.931 38.5832L218.675 42.6953L208.176 42.0418Z" fill="black"/>
<path d="M244.927 19.9521L244.281 23.3718L234.219 21.4735L234.864 18.0538L244.927 19.9521ZM239.165 43.37L238.832 45.1388L255.852 48.3497L256.185 46.5809L239.165 43.37ZM239.981 39.0463L239.662 40.7365L256.682 43.9473L257.001 42.2572L239.981 39.0463ZM240.797 34.7226L240.478 36.4127L257.498 39.6236L257.817 37.9334L240.797 34.7226ZM260.089 51.9984L254.35 50.9158C257.714 52.9344 261.269 55.2334 263.373 56.8108L258.693 58.533C256.697 56.8132 252.973 54.1159 249.348 51.9668L252.109 50.4931L241.025 48.4019L244.148 50.6193C240.539 52.0552 235.098 53.064 230.92 53.4156C230.305 52.3632 228.98 50.3223 228.106 49.3434C232.013 49.3477 236.442 48.962 239.453 48.1053L233.792 47.0375L236.803 31.079L263.099 36.0399L260.089 51.9984ZM257.73 27.1709L257.649 27.6032C259.378 30.0869 263.359 31.8556 268.614 33.1319C267.5 33.8579 266.081 35.3405 265.315 36.3766C261.017 34.9958 257.834 33.0928 255.766 30.4638C253.946 31.9115 250.394 32.8289 243.65 32.33C243.476 31.5238 243.033 30.4225 242.56 29.4784L232.143 27.5133L232.818 23.9364L244.689 26.1759L244.236 28.5736C251.892 29.2038 253.209 27.6204 253.483 26.1661L253.594 25.5765L251.236 25.1315C250.166 26.2729 249 27.2742 247.847 27.9928C247.233 27.1444 245.719 25.6782 244.84 24.9426C247.25 23.6061 249.351 21.3159 250.759 18.8136L254.676 20.4888C254.368 21.0414 254.021 21.5865 253.682 22.0923L264.845 24.1983L265.589 24.1352L268.588 25.7185C267.158 27.6876 265.354 29.9118 263.8 31.2467L260.436 29.2281C260.987 28.6808 261.654 27.9517 262.242 27.2078L257.879 26.3847L257.73 27.1709Z" fill="black"/>
<path d="M293.783 36.4364L292.634 40.0163L278.657 35.5272L279.807 31.9473L285.862 33.8922C285.832 32.286 285.491 30.076 285.156 28.3719L288.919 27.774C289.332 29.629 289.764 32.0783 289.844 33.6587L287.081 34.2836L293.783 36.4364ZM289.611 44.7172L278.567 41.17L279.668 37.7425L290.712 41.2897L289.611 44.7172ZM282.719 54.1412L278.683 52.8446L277.313 57.11L281.349 58.4065L282.719 54.1412ZM287.461 51.673L283.755 63.2124L276.138 60.766L275.625 62.3656L272.159 61.2525L276.379 48.1135L287.461 51.673ZM276.928 46.2733L278.029 42.8457L289.149 46.4174L288.048 49.8449L276.928 46.2733ZM295.673 32.2538L312.773 37.7459C308.406 50.1654 303.429 65.792 304.691 66.7016C304.857 66.839 305.842 64.4247 306.74 62.024C306.97 63.4003 307.499 65.545 307.926 66.4384C305.569 71.8152 303.248 72.372 301.205 70.6234C298.076 67.938 302.27 54.7488 306.858 40.5938L302.25 39.1137L299.021 49.1679L302.677 50.3422L301.319 54.5695L297.663 53.3952L292.844 68.4003L288.617 67.0425L293.436 52.0375L289.171 50.6675L290.528 46.4402L294.794 47.8102L298.023 37.756L294.291 36.5573L295.673 32.2538Z" fill="black"/>
<path d="M323.069 84.3286L349.02 52.9025L352.525 54.5669L326.61 86.0102L323.069 84.3286Z" fill="black"/>
</svg>
