<svg width="383" height="72" viewBox="0 0 383 72" fill="none" xmlns="http://www.w3.org/2000/svg">
<path d="M14 0.9375C14.5833 0.75 15.0833 0.770833 15.5 1C16.4583 1.54167 16.7292 2.45833 16.3125 3.75C16.1875 4.27083 16.375 4.53125 16.875 4.53125H28.625C29.5417 4.36458 30.3333 4.69792 31 5.53125C31.5833 6.32292 31.6042 7.72917 31.0625 9.75C30.8125 10.875 30.3542 11.9167 29.6875 12.875C29.25 13.3333 28.7083 13.5104 28.0625 13.4062C27.6667 13.3021 27.5625 13.5 27.75 14C28.9375 17.1667 29.9375 20.4479 30.75 23.8438C31.0625 24.8438 31.2083 25.6979 31.1875 26.4062C31.1458 26.8646 30.9062 27.2708 30.4688 27.625C29.8021 28.0833 29.1354 28.1562 28.4688 27.8438C28.0312 27.5938 27.7292 27.2083 27.5625 26.6875C26.7708 23.5 25.8438 20.1667 24.7812 16.6875C24.3854 15.625 24.0833 14.5833 23.875 13.5625C23.6458 12.7292 24.0312 12.1042 25.0312 11.6875C25.2396 11.625 25.5208 11.5938 25.875 11.5938C26.25 11.6771 26.4583 11.5938 26.5 11.3438C26.5208 11.1146 26.7188 10.7708 27.0938 10.3125C27.2188 10.1042 27.3646 9.89583 27.5312 9.6875C27.9688 9.14583 27.9271 8.66667 27.4062 8.25C27.3646 8.22917 27.0938 8.21875 26.5938 8.21875H23.4688C22.9479 8.21875 22.6875 8.46875 22.6875 8.96875V28.0625C22.6042 29.0208 22.2188 29.8542 21.5312 30.5625C20.8229 31 19.9792 31.25 19 31.3125H17.2812C16.2188 31.2083 15.1771 30.9167 14.1562 30.4375C13.5938 30.125 13.3021 29.6979 13.2812 29.1562C13.2604 28.6562 13.3854 28.1979 13.6562 27.7812C14.1771 27.1562 14.7812 26.9062 15.4688 27.0312C15.8646 27.1146 16.2812 27.2396 16.7188 27.4062C17.1146 27.5312 17.5312 27.5938 17.9688 27.5938C18.4271 27.6354 18.7188 27.3542 18.8438 26.75V8.96875C18.8438 8.46875 18.5938 8.21875 18.0938 8.21875H15.8125C15.3125 8.21875 14.9583 8.46875 14.75 8.96875C13.8333 11.4062 12.7604 13.4479 11.5312 15.0938C11.0312 15.8021 10.4375 16.1771 9.75 16.2188C8.95833 16.1562 8.38542 15.7708 8.03125 15.0625C7.78125 14.4375 7.875 13.8125 8.3125 13.1875C10.5833 9.95833 12.0312 6.625 12.6562 3.1875C12.6979 2.83333 12.8021 2.41667 12.9688 1.9375C13.1354 1.47917 13.4792 1.14583 14 0.9375ZM7.125 0.90625C8.20833 0.71875 8.96875 1.11458 9.40625 2.09375C9.55208 2.46875 9.57292 2.88542 9.46875 3.34375C9.09375 5.71875 8.52083 8.01042 7.75 10.2188C7.64583 10.4688 7.59375 10.8333 7.59375 11.3125V30.0312C7.57292 30.3854 7.36458 30.8021 6.96875 31.2812C6.28125 31.8646 5.5 31.9062 4.625 31.4062C4.22917 31.1354 3.98958 30.6562 3.90625 29.9688V18.1562C3.90625 17.6562 3.65625 17.5208 3.15625 17.75C2.17708 17.8958 1.44792 17.5208 0.96875 16.625C0.71875 15.7708 0.895833 14.9792 1.5 14.25C3.79167 10.6875 5.1875 6.9375 5.6875 3C5.6875 1.95833 6.16667 1.26042 7.125 0.90625ZM14.8438 11.4688C15.8646 11.2812 16.6146 11.6875 17.0938 12.6875C17.1979 13.1875 17.1875 13.6458 17.0625 14.0625C16.0833 18.5 14.5729 22.875 12.5312 27.1875C11.9271 28.0417 11.1146 28.2812 10.0938 27.9062C9.61458 27.6979 9.29167 27.3438 9.125 26.8438C9.02083 26.4062 9.03125 25.9896 9.15625 25.5938C11.1562 21.0312 12.5938 16.8646 13.4688 13.0938C13.5312 12.7188 13.6979 12.3542 13.9688 12C14.1979 11.6875 14.4896 11.5104 14.8438 11.4688ZM40.575 3.6875C40.825 2.22917 41.7208 1.54167 43.2625 1.625H61.325C62.4917 1.77083 63.1896 2.4375 63.4188 3.625V11.5938C63.2521 12.7812 62.5542 13.5312 61.325 13.8438H42.4813C41.3354 13.6562 40.7 12.9479 40.575 11.7188V3.6875ZM44.7625 5.125C44.5125 5.20833 44.3563 5.40625 44.2938 5.71875C44.2729 5.94792 44.5125 6.0625 45.0125 6.0625H58.9188C59.4188 6.0625 59.6792 6.03125 59.7 5.96875C59.7625 5.65625 59.6271 5.39583 59.2938 5.1875C59.1271 5.125 58.7938 5.09375 58.2938 5.09375H45.6375C45.1375 5.09375 44.8458 5.10417 44.7625 5.125ZM59.7 9.65625C59.6792 9.48958 59.4188 9.40625 58.9188 9.40625H45.075C44.575 9.40625 44.3146 9.42708 44.2938 9.46875C44.1896 9.82292 44.3458 10.1146 44.7625 10.3438C44.8667 10.3854 45.1688 10.4062 45.6688 10.4062H58.2938C58.7938 10.4062 59.1479 10.3542 59.3563 10.25C59.5854 10.1458 59.7 9.94792 59.7 9.65625ZM36.8875 17C36.7417 15.875 37.2313 15.1562 38.3563 14.8438H64.825C65.8875 15.0729 66.3875 15.7083 66.325 16.75C66.2417 17.6042 65.7417 18.1562 64.825 18.4062H54.2C53.6792 18.4062 53.4188 18.6562 53.4188 19.1562V20.1875C53.4188 20.7083 53.6688 20.9688 54.1688 20.9688H63.0438C64.1063 21.1562 64.6167 21.7917 64.575 22.875C64.5125 23.7708 63.9917 24.3333 63.0125 24.5625H54.2C53.6792 24.5625 53.4188 24.8125 53.4188 25.3125V26.5312C53.4188 27.0312 53.6688 27.3021 54.1688 27.3438C54.4188 27.3438 54.7104 27.3646 55.0438 27.4062H65.2313C66.0021 27.4688 66.5646 27.8438 66.9188 28.5312C67.1896 29.1146 67.1167 29.7396 66.7 30.4062C66.3875 30.7812 65.9292 31.0104 65.325 31.0938H56.95C53.6792 31.0104 51.1271 30.6771 49.2938 30.0938C47.3979 29.5521 45.6792 28.4167 44.1375 26.6875C43.7208 26.1875 43.3563 26.1875 43.0438 26.6875C41.6688 28.8125 40.2938 30.3646 38.9188 31.3438C38.4396 31.6979 37.9188 31.7083 37.3563 31.375C36.3146 30.7292 36.0229 29.9062 36.4813 28.9062C36.6688 28.5729 37.1167 28.0833 37.825 27.4375C39.2 26.0208 40.3146 24.3542 41.1688 22.4375C41.6688 21.2917 42.0438 20.25 42.2938 19.3125C42.6479 18.7083 42.575 18.4062 42.075 18.4062H38.325C37.6167 18.3021 37.1375 17.8333 36.8875 17ZM49.7 19.1562C49.7 18.6562 49.45 18.4062 48.95 18.4062H45.825C45.3042 18.4062 45.1375 18.4688 45.325 18.5938C45.5542 18.7812 45.7 19.0104 45.7625 19.2812C45.8875 19.8438 45.8146 20.5208 45.5438 21.3125C45.3771 21.8125 45.4396 22.3125 45.7313 22.8125C46.6479 24.3333 47.7208 25.4583 48.95 26.1875C49.45 26.4167 49.7 26.2812 49.7 25.7812V19.1562ZM71.9 2.8125C72.1708 2.25 72.6396 1.94792 73.3063 1.90625H99.4313C100.452 2.07292 100.973 2.64583 100.994 3.625C100.994 4.6875 100.473 5.34375 99.4313 5.59375H90.7438C90.2438 5.59375 89.775 5.84375 89.3375 6.34375L89.025 6.6875C88.5667 7.1875 88.3375 7.6875 88.3375 8.1875V16.4688C88.3375 16.9896 88.5875 17.25 89.0875 17.25H95.8063C97.2854 17.5417 98.1292 18.4583 98.3375 20V28.1875C98.3167 28.6042 98.1917 29.0208 97.9625 29.4375C97.3583 30.3333 96.5563 30.8438 95.5563 30.9688H76.9313C76.0354 30.9062 75.2542 30.3542 74.5875 29.3125C74.4208 29.0208 74.3167 28.6667 74.275 28.25V19.75C74.3167 19.375 74.4729 18.9583 74.7438 18.5C75.3271 17.7292 76.0042 17.3125 76.775 17.25H83.775C84.275 17.25 84.525 17 84.525 16.5V11.9375C84.525 11.4375 84.275 11.3854 83.775 11.7812C81.6083 13.5521 79.15 15.0833 76.4 16.375C74.8792 17.1042 73.8375 17.5 73.275 17.5625C72.4 17.6875 71.7646 17.3125 71.3688 16.4375C71.2021 16 71.1396 15.5833 71.1813 15.1875C71.2438 14.6875 71.5146 14.3021 71.9938 14.0312C72.3063 13.8021 72.7229 13.5938 73.2438 13.4062L75.7438 12.4062C78.6813 11.0312 81.5042 9.01042 84.2125 6.34375C84.7125 5.84375 84.7125 5.59375 84.2125 5.59375H73.3375C72.5458 5.48958 72.025 5.07292 71.775 4.34375C71.6292 3.76042 71.6708 3.25 71.9 2.8125ZM90.15 8.3125C90.65 8.16667 91.1083 8.1875 91.525 8.375C94.3167 9.64583 97.4417 11.6458 100.9 14.375C101.296 14.6875 101.525 14.9896 101.588 15.2812C101.817 15.8646 101.733 16.4688 101.338 17.0938C100.504 18.0521 99.5458 18.1146 98.4625 17.2812C95.8375 15.2604 93.3375 13.625 90.9625 12.375C90.6292 12.25 90.2125 12.0208 89.7125 11.6875C89.2542 11.3958 88.9729 11.0104 88.8688 10.5312C88.7229 9.48958 89.15 8.75 90.15 8.3125ZM79.8063 20.9688C79.3271 20.9688 78.9625 21.0208 78.7125 21.125C78.525 21.2292 78.3583 21.4167 78.2125 21.6875C78.1292 21.9167 78.0875 22.2708 78.0875 22.75V25.4375C77.9417 26.3333 78.3063 26.9479 79.1813 27.2812H92.6188C93.1188 27.2812 93.4729 27.2396 93.6813 27.1562C94.1604 26.9688 94.4417 26.5938 94.525 26.0312V22.0312C94.4 21.4479 94.0458 21.0938 93.4625 20.9688H79.8063ZM120.694 1.125C121.277 0.75 121.892 0.677083 122.537 0.90625C123.287 1.23958 123.694 1.76042 123.756 2.46875V6.25C123.756 6.75 124.006 6.92708 124.506 6.78125C126.548 6.17708 128.59 5.54167 130.631 4.875C131.569 4.54167 132.402 4.625 133.131 5.125C133.756 5.58333 134.079 6.21875 134.1 7.03125V18.5312C133.996 20.6354 132.871 21.8125 130.725 22.0625C129.204 22.1042 127.735 21.9271 126.319 21.5312C125.86 21.4271 125.444 21.2083 125.069 20.875C124.902 20.7292 124.777 20.5208 124.694 20.25C124.548 19.7708 124.59 19.3125 124.819 18.875C125.173 18 125.871 17.6354 126.912 17.7812L128.162 18.0625C128.829 18.1667 129.34 18.1354 129.694 17.9688C130.048 17.6979 130.256 17.2812 130.319 16.7188V10.3438C130.298 10.1146 130.204 9.88542 130.037 9.65625C129.933 9.51042 129.746 9.4375 129.475 9.4375C129.204 9.4375 128.787 9.54167 128.225 9.75L124.569 10.9062C124.027 11.0729 123.756 11.3958 123.756 11.875V23.625C123.735 24.3333 123.35 24.8958 122.6 25.3125C121.954 25.5625 121.319 25.4792 120.694 25.0625C120.256 24.75 120.006 24.2708 119.944 23.625V13.125C119.944 12.625 119.694 12.4479 119.194 12.5938C117.715 13.0521 116.235 13.5208 114.756 14C114.256 14.1667 114.006 14.5 114.006 15V24.8125C114.152 25.6042 114.506 26.1146 115.069 26.3438C117.09 26.7812 119.465 27.0208 122.194 27.0625H125.725C127.996 27.0208 130.1 26.7604 132.037 26.2812C132.475 26.2604 132.746 25.9479 132.85 25.3438C133.017 24.6354 133.142 23.8021 133.225 22.8438C133.496 21.5729 134.194 20.9896 135.319 21.0938C136.34 21.3021 136.902 21.9583 137.006 23.0625C136.923 24.8542 136.756 26.5208 136.506 28.0625C136.235 29.0208 135.579 29.6875 134.537 30.0625C133.412 30.4792 131.746 30.7917 129.537 31C128.142 31.1458 126.662 31.2396 125.1 31.2812H121.569C119.673 31.2188 117.912 31.0938 116.287 30.9062C115.037 30.7812 113.787 30.4896 112.537 30.0312C111.517 29.6354 110.86 28.9583 110.569 28C110.402 27.3542 110.277 26.7083 110.194 26.0625V16.125C110.194 15.625 109.944 15.4479 109.444 15.5938C109.069 15.7396 108.694 15.8542 108.319 15.9375C107.902 16.0417 107.485 16 107.069 15.8125C106.423 15.4375 106.09 14.8646 106.069 14.0938C106.069 13.1979 106.517 12.5521 107.412 12.1562C108.079 11.9271 108.756 11.7083 109.444 11.5C109.944 11.3333 110.194 11 110.194 10.5V4.4375C110.34 3.4375 110.902 2.83333 111.881 2.625C113.09 2.5625 113.798 3.13542 114.006 4.34375V9.3125C114.006 9.8125 114.256 9.98958 114.756 9.84375L119.194 8.4375C119.694 8.27083 119.944 7.9375 119.944 7.4375V2.34375C120.048 1.88542 120.298 1.47917 120.694 1.125ZM149.206 0.9375C150.081 0.645833 150.988 1.13542 151.925 2.40625C152.238 2.82292 152.529 3.23958 152.8 3.65625C153.133 4.15625 153.55 4.40625 154.05 4.40625H159.3C159.8 4.40625 160.238 4.15625 160.613 3.65625L162.3 1.28125C162.904 0.635417 163.675 0.614583 164.613 1.21875C165.321 1.80208 165.415 2.60417 164.894 3.625C164.665 4.14583 164.8 4.40625 165.3 4.40625H168.331C169.477 4.55208 170.165 5.16667 170.394 6.25V14.3438C170.29 15.4062 169.602 16.1146 168.331 16.4688H145.113C144.029 16.3229 143.394 15.6354 143.206 14.4062V6.34375C143.352 5.30208 143.988 4.65625 145.113 4.40625H147.956C148.456 4.40625 148.55 4.15625 148.238 3.65625C147.592 2.48958 147.915 1.58333 149.206 0.9375ZM147.956 7.84375C147.415 7.73958 147.081 7.91667 146.956 8.375C146.915 8.45833 146.894 8.75 146.894 9.25V11.625C146.894 12.125 146.935 12.4792 147.019 12.6875C147.102 12.875 147.269 12.9896 147.519 13.0312H149.269C149.769 13.0312 149.915 12.7812 149.706 12.2812C148.977 10.8229 148.519 9.82292 148.331 9.28125C148.144 8.92708 148.144 8.53125 148.331 8.09375C148.435 7.92708 148.31 7.84375 147.956 7.84375ZM155.019 8.59375C155.019 8.09375 154.769 7.84375 154.269 7.84375H152.269C151.769 7.84375 151.644 8.09375 151.894 8.59375C152.79 10.3438 153.3 11.5729 153.425 12.2812C153.467 12.7812 153.738 13.0312 154.238 13.0312C154.758 13.0312 155.019 12.7812 155.019 12.2812V8.59375ZM161.675 8.59375C161.883 8.09375 161.738 7.84375 161.238 7.84375H159.394C158.873 7.84375 158.613 8.09375 158.613 8.59375V12.25C158.613 12.7708 158.842 13.0312 159.3 13.0312C159.758 13.0312 160.019 12.7812 160.081 12.2812C160.123 12.0521 160.31 11.6562 160.644 11.0938C160.998 10.4271 161.342 9.59375 161.675 8.59375ZM166.519 8.125C166.206 7.83333 165.883 7.73958 165.55 7.84375C165.217 7.84375 165.113 8 165.238 8.3125C165.383 8.8125 165.3 9.38542 164.988 10.0312L164.05 12.2812C163.863 12.7812 164.019 13.0312 164.519 13.0312H165.331C165.831 13.0312 166.133 13.0104 166.238 12.9688C166.55 12.8438 166.706 12.6354 166.706 12.3438V9.1875C166.769 8.6875 166.706 8.33333 166.519 8.125ZM145.706 19.7188C145.852 18.6146 146.498 17.9583 147.644 17.75H165.956C167.102 17.9375 167.79 18.5625 168.019 19.625V28.5625C167.935 29.6667 167.227 30.3854 165.894 30.7188H147.613C146.529 30.5729 145.894 29.8854 145.706 28.6562V19.7188ZM149.956 21.2188C149.581 21.3021 149.394 21.5729 149.394 22.0312C149.394 22.3854 149.644 22.5625 150.144 22.5625H163.581C164.081 22.5625 164.331 22.4375 164.331 22.1875C164.435 21.7917 164.279 21.4896 163.863 21.2812C163.738 21.2396 163.425 21.2188 162.925 21.2188H149.956ZM164.331 26.4375C164.331 26.0833 164.081 25.9062 163.581 25.9062H150.175C149.654 25.9062 149.394 26.0625 149.394 26.375C149.331 26.75 149.477 27.0312 149.831 27.2188C149.956 27.2604 150.269 27.2812 150.769 27.2812H163.019C163.519 27.2812 163.821 27.2604 163.925 27.2188C164.217 27.0312 164.352 26.7708 164.331 26.4375ZM182.156 1C182.76 0.708333 183.375 0.770833 184 1.1875C184.75 1.875 184.854 2.70833 184.312 3.6875C183.875 4.77083 183.292 5.97917 182.562 7.3125C182.292 7.83333 182.312 8.22917 182.625 8.5C182.958 8.83333 183.26 8.73958 183.531 8.21875L184.906 5.25C185.094 4.8125 185.458 4.52083 186 4.375C186.458 4.29167 186.865 4.34375 187.219 4.53125C187.719 4.78125 188.021 5.14583 188.125 5.625C188.188 6.02083 188.135 6.4375 187.969 6.875C187.448 7.97917 186.896 9.08333 186.312 10.1875C186.042 10.6875 186.062 10.8958 186.375 10.8125C186.958 10.7083 187.479 11.0312 187.938 11.7812C189 13.6562 189.75 15.4896 190.188 17.2812C190.188 17.7812 190.49 17.9792 191.094 17.875C191.698 17.875 191.833 17.6146 191.5 17.0938C190.812 15.5729 190.115 14.3646 189.406 13.4688C189.156 13.0312 188.969 12.6042 188.844 12.1875C188.802 11.3958 189.094 10.4688 189.719 9.40625C190.302 8.38542 190.781 7.32292 191.156 6.21875C191.51 5.71875 191.438 5.46875 190.938 5.46875C190.25 5.53125 189.688 5.46875 189.25 5.28125C188.771 5.03125 188.49 4.65625 188.406 4.15625C188.323 3.71875 188.385 3.29167 188.594 2.875C188.906 2.33333 189.333 2.05208 189.875 2.03125H205.812C206.604 2.09375 207.094 2.52083 207.281 3.3125C207.385 3.77083 207.333 4.20833 207.125 4.625C206.958 4.83333 206.729 5.05208 206.438 5.28125C206.104 5.42708 206.031 5.55208 206.219 5.65625C206.552 5.96875 206.708 6.30208 206.688 6.65625C206.604 7.71875 205.979 8.96875 204.812 10.4062C204.5 10.8438 204.406 11.2604 204.531 11.6562C204.656 12.0104 204.875 12.4271 205.188 12.9062C205.979 13.8229 206.594 14.6562 207.031 15.4062C207.427 16.2812 207.229 17.0417 206.438 17.6875C206.125 17.8542 206.094 17.9792 206.344 18.0625C206.823 18.2917 207.104 18.6771 207.188 19.2188C207.333 20.2812 206.865 20.9896 205.781 21.3438H200.656C200.135 21.3438 199.875 21.5938 199.875 22.0938V26.5C199.875 27.0208 200.125 27.2812 200.625 27.2812H206.281C206.844 27.3854 207.229 27.6146 207.438 27.9688C207.938 28.8229 207.792 29.6354 207 30.4062C206.771 30.5938 206.51 30.6979 206.219 30.7188H189.5C188.396 30.4688 187.906 29.7917 188.031 28.6875C188.281 27.8125 188.771 27.3438 189.5 27.2812H195.406C195.906 27.2812 196.156 27.0312 196.156 26.5312V22.0938C196.156 21.5938 195.906 21.3438 195.406 21.3438H190.688C189.771 21.1562 189.302 20.5833 189.281 19.625C189.323 19.1875 189.302 18.9896 189.219 19.0312C189.094 19.0729 188.833 19.0938 188.438 19.0938C187.938 19.0521 187.531 18.6979 187.219 18.0312C187.094 17.6979 186.781 17.5521 186.281 17.5938C185.76 17.6562 185.5 17.9375 185.5 18.4375V30.0938C185.104 31.5312 184.26 32.0208 182.969 31.5625C182.406 31.25 182.094 30.7708 182.031 30.125V18.7812C182.031 18.2812 181.781 18.0417 181.281 18.0625C180.51 18.125 179.708 18.2083 178.875 18.3125C177.792 18.4583 177.083 17.9688 176.75 16.8438C176.667 15.7188 177.208 15.0625 178.375 14.875C178.771 14.875 179.177 14.6146 179.594 14.0938L180.719 12.625C181.094 12.125 181.01 11.625 180.469 11.125C179.26 10.125 178.427 9.48958 177.969 9.21875C177.49 8.98958 177.125 8.64583 176.875 8.1875C176.604 7.52083 176.698 6.91667 177.156 6.375C177.552 5.85417 178.083 5.66667 178.75 5.8125C179.292 6 179.667 5.86458 179.875 5.40625C180.604 3.82292 181.104 2.625 181.375 1.8125C181.479 1.52083 181.74 1.25 182.156 1ZM197.281 6.25C197.677 5.72917 197.625 5.46875 197.125 5.46875H194.594C194.073 5.46875 193.917 5.5625 194.125 5.75C194.521 6.20833 194.635 6.72917 194.469 7.3125C194.219 8.22917 193.667 9.27083 192.812 10.4375C192.188 11.3125 192.25 12.1771 193 13.0312C193.688 13.8646 194.25 14.6979 194.688 15.5312C195.021 16.0104 195.073 16.5312 194.844 17.0938C194.49 17.6146 194.562 17.875 195.062 17.875H197.75C198.271 17.875 198.427 17.7917 198.219 17.625C197.927 17.4167 197.708 17.1146 197.562 16.7188C197.042 15.7396 196.531 14.9062 196.031 14.2188C195.76 13.9062 195.479 13.4896 195.188 12.9688C194.396 11.8229 194.573 10.5208 195.719 9.0625C196.344 8.16667 196.865 7.22917 197.281 6.25ZM203.25 6.3125C203.667 5.75 203.625 5.46875 203.125 5.46875H200.75C200.25 5.46875 200.125 5.625 200.375 5.9375C200.562 6.25 200.677 6.51042 200.719 6.71875C200.594 7.61458 200.042 8.65625 199.062 9.84375C198.062 11.0312 198.25 12.2812 199.625 13.5938C200.417 14.5521 200.906 15.3854 201.094 16.0938C201.156 16.5729 200.979 17.0417 200.562 17.5C200.229 17.75 200.312 17.875 200.812 17.875H203.875C204.396 17.875 204.552 17.8021 204.344 17.6562C204.135 17.4688 203.969 17.2708 203.844 17.0625C203.24 15.7292 202.469 14.4792 201.531 13.3125C200.927 12.5 200.771 11.625 201.062 10.6875C201.188 10.2917 201.375 9.875 201.625 9.4375C202.188 8.64583 202.729 7.60417 203.25 6.3125ZM185.219 13.375C185.01 12.7708 184.74 12.6979 184.406 13.1562L184.094 13.5625C183.719 14.1042 183.771 14.3542 184.25 14.3125L185.031 14.25C185.427 14.2083 185.49 13.9167 185.219 13.375ZM179.531 19.2812C180.323 19.0312 180.969 19.2604 181.469 19.9688C181.656 20.4271 181.708 20.9583 181.625 21.5625C181.354 23.8958 180.771 26.3958 179.875 29.0625C179.688 29.4583 179.417 29.7188 179.062 29.8438C178.583 30.0104 178.125 29.9792 177.688 29.75C177.229 29.5417 176.948 29.1875 176.844 28.6875C176.802 28.2917 176.885 27.7812 177.094 27.1562C177.802 24.8438 178.281 22.5521 178.531 20.2812C178.76 19.7188 179.094 19.3854 179.531 19.2812ZM186.406 19.6562C186.719 19.4271 187.104 19.3229 187.562 19.3438C188.042 19.3854 188.427 19.6458 188.719 20.125C188.885 20.4375 188.99 20.8542 189.031 21.375C189.24 22.625 189.458 23.875 189.688 25.125C189.771 25.5417 189.708 25.9271 189.5 26.2812C189.042 26.9062 188.469 27.1667 187.781 27.0625C187.156 26.9167 186.76 26.5104 186.594 25.8438C186.177 23.6146 185.896 21.9479 185.75 20.8438C185.729 20.3854 185.948 19.9896 186.406 19.6562ZM215.137 1.625H239.075C240.45 1.89583 241.273 2.78125 241.544 4.28125V28.3125C241.523 29.1667 241.054 29.9271 240.137 30.5938C239.762 30.8646 239.315 31.0312 238.794 31.0938H215.356C214.481 31.0312 213.71 30.4792 213.044 29.4375C212.856 29.0833 212.752 28.7292 212.731 28.375V4.0625C212.877 2.83333 213.679 2.02083 215.137 1.625ZM218.075 5.34375C217.617 5.28125 217.252 5.34375 216.981 5.53125C216.794 5.65625 216.648 5.85417 216.544 6.125C216.481 6.29167 216.45 6.625 216.45 7.125V25.5938C216.45 26.0938 216.492 26.4479 216.575 26.6562C216.762 27.0938 217.065 27.3438 217.481 27.4062H236.762C237.45 27.1771 237.815 26.7708 237.856 26.1875V6.40625C237.794 5.90625 237.44 5.55208 236.794 5.34375H218.075ZM225.856 6.375C226.544 5.72917 227.262 5.59375 228.012 5.96875C228.45 6.13542 228.762 6.5 228.95 7.0625C229.054 7.35417 229.085 7.88542 229.044 8.65625C229.044 9.17708 229.294 9.4375 229.794 9.4375H235.856C236.94 9.70833 237.429 10.3646 237.325 11.4062C237.262 12.2396 236.762 12.7812 235.825 13.0312H230.356C229.856 13.0312 229.669 13.2812 229.794 13.7812C230.335 15.5104 231.169 17.1354 232.294 18.6562C233.169 19.9062 234.346 21.1146 235.825 22.2812C236.408 22.6771 236.825 23 237.075 23.25C237.408 23.6458 237.585 24.0208 237.606 24.375C237.731 25.1458 237.398 25.7812 236.606 26.2812C235.919 26.6354 235.262 26.5938 234.637 26.1562C231.825 23.9062 229.575 21.2292 227.887 18.125C227.617 17.625 227.377 17.625 227.169 18.125C226.544 19.5625 225.523 21.0938 224.106 22.7188C222.752 24.1562 221.346 25.2188 219.887 25.9062C218.783 26.4479 217.95 26.4375 217.387 25.875C217.033 25.5417 216.815 25.125 216.731 24.625C216.585 23.6667 217.065 22.9583 218.169 22.5C219.544 21.8125 220.856 20.7083 222.106 19.1875C223.377 17.6667 224.294 15.8646 224.856 13.7812C224.96 13.2812 224.762 13.0312 224.262 13.0312H218.544C217.606 12.8438 217.096 12.3125 217.012 11.4375C216.908 10.75 217.2 10.1562 217.887 9.65625C218.054 9.57292 218.283 9.5 218.575 9.4375H224.606C225.106 9.4375 225.356 9.1875 225.356 8.6875C225.252 7.77083 225.419 7 225.856 6.375ZM259.4 2.3125C259.879 0.770833 260.806 0.322917 262.181 0.96875C262.64 1.21875 262.921 1.57292 263.025 2.03125C263.025 2.76042 262.848 3.64583 262.494 4.6875C262.348 5.1875 262.525 5.4375 263.025 5.4375H272.337C273.317 5.54167 274.025 6.14583 274.462 7.25C274.671 7.91667 274.64 8.73958 274.369 9.71875C274.223 10.2604 274.39 10.6458 274.869 10.875C275.994 11.9792 276.244 13.2708 275.619 14.75C275.473 15.25 275.65 15.5625 276.15 15.6875C277.025 16.125 277.515 16.8438 277.619 17.8438C277.681 20.3229 277.535 22.8125 277.181 25.3125C277.035 26.625 276.744 27.875 276.306 29.0625C275.848 30.125 275.119 30.8125 274.119 31.125C272.89 31.625 271.535 31.8125 270.056 31.6875C269.181 31.6458 268.348 31.4583 267.556 31.125C266.785 30.7083 266.379 30.1875 266.337 29.5625C266.317 29.2292 266.14 29.1458 265.806 29.3125C265.181 29.6042 264.546 29.5208 263.9 29.0625C263.567 28.7917 263.348 28.375 263.244 27.8125C262.973 26.2917 262.546 24.625 261.962 22.8125C261.733 22.0417 261.587 21.4167 261.525 20.9375C261.504 20.0417 261.962 19.4583 262.9 19.1875C263.775 18.9792 264.442 19.3229 264.9 20.2188C265.9 22.8229 266.546 25.0833 266.837 27C266.858 27.5417 267.119 27.6562 267.619 27.3438C268.285 27.1354 269.108 27.2604 270.087 27.7188C271.004 28.0312 271.837 27.8438 272.587 27.1562C272.858 26.8438 273.025 26.4271 273.087 25.9062C273.317 25.0521 273.452 24.2604 273.494 23.5312C273.577 21.6562 273.546 20.3333 273.4 19.5625C273.275 19.2708 273.004 19.0938 272.587 19.0312H270.337C269.817 19.0312 269.723 19.2812 270.056 19.7812C271.348 21.9688 272.129 23.7708 272.4 25.1875C272.4 25.4792 272.348 25.7292 272.244 25.9375C271.535 26.7917 270.744 27.0104 269.869 26.5938C269.473 26.3229 269.192 25.9271 269.025 25.4062C268.442 24.0312 267.785 22.7812 267.056 21.6562C266.494 20.8229 266.337 20.0938 266.587 19.4688C266.733 19.1771 266.556 19.0312 266.056 19.0312H255.275C254.775 19.0312 254.337 19.2396 253.962 19.6562C253.587 20.0938 253.556 20.2917 253.869 20.25C254.577 20.3333 255.087 20.6875 255.4 21.3125C255.587 22.1667 255.39 23.3646 254.806 24.9062C254.098 26.9688 253.265 28.6354 252.306 29.9062C251.66 30.8854 250.91 31.2604 250.056 31.0312C248.973 30.5521 248.556 29.8125 248.806 28.8125C248.89 28.4792 249.129 28.0625 249.525 27.5625C250.546 26.0208 251.275 24.4062 251.712 22.7188C251.796 22.2188 251.577 22.2083 251.056 22.6875C249.952 24 248.91 24.2292 247.931 23.375C247.119 22.5833 247.004 21.75 247.587 20.875C247.775 20.6458 247.973 20.4583 248.181 20.3125C251.91 16.9583 254.692 13.4479 256.525 9.78125C256.775 9.28125 256.64 9.03125 256.119 9.03125H250.9C249.712 8.82292 249.129 8.15625 249.15 7.03125C249.233 6.55208 249.462 6.14583 249.837 5.8125C250.087 5.64583 250.442 5.52083 250.9 5.4375H253.275C253.775 5.4375 254.067 5.42708 254.15 5.40625C254.233 5.34375 254.015 5.13542 253.494 4.78125C253.119 4.57292 252.733 4.38542 252.337 4.21875C251.462 3.55208 251.254 2.77083 251.712 1.875C251.942 1.39583 252.306 1.11458 252.806 1.03125C253.202 0.927083 253.608 0.96875 254.025 1.15625C254.837 1.46875 255.671 1.90625 256.525 2.46875C257.629 3.17708 258.056 3.95833 257.806 4.8125C257.619 5.22917 257.671 5.4375 257.962 5.4375C258.233 5.4375 258.452 5.1875 258.619 4.6875C258.91 3.89583 259.171 3.10417 259.4 2.3125ZM270.087 9.1875C269.858 9.08333 269.504 9.03125 269.025 9.03125H261.525C261.025 9.03125 260.64 9.27083 260.369 9.75C260.181 10.2292 260.337 10.4688 260.837 10.4688H269.65C270.15 10.4688 270.421 10.3229 270.462 10.0312C270.504 9.71875 270.379 9.4375 270.087 9.1875ZM271.4 14.2188C271.15 14.0938 270.785 14.0312 270.306 14.0312H258.9C258.4 14.0312 257.983 14.2708 257.65 14.75C257.337 15.2292 257.431 15.4688 257.931 15.4688H270.775C271.275 15.4688 271.577 15.3333 271.681 15.0625C271.765 14.7292 271.671 14.4479 271.4 14.2188ZM256.619 20.9062C257.035 20.0104 257.733 19.6354 258.712 19.7812C259.608 20.0312 260.098 20.6458 260.181 21.625C260.431 23.5625 260.619 25.6458 260.744 27.875C260.785 28.6875 260.754 29.3021 260.65 29.7188C260.442 30.6354 259.942 31.1354 259.15 31.2188C258.108 31.2604 257.442 30.7396 257.15 29.6562C257.087 26.9062 256.879 24.3125 256.525 21.875C256.504 21.4583 256.535 21.1354 256.619 20.9062ZM297.381 1.03125C297.944 0.677083 298.59 0.635417 299.319 0.90625C300.027 1.28125 300.413 1.80208 300.475 2.46875V5.84375C300.475 6.36458 300.725 6.625 301.225 6.625H310.1C311.121 6.8125 311.652 7.38542 311.694 8.34375C311.756 8.78125 311.631 9.20833 311.319 9.625C310.985 10.0417 310.59 10.2812 310.131 10.3438H301.256C300.735 10.3438 300.475 10.5938 300.475 11.0938V15.7188C300.475 16.2396 300.725 16.5 301.225 16.5H309.475C309.954 16.5625 310.36 16.7812 310.694 17.1562C311.215 18.0938 311.215 18.875 310.694 19.5C310.36 19.9167 309.965 20.1562 309.506 20.2188H301.256C300.735 20.2188 300.475 20.4688 300.475 20.9688V26.0938C300.475 26.6146 300.725 26.875 301.225 26.875H311.725C312.496 26.9583 313.006 27.3854 313.256 28.1562C313.34 28.5521 313.308 28.9688 313.163 29.4062C312.871 30.1354 312.392 30.5312 311.725 30.5938H284.631C283.902 30.5312 283.371 30.0938 283.038 29.2812C282.913 28.7396 282.965 28.25 283.194 27.8125C283.485 27.2708 283.954 26.9583 284.6 26.875H295.756C296.256 26.875 296.506 26.625 296.506 26.125V20.9688C296.506 20.4688 296.256 20.2188 295.756 20.2188H287.694C286.36 19.9688 285.808 19.1875 286.038 17.875C286.246 17.0833 286.767 16.625 287.6 16.5H295.756C296.256 16.5 296.506 16.25 296.506 15.75V11.0938C296.506 10.5938 296.256 10.3438 295.756 10.3438H290.444C289.944 10.3438 289.558 10.5938 289.288 11.0938C288.475 12.5521 287.652 13.7604 286.819 14.7188C286.215 15.4062 285.746 15.8229 285.413 15.9688C284.6 16.3229 283.788 16.0521 282.975 15.1562C282.392 14.3854 282.517 13.5521 283.35 12.6562C284.433 11.5104 285.329 10.2604 286.038 8.90625C286.975 7.13542 287.6 5.26042 287.913 3.28125C287.913 3.07292 287.954 2.86458 288.038 2.65625C288.558 1.63542 289.319 1.23958 290.319 1.46875C291.36 1.73958 291.829 2.40625 291.725 3.46875C291.683 4.11458 291.548 4.90625 291.319 5.84375C291.173 6.36458 291.35 6.625 291.85 6.625H295.756C296.256 6.625 296.506 6.375 296.506 5.875V2.46875C296.61 1.82292 296.902 1.34375 297.381 1.03125ZM344.425 1.1875C345.237 0.958333 345.915 1.10417 346.456 1.625C347.019 2.35417 347.154 3.13542 346.862 3.96875C346.758 4.32292 346.529 4.59375 346.175 4.78125C344.383 5.36458 342.154 5.77083 339.487 6C338.987 6.04167 338.737 6.3125 338.737 6.8125V8.875C338.737 9.39583 338.987 9.65625 339.487 9.65625H346.831C347.915 9.86458 348.435 10.5521 348.394 11.7188C348.29 12.5729 347.769 13.1146 346.831 13.3438H339.519C338.998 13.3438 338.737 13.5938 338.737 14.0938V16.25C338.737 16.7708 338.987 17.0312 339.487 17.0312H345.112C346.258 17.1771 346.967 17.8438 347.237 19.0312V28.2812C346.987 29.4271 346.269 30.1562 345.081 30.4688H329.237C327.946 30.2188 327.248 29.5 327.144 28.3125V18.9375C327.477 17.8125 328.144 17.1771 329.144 17.0312H334.144C334.644 17.0312 334.894 16.7812 334.894 16.2812V14.0938C334.894 13.5938 334.644 13.3438 334.144 13.3438H327.112C326.362 13.2812 325.831 12.875 325.519 12.125C325.352 11.5 325.394 10.9792 325.644 10.5625C325.998 9.97917 326.467 9.67708 327.05 9.65625H334.144C334.644 9.65625 334.894 9.40625 334.894 8.90625V7.21875C334.894 6.71875 334.644 6.47917 334.144 6.5L329.269 6.78125C328.54 6.86458 327.967 6.8125 327.55 6.625C326.508 6 326.185 5.16667 326.581 4.125C326.915 3.33333 327.446 2.91667 328.175 2.875C332.217 2.6875 335.55 2.44792 338.175 2.15625C340.342 1.96875 342.425 1.64583 344.425 1.1875ZM319.675 1.71875C320.112 1.61458 320.581 1.71875 321.081 2.03125C322.331 2.78125 323.581 3.66667 324.831 4.6875C326.269 5.625 326.717 6.66667 326.175 7.8125C325.529 8.75 324.727 9.02083 323.769 8.625C323.435 8.45833 323.019 8.13542 322.519 7.65625C321.873 7.09375 321.04 6.46875 320.019 5.78125C319.602 5.53125 319.185 5.26042 318.769 4.96875C317.977 4.19792 317.883 3.375 318.487 2.5C318.821 2.02083 319.217 1.76042 319.675 1.71875ZM318.175 10.9062C319.008 9.86458 319.987 9.76042 321.112 10.5938C322.3 11.2812 323.55 12.1771 324.862 13.2812C325.842 14.0104 326.133 14.8438 325.737 15.7812C325.529 16.2604 325.185 16.6042 324.706 16.8125C323.977 17.1458 323.185 16.8854 322.331 16.0312C321.019 14.9271 319.769 14.0521 318.581 13.4062C317.769 12.7188 317.633 11.8854 318.175 10.9062ZM323.644 18.125C324.331 17.3958 325.06 17.2188 325.831 17.5938C326.665 18.0521 327.029 18.6771 326.925 19.4688C325.967 23.1146 324.383 26.4479 322.175 29.4688C321.883 29.8646 321.498 30.2917 321.019 30.75C320.165 31.5625 319.331 31.7083 318.519 31.1875C318.123 30.9583 317.821 30.5625 317.612 30C317.342 29.375 317.498 28.75 318.081 28.125C320.54 25.4167 322.227 22.5 323.144 19.375C323.29 18.8333 323.456 18.4167 323.644 18.125ZM331.55 20.75C331.217 20.8542 331.029 21.0625 330.987 21.375V26.0938C331.008 26.2812 331.092 26.4583 331.237 26.625C331.487 26.7708 331.873 26.8229 332.394 26.7812H341.925C342.425 26.8438 342.831 26.7708 343.144 26.5625C343.29 26.4167 343.373 26.25 343.394 26.0625V22.125C343.394 21.625 343.352 21.2708 343.269 21.0625C342.998 20.7292 342.571 20.6146 341.987 20.7188H332.456C331.956 20.7188 331.654 20.7292 331.55 20.75ZM365.969 2.59375C366.177 1.34375 366.906 0.739583 368.156 0.78125C369.198 0.885417 369.833 1.47917 370.062 2.5625V4.59375C370.062 5.11458 370.312 5.375 370.812 5.375H379.656C380.094 5.4375 380.51 5.58333 380.906 5.8125C381.719 6.35417 382.208 7.16667 382.375 8.25V20.8125C382.25 21.7292 381.74 22.5312 380.844 23.2188C380.448 23.4896 379.979 23.6562 379.438 23.7188H370.844C370.323 23.7188 370.062 23.9688 370.062 24.4688V29.8125C369.896 30.9375 369.302 31.6042 368.281 31.8125C367.948 31.8542 367.594 31.8021 367.219 31.6562C366.51 31.4062 366.094 30.8229 365.969 29.9062V24.4688C365.969 23.9688 365.719 23.7188 365.219 23.7188H356.344C355.385 23.6354 354.562 23.0521 353.875 21.9688C353.688 21.6354 353.573 21.3229 353.531 21.0312V8.09375C353.74 6.59375 354.635 5.6875 356.219 5.375H365.219C365.719 5.375 365.969 5.125 365.969 4.625V2.59375ZM359.281 9.34375C358.802 9.34375 358.438 9.38542 358.188 9.46875C357.604 9.90625 357.375 10.4583 357.5 11.125V18.5C357.562 19.1667 357.927 19.5833 358.594 19.75H365.219C365.719 19.75 365.969 19.5 365.969 19V10.0938C365.969 9.59375 365.719 9.34375 365.219 9.34375H359.281ZM378.406 10.4688C378.156 9.59375 377.542 9.21875 376.562 9.34375H370.844C370.323 9.34375 370.062 9.59375 370.062 10.0938V18.9688C370.062 19.4896 370.312 19.75 370.812 19.75H377.156C377.365 19.7292 377.573 19.6562 377.781 19.5312C378.115 19.3229 378.323 18.9688 378.406 18.4688V10.4688ZM23.5625 40.9062C24.2292 39.8229 25.1042 39.4896 26.1875 39.9062C27.0833 40.4479 27.4271 41.2083 27.2188 42.1875L27.125 42.6562C27.0833 43.1562 27.3125 43.4062 27.8125 43.4062H34.2812C34.6979 43.4479 35.1146 43.5312 35.5312 43.6562C36.6562 44.0729 37.2917 45.0625 37.4375 46.625V48.6562C37.3542 54.5104 37.1562 59.1042 36.8438 62.4375C36.5521 64.5417 36.1042 66.2083 35.5 67.4375C34.625 68.9375 33.4792 69.8438 32.0625 70.1562C30.125 70.5312 28.1042 70.4271 26 69.8438C25.2917 69.6771 24.6667 69.4375 24.125 69.125C23.4792 68.6458 23.25 67.9271 23.4375 66.9688C23.8125 65.9479 24.5312 65.4688 25.5938 65.5312C25.9479 65.5729 26.3646 65.6667 26.8438 65.8125C27.7604 66.0833 28.5938 66.25 29.3438 66.3125C30.0104 66.3958 30.5521 66.3542 30.9688 66.1875C31.3438 66.0625 31.6979 65.75 32.0312 65.25C32.5729 64.3125 32.8958 63.0625 33 61.5C33.3958 55.8333 33.4896 51.5208 33.2812 48.5625C33.2812 48.3542 33.25 48.1458 33.1875 47.9375C32.9792 47.4167 32.625 47.1354 32.125 47.0938H26.875C26.375 47.0938 26.0312 47.3438 25.8438 47.8438C25.3438 49.2188 24.7396 50.4271 24.0312 51.4688C23.3854 52.3854 22.7083 52.7812 22 52.6562C21.625 52.5729 21.4375 52.7812 21.4375 53.2812V67.3125C21.2083 68.4375 20.5104 69.1562 19.3438 69.4688H10.5312C9.23958 69.2188 8.5625 68.4896 8.5 67.2812V46.2812C8.8125 44.7812 9.76042 44.1146 11.3438 44.2812C11.8438 44.2812 12.2396 44.0312 12.5312 43.5312C12.8854 42.9062 13.2604 42.1146 13.6562 41.1562C14.0312 40.3229 14.6146 39.9583 15.4062 40.0625C16.5938 40.2708 17.1667 40.8854 17.125 41.9062C17.0208 42.4688 16.8646 43.0104 16.6562 43.5312C16.4688 44.0312 16.625 44.2812 17.125 44.2812H19.4375C20.4375 44.3854 21.0938 44.9792 21.4062 46.0625L21.4688 47.8125C21.5104 47.875 21.5521 47.8958 21.5938 47.875C22.5312 46.1458 23.1146 44.2396 23.3438 42.1562C23.3646 41.6146 23.4375 41.1979 23.5625 40.9062ZM17.5312 48.0312C17.4688 47.9896 17.1875 47.9688 16.6875 47.9688H13.2188H12.4062C12.1979 48.1354 12.125 48.4688 12.1875 48.9688V53.9688C12.1875 54.4896 12.4375 54.75 12.9375 54.75H17C17.5 54.75 17.75 54.5 17.75 54V49.0625C17.8333 48.5625 17.7604 48.2188 17.5312 48.0312ZM25.9062 50.875C26.9688 50.5417 27.8125 51.1042 28.4375 52.5625C29.3333 54.375 30.0833 56.0417 30.6875 57.5625C31.1042 58.4583 31.3958 59.2917 31.5625 60.0625C31.6875 60.4167 31.6979 60.8229 31.5938 61.2812C31.4271 61.7812 31.0938 62.125 30.5938 62.3125C29.6562 62.6875 28.8854 62.3854 28.2812 61.4062C27.3438 58.7812 26.2708 56.2812 25.0625 53.9062C24.5208 53.1562 24.4583 52.3854 24.875 51.5938C25.125 51.2812 25.4688 51.0417 25.9062 50.875ZM17.75 59.25C17.75 58.7292 17.5104 58.4688 17.0312 58.4688H12.9688C12.4479 58.4688 12.1875 58.7188 12.1875 59.2188V64.7188C12.1458 65.2188 12.2083 65.5521 12.375 65.7188C12.4375 65.7604 12.7188 65.7812 13.2188 65.7812H16.6562C17.1771 65.8646 17.5208 65.7812 17.6875 65.5312C17.7292 65.4479 17.75 65.1562 17.75 64.6562V59.25ZM58.2313 39.8438C58.7313 39.7396 59.1896 39.7812 59.6063 39.9688C60.0854 40.2604 60.3875 40.6458 60.5125 41.125C60.5542 41.3958 60.8042 41.5312 61.2625 41.5312H71.7938C72.9813 41.6771 73.5438 42.3438 73.4813 43.5312C73.4604 43.8021 73.3146 44.1146 73.0438 44.4688C72.7104 44.7188 72.2833 44.8854 71.7625 44.9688H66.6688C66.1479 44.9688 65.8875 45.1146 65.8875 45.4062C65.8875 45.7188 66.1375 45.875 66.6375 45.875H70.1688C70.5854 45.9583 70.95 46.1042 71.2625 46.3125C71.5542 46.6667 71.7104 47.0417 71.7313 47.4375C71.7521 48.4583 71.2625 49.0938 70.2625 49.3438C69.6792 49.3229 69.0854 49.3229 68.4813 49.3438C68.4188 49.3854 68.5021 49.4896 68.7313 49.6562C69.0229 49.9479 69.1896 50.2917 69.2313 50.6875C69.2313 51.4375 69.2417 52.2083 69.2625 53C69.4292 53.3125 69.6896 53.4271 70.0438 53.3438C70.5229 53.2604 70.7521 52.9375 70.7313 52.375C70.8979 51.3958 71.4604 51 72.4188 51.1875C72.8563 51.3542 73.0958 51.6042 73.1375 51.9375C73.2417 52.375 73.2313 52.8021 73.1063 53.2188C72.9604 54.2396 72.7521 55.0312 72.4813 55.5938C72.1896 55.9688 71.8354 56.1979 71.4188 56.2812C69.9188 56.4896 68.5438 56.4062 67.2938 56.0312C66.9396 55.8854 66.6792 55.6354 66.5125 55.2812C66.4292 55.0104 66.3563 54.7292 66.2938 54.4375V50.6875C66.3354 50.2292 66.575 49.8333 67.0125 49.5C67.2208 49.3958 67.0646 49.3438 66.5438 49.3438C66.1063 49.3438 65.8875 49.5938 65.8875 50.0938V55.75C65.8458 55.9583 65.7833 56.1667 65.7 56.375C65.3667 56.8958 65.45 57.1562 65.95 57.1562H71.825C72.8667 57.3646 73.3667 57.8854 73.325 58.7188C73.3875 59.6979 72.9188 60.3229 71.9188 60.5938H58.2313C57.7313 60.5938 57.3667 60.7188 57.1375 60.9688C56.95 61.2396 57.1063 61.375 57.6063 61.375H69.2C70.3458 61.5833 71.0125 62.2083 71.2 63.25V67.8438C71.0125 68.9688 70.3458 69.6771 69.2 69.9688H53.1375C52.1583 69.8646 51.5333 69.25 51.2625 68.125C51.2417 67.75 51.2313 67.375 51.2313 67C51.2313 66.5 50.9813 66.375 50.4813 66.625C49.8354 66.9583 49.1063 67.1979 48.2938 67.3438C47.9604 67.3854 47.6792 67.3125 47.45 67.125C47.0542 66.625 46.7938 66.625 46.6688 67.125C46.4188 67.8958 46.2 68.4688 46.0125 68.8438C45.3875 69.8229 44.6063 70.1042 43.6688 69.6875C43.2104 69.4375 42.8771 69.0625 42.6688 68.5625C42.5438 68.125 42.5542 67.7083 42.7 67.3125C43.1792 66.125 43.6063 64.4583 43.9813 62.3125C44.2938 60.2708 44.4604 58.3229 44.4813 56.4688V43.7188C44.5646 42.7396 45.1375 42.0417 46.2 41.625L46.7 41.5312H56.2C56.7 41.5312 56.9813 41.375 57.0438 41.0625C57.1896 40.4583 57.5854 40.0521 58.2313 39.8438ZM48.7625 44.9688C48.3042 45.1146 48.075 45.3646 48.075 45.7188C48.075 45.9271 48.325 45.9792 48.825 45.875H49.0125H51.0438C51.5438 45.875 51.7938 45.7188 51.7938 45.4062C51.7729 45.1146 51.5125 44.9688 51.0125 44.9688H48.7625ZM62.45 45.4375C62.4292 45.125 62.1688 44.9688 61.6688 44.9688H56.0438C55.5229 44.9688 55.2625 45.1146 55.2625 45.4062C55.2625 45.7188 55.5125 45.875 56.0125 45.875H57.7C57.9083 45.9167 58.1688 46.0104 58.4813 46.1562C58.7938 46.4062 59.0438 46.4375 59.2313 46.25C59.3979 46.1042 59.7104 45.9792 60.1688 45.875H61.6688C62.1688 45.875 62.4292 45.7292 62.45 45.4375ZM58.9813 48.75C58.9396 48.6667 58.7729 48.7396 58.4813 48.9688C58.1688 49.1562 57.9083 49.2812 57.7 49.3438H56.0438C55.5229 49.3438 55.2625 49.5938 55.2625 50.0938V55.6562C55.2417 55.8646 55.1792 56.0729 55.075 56.2812C54.5958 56.8646 54.6167 57.1562 55.1375 57.1562H62.2625C62.7625 57.1562 62.8667 56.9062 62.575 56.4062C62.5125 56.2604 62.4604 56.0833 62.4188 55.875V50.0938C62.4188 49.5938 62.1688 49.3438 61.6688 49.3438H60.0438C59.6479 49.2812 59.2938 49.0833 58.9813 48.75ZM49.0125 49.3438H48.825C48.325 49.2812 48.075 49.5 48.075 50V52.6875V52.875C48.1167 53.375 48.1583 53.6146 48.2 53.5938C48.5542 52.8854 48.7417 52.0208 48.7625 51C48.7833 50.5417 49.0333 50.1562 49.5125 49.8438C50.1792 49.4896 50.8146 49.5521 51.4188 50.0312C51.6271 50.2812 51.7521 50.2188 51.7938 49.8438C51.7938 49.5104 51.5438 49.3438 51.0438 49.3438H49.0125ZM60.6375 49.5938C61.575 49.6354 62.1271 50.1146 62.2938 51.0312C62.2104 52.2396 62.0021 53.4896 61.6688 54.7812C61.5854 55.1562 61.4083 55.5729 61.1375 56.0312C60.6583 56.8646 59.9813 57.1458 59.1063 56.875C58.4813 56.5833 58.1479 56.125 58.1063 55.5C58.1063 55.2708 57.9708 55.2917 57.7 55.5625C57.3875 55.8333 57.0333 55.9375 56.6375 55.875C55.9292 55.6667 55.5438 55.2396 55.4813 54.5938V50.8438C55.5854 50.1771 55.9604 49.7917 56.6063 49.6875C57.5021 49.5833 58.0542 49.9896 58.2625 50.9062V53.4375L58.2938 54.25C58.3146 54.3125 58.3563 54.3229 58.4188 54.2812C58.7938 53.5938 59.0125 52.7396 59.075 51.7188C59.1375 51.3229 59.2417 50.9062 59.3875 50.4688C59.6167 49.9271 60.0333 49.6354 60.6375 49.5938ZM51.7938 52.8438C51.7729 52.7812 51.6792 53.0104 51.5125 53.5312C51.2625 54.8438 50.8042 55.8438 50.1375 56.5312C49.6375 56.9271 49.1063 56.9896 48.5438 56.7188C48.2313 56.5312 48.0646 56.6458 48.0438 57.0625C48.0438 57.4792 48.2 57.5833 48.5125 57.375C48.825 57.25 49.0438 57.1771 49.1688 57.1562H51.7938C52.2938 57.1562 52.4188 57 52.1688 56.6875C51.9813 56.3958 51.8563 56.0729 51.7938 55.7188V53.625V52.8438ZM48.7 60.4375C48.1583 60.1042 47.8667 60.1667 47.825 60.625L47.4813 63.4062C47.4188 63.8854 47.6583 64.0104 48.2 63.7812C49.9083 63.0104 51.2417 62.2292 52.2 61.4375C52.7833 60.875 52.825 60.5938 52.325 60.5938H49.2313C49.0438 60.5521 48.8667 60.5 48.7 60.4375ZM55.2 64.9062C54.9917 65.0104 54.8667 65.1979 54.825 65.4688C54.7417 65.8854 54.8875 66.2188 55.2625 66.4688C55.3458 66.4896 55.6375 66.5 56.1375 66.5H66.9813C67.6063 66.25 67.7833 65.8125 67.5125 65.1875C67.3042 64.8542 66.8875 64.7396 66.2625 64.8438H56.1688C55.6688 64.8438 55.3458 64.8646 55.2 64.9062ZM82.9625 39.7188C84.0875 39.5521 84.7854 40.0833 85.0563 41.3125C85.0563 41.7292 85.3063 41.9375 85.8063 41.9375H87.4625C87.9625 41.9375 88.2333 41.6875 88.275 41.1875C88.525 40.1042 89.1708 39.6042 90.2125 39.6875C91.1292 39.9792 91.6083 40.4688 91.65 41.1562C91.6708 41.6771 91.9313 41.9375 92.4313 41.9375C93.3479 41.8542 94.0146 41.9271 94.4313 42.1562C94.6396 42.2604 94.7958 42.4375 94.9 42.6875C95.1083 43.1042 95.1396 43.5208 94.9938 43.9375C94.7854 44.5833 94.3792 44.9479 93.775 45.0312H92.4625C91.9417 45.0312 91.6813 45.2812 91.6813 45.7812C91.7229 46.4062 91.6396 46.9583 91.4313 47.4375C91.2021 47.9583 90.8583 48.2917 90.4 48.4375C90.025 48.5833 89.6292 48.6562 89.2125 48.6562C88.6917 48.6562 88.4313 48.7812 88.4313 49.0312C88.4313 49.3229 88.6813 49.4688 89.1813 49.4688H91.8375H92.025C92.525 49.5312 92.9729 49.3125 93.3688 48.8125C95.2438 46.4167 96.5146 43.9583 97.1813 41.4375C97.3896 40.625 97.8375 40.125 98.525 39.9375C98.9833 39.7917 99.4208 39.8438 99.8375 40.0938C100.213 40.2812 100.473 40.5417 100.619 40.875C100.806 41.25 100.827 41.6667 100.681 42.125C100.556 42.5833 100.244 43.4688 99.7438 44.7812C99.5563 45.2812 99.7542 45.5312 100.338 45.5312C100.921 45.5312 101.327 45.2812 101.556 44.7812C102.035 43.7188 102.452 42.5104 102.806 41.1562C102.952 40.6979 103.296 40.3542 103.838 40.125C104.546 39.8958 105.171 40.0208 105.713 40.5C105.9 40.6875 106.035 40.8854 106.119 41.0938C106.244 42.1146 106.015 43.3229 105.431 44.7188C105.244 45.2604 105.379 45.5312 105.838 45.5312H107.369C108.473 45.7812 108.994 46.4271 108.931 47.4688C108.744 48.3854 108.223 48.8854 107.369 48.9688H105.275C104.754 48.9688 104.494 49.2188 104.494 49.7188V51.875C104.494 52.3958 104.744 52.6562 105.244 52.6562H107.338C107.796 52.6979 108.171 52.8958 108.463 53.25C108.775 53.75 108.858 54.2917 108.713 54.875C108.463 55.5833 108.004 55.9896 107.338 56.0938H105.275C104.754 56.0938 104.494 56.3438 104.494 56.8438V58.7188C104.494 59.2396 104.744 59.5 105.244 59.5H107.244C107.91 59.5625 108.379 59.8854 108.65 60.4688C109.004 61.4479 108.713 62.2396 107.775 62.8438C107.525 62.9271 107.088 62.9688 106.463 62.9688H105.275C104.754 62.9688 104.494 63.2188 104.494 63.7188V65.8438C104.494 66.3646 104.744 66.625 105.244 66.625H107.431C108.556 66.8542 109.098 67.4896 109.056 68.5312C108.827 69.5104 108.285 70.0312 107.431 70.0938H97.5563C97.1396 70.0521 96.7229 69.9375 96.3063 69.75C95.4521 69.1667 94.9833 68.4167 94.9 67.5V53.25C94.9 52.75 94.775 52.5833 94.525 52.75C94.275 52.875 94.15 53.1875 94.15 53.6875C94.2958 55.0208 93.6917 55.8854 92.3375 56.2812H89.2125C88.6917 56.2812 88.4313 56.4271 88.4313 56.7188C88.4313 57.0521 88.6813 57.2188 89.1813 57.2188H92.8063C93.6604 57.3854 94.0979 57.8542 94.1188 58.625C94.0979 59.5 93.6604 60.0521 92.8063 60.2812H89.15C88.65 60.2812 88.3792 60.4375 88.3375 60.75C88.3167 61.0625 88.5563 61.2188 89.0563 61.2188H93.4313C94.2646 61.3854 94.7021 61.8333 94.7438 62.5625C94.7646 63.4583 94.3271 64.0312 93.4313 64.2812H91.0563C90.5354 64.2812 90.5458 64.4792 91.0875 64.875C91.8583 65.4792 92.6396 66.1042 93.4313 66.75C94.3479 67.3125 94.6604 68.1146 94.3688 69.1562C94.1604 69.6562 93.8167 70.0104 93.3375 70.2188C92.7125 70.4688 92.0875 70.3229 91.4625 69.7812C89.9625 68.3229 88.6292 67.0938 87.4625 66.0938C86.9417 65.6562 86.5146 65.6771 86.1813 66.1562C84.9521 67.7812 83.4417 69.0312 81.65 69.9062C80.6083 70.4062 79.775 70.5833 79.15 70.4375C78.7125 70.3333 78.3688 70.0104 78.1188 69.4688C77.7021 68.4896 78.025 67.7188 79.0875 67.1562C80.2125 66.8229 81.3583 66.125 82.525 65.0625C83.0042 64.5417 82.9938 64.2812 82.4938 64.2812H79.7438C78.7854 64.0938 78.3271 63.5312 78.3688 62.5938C78.4521 61.8646 78.8792 61.4062 79.65 61.2188H84.0563C84.5563 61.2188 84.8375 61.0625 84.9 60.75C84.9208 60.4375 84.6813 60.2812 84.1813 60.2812H80.5875C79.8792 60.1562 79.4417 59.7292 79.275 59C79.1917 58 79.6188 57.4062 80.5563 57.2188H84.2125C84.7125 57.2188 84.9625 57.0625 84.9625 56.75C84.9625 56.4375 84.7125 56.2812 84.2125 56.2812H80.7125C79.7542 56.0521 79.2125 55.4583 79.0875 54.5V51.1875C79.2542 50.2292 79.8063 49.6562 80.7438 49.4688H84.2125C84.7125 49.4688 84.9625 49.3333 84.9625 49.0625C84.9625 48.7917 84.7125 48.6562 84.2125 48.6562C83.0667 48.7812 82.2438 48.3021 81.7438 47.2188C81.5979 46.8229 81.5458 46.3438 81.5875 45.7812C81.5875 45.2812 81.3375 45.0312 80.8375 45.0312H79.7438C78.7854 44.8854 78.3271 44.2917 78.3688 43.25C78.4313 42.6042 78.8792 42.1667 79.7125 41.9375H80.8375C81.3375 41.9375 81.6083 41.6875 81.65 41.1875C81.7125 40.4583 82.15 39.9688 82.9625 39.7188ZM88.2125 45.2812C88.2125 45.1146 87.9729 45.0312 87.4938 45.0312H85.8375C85.3375 45.0312 85.0771 45.0521 85.0563 45.0938C84.9938 45.4062 85.0979 45.625 85.3688 45.75C85.4938 45.7917 85.8792 45.8125 86.525 45.8125C87.1917 45.8125 87.6292 45.7708 87.8375 45.6875C88.0667 45.6042 88.1917 45.4688 88.2125 45.2812ZM99.15 48.9688C98.7542 49.0938 98.5354 49.3125 98.4938 49.625V51.875C98.4938 52.3958 98.7438 52.6562 99.2438 52.6562H100.15C100.65 52.6562 100.9 52.4062 100.9 51.9062V49.7188C100.9 49.2188 100.65 48.9688 100.15 48.9688H99.15ZM84.9625 52.875C84.9625 52.4792 84.7229 52.2812 84.2438 52.2812H83.5563C83.0563 52.2812 82.7646 52.3021 82.6813 52.3438C82.6188 52.3854 82.5771 52.5312 82.5563 52.7812C82.5354 53.0312 82.5771 53.2292 82.6813 53.375C82.7438 53.4167 83.025 53.4375 83.525 53.4375H84.2125C84.7125 53.4375 84.9625 53.25 84.9625 52.875ZM90.5563 52.3438C90.4938 52.3021 90.1292 52.2812 89.4625 52.2812C88.775 52.2812 88.4313 52.4688 88.4313 52.8438C88.4313 53.2396 88.775 53.4375 89.4625 53.4375C90.1292 53.4375 90.4938 53.4167 90.5563 53.375C90.6813 53.2917 90.7438 53.1771 90.7438 53.0312C90.7854 52.7396 90.7229 52.5104 90.5563 52.3438ZM100.9 56.875C100.9 56.3542 100.66 56.0938 100.181 56.0938H99.275C98.7542 56.0938 98.4938 56.3438 98.4938 56.8438V58.7188C98.4938 59.2396 98.7438 59.5 99.2438 59.5H100.15C100.65 59.5 100.9 59.25 100.9 58.75V56.875ZM100.9 63.75C100.9 63.2292 100.66 62.9688 100.181 62.9688H99.275C98.7542 62.9688 98.4938 63.2188 98.4938 63.7188V65.125C98.4938 65.625 98.5354 65.9792 98.6188 66.1875C98.7229 66.375 98.9208 66.5104 99.2125 66.5938C99.525 66.6146 99.8375 66.625 100.15 66.625C100.65 66.625 100.9 66.375 100.9 65.875V63.75ZM112.944 42.75C113.027 41.9167 113.569 41.375 114.569 41.125H142.319C143.381 41.3333 143.912 41.9688 143.912 43.0312C143.85 44.0104 143.308 44.6146 142.287 44.8438H130.725C130.225 44.8438 129.86 45.0938 129.631 45.5938L128.912 46.9375C128.621 47.4792 128.715 47.75 129.194 47.75H139.881C140.277 47.7917 140.694 47.9583 141.131 48.25C141.881 48.8333 142.308 49.5417 142.412 50.375V67.6562C142.392 68.0938 142.298 68.5104 142.131 68.9062C141.61 69.8438 140.86 70.375 139.881 70.5C138.86 70.7292 137.642 70.7812 136.225 70.6562C135.267 70.6771 134.558 70.2604 134.1 69.4062C134.017 69.1146 133.819 69.1458 133.506 69.5C133.027 69.9375 132.444 70.0729 131.756 69.9062C130.985 69.6354 130.558 69.0833 130.475 68.25V52.2188C130.475 51.7188 130.225 51.4688 129.725 51.4688H126.819C126.298 51.4688 126.037 51.7188 126.037 52.2188V68.25C125.725 69.6458 124.902 70.1875 123.569 69.875C122.84 69.625 122.433 69.0833 122.35 68.25V52.2188C122.35 51.7188 122.1 51.4688 121.6 51.4688H119.631C119.131 51.4062 118.735 51.4583 118.444 51.625C117.985 52 117.808 52.5208 117.912 53.1875V69.0938C117.85 69.8438 117.444 70.3958 116.694 70.75C116.152 70.9167 115.673 70.9062 115.256 70.7188C114.673 70.4062 114.329 69.8646 114.225 69.0938V50.2812C114.267 49.9062 114.423 49.4896 114.694 49.0312C115.277 48.2604 115.985 47.8333 116.819 47.75H123.1C123.6 47.75 124.006 47.5 124.319 47L125.1 45.625C125.412 45.1042 125.319 44.8438 124.819 44.8438H114.569C113.381 44.5729 112.84 43.875 112.944 42.75ZM137.725 51.4688H134.944C134.423 51.4688 134.162 51.7188 134.162 52.2188V66.9688C134.162 67.5104 134.235 67.6667 134.381 67.4375C134.923 66.8333 135.527 66.5833 136.194 66.6875L137.444 66.9375C138.215 67.0625 138.642 66.6771 138.725 65.7812V52.5312C138.704 52.0729 138.371 51.7188 137.725 51.4688ZM163.113 40.5312C163.863 39.8229 164.706 39.7292 165.644 40.25C166.165 40.6042 166.456 41.125 166.519 41.8125V44C166.519 44.5208 166.769 44.7812 167.269 44.7812H175.925C177.008 44.9896 177.529 45.6771 177.488 46.8438C177.383 47.6979 176.863 48.2396 175.925 48.4688H167.3C166.779 48.4688 166.519 48.7188 166.519 49.2188V53.25C166.519 53.7708 166.769 54.0312 167.269 54.0312H177.394C178.519 54.2604 179.05 54.8958 178.988 55.9375C178.904 56.8958 178.373 57.4896 177.394 57.7188H168.05C167.55 57.7188 167.435 57.9792 167.706 58.5C168.31 59.7708 169.31 61.0833 170.706 62.4375C172.29 63.8333 173.956 64.9479 175.706 65.7812C176.54 66.1562 177.373 66.5208 178.206 66.875C178.665 67.0625 179.05 67.375 179.363 67.8125C179.758 68.625 179.665 69.3854 179.081 70.0938C178.685 70.5312 178.363 70.7708 178.113 70.8125C177.363 70.9583 176.279 70.5729 174.863 69.6562C172.925 68.5729 171.258 67.4583 169.863 66.3125C167.988 64.7917 166.456 63.0729 165.269 61.1562C164.977 60.6771 164.675 60.6979 164.363 61.2188C162.613 64.0312 160.352 66.25 157.581 67.875C156.081 68.7292 154.415 69.5417 152.581 70.3125C151.644 70.6458 150.821 70.7604 150.113 70.6562C149.654 70.5938 149.269 70.3229 148.956 69.8438C148.685 69.3438 148.571 68.875 148.613 68.4375C148.696 67.6875 149.123 67.1667 149.894 66.875C152.685 66.125 155.185 64.9167 157.394 63.25C159.102 61.9583 160.456 60.3854 161.456 58.5312C161.706 57.9896 161.602 57.7188 161.144 57.7188H150.988C150.217 57.6562 149.675 57.2604 149.363 56.5312C149.175 55.8438 149.258 55.2396 149.613 54.7188C149.904 54.4271 149.894 54.1771 149.581 53.9688C148.498 53.0521 148.477 52.0729 149.519 51.0312C151.06 49.4271 152.185 47.7604 152.894 46.0312C153.415 44.8229 153.8 43.5729 154.05 42.2812C154.154 41.4896 154.508 40.8958 155.113 40.5C155.988 40.1042 156.79 40.2396 157.519 40.9062C157.935 41.4271 157.956 42.4479 157.581 43.9688C157.415 44.5104 157.571 44.7812 158.05 44.7812H161.8C162.3 44.7812 162.55 44.5312 162.55 44.0312V41.7812C162.592 41.3438 162.779 40.9271 163.113 40.5312ZM162.55 49.25C162.55 48.7292 162.31 48.4688 161.831 48.4688H156.644C156.144 48.4688 155.748 48.7188 155.456 49.2188C154.81 50.4271 153.883 51.7396 152.675 53.1562C152.133 53.7396 152.113 54.0312 152.613 54.0312H161.8C162.3 54.0312 162.55 53.7812 162.55 53.2812V49.25ZM198.375 39.9688C198.938 39.8438 199.448 39.8958 199.906 40.125C200.49 40.4167 200.833 40.9062 200.938 41.5938V43.7188C200.938 44.2396 201.188 44.5 201.688 44.5H210.5C211.625 44.7292 212.156 45.4167 212.094 46.5625C211.99 47.4167 211.458 47.9688 210.5 48.2188H201.719C201.198 48.2188 200.938 48.4688 200.938 48.9688V52.0938C200.938 52.6146 201.188 52.875 201.688 52.875H212.125C212.979 52.9583 213.5 53.4583 213.688 54.375C213.792 55.5208 213.281 56.2604 212.156 56.5938H201.156C200.656 56.5938 200.24 56.8438 199.906 57.3438C198.156 60.0729 196.312 62.6458 194.375 65.0625C193.958 65.5625 194 65.8021 194.5 65.7812L206.469 65.125C206.969 65.1042 207.01 64.8438 206.594 64.3438C205.594 63.1771 204.521 62 203.375 60.8125C202.833 60 202.885 59.1979 203.531 58.4062C204.531 57.4688 205.573 57.5938 206.656 58.7812C210.24 62.6979 212.625 65.6146 213.812 67.5312C214.104 68.0104 214.281 68.4271 214.344 68.7812C214.385 69.2188 214.24 69.6354 213.906 70.0312C212.552 71.1354 211.385 70.8229 210.406 69.0938C210.135 68.5729 209.865 68.375 209.594 68.5C202.094 69.0208 194.594 69.5625 187.094 70.125C186.76 70.1875 186.323 70.1875 185.781 70.125C185.281 70.0417 184.896 69.7604 184.625 69.2812C184.146 68.3854 184.24 67.5521 184.906 66.7812C185.094 66.5938 185.302 66.4583 185.531 66.375C186.052 66.25 186.885 66.1667 188.031 66.125C188.531 66.1042 189.01 65.8438 189.469 65.3438C191.594 62.7604 193.573 60.1042 195.406 57.375C195.74 56.8542 195.667 56.5938 195.188 56.5938H186.062C185.312 56.5312 184.781 56.125 184.469 55.375C184.302 54.75 184.344 54.2292 184.594 53.8125C184.927 53.25 185.406 52.9375 186.031 52.875H196.344C196.844 52.875 197.094 52.625 197.094 52.125V48.9688C197.094 48.4688 196.844 48.2188 196.344 48.2188H187.656C186.531 47.9688 185.979 47.3021 186 46.2188C186.042 45.3229 186.583 44.75 187.625 44.5H196.344C196.844 44.5 197.094 44.25 197.094 43.75V41.5625C197.198 40.8125 197.625 40.2812 198.375 39.9688ZM233.044 40.3438C233.71 39.8438 234.419 39.7396 235.169 40.0312C235.627 40.1562 235.992 40.4792 236.262 41C236.408 41.3542 236.45 41.9375 236.387 42.75C236.387 43.2708 236.637 43.5312 237.137 43.5312H247.919C248.835 43.6354 249.398 44.1354 249.606 45.0312C249.669 45.4688 249.617 45.8854 249.45 46.2812C249.096 47.0312 248.596 47.4271 247.95 47.4688H230.637C230.117 47.4688 229.856 47.7188 229.856 48.2188V49.75C229.856 50.2708 230.106 50.5312 230.606 50.5312H244.575C246.2 50.7604 247.085 51.6771 247.231 53.2812V55C247.169 59.3958 246.825 62.9896 246.2 65.7812C245.95 66.9062 245.658 67.7396 245.325 68.2812C245.137 68.6354 244.752 69.0417 244.169 69.5C242.669 70.4375 241.033 70.9271 239.262 70.9688H237.669C235.69 70.8854 234.023 70.6042 232.669 70.125C230.856 69.4792 230.106 68.4792 230.419 67.125C230.794 65.8958 231.523 65.3125 232.606 65.375C233.085 65.4583 233.502 65.5729 233.856 65.7188C235.94 66.5521 237.898 66.8542 239.731 66.625C240.773 66.4792 241.502 65.9167 241.919 64.9375C242.502 62.8125 242.794 60.5833 242.794 58.25V56.4375C242.773 56.0208 242.721 55.6042 242.637 55.1875C242.575 54.7708 242.242 54.5312 241.637 54.4688H230.356C229.856 54.4688 229.565 54.7188 229.481 55.2188C229.065 57.8021 228.346 60.2604 227.325 62.5938C226.679 64.1771 225.658 65.8438 224.262 67.5938C223.304 68.9062 222.106 69.7708 220.669 70.1875C219.69 70.2708 219.012 69.75 218.637 68.625C218.387 68.0208 218.596 67.375 219.262 66.6875C221.492 64.9583 223.127 62.8333 224.169 60.3125C225.273 57.5625 225.867 54.5 225.95 51.125V48.2188C225.95 47.7188 225.7 47.4688 225.2 47.4688H220.294C219.585 47.3854 219.075 46.9375 218.762 46.125C218.658 45.6667 218.658 45.25 218.762 44.875C218.971 44.1042 219.512 43.6562 220.387 43.5312H231.7C232.2 43.5312 232.45 43.2812 232.45 42.7812V41.5938C232.471 41.1771 232.669 40.7604 233.044 40.3438ZM268.4 39.8438C269.254 39.5521 270.004 39.9167 270.65 40.9375C270.817 41.375 270.775 41.9479 270.525 42.6562C270.317 43.1562 270.462 43.4062 270.962 43.4062H280.431C281.056 43.4271 281.681 43.7604 282.306 44.4062C282.702 44.8438 282.942 45.3958 283.025 46.0625V67.25C282.962 68.2917 282.546 69.1042 281.775 69.6875C280.817 70.2292 279.765 70.5104 278.619 70.5312H276.869C275.973 70.4896 275.14 70.4062 274.369 70.2812C272.577 70.1146 271.817 69.2083 272.087 67.5625C272.192 67.1458 272.473 66.75 272.931 66.375C273.494 66.0208 274.327 66.0208 275.431 66.375C276.348 66.5625 277.244 66.6562 278.119 66.6562C278.765 66.5104 279.129 66.0625 279.212 65.3125V48.1562C279.212 47.8646 279.025 47.5729 278.65 47.2812C278.358 47.0938 277.952 47.0312 277.431 47.0938H260.775C260.275 47.0938 259.921 47.125 259.712 47.1875C259.4 47.375 259.192 47.6042 259.087 47.875C259.067 47.9792 259.056 48.2812 259.056 48.7812V68.875C259.035 69.2708 258.837 69.6875 258.462 70.125C257.712 70.7917 256.879 70.8646 255.962 70.3438C255.525 70.0104 255.275 69.5312 255.212 68.9062V45.9375C255.254 45.5625 255.41 45.1458 255.681 44.6875C256.306 43.8958 257.004 43.4688 257.775 43.4062H264.744C265.244 43.4062 265.692 43.1562 266.087 42.6562C266.587 41.8021 267.15 41.0104 267.775 40.2812C267.983 40.0521 268.192 39.9062 268.4 39.8438ZM261.15 51.6562C261.275 50.5938 261.9 49.9167 263.025 49.625H274.962C276.004 49.7292 276.671 50.3854 276.962 51.5938V62.1875C276.671 63.3333 275.973 64.0521 274.869 64.3438H263.212C261.962 64.0938 261.275 63.375 261.15 62.1875V51.6562ZM265.556 53.3438C265.223 53.3854 265.004 53.5521 264.9 53.8438C264.858 53.9479 264.837 54.25 264.837 54.75V59.2188C264.837 59.7188 264.858 60.0208 264.9 60.125C264.983 60.4167 265.181 60.5833 265.494 60.625H272.681C272.994 60.5833 273.192 60.3438 273.275 59.9062V54.75C273.275 54.25 273.233 53.8958 273.15 53.6875C272.9 53.3542 272.473 53.2396 271.869 53.3438H265.556ZM306.038 40.4062C306.517 39.8438 307.048 39.625 307.631 39.75C308.694 39.9792 309.235 40.5938 309.256 41.5938C309.319 42.1146 309.6 42.375 310.1 42.375H312.819C313.319 42.375 313.527 42.2188 313.444 41.9062C313.298 41.3229 313.548 40.7604 314.194 40.2188C315.027 39.6979 315.829 39.8438 316.6 40.6562C317.85 42.0938 318.746 43.3438 319.288 44.4062C319.579 44.8646 319.746 45.2812 319.788 45.6562C319.85 46.3021 319.579 46.8021 318.975 47.1562C318.246 47.6354 317.527 47.5417 316.819 46.875C316.61 46.6042 316.413 46.3229 316.225 46.0312C315.871 45.5104 315.454 45.3958 314.975 45.6875C314.788 45.75 314.59 45.8021 314.381 45.8438H310.85C310.35 45.8438 310.163 46.0938 310.288 46.5938C310.579 47.6146 310.975 48.7708 311.475 50.0625C311.683 50.5625 311.913 50.5521 312.163 50.0312C312.392 49.5938 312.715 48.7917 313.131 47.625C313.277 47.1667 313.621 46.8229 314.163 46.5938C314.829 46.3646 315.496 46.5417 316.163 47.125C316.538 47.5625 316.6 48.1979 316.35 49.0312C315.954 50.4688 315.256 52 314.256 53.625C313.944 54.125 313.975 54.625 314.35 55.125L314.663 55.5C315.204 56.1667 315.704 56.5 316.163 56.5C316.225 56.4583 316.288 56.1875 316.35 55.6875C316.454 54.6042 316.621 53.7604 316.85 53.1562C317.225 52.6562 317.735 52.4375 318.381 52.5C319.277 52.5625 319.808 53.0729 319.975 54.0312C320.017 54.2812 319.996 54.6979 319.913 55.2812C319.767 56.6771 319.506 57.9271 319.131 59.0312C318.881 60.2396 318.121 60.8542 316.85 60.875C316.329 60.8125 316.256 61.0312 316.631 61.5312C317.694 63.0312 318.652 64.6667 319.506 66.4375C320.11 67.5208 320.11 68.375 319.506 69C318.985 69.5833 318.371 69.7812 317.663 69.5938C317.329 69.5312 316.975 69.25 316.6 68.75C315.871 67.2292 315.079 65.7812 314.225 64.4062C313.829 63.8854 313.631 63.8958 313.631 64.4375C313.569 65.6875 313.454 66.8542 313.288 67.9375C313.163 68.375 312.902 68.7917 312.506 69.1875C311.756 69.6667 310.923 69.9688 310.006 70.0938C309.11 70.2604 308.121 70.3646 307.038 70.4062H304.694C302.61 70.3229 300.944 70.0625 299.694 69.625C298.944 69.375 298.371 68.8646 297.975 68.0938C297.663 67.4062 297.485 66.6771 297.444 65.9062V61.0625C297.652 59.9167 298.267 59.3438 299.288 59.3438C300.329 59.4479 300.913 60.0104 301.038 61.0312V64.8125C301.1 65.4792 301.444 65.9167 302.069 66.125C302.819 66.3333 303.663 66.4583 304.6 66.5H306.6C307.558 66.4167 308.392 66.3021 309.1 66.1562C309.267 66.1146 309.454 65.9688 309.663 65.7188C309.871 65.3646 309.996 64.9375 310.038 64.4375C310.017 64.0208 310.048 63.6875 310.131 63.4375C310.59 62.3958 311.308 61.9688 312.288 62.1562C312.683 62.3229 312.84 62.2396 312.756 61.9062C312.652 61.1979 313.038 60.5833 313.913 60.0625C314.163 59.9792 314.017 59.7292 313.475 59.3125C313.079 58.9583 312.694 58.5729 312.319 58.1562C311.902 57.6562 311.433 57.6979 310.913 58.2812C309.558 59.7396 308.371 60.6562 307.35 61.0312C306.85 61.0938 306.767 61.375 307.1 61.875C307.558 62.6458 307.902 63.3854 308.131 64.0938C308.215 64.5104 308.079 64.9271 307.725 65.3438C307.413 65.6979 307.038 65.8958 306.6 65.9375C305.913 66.0208 305.319 65.6667 304.819 64.875C304.256 63.8333 303.725 63 303.225 62.375C302.496 61.3958 302.506 60.5625 303.256 59.875C303.694 59.4375 304.163 59.2708 304.663 59.375C305.038 59.4792 305.215 59.4167 305.194 59.1875C305.235 58.9375 304.996 58.8438 304.475 58.9062H304.288H297.444C296.381 58.7396 295.777 58.1146 295.631 57.0312V52.4375C295.756 51.6042 296.298 51.0312 297.256 50.7188H304.913C305.871 50.8438 306.475 51.4167 306.725 52.4375V56.4375V56.625C306.683 57.125 306.913 57.1667 307.413 56.75C307.933 56.25 308.433 55.7292 308.913 55.1875C309.413 54.625 309.517 54.0833 309.225 53.5625C308.079 51.2708 307.194 48.9479 306.569 46.5938C306.444 46.0938 306.131 45.8438 305.631 45.8438H296.069C295.652 45.9688 295.433 46.2083 295.413 46.5625V50.25C295.288 53 294.808 55.5 293.975 57.75C293.538 58.8333 293.069 59.6667 292.569 60.25C291.965 60.9792 291.277 61.1562 290.506 60.7812C290.069 60.6354 289.735 60.2917 289.506 59.75C289.34 59.375 289.34 58.9583 289.506 58.5C290.965 55.8542 291.735 52.875 291.819 49.5625V44.625C291.965 43.4167 292.715 42.6667 294.069 42.375H305.006C305.506 42.375 305.715 42.125 305.631 41.625C305.59 41.2292 305.725 40.8229 306.038 40.4062ZM296.1 48.0312C296.246 47.2812 296.704 46.8229 297.475 46.6562H304.975C305.829 46.8438 306.267 47.3021 306.288 48.0312C306.392 48.7188 306.058 49.2917 305.288 49.75C305.1 49.8125 304.694 49.8438 304.069 49.8438H297.569C296.485 49.6354 295.996 49.0312 296.1 48.0312ZM299.225 53.8125C299.163 53.8542 299.121 53.8958 299.1 53.9375C299.058 54.4792 299.058 55.0312 299.1 55.5938C299.246 55.8438 299.569 55.9271 300.069 55.8438H302.163C302.663 55.8438 302.965 55.8229 303.069 55.7812C303.194 55.7188 303.256 55.4062 303.256 54.8438C303.256 54.2812 303.246 53.9792 303.225 53.9375C303.183 53.875 303.131 53.8333 303.069 53.8125C303.027 53.7917 302.756 53.7812 302.256 53.7812H300.038C299.538 53.7812 299.267 53.7917 299.225 53.8125ZM294.069 60.2188C295.006 60.0729 295.673 60.4167 296.069 61.25C296.298 62.0417 296.048 63.1458 295.319 64.5625C294.444 66.7083 293.381 68.3646 292.131 69.5312C291.215 70.1146 290.392 69.9688 289.663 69.0938C289.163 68.4479 289.215 67.7188 289.819 66.9062C291.131 65.3438 292.069 63.6771 292.631 61.9062C292.735 61.4062 292.954 60.9896 293.288 60.6562C293.517 60.3854 293.777 60.2396 294.069 60.2188ZM335.956 42.7812C336.373 41.7604 337.092 41.1771 338.112 41.0312H351.456C352.748 41.2812 353.508 42.0521 353.737 43.3438V50.0312C353.612 51.4271 352.779 52.2812 351.237 52.5938H340.269C339.748 52.5938 339.487 52.8438 339.487 53.3438V57.3438C339.446 60.2812 338.706 63.6458 337.269 67.4375C336.873 68.4167 336.331 69.2396 335.644 69.9062C335.04 70.3854 334.362 70.4688 333.612 70.1562C333.029 69.8229 332.675 69.4688 332.55 69.0938C332.321 68.4688 332.404 67.8438 332.8 67.2188L333.3 66.25C333.508 65.75 333.592 65.4896 333.55 65.4688C333.196 65.8646 332.737 66.1146 332.175 66.2188H327.112C325.904 66.0521 325.217 65.3438 325.05 64.0938V44C325.112 43.5833 325.31 43.1667 325.644 42.75C326.019 42.2917 326.456 42.0521 326.956 42.0312H332.206C333.31 42.1562 333.987 42.8021 334.237 43.9688V62.8125L334.269 63.625C334.29 63.6875 334.404 63.4688 334.612 62.9688C335.321 60.7188 335.717 58.375 335.8 55.9375V43.4062C335.842 43.1979 335.894 42.9896 335.956 42.7812ZM340.3 44.7188C339.633 44.9062 339.362 45.4167 339.487 46.25V48.0938C339.487 48.6146 339.737 48.875 340.237 48.875H349.3C349.612 48.8542 349.842 48.6771 349.987 48.3438C350.029 48.2396 350.05 47.9375 350.05 47.4375V46.1562C350.05 45.6562 350.04 45.3542 350.019 45.25C349.79 44.7708 349.321 44.5938 348.612 44.7188H340.3ZM329.519 45.6875C329.206 45.7083 328.977 45.8646 328.831 46.1562C328.79 46.3021 328.769 46.6146 328.769 47.0938V61.0938C328.769 61.5938 328.79 61.9062 328.831 62.0312C329.06 62.5312 329.487 62.6667 330.112 62.4375C330.404 62.3542 330.55 62.1354 330.55 61.7812V47.125C330.55 46.625 330.508 46.2708 330.425 46.0625C330.217 45.7917 329.915 45.6667 329.519 45.6875ZM350.612 53.5938C351.487 52.8438 352.342 52.7708 353.175 53.375C353.987 54.1458 354.102 54.9792 353.519 55.875C353.29 56.2083 352.894 56.5833 352.331 57C349.706 59.1667 347.092 60.7604 344.487 61.7812C343.987 61.9688 343.737 62.3125 343.737 62.8125V64.75C343.842 65.5208 344.29 66.0208 345.081 66.25C347.144 66.625 348.852 66.5417 350.206 66C350.394 65.875 350.54 65.6146 350.644 65.2188C350.852 64.5521 350.935 63.5104 350.894 62.0938C351.185 60.6146 352.029 60.0521 353.425 60.4062C354.071 60.7188 354.456 61.2604 354.581 62.0312V63.7812C354.56 65.7188 354.415 67.1146 354.144 67.9688C354.04 68.3854 353.779 68.8021 353.362 69.2188C352.987 69.5312 352.571 69.7604 352.112 69.9062C351.029 70.1979 349.55 70.3854 347.675 70.4688H345.956C344.206 70.4062 342.748 70.0312 341.581 69.3438C341.102 68.9896 340.769 68.5938 340.581 68.1562C340.331 67.6562 340.154 66.8854 340.05 65.8438V55C340.112 54.1042 340.592 53.5104 341.487 53.2188C342.758 53.0312 343.508 53.6042 343.737 54.9375V57.3438C343.737 57.8438 343.987 57.9896 344.487 57.7812C345.654 57.2396 346.862 56.5312 348.112 55.6562C348.883 55.1354 349.717 54.4479 350.612 53.5938ZM364.875 42.375C366.083 41.9167 367.479 41.7292 369.062 41.8125C370.854 41.9167 372.521 42.4375 374.062 43.375C374.896 43.8542 375.635 44.5938 376.281 45.5938C376.698 46.3438 376.917 47.1146 376.938 47.9062C377.021 49.1354 376.844 50.2188 376.406 51.1562C376.115 51.9479 375.448 52.6458 374.406 53.25C373.698 53.7083 372.865 54.1875 371.906 54.6875C371.073 55.0625 370.562 55.5625 370.375 56.1875C370.312 56.3958 370.292 56.75 370.312 57.25C370.271 58.0208 369.854 58.5104 369.062 58.7188C368.75 58.8021 368.333 58.8021 367.812 58.7188C366.979 58.4896 366.521 58.0312 366.438 57.3438V55.0625C366.562 54.2083 367.062 53.4375 367.938 52.75C368.604 52.2917 369.438 51.8542 370.438 51.4375C370.75 51.2917 371.167 51.0729 371.688 50.7812C372.542 50.2188 373.021 49.5729 373.125 48.8438C373.271 47.2812 372.375 46.2292 370.438 45.6875C368.771 45.3542 367.406 45.3854 366.344 45.7812C365.552 46.0521 364.781 46.7292 364.031 47.8125C363.719 48.2292 363.427 48.6458 363.156 49.0625C362.469 49.7917 361.698 50.0104 360.844 49.7188C360.448 49.5729 360.125 49.2812 359.875 48.8438C359.521 48.1771 359.604 47.3438 360.125 46.3438C360.583 45.4896 361.333 44.6354 362.375 43.7812C363.083 43.1979 363.917 42.7292 364.875 42.375ZM367.031 61.7812C367.677 61.4896 368.448 61.4479 369.344 61.6562C371.031 62.1979 371.75 63.25 371.5 64.8125C371.188 65.8125 370.542 66.5 369.562 66.875C368.542 67.1875 367.615 67.125 366.781 66.6875C365.594 65.9583 365.073 65.0312 365.219 63.9062C365.365 62.9896 365.969 62.2812 367.031 61.7812Z" fill="#FFA79D"/>
</svg>
