<svg width="297" height="78" viewBox="0 0 297 78" fill="none" xmlns="http://www.w3.org/2000/svg">
<path d="M26.9614 71.1017L5.78063 46.3139L8.5617 44.9353L29.7425 69.7231L26.9614 71.1017Z" fill="black"/>
<path d="M46.3933 32.9049L42.4749 34.2037L43.8945 38.4866L47.8129 37.1878L46.3933 32.9049ZM46.4519 46.2018L50.3702 44.903L48.8801 40.4075L44.9618 41.7063L46.4519 46.2018ZM54.7988 47.0759L47.5392 49.4822L48.4051 52.0945L45.0639 53.202L38.0463 32.0307L48.6471 28.5169L54.7988 47.0759ZM58.7663 40.6366L65.4488 38.4216L64.16 34.5336L57.6294 36.6983L57.7805 37.1539C58.1429 38.2474 58.4951 39.4117 58.7663 40.6366ZM61.794 27.3955L55.2634 29.5602L56.5521 33.4482L63.0827 31.2835L61.794 27.3955ZM64.2707 22.8663L71.8924 45.86C72.5267 47.7736 72.454 48.8765 71.4607 49.8463C70.437 50.8261 68.7358 51.4912 66.2147 52.3268C65.7306 51.3748 64.5995 49.9967 63.7811 49.2566C65.4516 48.804 67.2943 48.1595 67.8007 47.9579C68.3474 47.7767 68.4692 47.5341 68.2981 47.0177L66.5261 41.6717L59.388 44.0377C59.8368 47.9344 59.3947 52.0927 56.8183 55.7111C56.04 55.1937 54.2299 54.4115 53.3195 54.2076C57.1741 48.7496 55.757 42.9489 54.2266 38.3319L50.602 27.397L64.2707 22.8663Z" fill="black"/>
<path d="M85.0352 20.4187L83.4602 23.8871C82.0083 23.1262 79.0452 22.1376 76.9711 21.5303L78.4876 18.4319C80.4997 18.8883 83.5327 19.7329 85.0352 20.4187ZM84.7681 29.2725L83.2682 32.7914C81.8285 32.0934 78.8715 31.1362 76.7346 30.5411L78.2014 27.3546C80.2135 27.8109 83.2089 28.6303 84.7681 29.2725ZM83.926 47.0724L80.2901 45.1388C81.4969 42.4593 83.1582 38.0939 84.303 34.0898L87.5245 36.0714C86.5263 39.6558 85.2497 43.6529 83.926 47.0724ZM105.961 25.9342L102.909 28.5161C102.579 27.9934 102.149 27.4577 101.707 26.8591C89.7469 30.0648 88.0123 30.5325 86.8535 31.2793C86.4871 30.5682 85.5796 28.9191 84.9819 28.0247C85.6363 27.7019 86.1049 26.9262 86.7078 25.668C87.3605 24.4979 89.0289 20.0008 89.7732 15.7812L93.882 16.1233C93.0225 19.5829 91.7233 23.128 90.3455 26.1017L99.0806 23.9143C97.7822 22.6019 96.3897 21.3079 95.0398 20.2338L97.9323 18.0088C100.964 20.3534 104.266 23.5906 105.961 25.9342ZM101.185 34.0672L92.3584 35.7835L93.3173 40.7151L102.144 38.9989L101.185 34.0672ZM90.5958 46.1668L88.0428 33.0367L104.314 29.8729L106.843 42.8774L103.042 43.6164L102.81 42.4227L93.983 44.139L94.2395 45.4583L90.5958 46.1668Z" fill="black"/>
<path d="M121.551 21.0325L119.394 21.3953C119.164 23.8149 118.866 26.1748 118.55 28.2473C119.23 28.845 119.971 29.4067 120.653 30.0364C121.57 26.8352 121.657 23.6872 121.551 21.0325ZM125.775 34.9027L123.818 37.8821C123.295 37.2421 122.64 36.5146 121.886 35.7613C120.853 37.6552 119.499 39.5377 117.655 41.2913C117.099 40.6215 115.908 39.5435 115.11 39.1136C117.046 37.29 118.462 35.3715 119.453 33.3199C117.989 32.0028 116.46 30.6579 115.169 29.5222C115.581 27.4436 115.954 24.7582 116.221 21.9193L114.57 22.1854L113.996 18.7271C114.76 18.646 115.589 18.5609 116.513 18.4696C116.687 16.1818 116.765 13.9001 116.764 11.88L119.997 11.801C119.962 13.7593 119.846 15.9472 119.696 18.1052L121.35 17.903L121.219 15.8592L124.349 15.6585L124.47 17.5427L125.36 17.4215L125.546 20.3275L124.658 20.4806C124.815 23.9337 124.736 28.2035 123.336 32.3656C124.293 33.2982 125.151 34.1732 125.775 34.9027ZM128.201 39.2364L125.153 38.2133C125.963 36.3336 126.517 33.4763 126.723 31.1865L129.627 31.9623C129.361 34.3201 128.915 37.3629 128.201 39.2364ZM130.064 32.287L132.629 31.7699C133.13 33.5975 133.474 35.9484 133.574 37.5132L130.856 38.1363C130.85 36.5334 130.502 34.1187 130.064 32.287ZM133.375 31.9144L135.759 31.0882C136.398 32.5543 137.068 34.4995 137.342 35.7646L134.866 36.6608C134.654 35.3597 134.014 33.3805 133.375 31.9144ZM140.446 33.6737L138.398 34.7349C138.045 33.7314 137.24 32.1797 136.434 31.1091L138.395 30.1818C139.233 31.2504 140.064 32.7042 140.446 33.6737ZM129.905 24.7938L130.032 26.7738L134.119 26.5118L133.992 24.5318L129.905 24.7938ZM133.382 15.0154L129.295 15.2774L129.407 17.0338L133.495 16.7718L133.382 15.0154ZM133.804 21.5939L133.685 19.7417L129.598 20.0037L129.716 21.8559L133.804 21.5939ZM137.696 26.2825L143.955 25.8813C143.955 25.8813 144.014 26.8074 144.011 27.2565C144.163 34.6219 143.968 37.5844 143.203 38.6596C142.679 39.4948 142.025 39.7932 141.107 39.9803C140.317 40.1592 139.04 40.2411 137.632 40.2993C137.505 39.3134 137.034 37.9648 136.498 37.1013C137.623 37.1574 138.677 37.0899 139.156 37.0591C139.603 37.0305 139.823 36.9523 140.09 36.6145C140.536 36.0729 140.669 34.1404 140.587 29.3679L126.792 30.2522L125.637 12.2411L142.562 11.1562L142.771 14.4135L136.959 14.7861L137.072 16.5425L141.926 16.2313L142.116 19.2012L137.262 19.5124L137.381 21.3646L142.267 21.0514L142.455 23.9894L137.569 24.3026L137.696 26.2825Z" fill="black"/>
<path d="M160.143 20.0542L157.957 20.1386C157.421 22.5091 156.824 24.8116 156.246 26.8268C156.844 27.5064 157.507 28.1582 158.103 28.8698C159.421 25.8118 159.909 22.7007 160.143 20.0542ZM162.562 34.3502L160.24 37.0552C159.804 36.3539 159.246 35.5486 158.595 34.7052C157.328 36.4517 155.745 38.1459 153.692 39.6497C153.227 38.9144 152.183 37.6931 151.447 37.165C153.599 35.6034 155.249 33.8814 156.493 31.9731C155.21 30.48 153.865 28.9508 152.73 27.6595C153.403 25.6505 154.116 23.0348 154.743 20.2532L153.073 20.3064L152.944 16.8031C153.713 16.8202 154.545 16.8415 155.473 16.869C155.938 14.6221 156.307 12.3691 156.564 10.3654L159.781 10.6999C159.496 12.6376 159.102 14.7928 158.677 16.914L160.344 16.9246L160.475 14.8808L163.604 15.0814L163.484 16.9656L164.382 16.959L164.196 19.8651L163.295 19.9035C163.01 23.3484 162.387 27.5731 160.466 31.5224C161.297 32.5697 162.036 33.5469 162.562 34.3502ZM164.415 38.9582L161.523 37.5543C162.565 35.7934 163.48 33.0302 163.977 30.7854L166.757 31.9256C166.193 34.2302 165.362 37.1911 164.415 38.9582ZM167.15 32.3035L169.759 32.1181C170.024 33.9948 170.064 36.3703 169.963 37.935L167.188 38.2061C167.387 36.6155 167.351 34.1762 167.15 32.3035ZM170.481 32.3568L172.951 31.8417C173.398 33.3774 173.814 35.3922 173.924 36.6818L171.354 37.2546C171.31 35.9371 170.928 33.8925 170.481 32.3568ZM177.27 35.0044L175.103 35.7954C174.881 34.7551 174.281 33.1133 173.618 31.9486L175.681 31.2792C176.376 32.446 177.014 33.994 177.27 35.0044ZM167.948 24.8513L167.821 26.8313L171.909 27.0933L172.036 25.1134L167.948 24.8513ZM172.646 15.5969L168.558 15.3349L168.446 17.0913L172.533 17.3533L172.646 15.5969ZM172.224 22.1754L172.343 20.3232L168.255 20.0612L168.137 21.9134L172.224 22.1754ZM175.486 27.3226L181.745 27.7238C181.745 27.7238 181.685 28.6499 181.625 29.0949C180.835 36.4194 180.263 39.3328 179.367 40.3015C178.741 41.063 178.054 41.2755 177.12 41.3438C176.314 41.4204 175.036 41.3385 173.633 41.2165C173.633 40.2224 173.337 38.8247 172.916 37.8998C174.025 38.0992 175.079 38.1668 175.558 38.1975C176.005 38.2261 176.233 38.1766 176.541 37.8757C177.053 37.3954 177.431 35.4957 177.959 30.7518L164.164 29.8675L165.318 11.8565L182.243 12.9414L182.035 16.1987L176.223 15.8262L176.11 17.5826L180.964 17.8937L180.774 20.8636L175.92 20.5525L175.801 22.4047L180.687 22.7179L180.499 25.6558L175.613 25.3426L175.486 27.3226Z" fill="black"/>
<path d="M215.065 26.8971L211.484 26.2008C211.417 28.8935 211.563 31.4972 211.977 33.8923C213.146 31.9029 214.188 29.5627 215.065 26.8971ZM203.035 28.2418L203.964 29.3351C204.626 28.7792 205.281 28.0917 205.917 27.3352L201.52 26.4801C200.939 26.9539 200.364 27.3963 199.732 27.795L202.339 28.302L203.035 28.2418ZM200.29 20.7318L199.881 22.8364L200.384 22.9341C201.083 22.353 201.746 21.7971 202.363 21.1349L200.29 20.7318ZM220.782 28.0087L218.929 27.6483C217.365 32.169 215.552 35.7936 213.264 38.6739C214.244 41.179 215.749 43.3298 217.81 44.9693C216.816 45.5582 215.366 46.8086 214.599 47.7353C212.714 46.0321 211.284 43.9938 210.299 41.6833C208.137 43.4145 205.64 44.6893 202.638 45.54C202.464 44.5933 201.7 42.6519 201.162 41.7322C204.371 40.9871 206.912 39.6555 208.96 37.674C208.491 35.5615 208.177 33.3165 208.058 30.9135C207.44 31.5757 206.822 32.238 206.191 32.7999C205.875 32.2494 205.154 31.2616 204.497 30.4493C202.997 31.6246 201.145 32.7642 199.374 33.6586L199.221 34.4439C201.074 34.641 202.958 34.8443 204.81 35.0415L204.193 38.2141C202.335 38.0483 200.445 37.8765 198.592 37.6793L197.988 40.789C197.67 42.4224 197.222 43.2156 196.025 43.5044C194.828 43.7932 193.346 43.5376 191.367 43.1528C191.431 42.1546 191.21 40.7751 190.916 39.7726C192.135 40.0422 193.485 40.3048 193.894 40.3842C194.308 40.4322 194.452 40.3624 194.513 40.0483L195.038 37.3469C192.828 37.1453 190.718 36.9307 188.954 36.7832L189.225 33.3803C191.014 33.5653 193.244 33.8357 195.674 34.08L196.01 32.3524C196.974 31.9205 198.037 31.3123 199.044 30.6605L195.777 30.0253C194.513 30.6597 193.179 31.15 191.82 31.6029C191.457 30.7827 190.482 29.0935 189.888 28.2933C192.257 27.6782 194.492 26.7437 196.619 25.5273L191.028 24.4402L191.651 21.2362L196.426 22.1645L196.835 20.0599L193.254 19.3637L193.865 16.2225L197.446 16.9188L198.001 14.0603L201.457 14.7321L200.901 17.5906L203.697 18.1342L203.306 20.1445C204.341 19.0093 205.301 17.7616 206.141 16.458L209.37 18.1289C207.982 20.2387 206.379 22.1112 204.687 23.7708L206.917 24.2045L206.435 26.686C208.46 23.9828 210.192 20.4403 211.54 16.6927L215.225 18.0285C214.575 19.6951 213.856 21.3809 213.098 22.9288L221.454 24.5534L220.782 28.0087Z" fill="black"/>
<path d="M254.131 34.9636L234.783 28.5501L234.169 30.403L253.517 36.8165L254.131 34.9636ZM237.582 38.2094L246.643 40.5722C246.257 39.9049 245.861 39.2681 245.506 38.7121L247.327 38.2031L242.072 36.4613C240.636 37.1316 239.099 37.7009 237.582 38.2094ZM232.99 33.4509L233.795 31.0209L230.424 29.9033L232.347 24.1017L244.011 27.9679C243.979 27.2495 243.927 26.4907 243.795 25.8736L247.66 26.0088C247.885 27.0608 248.049 28.2951 248.081 29.3171L258.894 32.9014L256.971 38.703L253.751 37.6357L252.946 40.0657L249.362 38.8777C250.721 40.9802 252.193 43.5582 252.864 45.2975L249.374 46.2647C249.15 45.6175 248.825 44.768 248.389 43.8479C234.449 40.4409 232.768 40.0187 231.392 40.102C231.431 39.3733 231.479 37.6024 231.396 36.631C232.095 36.7614 232.894 36.588 233.915 36.2524C234.512 36.0794 235.877 35.6217 237.455 34.9309L232.99 33.4509ZM240.174 51.0363L251.898 54.9226L250.841 58.112L223.929 49.1915L224.986 46.0022L236.468 49.808L237.334 47.1957L228.495 44.2659L229.522 41.1676L238.361 44.0975L239.126 41.789L242.832 43.0173L242.066 45.3258L251.361 48.4067L250.334 51.5049L241.04 48.4241L240.174 51.0363Z" fill="black"/>
<path d="M266.693 69.4636L287.874 44.6758L290.655 46.0543L269.503 70.8564L266.693 69.4636Z" fill="black"/>
</svg>
