<svg width="273" height="86" viewBox="0 0 273 86" fill="none" xmlns="http://www.w3.org/2000/svg">
<path d="M32.4664 76.0851L6.80482 44.4226L10.3248 42.7903L35.9863 74.4528L32.4664 76.0851Z" fill="black"/>
<path d="M56.0935 36.2372L53.5309 37.1911C53.8194 40.2155 54.0104 43.1826 54.111 45.8012C55.0863 46.3747 56.1289 46.8895 57.1141 47.5017C57.4852 43.3558 56.8496 39.471 56.0935 36.2372ZM64.5488 52.2679L62.8483 56.3867C62.0566 55.7243 61.08 54.9858 59.9771 54.2387C59.1556 56.8072 57.9369 59.4374 56.0871 62.0246C55.2467 61.3335 53.53 60.2911 52.4502 59.9513C54.396 57.2565 55.6821 54.5675 56.4147 51.8155C54.3079 50.5436 52.1137 49.2532 50.2608 48.1634C50.2763 45.5147 50.1011 42.1303 49.7595 38.5824L47.7963 39.2982L46.2758 35.1883C47.195 34.9086 48.1917 34.6088 49.3045 34.2788C48.9787 31.4294 48.5368 28.61 48.059 26.1306L52.0098 25.2712C52.4288 27.6833 52.8019 30.3965 53.1262 33.0811L55.1094 32.4427L54.4668 29.9647L58.2612 28.9806L58.8537 31.2651L59.9178 30.9064L60.8316 34.4299L59.7775 34.8272C60.7846 39.0289 61.6943 44.289 60.9562 49.7285C62.3516 50.6476 63.6108 51.5194 64.5488 52.2679ZM68.5488 57.0158L64.5663 56.4784C65.1168 53.9802 65.1236 50.3419 64.8366 47.4824L68.5838 47.7503C68.8135 50.7073 68.9831 54.5477 68.5488 57.0158ZM69.1976 48.0457L72.2234 46.8064C73.2705 48.9316 74.2459 51.7365 74.7379 53.6337L71.5487 55.0394C71.1627 53.0733 70.1673 50.1909 69.1976 48.0457ZM73.1742 46.8077L75.906 45.2314C77.0362 46.8805 78.317 49.1104 78.951 50.5989L76.1231 52.2827C75.5565 50.7354 74.3044 48.4568 73.1742 46.8077ZM82.2691 47.3003L80.0049 49.0859C79.3351 47.9372 77.9812 46.2222 76.7392 45.098L78.9274 43.4974C80.2081 44.6115 81.5706 46.2004 82.2691 47.3003ZM67.2351 38.885L67.8576 41.2856L72.8137 40.0002L72.1911 37.5996L67.2351 38.885ZM69.1986 26.0614L64.2426 27.3467L64.7949 29.4763L69.7509 28.1909L69.1986 26.0614ZM71.2672 34.0375L70.6848 31.7918L65.7288 33.0771L66.3112 35.3228L71.2672 34.0375ZM77.1502 38.8755L84.7391 36.9073C84.7391 36.9073 85.0304 38.0302 85.1322 38.5823C87.0546 47.5881 87.5139 51.2707 86.8285 52.7708C86.3826 53.9196 85.6498 54.4402 84.5672 54.8863C83.6393 55.2922 82.0906 55.6939 80.3769 56.097C79.9882 54.9168 79.0917 53.3724 78.2298 52.4389C79.6251 52.2423 80.9028 51.9109 81.4836 51.7603C82.0257 51.6197 82.2767 51.472 82.5247 50.9944C82.9448 50.2243 82.6521 47.8208 81.4269 41.9814L64.7003 46.3194L59.0367 24.4819L79.5578 19.1597L80.582 23.1091L73.5352 24.9367L74.0875 27.0662L79.9728 25.5399L80.9066 29.1407L75.0214 30.6671L75.6038 32.9128L81.5278 31.3764L82.4516 34.9386L76.5276 36.475L77.1502 38.8755Z" fill="black"/>
<path d="M102.858 26.6108L100.171 27.1196C99.9464 30.1495 99.6351 33.1063 99.2934 35.7045C100.158 36.4341 101.099 37.117 101.967 37.8864C103.031 33.8621 103.059 29.9257 102.858 26.6108ZM108.493 43.8363L106.124 47.61C105.455 46.8237 104.616 45.9313 103.655 45.0093C102.413 47.4028 100.769 49.7902 98.5098 52.0291C97.7977 51.2063 96.2811 49.8897 95.2738 49.373C97.6456 47.0443 99.3661 44.6102 100.552 42.0208C98.689 40.4124 96.7434 38.7709 95.1004 37.3848C95.5617 34.7765 95.9587 31.4109 96.2193 27.8562L94.1637 28.2312L93.3569 23.9239C94.3101 23.803 95.343 23.6752 96.4955 23.5374C96.6541 20.6737 96.6932 17.8202 96.6397 15.2957L100.679 15.1138C100.686 17.562 100.597 20.2993 100.464 23.0002L102.527 22.7049L102.31 20.154L106.216 19.8228L106.416 22.1744L107.525 22L107.833 25.627L106.727 25.8412C107.012 30.1525 107.023 35.4907 105.38 40.7283C106.6 41.8692 107.695 42.9406 108.493 43.8363ZM111.637 49.1899L107.802 47.9896C108.765 45.6197 109.384 42.0346 109.583 39.1676L113.231 40.0625C112.96 43.016 112.481 46.8302 111.637 49.1899ZM113.787 40.457L116.978 39.7449C117.652 42.016 118.142 44.9451 118.307 46.8981L114.927 47.7468C114.877 45.7438 114.381 42.7349 113.787 40.457ZM117.915 39.9063L120.873 38.8124C121.71 40.6283 122.597 43.0419 122.971 44.616L119.9 45.7996C119.602 44.179 118.751 41.7221 117.915 39.9063ZM126.797 41.9231L124.265 43.302C123.798 42.057 122.752 40.1384 121.717 38.8212L124.143 37.6119C125.218 38.9257 126.294 40.7213 126.797 41.9231ZM113.395 31.0967L113.604 33.5678L118.706 33.1353L118.496 30.6641L113.395 31.0967ZM117.489 18.7867L112.387 19.2193L112.573 21.4114L117.675 20.9789L117.489 18.7867ZM118.185 26.9973L117.989 24.6856L112.888 25.1181L113.084 27.4298L118.185 26.9973ZM123.17 32.7568L130.982 32.0944C130.982 32.0944 131.08 33.2502 131.087 33.8116C131.466 43.0125 131.298 46.7199 130.37 48.0832C129.737 49.1405 128.927 49.5303 127.785 49.7877C126.802 50.0316 125.208 50.1668 123.451 50.2756C123.266 49.0468 122.643 47.3735 121.95 46.3082C123.359 46.3494 124.674 46.2379 125.272 46.1872C125.83 46.1399 126.102 46.0365 126.427 45.6075C126.971 44.9191 127.087 42.5006 126.862 36.5383L109.644 37.9982L107.738 15.5189L128.862 13.7278L129.207 17.7932L121.953 18.4082L122.139 20.6004L128.197 20.0867L128.512 23.7934L122.453 24.3071L122.649 26.6188L128.747 26.1017L129.058 29.7686L122.96 30.2856L123.17 32.7568Z" fill="black"/>
<path d="M171.494 26.3678L166.951 25.9825C167.228 29.3379 167.758 32.5542 168.594 35.4753C169.781 32.8462 170.762 29.7981 171.494 26.3678ZM156.724 29.6516L158.024 30.8859C158.773 30.1064 159.495 29.164 160.184 28.1386L154.604 27.6654C153.946 28.3322 153.29 28.959 152.559 29.5393L155.867 29.8198L156.724 29.6516ZM152.306 20.6863L152.079 23.3567L152.717 23.4108C153.509 22.5947 154.257 21.8152 154.936 20.9093L152.306 20.6863ZM178.748 26.9828L176.397 26.7834C175.06 32.6113 173.292 37.3589 170.835 41.2452C172.389 44.2272 174.548 46.6984 177.329 48.4597C176.171 49.325 174.538 51.0732 173.709 52.3277C171.137 50.4637 169.088 48.1222 167.554 45.3828C165.099 47.8241 162.166 49.7432 158.55 51.2029C158.206 50.0498 156.997 47.7393 156.204 46.6686C160.093 45.3122 163.072 43.3168 165.352 40.5796C164.485 38.0172 163.795 35.2691 163.324 32.2987C162.645 33.2046 161.966 34.1104 161.257 34.8934C160.79 34.2516 159.762 33.1207 158.836 32.1992C157.13 33.861 154.982 35.5254 152.9 36.8744L152.816 37.8708C155.144 37.8675 157.513 37.8676 159.841 37.8644L159.5 41.8899C157.168 41.933 154.796 41.9728 152.468 41.9761L152.133 45.9219C151.957 47.9945 151.507 49.0402 150.058 49.5596C148.609 50.0791 146.733 49.9601 144.222 49.7472C144.167 48.4981 143.708 46.8133 143.208 45.6067C144.759 45.7784 146.473 45.9237 146.991 45.9676C147.512 45.9717 147.682 45.8657 147.716 45.4671L148.006 42.0394C145.232 42.0852 142.582 42.1013 140.369 42.1546L140.249 37.8892C142.498 37.8792 145.305 37.9164 148.358 37.8943L148.544 35.7021C149.684 35.0361 150.924 34.1377 152.088 33.1926L147.943 32.8412C146.457 33.799 144.865 34.5873 143.236 35.3324C142.676 34.3616 141.237 32.393 140.391 31.4783C143.253 30.3962 145.906 28.9351 148.387 27.1382L141.292 26.5367L141.637 22.4713L147.695 22.985L147.921 20.3145L143.378 19.9293L143.716 15.9436L148.259 16.3288L148.567 12.7019L152.951 13.0736L152.644 16.7006L156.191 17.0014L155.975 19.5522C157.11 18.0025 158.135 16.3232 159.005 14.5905L163.241 16.2342C161.798 19.0424 160.057 21.5844 158.177 23.8738L161.007 24.1137L160.74 27.2624C162.895 23.6314 164.572 18.9966 165.745 14.1584L170.504 15.3246C169.919 17.4829 169.252 19.6744 168.518 21.6996L179.12 22.5985L178.748 26.9828Z" fill="black"/>
<path d="M220.518 32.5963L195.854 26.1996L195.241 28.5615L219.905 34.9581L220.518 32.5963ZM200.145 38.0153L211.642 40.2118C211.105 39.4116 210.559 38.65 210.07 37.986L212.299 37.2003L205.6 35.4631C203.865 36.4181 201.995 37.2554 200.145 38.0153ZM194.023 32.4606L194.827 29.3631L190.529 28.2485L192.447 20.8531L207.315 24.7092C207.216 23.8157 207.088 22.8735 206.872 22.1149L211.705 21.9633C212.072 23.2569 212.379 24.7827 212.503 26.0548L226.287 29.6297L224.369 37.025L220.265 35.9606L219.462 39.0581L214.893 37.8731C216.763 40.3829 218.812 43.4764 219.792 45.5903L215.52 47.0857C215.188 46.2969 214.712 45.2643 214.091 44.1529C196.422 41.0581 194.291 40.6707 192.581 40.8885C192.57 39.9765 192.483 37.7637 192.299 36.559C193.181 36.6638 194.163 36.3814 195.41 35.8781C196.14 35.6129 197.805 34.929 199.715 33.9368L194.023 32.4606ZM204.44 53.799L219.386 57.6752L218.331 61.7407L184.026 52.8436L185.08 48.7781L199.716 52.5739L200.58 49.2441L189.313 46.3219L190.337 42.3726L201.604 45.2948L202.367 42.3521L207.091 43.5772L206.328 46.5199L218.176 49.5926L217.152 53.542L205.304 50.4692L204.44 53.799Z" fill="black"/>
<path d="M236.063 74.251L261.725 42.5885L265.245 44.2208L239.619 75.9001L236.063 74.251Z" fill="black"/>
</svg>
