<svg width="40" height="40" viewBox="0 0 40 40" fill="none" xmlns="http://www.w3.org/2000/svg">
<rect x="1" y="1" width="38" height="38" rx="19" fill="url(#paint0_linear_312_2250)"/>
<path d="M13.8716 10.6667H17.9129C18.1346 10.6668 18.348 10.751 18.51 10.9024C18.672 11.0537 18.7705 11.2609 18.7856 11.4821C18.8007 11.7033 18.7313 11.9219 18.5914 12.0939C18.4515 12.2659 18.2515 12.3783 18.0319 12.4086L17.9129 12.4167H13.8716C13.2066 12.4166 12.5664 12.6689 12.0802 13.1226C11.5941 13.5762 11.2982 14.1975 11.2524 14.8609L11.2466 15.0417V26.1251C11.2468 26.79 11.4994 27.4301 11.9532 27.916C12.4071 28.402 13.0285 28.6975 13.6919 28.7431L13.8716 28.7501H24.9549C25.6203 28.7504 26.2609 28.4981 26.7474 28.0442C27.2338 27.5902 27.5297 26.9685 27.5752 26.3047L27.5811 26.1251V25.5441C27.5811 25.3224 27.6654 25.109 27.8167 24.947C27.9681 24.785 28.1753 24.6865 28.3964 24.6714C28.6176 24.6562 28.8363 24.7257 29.0083 24.8656C29.1802 25.0055 29.2927 25.2054 29.3229 25.4251L29.3311 25.5441V26.1251C29.3309 27.245 28.9011 28.3223 28.1304 29.1349C27.3597 29.9475 26.3067 30.4336 25.1882 30.4931L24.9549 30.5001H13.8716C12.7514 30.5001 11.6738 30.0705 10.861 29.2998C10.0481 28.529 9.56186 27.4758 9.50242 26.3572L9.49658 26.1239V15.0406C9.49678 13.9208 9.92635 12.8437 10.6968 12.0311C11.4673 11.2185 12.52 10.7323 13.6382 10.6726L13.8716 10.6667ZM22.9179 13.6347V10.3751C22.9178 10.2141 22.9621 10.0563 23.0459 9.91885C23.1297 9.78145 23.2498 9.66983 23.393 9.59626C23.5361 9.5227 23.6968 9.49004 23.8573 9.50188C24.0178 9.51373 24.1719 9.56961 24.3027 9.66339L24.3984 9.74272L31.3926 16.4511C31.7192 16.7649 31.7484 17.2677 31.4812 17.6154L31.3926 17.7146L24.3984 24.4252C24.2823 24.5368 24.1376 24.6141 23.9804 24.6487C23.8231 24.6833 23.6594 24.6738 23.5072 24.6214C23.3549 24.5689 23.2202 24.4755 23.1176 24.3513C23.0151 24.2272 22.9488 24.0771 22.9261 23.9177L22.9179 23.7929V20.5251L22.5446 20.5169C19.4436 20.5076 16.7929 21.7816 14.5342 24.3692C13.9567 25.0307 12.8717 24.5221 13.0117 23.6541C13.9766 17.6574 17.2106 14.2694 22.5667 13.6697L22.9179 13.6347Z" fill="white"/>
<rect x="1" y="1" width="38" height="38" rx="19" stroke="white" stroke-width="2"/>
<defs>
<linearGradient id="paint0_linear_312_2250" x1="32.4286" y1="29.8571" x2="5.85714" y2="9.28571" gradientUnits="userSpaceOnUse">
<stop stop-color="#FFA79D"/>
<stop offset="1" stop-color="#FCF8BF"/>
</linearGradient>
</defs>
</svg>
