<svg width="38" height="38" viewBox="0 0 38 38" fill="none" xmlns="http://www.w3.org/2000/svg">
<rect x="0.5" y="0.5" width="37" height="37" rx="18.5" fill="url(#paint0_linear_441_1927)" fill-opacity="0.6"/>
<path fill-rule="evenodd" clip-rule="evenodd" d="M19.1236 10.6666C23.26 14.8282 26.0164 17.5834 27.3916 18.931C27.6292 19.153 28.0384 19.603 28.6468 19.015C29.0536 18.6226 29.0368 18.193 28.6 17.7274L19.6672 8.81138C19.5204 8.67143 19.324 8.59547 19.1212 8.60018C18.9128 8.59808 18.711 8.67333 18.5548 8.81138L9.61121 17.9734C9.32201 18.439 9.33401 18.8314 9.64721 19.1494C9.95921 19.4674 10.3396 19.4854 10.7872 19.201L19.1236 10.6666Z" fill="white"/>
<path d="M12.3829 28V23.064H10.7189V22.072H15.2469V23.064H13.5669V28H12.3829ZM18.7089 28.112C17.1409 28.112 16.0609 26.936 16.0609 25.016C16.0609 23.088 17.1409 21.968 18.7089 21.968C20.2769 21.968 21.3569 23.096 21.3569 25.016C21.3569 26.936 20.2769 28.112 18.7089 28.112ZM18.7089 27.088C19.5889 27.088 20.1489 26.28 20.1489 25.016C20.1489 23.744 19.5889 22.984 18.7089 22.984C17.8289 22.984 17.2689 23.744 17.2689 25.016C17.2689 26.28 17.8289 27.088 18.7089 27.088ZM22.9132 28V22.072H24.8572C26.1692 22.072 27.1772 22.536 27.1772 23.936C27.1772 25.288 26.1612 25.896 24.8892 25.896H24.0972V28H22.9132ZM24.0972 24.96H24.8092C25.6252 24.96 26.0172 24.616 26.0172 23.936C26.0172 23.248 25.5852 23.016 24.7692 23.016H24.0972V24.96Z" fill="white"/>
<rect x="0.5" y="0.5" width="37" height="37" rx="18.5" stroke="white"/>
<defs>
<linearGradient id="paint0_linear_441_1927" x1="31.4286" y1="28.8571" x2="4.85714" y2="8.28571" gradientUnits="userSpaceOnUse">
<stop stop-color="#FFA79D"/>
<stop offset="1" stop-color="#FCF8BF"/>
</linearGradient>
</defs>
</svg>
