<svg width="404" height="100" viewBox="0 0 404 100" fill="none" xmlns="http://www.w3.org/2000/svg">
<path d="M32.9577 90.8913L6.91395 59.5424L10.4499 57.8503L36.4576 89.2165L32.9577 90.8913Z" fill="black"/>
<path d="M73.6364 61.8953L83.3641 58.5713L84.8645 62.962L75.1367 66.2861L73.6364 61.8953ZM45.1607 48.2076L59.0521 43.4609L60.5783 47.9273L46.6869 52.6741L45.1607 48.2076ZM63.6241 39.151L77.4019 34.443L87.7103 64.6104L83.1303 66.1754L74.3223 40.3987L69.4773 42.0543L78.3889 68.1337L74.036 69.6212L63.6241 39.151ZM57.9165 43.8489L62.3073 42.3485C62.3073 42.3485 62.8246 43.8626 63.0186 44.4303C68.2138 60.747 69.9406 66.6667 69.3373 68.8596C68.8935 70.4061 68.2539 71.132 67.0824 71.7859C66.0374 72.4389 64.3341 73.0209 62.5671 73.5402C62.0387 72.2412 60.874 70.4411 59.6773 69.4129C61.243 69.0469 62.6057 68.5813 63.3249 68.3355C63.9056 68.1794 64.1816 67.8737 64.379 67.2145C64.7858 65.8073 63.2261 60.2533 58.2658 44.8709L57.9165 43.8489ZM47.5309 40.4231L51.9973 38.8968C57.0555 53.8231 61.1982 66.4415 57.2238 76.2114C56.1295 75.3595 54.0981 74.3628 52.7168 74.0316C56.3452 65.3521 52.2269 54.2895 47.5309 40.4231Z" fill="black"/>
<path d="M96.1357 27.1097L107.184 24.6447L108.247 29.4076L97.1983 31.8726L96.1357 27.1097ZM104.881 25.1586L109.722 24.0786C111.377 31.4962 115.636 45.6278 132.01 50.8681C131.108 51.9708 129.696 54.458 129.138 55.8122C112.269 50.1905 106.658 33.1228 104.881 25.1586ZM105.109 34.083L110.715 33.857C110.569 46.0616 107.249 55.6137 100.187 62.3532C99.1019 61.5297 96.4802 60.0655 95.0783 59.4766C102.314 53.518 105.309 44.8989 105.109 34.083Z" fill="black"/>
<path d="M141.215 41.3649L144.947 41.9999C144.268 44.9721 142.997 48.412 141.829 50.5931C141.048 50.0756 139.423 49.2083 138.492 48.7879C139.637 46.7702 140.652 43.922 141.215 41.3649ZM148.67 23.199L142.786 23.8475C143.526 25.0938 144.232 26.7465 144.553 27.8378L141.778 28.9485L147.504 28.3176C147.942 26.8205 148.434 24.7139 148.67 23.199ZM156.422 38.4014L150.259 39.0805L151.714 52.2806L147.141 52.7844L145.687 39.5844L138.291 40.3993L137.853 36.4234L145.249 35.6084L144.911 32.547L137.277 33.3882L136.848 29.4918L140.705 29.0668C140.374 27.8959 139.709 26.2388 139.096 25.0589L142.269 23.9044L136.901 24.4959L136.476 20.6393L143.275 19.89C142.799 18.856 142.239 17.7909 141.736 16.8805L146.34 15.2061C147.081 16.4524 147.977 18.0037 148.603 19.3029L154.288 18.6764L154.713 22.533L149.743 23.0807L153.034 23.362C152.604 24.9385 152.179 26.5549 151.718 27.8531L155.853 27.3975L156.282 31.2939L149.484 32.0431L149.821 35.1046L155.984 34.4254L156.422 38.4014ZM173.625 25.8012L174.107 30.1747L170.409 30.5822L172.561 50.104L167.949 50.6122L165.797 31.0904L162.1 31.4979L162.152 31.975C162.796 37.8196 163.182 46.067 160.363 51.5286C159.476 50.7813 157.441 49.4764 156.394 49.1088C157.023 47.8725 157.475 46.4947 157.759 45.055L155.128 47.1155C154.317 45.5952 152.685 43.1996 151.37 41.4933L154.287 39.4817C155.536 40.9537 157.001 42.9252 157.843 44.3615C158.536 40.422 158.182 36.1148 157.779 32.457L156.219 18.3026C160.465 17.0299 165.14 15.2672 167.894 13.5955L171.893 16.6559C168.777 18.3272 164.747 19.7371 160.93 20.8821L161.618 27.1244L173.625 25.8012Z" fill="black"/>
<path d="M204.327 30.32H209.167L209.167 43.32C209.167 44.76 209.367 44.96 210.687 44.96C211.287 44.96 213.647 44.96 214.367 44.96C215.687 44.96 215.887 44.08 216.087 38.6C217.087 39.4 219.207 40.24 220.447 40.56C219.967 47.56 218.767 49.48 214.767 49.48C213.887 49.48 210.807 49.48 209.967 49.48C205.447 49.48 204.327 47.96 204.327 43.32L204.327 30.32ZM193.527 30.52L198.647 30.52C198.007 39.28 196.367 46.04 185.567 49.64C185.047 48.4 183.687 46.44 182.647 45.44C192.167 42.6 193.007 37.44 193.527 30.52ZM186.567 15.36L190.887 13.76C192.727 16.76 194.687 20.76 195.367 23.44L190.687 25.32C190.127 22.68 188.327 18.52 186.567 15.36ZM212.447 13.44L217.567 15.2C215.807 18.76 213.727 22.6 212.047 25.08L207.847 23.48C209.487 20.84 211.447 16.64 212.447 13.44ZM183.687 26.72L219.847 26.72V31.24L183.687 31.24V26.72ZM199.127 12.04L204.007 12.04V28.56L199.127 28.56V12.04Z" fill="black"/>
<path d="M252.21 28.2685L251.724 32.6818L266.395 34.2985L266.881 29.8852L252.21 28.2685ZM231.558 16.6564L231.128 20.5529L249.02 22.5245L249.449 18.6281L231.558 16.6564ZM229.416 32.4368L228.974 36.4525L247.223 38.4636L247.666 34.4479L229.416 32.4368ZM229.945 25.4527L229.511 29.3888L248.675 31.5007L249.109 27.5645L229.945 25.4527ZM258.317 30.9133L255.89 52.94L260.542 53.4526L262.969 31.426L258.317 30.9133ZM233.152 21.5405C233.516 22.989 233.783 24.9501 233.85 26.1647L237.909 25.4853C237.837 24.3103 237.478 22.4598 237.03 21.0423L233.152 21.5405ZM242.999 21.6597C242.377 23.2814 241.279 25.575 240.433 27.0511L244.197 28.311C245.11 26.963 246.133 24.9831 247.24 22.9723L242.999 21.6597ZM263.919 16.6008C260.867 17.6328 255.916 18.3749 251.455 18.6881C251.862 19.7391 252.359 21.4437 252.448 22.4596C257.258 22.2653 262.876 21.6772 267.231 20.5071L263.919 16.6008ZM237.514 14.0935C238.073 15.9659 238.645 18.4435 238.801 19.9496L243.959 19.1499C243.764 17.6393 243.059 15.2679 242.452 13.4706L237.514 14.0935ZM251.455 18.6881L249.882 32.9617C249.312 38.1304 248.342 44.744 244.901 48.9523C245.838 49.5787 247.584 51.2601 248.247 52.1783C252.227 47.4659 253.651 39.2927 254.295 33.4481L255.868 19.1745L251.455 18.6881ZM241.615 40.4211C242.527 42.3727 243.598 45.0663 244.059 46.7267L247.503 45.0539C247.034 43.473 245.94 40.9782 244.909 39.0134L241.615 40.4211ZM231.657 38.0359C230.55 40.409 228.931 43.0475 227.338 44.7231C228.196 45.3408 229.628 46.5851 230.238 47.256C231.858 45.3419 233.891 42.2259 235.196 39.5125L231.657 38.0359ZM237.377 28.4851L234.945 50.5515L239.597 51.0641L242.029 28.9977L237.377 28.4851Z" fill="black"/>
<path d="M299.109 43.1471L304.887 44.4362L305.915 39.8295L300.254 38.5665L300.185 38.8789C299.888 40.2062 299.527 41.642 299.109 43.1471ZM307.831 31.2407L302.171 29.9777L301.169 34.4673L306.83 35.7303L307.831 31.2407ZM281.971 39.3234L286.968 40.4383L287.996 35.8316L283.077 34.7341L282.807 35.9443C282.563 37.0374 282.319 38.1306 281.971 39.3234ZM289.912 27.2427L284.993 26.1452L283.991 30.6349L288.91 31.7323L289.912 27.2427ZM313.262 28.026L306.738 57.2671C306.233 59.5314 305.563 60.6936 303.984 61.1608C302.482 61.6455 300.465 61.3184 297.576 60.6738C297.707 59.3507 297.544 57.1422 297.229 55.8013C298.881 56.2929 300.725 56.6633 301.319 56.7549C301.905 56.8855 302.144 56.7339 302.266 56.1873L303.964 48.5745L297.835 47.207C296.187 51.8393 293.87 56.5273 290.444 59.5745C289.79 58.6498 288.177 57.0605 287.189 56.3482C286.894 56.5692 286.568 56.7425 286.173 56.8593C284.806 57.292 283.023 57.0171 280.525 56.4597C280.669 55.2623 280.501 53.2578 280.199 52.0427C281.548 52.4256 283.031 52.7566 283.547 52.8308C284.016 52.9353 284.216 52.775 284.32 52.3065L286.045 44.5765L280.813 43.4094C279.291 48.0287 277.131 52.7516 274.065 55.8382C273.402 54.9525 271.828 53.3719 270.84 52.6596C275.299 48.2857 277.232 40.7251 278.504 35.0252L281.639 20.9708L295.186 23.9932L288.653 53.2733C288.418 54.3274 288.157 55.1298 287.775 55.7413C292.499 51.0986 294.501 43.5945 295.773 37.8946L298.7 24.7771L313.262 28.026Z" fill="black"/>
<path d="M334.884 50.777C335.347 59.8122 340.351 67.313 350.378 72.853C349.033 73.4501 347.073 74.9786 346.003 76.0078C335.715 69.7448 331.16 61.5517 330.509 50.5923L334.884 50.777ZM347.242 52.4638L348.113 52.7613L349.01 52.8566L351.661 55.2419C344.766 65.5247 335.228 68.9443 324.326 68.6852C324.159 67.3178 323.657 65.2016 323.071 63.9449C332.629 64.6745 341.572 61.3896 346.971 53.2587L347.242 52.4638ZM325.068 35.5871L358.112 46.8785L356.612 51.2693L323.568 39.9779L325.068 35.5871ZM332.935 47.5747L347.697 52.619L346.196 57.0097L330.147 51.5257L332.935 47.5747ZM336.458 33.1808L341.19 34.7976C338.856 40.6367 332.028 58.7627 317.738 64.9547C317.206 63.4201 316.156 61.7931 314.914 60.3543C328.753 55.2342 334.653 37.721 336.458 33.1808Z" fill="black"/>
<path d="M366.489 88.9752L392.569 57.6435L396.069 59.3184L370.025 90.6673L366.489 88.9752Z" fill="black"/>
</svg>
