<svg width="148" height="142" viewBox="0 0 148 142" fill="none" xmlns="http://www.w3.org/2000/svg">
<path d="M21.5635 49.2754L20.1307 24.8991L22.0057 25.3125L23.4385 49.6888L21.5635 49.2754Z" fill="black"/>
<path d="M51.8879 41.0392L62.5785 46.9005L61.6094 48.6683L50.9187 42.807L51.8879 41.0392ZM45.3055 49.5007L60.6891 57.935L59.7199 59.7027L44.3363 51.2685L45.3055 49.5007ZM53.1494 36.9411L67.8596 45.0061L66.8789 46.7949L52.1687 38.7299L53.1494 36.9411ZM61.7788 46.4621L63.757 47.5466C63.757 47.5466 63.3668 48.2085 63.2283 48.4611C58.4068 56.6563 56.6007 59.2516 55.4427 59.7663C54.6872 60.1458 54.0783 60.0583 53.3587 59.7732C52.6717 59.4787 51.6194 58.9018 50.5808 58.2502C50.802 57.7968 50.9819 57.0195 50.9716 56.4391C51.9356 57.0771 52.829 57.5943 53.2614 57.804C53.6402 58.0117 53.8527 58.0734 54.1921 57.9037C55.0759 57.5398 56.9532 54.7645 61.5481 46.883L61.7788 46.4621ZM50.9409 40.52L52.9401 41.6161C50.5347 45.0051 47.3419 49.3308 45.3369 51.7897L43.2956 50.6705C45.4099 48.1621 48.6773 43.8499 50.9409 40.52ZM55.1375 35.2119L56.8137 36.8973C53.9282 39.065 50.423 40.8656 47.5767 41.7137C47.3405 41.1463 46.7891 40.105 46.4341 39.5545C49.2817 38.9535 52.5894 37.2636 55.1375 35.2119ZM53.0952 45.1772L54.8106 44.6944C55.7828 45.9664 56.8534 47.7577 57.2493 48.9327L55.4131 49.4862C55.0594 48.3342 54.0769 46.4818 53.0952 45.1772ZM50.2052 49.45L51.8995 48.9557C52.9002 50.3254 53.9764 52.2566 54.3702 53.4852L52.5435 54.0712C52.2033 52.8446 51.1829 50.8619 50.2052 49.45ZM44.6586 43.0425L48.8044 45.3155L48.7698 45.3786L60.0708 51.5745L60.1054 51.5113L64.0828 53.692L63.1021 55.4808L59.1246 53.3001L59.1593 53.237L47.8583 47.0411L47.8237 47.1042L43.6779 44.8313L44.6586 43.0425Z" fill="black"/>
<path d="M81.7842 54.4203L90.7625 62.8098L89.255 64.4231L80.2767 56.0336L81.7842 54.4203ZM77.8691 58.6453L86.9176 67.1003L85.4429 68.6786L76.3944 60.2235L77.8691 58.6453ZM73.8302 62.7217L82.8962 71.1931L81.3887 72.8064L72.3227 64.335L73.8302 62.7217ZM80.6969 53.4044L82.3979 54.9938L77.1873 60.5702C74.3361 63.6214 69.9476 67.404 64.5567 67.1623C64.6389 66.5822 64.546 65.3458 64.3908 64.7737C69.3899 64.9778 72.9137 61.7339 75.4863 58.9808L80.6969 53.4044ZM90.0085 62.1052L91.7621 63.7438L79.4891 76.8782C78.4896 77.9478 77.7175 78.2118 76.7363 77.8205C75.7037 77.414 74.4949 76.3173 72.6361 74.5804C72.9897 73.9911 73.4114 72.9071 73.5569 72.189C74.8755 73.5197 76.3298 74.8458 76.7331 75.2226C77.1704 75.5984 77.4078 75.5903 77.7683 75.2045L90.0085 62.1052Z" fill="black"/>
<path d="M91.279 80.0406C92.8217 81.5608 95.2312 83.723 97.5227 85.7898L95.9467 87.1118C93.7644 85.2601 91.5045 83.2871 89.7426 81.7362L91.279 80.0406ZM98.0833 76.1135L102.314 82.7238L100.535 83.8622L96.3044 77.252L98.0833 76.1135ZM103.74 76.226L104.917 78.0656L88.2401 88.7385C87.2698 89.3594 86.6351 89.4807 85.9769 89.0756C85.3187 88.6705 84.6889 87.8198 83.8294 86.4323C84.2555 86.0741 84.8684 85.3399 85.1983 84.7869C85.7344 85.669 86.2648 86.4978 86.433 86.7606C86.6012 87.0234 86.7799 87.08 87.0629 86.8989L103.74 76.226ZM102.055 83.7442L109.144 94.8219L95.1556 103.774L93.9395 101.874L106.109 94.086L101.4 86.7278L89.1092 94.5934L87.9449 92.7741L102.055 83.7442ZM97.4628 88.2786L102.961 96.8699L101.162 98.0213L95.6637 89.43L97.4628 88.2786ZM91.97 91.8508L97.4682 100.442L95.6286 101.619L90.1305 93.028L91.97 91.8508ZM109.521 85.3486L110.686 87.1679L94.17 97.7373L93.0057 95.918L109.521 85.3486Z" fill="black"/>
<path d="M98.6869 119.539L123.111 119.341L123.644 121.16L99.2264 121.382L98.6869 119.539Z" fill="black"/>
</svg>
