<svg width="521" height="311" viewBox="0 0 521 311" fill="none" xmlns="http://www.w3.org/2000/svg">
<path d="M517.48 15.0337C522.306 23.8717 519.95 36.2449 511.235 51.2016C502.539 66.1276 487.594 83.4731 467.562 102.133C427.505 139.447 367.188 181.939 296.108 220.751C225.028 259.563 156.673 287.33 103.625 300.855C77.0967 307.618 54.4251 310.812 37.1668 310.058C19.8729 309.303 8.19041 304.595 3.36456 295.757C-1.46129 286.919 0.894494 274.546 9.60918 259.589C18.306 244.663 33.2504 227.318 53.2822 208.658C93.3401 171.344 153.656 128.852 224.736 90.0401C295.816 51.2281 364.172 23.4607 417.22 9.93627C443.748 3.17308 466.42 -0.0209277 483.678 0.732699C500.972 1.48791 512.654 6.19569 517.48 15.0337Z" stroke="url(#paint0_linear_317_1670)"/>
<defs>
<linearGradient id="paint0_linear_317_1670" x1="94.5" y1="102.5" x2="196.65" y2="290.323" gradientUnits="userSpaceOnUse">
<stop offset="0.261065" stop-color="white" stop-opacity="0"/>
<stop offset="0.852217" stop-color="#FFCE6C"/>
</linearGradient>
</defs>
</svg>
