<?xml version="1.0" encoding="utf-8"?>
<!-- Generator: Adobe Illustrator 25.0.0, SVG Export Plug-In . SVG Version: 6.00 Build 0)  -->
<svg version="1.1" id="圖層_1" xmlns="http://www.w3.org/2000/svg" xmlns:xlink="http://www.w3.org/1999/xlink" x="0px" y="0px"
	 viewBox="0 0 170 340" style="enable-background:new 0 0 170 340;" xml:space="preserve">
<style type="text/css">
	.st0{fill:url(#SVGID_1_);}
	.st1{fill-rule:evenodd;clip-rule:evenodd;fill:url(#SVGID_2_);}
	.st2{fill:none;stroke:url(#SVGID_3_);stroke-width:8;stroke-linecap:round;stroke-linejoin:round;}
</style>
<linearGradient id="SVGID_1_" gradientUnits="userSpaceOnUse" x1="84.9998" y1="238.9524" x2="84.9998" y2="270.8269" gradientTransform="matrix(1 0 0 -1 0 339.8885)">
	<stop  offset="0" style="stop-color:#FFA79D"/>
	<stop  offset="1" style="stop-color:#FFA79D;stop-opacity:0"/>
</linearGradient>
<path class="st0" d="M85,100.9c4.2,0,8.3-1.7,11.3-4.7c3-3,4.7-7,4.7-11.3s-1.7-8.3-4.7-11.3c-3-3-7-4.7-11.3-4.7s-8.3,1.7-11.3,4.7
	c-3,3-4.7,7-4.7,11.3s1.7,8.3,4.7,11.3C76.7,99.3,80.8,100.9,85,100.9z"/>
<linearGradient id="SVGID_2_" gradientUnits="userSpaceOnUse" x1="142.4422" y1="198.7712" x2="34.5771" y2="304.1511" gradientTransform="matrix(1 0 0 -1 0 339.8885)">
	<stop  offset="0.1938" style="stop-color:#FFA79D"/>
	<stop  offset="1" style="stop-color:#FFA79D;stop-opacity:0"/>
</linearGradient>
<path class="st1" d="M85,39c-18.5,0-35.2,7.4-47.2,16.7c-6,4.6-11,9.7-14.4,14.7c-3.4,4.9-5.6,10-5.6,14.6c0,4.6,2.2,9.7,5.6,14.6
	c3.5,5,8.4,10.1,14.4,14.7c12,9.2,28.7,16.7,47.2,16.7c18.5,0,35.2-7.4,47.2-16.7c6-4.6,11-9.7,14.4-14.7c3.4-4.9,5.6-10,5.6-14.6
	c0-4.6-2.2-9.7-5.6-14.6c-3.5-5-8.4-10.1-14.4-14.7C120.2,46.4,103.5,39,85,39z M58.4,85c0-7,2.8-13.8,7.8-18.8
	c5-5,11.7-7.8,18.8-7.8c7,0,13.8,2.8,18.8,7.8c5,5,7.8,11.7,7.8,18.8c0,7-2.8,13.8-7.8,18.8c-5,5-11.7,7.8-18.8,7.8
	c-7,0-13.8-2.8-18.8-7.8C61.2,98.8,58.4,92,58.4,85z"/>
<linearGradient id="SVGID_3_" gradientUnits="userSpaceOnUse" x1="121.9071" y1="32.7043" x2="76.8079" y2="101.6102" gradientTransform="matrix(1 0 0 -1 -8.3622 364.8334)">
	<stop  offset="0.1938" style="stop-color:#FFA79D"/>
	<stop  offset="1" style="stop-color:#FFD6D2"/>
</linearGradient>
<path class="st2" d="M135.1,276c-12.8,14-28.8,21-48,21s-35.2-7-48-21 M39.1,307.5l13.3-20 M135.1,307.4l-13.3-19.8 M71.1,318
	l2.7-21 M103.1,318l-2.7-21"/>
</svg>
