<svg width="16" height="17" viewBox="0 0 16 17" fill="none" xmlns="http://www.w3.org/2000/svg">
<path d="M7.47186 0.942367C7.51127 0.833776 7.58316 0.739953 7.67776 0.67365C7.77236 0.607346 7.88508 0.571777 8.00061 0.571777C8.11613 0.571777 8.22885 0.607346 8.32345 0.67365C8.41805 0.739953 8.48994 0.833776 8.52936 0.942367L9.06711 2.41162C9.48831 3.56372 10.1559 4.61001 11.0233 5.47741C11.8907 6.34481 12.937 7.01241 14.0891 7.43362L15.5572 7.97137C15.6658 8.01078 15.7596 8.08267 15.8259 8.17727C15.8923 8.27187 15.9278 8.3846 15.9278 8.50012C15.9278 8.61564 15.8923 8.72836 15.8259 8.82296C15.7596 8.91756 15.6658 8.98945 15.5572 9.02887L14.0891 9.56662C12.937 9.98782 11.8907 10.6554 11.0233 11.5228C10.1559 12.3902 9.48831 13.4365 9.06711 14.5886L8.52936 16.0567C8.48994 16.1653 8.41805 16.2592 8.32345 16.3255C8.22885 16.3918 8.11613 16.4273 8.00061 16.4273C7.88508 16.4273 7.77236 16.3918 7.67776 16.3255C7.58316 16.2592 7.51127 16.1653 7.47186 16.0567L6.93411 14.5886C6.5129 13.4365 5.84529 12.3902 4.97789 11.5228C4.11049 10.6554 3.06421 9.98782 1.91211 9.56662L0.442855 9.02887C0.334264 8.98945 0.240441 8.91756 0.174138 8.82296C0.107834 8.72836 0.0722656 8.61564 0.0722656 8.50012C0.0722656 8.3846 0.107834 8.27187 0.174138 8.17727C0.240441 8.08267 0.334264 8.01078 0.442855 7.97137L1.91211 7.43362C3.06421 7.01241 4.11049 6.34481 4.97789 5.47741C5.84529 4.61001 6.5129 3.56372 6.93411 2.41162L7.47186 0.942367Z" fill="white"/>
</svg>
