<svg width="50" height="51" fill="none" xmlns="http://www.w3.org/2000/svg"><path d="m25 33.834 8.334-8.334L25 17.167l-2.916 2.917 3.333 3.333h-8.75v4.167h8.75l-3.333 3.333L25 33.834Zm0 12.5c-2.882 0-5.59-.548-8.125-1.642-2.534-1.094-4.74-2.578-6.614-4.452-1.875-1.875-3.36-4.08-4.452-6.615-1.093-2.534-1.64-5.243-1.642-8.125 0-2.882.547-5.59 1.642-8.125 1.094-2.534 2.578-4.74 4.452-6.614 1.875-1.875 4.08-3.36 6.614-4.452C19.41 5.216 22.118 4.669 25 4.667c2.882 0 5.59.547 8.125 1.642 2.535 1.094 4.74 2.578 6.615 4.452 1.875 1.875 3.36 4.08 4.454 6.614 1.094 2.535 1.641 5.243 1.64 8.125 0 2.882-.548 5.59-1.642 8.125-1.094 2.535-2.578 4.74-4.452 6.615-1.875 1.875-4.08 3.36-6.615 4.454-2.534 1.094-5.243 1.641-8.125 1.64Z" fill="#FFA79D"/></svg>