<svg width="226" height="70" viewBox="0 0 226 70" fill="none" xmlns="http://www.w3.org/2000/svg">
<path d="M26.633 62.4667L5.68872 37.4788L8.48276 36.1266L29.427 61.1146L26.633 62.4667Z" fill="#FFA79D"/>
<path d="M47.2431 28.2582L47.6883 29.9278L61.3548 26.284L60.9097 24.6143L47.2431 28.2582ZM46.1137 24.0221L46.5506 25.6609L60.2172 22.017L59.7802 20.3783L46.1137 24.0221ZM60.6946 42.6878L72.3514 39.5798L73.2005 42.7646L45.9601 50.0275L45.111 46.8428L56.8915 43.7018L56.3309 41.5993L48.3535 43.7262L47.5868 40.8507L55.5642 38.7237L55.0613 36.8376L48.5063 38.5853C47.9229 39.9994 47.222 41.3454 46.4861 42.4358C45.6018 41.9761 43.8126 41.2277 42.8232 40.9948C44.4517 38.9047 45.7731 36.0354 46.2432 33.3269L44.8209 33.7061L41.7541 22.2039L62.8723 16.5733L65.9391 28.0754L47.449 33.0053L50.2132 33.0632C50.0834 33.6939 49.9535 34.3247 49.77 35.0028L54.2534 33.8075L53.7505 31.9213L57.5536 30.9073L58.0565 32.7934L67.7653 30.2048L68.5733 33.235L58.8644 35.8236L59.3673 37.7097L67.6538 35.5003L68.4205 38.3759L60.134 40.5852L60.6946 42.6878Z" fill="#FFA79D"/>
<path d="M98.8103 33.4813L99.0851 36.6373L109.223 35.7546L109.506 39.0063L85.5963 41.0882L85.3132 37.8365L95.419 36.9566L95.1442 33.8005L87.0468 34.5056L86.7609 31.222L94.8582 30.5169L94.5224 26.6595L92.8413 29.1186C92.1981 28.3716 91.0808 27.3446 89.9372 26.3842C89.2942 27.8535 88.4724 29.1136 87.4372 30.1352C86.848 29.6405 85.4923 28.827 84.6163 28.3572C84.7236 32.9091 84.3707 38.0792 82.7397 41.8509C82.0147 41.2716 80.2599 40.3002 79.3339 39.9953C81.4264 35.2519 81.0375 28.5725 80.6294 23.8862L79.8772 15.2469L92.4058 14.156C91.9885 13.4214 91.5421 12.7215 91.0721 12.12L94.6064 10.6559C95.3966 11.615 96.1688 12.7362 96.7732 13.7757L107.007 12.8847L107.312 16.3914L83.9124 18.4289L84.3621 23.5933C84.4815 24.9641 84.5828 26.4971 84.6287 28.1313C86.8296 26.1088 87.7829 23.0385 87.9613 19.5539L91.4029 19.6075C91.3226 20.8994 91.1703 22.1011 90.914 23.2156C92.217 24.1621 93.6005 25.2944 94.4752 26.1176L93.8229 18.6259L97.489 18.3067L98.1691 26.1171C99.8945 24.1681 100.785 21.4887 101 18.4186L104.415 18.5388C104.311 19.929 104.075 21.2666 103.728 22.4531C105.468 23.6186 107.346 24.9005 108.423 25.8346L106.501 28.4753C105.661 27.6812 104.144 26.4962 102.668 25.4042C102.011 26.7141 101.181 27.8785 100.204 28.8308C99.8202 28.4788 99.0314 27.9051 98.2857 27.4561L98.5244 30.1977L106.909 29.4677L107.195 32.7512L98.8103 33.4813Z" fill="#FFA79D"/>
<path d="M133.53 26.6404L133.433 27.7562L137.452 28.0741C137.023 27.8439 136.596 27.5819 136.195 27.3864L136.877 26.9319L133.53 26.6404ZM124.392 23.4999L130.035 23.9912L130.14 22.7798L124.497 22.2885L124.392 23.4999ZM124.789 18.9411L124.686 20.1207L130.329 20.612L130.431 19.4325L124.789 18.9411ZM140.059 20.2708L134.129 19.7545L134.027 20.934L139.956 21.4503L140.059 20.2708ZM133.733 24.3132L139.662 24.8295L139.768 23.6181L133.838 23.1018L133.733 24.3132ZM145.833 32.5299L145.572 35.5265L138.463 34.9075L138.194 37.9998C138.041 39.7532 137.645 40.6181 136.293 41.0143C134.977 41.3815 133.189 41.2579 130.766 41.0469C130.695 40.0129 130.334 38.6324 129.971 37.6371C131.495 37.8341 133.312 37.9923 133.822 38.0367C134.335 38.0493 134.503 37.9675 134.539 37.5531L134.797 34.5883L125.807 33.8055C127.063 34.8785 128.305 36.1108 128.963 37.0354L125.947 39.214C125.13 37.8902 123.153 35.8871 121.534 34.5577L122.97 33.5585L116.594 33.0033L116.855 30.0066L135.058 31.5916L135.161 30.4121C128.87 29.9928 122.836 29.5638 118.37 29.207L118.51 26.489C121.504 26.7818 125.428 27.0913 129.732 27.4661L129.832 26.3184L120.651 25.519L121.45 16.3377L130.631 17.1372L130.731 15.9895L119.032 14.9708L119.281 12.1016L130.981 13.1203L131.156 11.112L134.854 11.4339L134.679 13.4423L146.315 14.4555L146.065 17.3247L134.429 16.3115L134.329 17.4592L143.957 18.2975L143.157 27.4787L141.022 27.2927C142.543 28.2604 143.958 29.3472 144.912 30.2012L142.415 31.9432C142.061 31.5911 141.648 31.1697 141.168 30.7746L138.835 30.6357L138.724 31.9109L145.833 32.5299Z" fill="#FFA79D"/>
<path d="M172.852 21.897L169.729 21.0644L169.366 22.4249L172.489 23.2575L172.852 21.897ZM168.377 26.1353L171.5 26.9679L171.879 25.5456L168.756 24.7129L168.377 26.1353ZM173.57 30.136L167.726 28.5779L162.944 46.5114L159.945 45.7118L163.597 32.0143L161.163 33.8159C161.136 33.0471 161.076 31.9051 160.963 30.7158L157.154 45.0007L154.309 44.2423L157.005 34.1315C155.915 35.861 154.812 37.3884 153.802 38.4439C153.773 37.3101 153.476 35.4426 153.206 34.344C155.317 32.3898 157.687 28.7164 159.355 25.3193L159.561 24.5463L157.18 23.9116L158.021 20.7577L160.402 21.3925L162.009 15.3631L164.854 16.1216L163.246 22.151L165.225 22.6786L164.384 25.8324L162.405 25.3048L162.274 25.7995C162.589 26.9765 163.453 30.8167 163.622 31.9215L167.381 17.8221L176.224 20.1799L173.57 30.136ZM173.731 39.717L172.91 39.0677C173.362 38.4926 173.964 37.7257 174.227 37.2331L175.361 38.1977C174.724 38.7234 174.172 39.3047 173.731 39.717ZM169.513 36.4067L170.725 36.3324C170.839 37.025 170.911 37.8722 170.942 38.3772L169.612 38.5195C169.66 37.9691 169.596 37.091 169.513 36.4067ZM169.501 35.7079L168.726 38.6144L170.921 39.1997L171.696 36.2932L169.501 35.7079ZM174.941 40.2714L175.716 37.3649L173.366 36.7384L172.591 39.6449L174.941 40.2714ZM175.961 45.0144L174.007 46.3811C173.529 45.6906 172.737 44.6847 171.876 43.6933L170.87 47.4655L168.458 46.8225L169.497 42.9266C168.18 43.7676 166.663 44.4892 165.416 44.819C165.154 44.1862 164.657 43.1927 164.216 42.6114C165.873 42.3578 167.873 41.5662 169.386 40.6117L166.325 39.7956L167.998 33.5189L171.832 34.5411L172.079 33.6135L167.472 32.3852L167.992 30.4372L172.599 31.6656L172.945 30.3669L175.388 31.0182L175.041 32.3168L179.525 33.5122L179.005 35.4602L174.522 34.2648L174.275 35.1924L178.202 36.2394L176.528 42.5161L172.972 41.568C174.048 42.7491 175.269 44.1343 175.961 45.0144ZM178.117 28.7321L181.363 29.5977L181.743 28.1754L178.496 27.3098L178.117 28.7321ZM182.715 24.5269L179.469 23.6613L179.106 25.0217L182.353 25.8874L182.715 24.5269ZM186.397 22.8921L179.769 47.7517C179.431 49.0194 179.033 49.6419 178.167 49.9079C177.332 50.1821 176.326 49.9801 175.028 49.6338C175.133 48.867 175.075 47.5931 174.885 46.814C175.526 47.018 176.114 47.1747 176.299 47.2241C176.578 47.2983 176.673 47.1911 176.747 46.9128L180.712 32.0404L174.714 30.4411L177.368 20.4849L186.397 22.8921Z" fill="#FFA79D"/>
<path d="M195.367 60.8604L216.312 35.8725L219.106 37.2246L198.19 62.2265L195.367 60.8604Z" fill="#FFA79D"/>
</svg>
