<svg width="1280" height="891" viewBox="0 0 1280 891" fill="none" xmlns="http://www.w3.org/2000/svg">
<path d="M1123.23 58.1071L1074.87 109.709C1008.64 180.379 909.54 210.011 815.385 187.3C724.545 165.389 628.323 192.68 562.042 258.549C481.627 338.465 359.436 360.789 256.351 313.602L155.194 267.298C68.8703 227.783 -33.3034 262.071 -78.3159 345.66L-91.2785 369.732C-132.942 447.101 -230.795 473.978 -306.132 428.744C-359.919 396.45 -427.92 400.014 -478.036 437.753L-512.225 463.499C-566.792 504.589 -598.884 568.929 -598.884 637.238L-598.884 649.129C-598.884 841.37 -385.075 956.44 -224.625 850.552L-33 724.09L-21.7742 718.286C86.6192 662.24 218.16 677.433 310.923 756.712L379.007 814.899C470.04 892.7 598.622 908.912 706.118 856.141L750.36 834.422C820.058 800.207 900.306 794.346 974.236 818.073L1074 850.09C1254.46 887.048 1424.3 751.457 1428.23 567.291L1436.37 185.786C1438.78 72.7472 1338.15 -14.828 1226.52 3.16784C1186.96 9.54603 1150.63 28.8682 1123.23 58.1071Z" fill="url(#paint0_linear_1_67)"/>
<defs>
<linearGradient id="paint0_linear_1_67" x1="1078.5" y1="-256.41" x2="313" y2="946.59" gradientUnits="userSpaceOnUse">
<stop offset="0.204736" stop-color="#FFA79D"/>
<stop offset="0.66384" stop-color="#FFECD0"/>
<stop offset="0.849039" stop-color="#FFF4E4"/>
</linearGradient>
</defs>
</svg>
