<svg width="134" height="43" viewBox="0 0 134 43" fill="none" xmlns="http://www.w3.org/2000/svg">
<path d="M3 34L3.22472 33.7408C9.93815 25.9967 22.0203 26.1221 28.6342 33.9513V33.9513C35.2609 41.7957 47.3919 41.8444 54.0186 34V34C60.6453 26.1556 72.7351 26.1556 79.3618 34V34C85.9886 41.8444 98.0783 41.8444 104.705 34V34C111.332 26.1556 123.422 26.1556 130.048 34V34" stroke="#FED27B" stroke-width="6" stroke-linecap="round"/>
<path d="M3 9L3.22472 8.74078C9.93815 0.996735 22.0203 1.12208 28.6342 8.95129V8.95129C35.2609 16.7957 47.3919 16.8444 54.0186 9V9C60.6453 1.15563 72.7351 1.15563 79.3618 9V9C85.9886 16.8444 98.0783 16.8444 104.705 9V9C111.332 1.15563 123.422 1.15563 130.048 9V9" stroke="#FFA79D" stroke-width="6" stroke-linecap="round"/>
</svg>
