<svg width="50" height="51" viewBox="0 0 50 51" fill="none" xmlns="http://www.w3.org/2000/svg">
<path d="M25.0003 33.8337L33.3337 25.5003L25.0003 17.167L22.0837 20.0837L25.417 23.417L16.667 23.417L16.667 27.5837L25.417 27.5837L22.0837 30.917L25.0003 33.8337ZM25.0003 46.3337C22.1184 46.3337 19.41 45.7865 16.8753 44.692C14.3406 43.5976 12.1357 42.1135 10.2607 40.2399C8.38574 38.3649 6.90171 36.1601 5.80865 33.6253C4.7156 31.0906 4.16838 28.3823 4.16699 25.5003C4.16699 22.6184 4.71421 19.9101 5.80866 17.3753C6.9031 14.8406 8.38713 12.6357 10.2607 10.7607C12.1357 8.88575 14.3406 7.40172 16.8753 6.30866C19.4101 5.21561 22.1184 4.66838 25.0003 4.667C27.8823 4.667 30.5906 5.21422 33.1253 6.30866C35.6601 7.40311 37.8649 8.88714 39.7399 10.7608C41.6149 12.6358 43.0996 14.8406 44.1941 17.3753C45.2885 19.9101 45.8351 22.6184 45.8337 25.5003C45.8337 28.3823 45.2864 31.0906 44.192 33.6253C43.0976 36.1601 41.6135 38.3649 39.7399 40.2399C37.8649 42.1149 35.6601 43.5996 33.1253 44.6941C30.5906 45.7885 27.8823 46.3351 25.0003 46.3337Z" fill="#FFA79D"/>
</svg>
