<svg width="322" height="55" viewBox="0 0 322 55" fill="none" xmlns="http://www.w3.org/2000/svg">
<path d="M22.64 15.232V45.248H29.024V15.232H22.64ZM13.512 24.08H38.32V26.6H13.512V24.08ZM13.512 17.416H38.32V19.936H13.512V17.416ZM7.072 13.048V30.968H45.04V13.048H7.072ZM42.464 33.32V47.992C42.464 48.496 42.296 48.664 41.736 48.72C41.232 48.72 39.608 48.72 38.04 48.664C38.768 50.176 39.552 52.416 39.776 54.04C42.856 54.04 45.152 54.04 46.832 53.144C48.568 52.192 48.96 50.736 48.96 48.048V33.32H42.464ZM12.28 43.4L12.784 49.056C19.224 48.664 28.128 48.16 36.64 47.544L36.696 42.28C27.736 42.784 18.496 43.176 12.28 43.4ZM31.824 39.872C33.672 43.232 35.24 47.656 35.632 50.456L40.896 49.056C40.448 46.2 38.656 41.888 36.752 38.64L31.824 39.872ZM12.616 1.456V12.208H19.168V1.456H12.616ZM32.44 1.456V12.208H38.992V1.456H32.44ZM0.856 4.312V9.8H24.992V4.312H0.856ZM26.896 4.312V9.8H51.032V4.312H26.896ZM1.416 33.32V38.696H45.488V33.32H1.416ZM3.544 31.752V53.928H9.984V31.752H3.544ZM96.56 24.92V44.352C96.56 50.904 98.184 53.088 104.568 53.088C105.8 53.088 110.056 53.088 111.344 53.088C117.056 53.088 118.736 50.176 119.408 40.04C117.616 39.592 114.648 38.416 113.192 37.24C112.968 45.36 112.632 46.76 110.728 46.76C109.72 46.76 106.416 46.76 105.632 46.76C103.84 46.76 103.504 46.48 103.504 44.296V24.92H96.56ZM68.112 20.608V27.16H118.344V20.608H68.112ZM73.208 5.376V11.872H113.192V5.376H73.208ZM80.936 25.76C80.264 35.616 79.2 43.848 66.88 48.44C68.392 49.728 70.296 52.192 71.024 53.872C85.136 48.216 87.264 38.08 88.16 25.76H80.936ZM134.472 5.6V11.816H153.68V5.6H134.472ZM135.032 21.784V27.944H153.176V21.784H135.032ZM133.464 41.216L134.808 47.656C140.52 46.144 148.08 44.184 155.136 42.28L154.408 36.456C146.792 38.304 138.728 40.152 133.464 41.216ZM156.48 5.432V11.816H183.472V5.432H156.48ZM154.24 21.224V27.664H186.44V21.224H154.24ZM160.624 25.76C160.232 37.856 159.504 44.912 147.744 48.888C149.088 50.064 150.824 52.528 151.496 54.096C164.992 49.168 166.616 40.04 167.12 25.76H160.624ZM170.872 25.592V45.472C170.872 51.688 172.048 53.76 177.256 53.76C178.208 53.76 180.168 53.76 181.12 53.76C185.432 53.76 187.056 51.24 187.616 42.56C185.824 42.112 182.968 40.992 181.68 39.816C181.512 46.424 181.288 47.488 180.392 47.488C180.056 47.488 178.768 47.488 178.432 47.488C177.648 47.488 177.536 47.264 177.536 45.416V25.592H170.872ZM141.136 8.064V42.392L147.632 41.384V8.064H141.136ZM202.176 32.368V37.912H252.968V32.368H202.176ZM224.408 29.68V53.872H231.184V29.68H224.408ZM225.472 19.6H229.616V23.464H225.472V19.6ZM225.472 11.2H229.616V15.008H225.472V11.2ZM219.76 6.328V28.392H235.552V6.328H219.76ZM225.248 1.064C225.08 3.024 224.464 5.88 223.904 7.896L228.328 8.96C229.168 7.224 230.232 4.592 231.296 2.072L225.248 1.064ZM246.92 20.944C247.816 24.08 248.712 28.112 248.992 30.856L253.472 29.624C253.08 26.992 252.128 22.96 251.176 19.88L246.92 20.944ZM213.152 20.216C213.936 23.408 214.72 27.552 214.944 30.352L219.48 29.232C219.144 26.488 218.304 22.4 217.464 19.264L213.152 20.216ZM203.968 18.984C203.968 17.976 206.992 16.408 206.992 16.408V16.24C209.512 13.16 212.424 8.344 214.328 3.864L209.12 2.072C207.888 6.384 205.424 10.808 204.64 11.928C203.856 13.16 203.072 13.944 202.288 14.168C202.848 15.456 203.688 17.976 203.968 18.984ZM203.968 18.984C204.864 18.536 206.432 18.2 213.544 17.36C213.6 16.296 213.768 14.448 214.048 13.104L206.096 13.72L203.856 15.232L203.968 18.984ZM203.8 30.016C203.8 29.064 206.488 27.496 206.488 27.496V27.328C211.024 23.072 215.784 17.024 219.256 11.088L214.496 8.456C211.808 14.336 207.104 20.552 205.704 22.12C204.304 23.688 203.24 24.808 202.064 25.032C202.736 26.432 203.576 28.952 203.8 30.016ZM203.8 30.016C204.864 29.456 206.656 29.008 217.128 27.608C217.128 26.6 217.24 24.696 217.464 23.408L205.928 24.696L203.632 26.208L203.8 30.016ZM237.288 19.32C237.288 18.256 240.368 16.632 240.368 16.632V16.52C242.944 13.328 245.968 8.344 247.872 3.64L242.496 2.072C241.152 6.384 238.688 10.92 237.904 12.096C237.12 13.272 236.336 14.168 235.552 14.336C236.168 15.68 237.008 18.2 237.288 19.32ZM237.288 19.32C238.24 18.872 239.92 18.424 248.04 17.528C248.096 16.408 248.264 14.392 248.544 12.992L239.472 13.832L237.12 15.344L237.288 19.32ZM237.68 30.352C237.68 29.344 240.48 27.776 240.48 27.776V27.608C245.128 23.464 249.944 17.36 253.528 11.536L248.656 8.792C245.856 14.672 241.04 20.776 239.584 22.344C238.184 23.968 237.12 24.976 235.944 25.256C236.56 26.656 237.4 29.288 237.68 30.352ZM237.68 30.352C238.8 29.848 240.648 29.456 251.344 28.336C251.344 27.328 251.568 25.368 251.848 24.024L239.976 25.032L237.512 26.544L237.68 30.352ZM216.848 39.536C213.488 42.84 206.936 45.64 200.608 46.872C202.064 48.16 204.08 50.736 205.032 52.416C211.752 50.568 218.416 46.48 222.336 41.608L216.848 39.536ZM233.984 43.12C238.968 45.864 245.632 50.064 248.768 52.864L253.08 48.048C249.664 45.304 242.832 41.384 237.96 38.92L233.984 43.12ZM279.68 17.64V23.856H309.64V17.64H279.68ZM273.184 29.68V35.728H316.248V29.68H273.184ZM270.44 46.704V52.808H319.216V46.704H270.44ZM291.048 20.608V49.56H298.272V20.608H291.048ZM276.88 37.576C278.84 40.544 280.912 44.632 281.696 47.208L287.52 44.688C286.624 42.056 284.384 38.136 282.312 35.336L276.88 37.576ZM306.616 35.392C305.44 38.416 303.312 42.504 301.576 45.136L306.672 47.208C308.52 44.856 310.872 41.216 313 37.744L306.616 35.392ZM297.264 4.368L291.664 7.112C297.936 14.168 307.904 20.552 317.256 23.8C318.264 22.064 320.336 19.376 321.904 17.92C312.608 15.4 302.416 9.968 297.264 4.368ZM294.016 0.839999C288.696 9.184 278.56 14.84 267.92 17.92C269.656 19.6 271.504 22.176 272.456 24.136C283.768 20.104 293.96 13.552 300.344 3.64L294.016 0.839999Z" fill="#E60012"/>
</svg>
