<svg width="404" height="117" viewBox="0 0 404 117" fill="none" xmlns="http://www.w3.org/2000/svg">
<path d="M91.568 104.848H120.368V107.376H91.568V104.848ZM104.528 103.088H107.568V116.624H104.528V103.088ZM104.304 97.168V100.016H107.664V97.168H104.304ZM104.304 92.208V95.024H107.664V92.208H104.304ZM101.68 89.936H110.352V102.288H101.68V89.936ZM104.88 86.832L107.664 87.312C107.12 88.72 106.576 90.224 106.128 91.184L104.08 90.704C104.432 89.584 104.784 87.92 104.88 86.832ZM117.104 98.256L119.088 97.712C119.664 99.376 120.24 101.552 120.496 102.928L118.416 103.568C118.192 102.096 117.648 99.92 117.104 98.256ZM98.128 97.712L100.112 97.232C100.624 98.992 101.104 101.264 101.296 102.736L99.184 103.28C99.024 101.744 98.544 99.472 98.128 97.712ZM92.624 96.688C92.496 96.208 92.112 95.024 91.856 94.416C92.272 94.32 92.72 93.84 93.168 93.136C93.616 92.464 95.088 89.808 95.856 87.28L98.224 88.112C97.136 90.768 95.536 93.552 94.128 95.376V95.44C94.128 95.44 92.624 96.176 92.624 96.688ZM92.624 96.688L92.592 94.928L93.712 94.192L98.256 93.776C98.128 94.416 98.064 95.28 98.064 95.76C93.936 96.272 93.104 96.432 92.624 96.688ZM92.56 102.992C92.464 102.48 92.08 101.328 91.792 100.688C92.4 100.56 93.008 99.888 93.776 98.96C94.576 98.032 97.296 94.384 98.896 90.928L101.072 92.144C99.088 95.664 96.464 99.216 93.936 101.712V101.776C93.936 101.776 92.56 102.512 92.56 102.992ZM92.56 102.992L92.496 101.2L93.648 100.464L100.24 99.696C100.144 100.272 100.112 101.168 100.112 101.648C94.096 102.48 93.136 102.704 92.56 102.992ZM111.408 96.944C111.28 96.432 110.896 95.248 110.608 94.608C111.056 94.544 111.472 94 111.92 93.296C112.4 92.592 113.872 89.84 114.672 87.248L117.136 88.016C116.016 90.8 114.384 93.712 112.912 95.6V95.664C112.912 95.664 111.408 96.432 111.408 96.944ZM111.408 96.944L111.344 95.088L112.496 94.384L117.68 93.84C117.584 94.48 117.52 95.408 117.488 95.92C112.784 96.496 111.92 96.72 111.408 96.944ZM111.696 103.28C111.568 102.768 111.184 101.552 110.896 100.912C111.504 100.752 112.144 100.144 112.912 99.184C113.744 98.256 116.496 94.672 118.096 91.216L120.368 92.464C118.32 95.92 115.664 99.504 113.104 101.936V102.032C113.104 102.032 111.696 102.768 111.696 103.28ZM111.696 103.28L111.632 101.456L112.848 100.752L119.536 100.08C119.44 100.72 119.344 101.616 119.344 102.096C113.264 102.8 112.272 102.992 111.696 103.28ZM100.56 108.4L103.056 109.36C100.752 112.144 96.656 114.576 92.848 115.696C92.4 114.928 91.504 113.776 90.832 113.2C94.512 112.368 98.512 110.512 100.56 108.4ZM109.424 110.032L111.216 108.112C114.256 109.648 118.352 112.048 120.4 113.712L118.448 115.92C116.528 114.224 112.528 111.696 109.424 110.032ZM142.736 86.992H145.808V113.584C145.808 115.248 145.36 115.92 144.272 116.368C143.152 116.752 141.456 116.784 138.768 116.784C138.608 116.08 138.128 114.992 137.744 114.352C139.472 114.416 141.392 114.384 141.936 114.384C142.544 114.352 142.736 114.16 142.736 113.584V86.992ZM130.448 89.36H158.384V91.792H130.448V89.36ZM136.656 95.44V97.392H152.112V95.44H136.656ZM133.776 93.424H155.216V99.408H133.776V93.424ZM132.912 101.296H155.728V113.328H152.656V103.44H132.912V101.296ZM129.776 105.296H159.056V107.632H129.776V105.296ZM132.624 109.648H154.288V111.92H132.624V109.648ZM171.056 94.896H180.944V97.616H171.056V94.896ZM170.992 88.656H182.864V104.112H170.992V101.392H179.824V91.376H170.992V88.656ZM169.808 115.856L169.52 113.136L170.768 112.016L180.016 109.168C180.24 110 180.624 111.088 180.88 111.728C171.888 114.768 170.608 115.248 169.808 115.856ZM176.656 106.64L179.248 105.392C180.88 107.984 182.864 111.504 183.728 113.68L180.944 115.184C180.144 112.976 178.256 109.36 176.656 106.64ZM169.808 115.856C169.616 114.992 169.072 113.52 168.56 112.784C169.2 112.464 170 111.856 170 110.64V88.656H173.072V113.36C173.072 113.36 169.808 114.672 169.808 115.856ZM193.264 88.88H196.24V107.344C196.24 108.848 195.984 109.68 195.024 110.192C194.064 110.672 192.592 110.704 190.384 110.704C190.288 109.872 189.904 108.624 189.52 107.824C190.928 107.888 192.304 107.888 192.72 107.856C193.136 107.824 193.264 107.728 193.264 107.312V88.88ZM185.296 88.88H194.8V91.664H188.304V116.72H185.296V88.88ZM213.136 87.504L215.952 86.8C216.848 88.08 217.712 89.84 218 91.024L215.024 91.824C214.768 90.672 213.968 88.88 213.136 87.504ZM206.736 90.864H224.464V93.648H206.736V90.864ZM216.944 109.744L219.024 108.048C220.944 109.648 223.632 111.984 224.944 113.424L222.736 115.408C221.52 113.904 218.928 111.472 216.944 109.744ZM208.4 101.776C208.24 101.168 207.792 99.792 207.472 98.992C208.048 98.896 208.656 98.384 209.36 97.68C210.096 96.944 212.464 94.192 213.936 91.536L216.688 92.848C214.8 95.6 212.368 98.448 210.032 100.336V100.4C210.032 100.4 208.4 101.232 208.4 101.776ZM208.4 101.776L208.336 99.632L209.776 98.768L218.256 98.384C218.224 99.152 218.224 100.24 218.288 100.848C210.32 101.296 209.104 101.456 208.4 101.776ZM219.568 95.312L222.32 96.208C219.376 102.064 214.384 106.768 208.912 109.68C208.528 109.072 207.632 107.792 207.056 107.216C212.336 104.72 217.04 100.528 219.568 95.312ZM221.68 101.392L224.432 102.448C220.88 108.688 214.928 113.648 208.624 116.72C208.272 116.048 207.312 114.736 206.768 114.128C212.944 111.536 218.544 107.024 221.68 101.392ZM232.016 87.376H235.024V113.008C235.024 114.8 234.608 115.6 233.52 116.08C232.432 116.528 230.672 116.624 227.92 116.592C227.792 115.824 227.344 114.544 226.928 113.712C228.816 113.808 230.704 113.776 231.248 113.744C231.792 113.744 232.016 113.552 232.016 113.008V87.376ZM226.352 90.608H229.2V108.528H226.352V90.608ZM251.856 99.216H272.752V101.776H251.856V99.216ZM251.056 104.656H274.064V107.248H251.056V104.656ZM256.336 96.432H259.12V105.968H256.336V96.432ZM264.848 96.432H267.696V105.936H264.848V96.432ZM247.92 88.464H250.992V97.904C250.992 103.44 250.512 111.504 247.152 116.752C246.544 116.304 245.2 115.504 244.464 115.216C247.664 110.224 247.92 103.024 247.92 97.904V88.464ZM249.776 88.464H272.24V96.432H249.776V93.808H269.2V91.056H249.776V88.464ZM263.056 105.648C264.816 110.064 268.752 113.104 274.448 114.192C273.84 114.8 273.04 115.92 272.656 116.72C266.576 115.184 262.64 111.632 260.528 106.224L263.056 105.648ZM270.352 107.152L272.624 108.72C270.896 110.032 268.624 111.312 266.896 112.176L264.976 110.704C266.64 109.808 269.008 108.272 270.352 107.152ZM253.776 116.784L253.648 114.544L254.832 113.584L263.28 111.792C263.152 112.56 263.056 113.712 263.088 114.32C255.472 116.112 254.416 116.4 253.776 116.784ZM253.776 116.816C253.616 116.112 253.04 114.896 252.624 114.32C253.232 113.968 254.224 113.136 254.224 111.632V105.84L257.04 105.936V113.68C257.04 113.68 253.776 115.728 253.776 116.816ZM290.096 101.2H305.84V103.632H290.096V101.2ZM289.584 106.672H306.448V109.2H289.584V106.672ZM299.76 101.968H302.448V116.112H299.76V101.968ZM293.328 102.096H295.952V108.048C295.952 110.064 295.12 114.256 291.632 116.624C291.216 116.08 290.288 115.248 289.648 114.832C292.656 113.008 293.328 109.744 293.328 108.048V102.096ZM286.224 92.72H294.8V94.768H286.224V92.72ZM301.008 92.72H309.648V94.768H301.008V92.72ZM308.464 88.304H311.44V113.008C311.44 114.672 311.12 115.568 310.064 116.08C309.008 116.592 307.408 116.656 304.944 116.624C304.848 115.824 304.432 114.416 304.016 113.616C305.648 113.68 307.28 113.68 307.792 113.648C308.304 113.648 308.464 113.456 308.464 112.976V88.304ZM286.48 88.304H296.688V99.344H286.48V97.104H293.84V90.544H286.48V88.304ZM309.968 88.304V90.544H302.064V97.168H309.968V99.408H299.184V88.304H309.968ZM284.688 88.304H287.664V116.72H284.688V88.304Z" fill="black"/>
<path d="M32.9577 90.8913L6.91395 59.5424L10.4499 57.8503L36.4576 89.2165L32.9577 90.8913Z" fill="black"/>
<path d="M73.6364 61.8953L83.3641 58.5713L84.8645 62.962L75.1367 66.2861L73.6364 61.8953ZM45.1607 48.2076L59.0521 43.4609L60.5783 47.9273L46.6869 52.6741L45.1607 48.2076ZM63.6241 39.151L77.4019 34.443L87.7103 64.6104L83.1303 66.1754L74.3223 40.3987L69.4773 42.0543L78.3889 68.1337L74.036 69.6212L63.6241 39.151ZM57.9165 43.8489L62.3073 42.3485C62.3073 42.3485 62.8246 43.8626 63.0186 44.4303C68.2138 60.747 69.9406 66.6667 69.3373 68.8596C68.8935 70.4061 68.2539 71.132 67.0824 71.7859C66.0374 72.4389 64.3341 73.0209 62.5671 73.5402C62.0387 72.2412 60.874 70.4411 59.6773 69.4129C61.243 69.0469 62.6057 68.5813 63.3249 68.3355C63.9056 68.1794 64.1816 67.8737 64.379 67.2145C64.7858 65.8073 63.2261 60.2533 58.2658 44.8709L57.9165 43.8489ZM47.5309 40.4231L51.9973 38.8968C57.0555 53.8231 61.1982 66.4415 57.2238 76.2114C56.1295 75.3595 54.0981 74.3628 52.7168 74.0316C56.3452 65.3521 52.2269 54.2895 47.5309 40.4231Z" fill="black"/>
<path d="M96.1357 27.1097L107.184 24.6447L108.247 29.4076L97.1983 31.8726L96.1357 27.1097ZM104.881 25.1586L109.722 24.0786C111.377 31.4962 115.636 45.6278 132.01 50.8681C131.108 51.9708 129.696 54.458 129.138 55.8122C112.269 50.1905 106.658 33.1228 104.881 25.1586ZM105.109 34.083L110.715 33.857C110.569 46.0616 107.249 55.6137 100.187 62.3532C99.1019 61.5297 96.4802 60.0655 95.0783 59.4766C102.314 53.518 105.309 44.8989 105.109 34.083Z" fill="black"/>
<path d="M141.215 41.3649L144.947 41.9999C144.268 44.9721 142.997 48.412 141.829 50.5931C141.048 50.0756 139.423 49.2083 138.492 48.7879C139.637 46.7702 140.652 43.922 141.215 41.3649ZM148.67 23.199L142.786 23.8475C143.526 25.0938 144.232 26.7465 144.553 27.8378L141.778 28.9485L147.504 28.3176C147.942 26.8205 148.434 24.7139 148.67 23.199ZM156.422 38.4014L150.259 39.0805L151.714 52.2806L147.141 52.7844L145.687 39.5844L138.291 40.3993L137.853 36.4234L145.249 35.6084L144.911 32.547L137.277 33.3882L136.848 29.4918L140.705 29.0668C140.374 27.8959 139.709 26.2388 139.096 25.0589L142.269 23.9044L136.901 24.4959L136.476 20.6393L143.275 19.89C142.799 18.856 142.239 17.7909 141.736 16.8805L146.34 15.2061C147.081 16.4524 147.977 18.0037 148.603 19.3029L154.288 18.6764L154.713 22.533L149.743 23.0807L153.034 23.362C152.604 24.9385 152.179 26.5549 151.718 27.8531L155.853 27.3975L156.282 31.2939L149.484 32.0431L149.821 35.1046L155.984 34.4254L156.422 38.4014ZM173.625 25.8012L174.107 30.1747L170.409 30.5822L172.561 50.104L167.949 50.6122L165.797 31.0904L162.1 31.4979L162.152 31.975C162.796 37.8196 163.182 46.067 160.363 51.5286C159.476 50.7813 157.441 49.4764 156.394 49.1088C157.023 47.8725 157.475 46.4947 157.759 45.055L155.128 47.1155C154.317 45.5952 152.685 43.1996 151.37 41.4933L154.287 39.4817C155.536 40.9537 157.001 42.9252 157.843 44.3615C158.536 40.422 158.182 36.1148 157.779 32.457L156.219 18.3026C160.465 17.0299 165.14 15.2672 167.894 13.5955L171.893 16.6559C168.777 18.3272 164.747 19.7371 160.93 20.8821L161.618 27.1244L173.625 25.8012Z" fill="black"/>
<path d="M204.327 30.32H209.167L209.167 43.32C209.167 44.76 209.367 44.96 210.687 44.96C211.287 44.96 213.647 44.96 214.367 44.96C215.687 44.96 215.887 44.08 216.087 38.6C217.087 39.4 219.207 40.24 220.447 40.56C219.967 47.56 218.767 49.48 214.767 49.48C213.887 49.48 210.807 49.48 209.967 49.48C205.447 49.48 204.327 47.96 204.327 43.32L204.327 30.32ZM193.527 30.52L198.647 30.52C198.007 39.28 196.367 46.04 185.567 49.64C185.047 48.4 183.687 46.44 182.647 45.44C192.167 42.6 193.007 37.44 193.527 30.52ZM186.567 15.36L190.887 13.76C192.727 16.76 194.687 20.76 195.367 23.44L190.687 25.32C190.127 22.68 188.327 18.52 186.567 15.36ZM212.447 13.44L217.567 15.2C215.807 18.76 213.727 22.6 212.047 25.08L207.847 23.48C209.487 20.84 211.447 16.64 212.447 13.44ZM183.687 26.72L219.847 26.72V31.24L183.687 31.24V26.72ZM199.127 12.04L204.007 12.04V28.56L199.127 28.56V12.04Z" fill="black"/>
<path d="M252.21 28.2685L266.881 29.8852L266.395 34.2985L251.724 32.6818L252.21 28.2685ZM231.558 16.6564L249.449 18.6281L249.02 22.5245L231.128 20.5529L231.558 16.6564ZM229.416 32.4368L247.666 34.4479L247.223 38.4636L228.974 36.4525L229.416 32.4368ZM229.945 25.4527L249.109 27.5645L248.675 31.5007L229.511 29.3888L229.945 25.4527ZM258.317 30.9133L262.969 31.426L260.542 53.4526L255.89 52.94L258.317 30.9133ZM233.152 21.5405L237.03 21.0423C237.478 22.4598 237.837 24.3103 237.909 25.4853L233.85 26.1647C233.783 24.9501 233.516 22.989 233.152 21.5405ZM242.999 21.6597L247.24 22.9723C246.133 24.9831 245.11 26.963 244.197 28.311L240.433 27.0511C241.279 25.575 242.377 23.2814 242.999 21.6597ZM263.919 16.6008L267.231 20.5071C262.876 21.6772 257.258 22.2653 252.448 22.4596C252.359 21.4437 251.862 19.7391 251.455 18.6881C255.916 18.3749 260.867 17.6328 263.919 16.6008ZM237.514 14.0935L242.452 13.4706C243.059 15.2679 243.764 17.6393 243.959 19.1499L238.801 19.9496C238.645 18.4435 238.073 15.9659 237.514 14.0935ZM251.455 18.6881L255.868 19.1745L254.295 33.4481C253.651 39.2927 252.227 47.4659 248.247 52.1783C247.584 51.2601 245.838 49.5787 244.901 48.9523C248.342 44.744 249.312 38.1304 249.882 32.9617L251.455 18.6881ZM241.615 40.4211L244.909 39.0134C245.94 40.9782 247.034 43.473 247.503 45.0539L244.059 46.7267C243.598 45.0663 242.527 42.3727 241.615 40.4211ZM231.657 38.0359L235.196 39.5125C233.891 42.2259 231.858 45.3419 230.238 47.256C229.628 46.5851 228.196 45.3408 227.338 44.7231C228.931 43.0475 230.55 40.409 231.657 38.0359ZM237.377 28.4851L242.029 28.9977L239.597 51.0641L234.945 50.5515L237.377 28.4851Z" fill="black"/>
<path d="M299.109 43.1471L304.887 44.4362L305.915 39.8295L300.254 38.5665L300.185 38.8789C299.888 40.2062 299.527 41.642 299.109 43.1471ZM307.831 31.2407L302.171 29.9777L301.169 34.4673L306.83 35.7303L307.831 31.2407ZM281.971 39.3234L286.968 40.4383L287.996 35.8316L283.077 34.7341L282.807 35.9443C282.563 37.0374 282.319 38.1306 281.971 39.3234ZM289.912 27.2427L284.993 26.1452L283.991 30.6349L288.91 31.7323L289.912 27.2427ZM313.262 28.026L306.738 57.2671C306.233 59.5314 305.563 60.6936 303.984 61.1608C302.482 61.6455 300.465 61.3184 297.576 60.6738C297.707 59.3507 297.544 57.1422 297.229 55.8013C298.881 56.2929 300.725 56.6633 301.319 56.7549C301.905 56.8855 302.144 56.7339 302.266 56.1873L303.964 48.5745L297.835 47.207C296.187 51.8393 293.87 56.5273 290.444 59.5745C289.79 58.6498 288.177 57.0605 287.189 56.3482C286.894 56.5692 286.568 56.7425 286.173 56.8593C284.806 57.292 283.023 57.0171 280.525 56.4597C280.669 55.2623 280.501 53.2578 280.199 52.0427C281.548 52.4256 283.031 52.7566 283.547 52.8308C284.016 52.9353 284.216 52.775 284.32 52.3065L286.045 44.5765L280.813 43.4094C279.291 48.0287 277.131 52.7516 274.065 55.8382C273.402 54.9525 271.828 53.3719 270.84 52.6596C275.299 48.2857 277.232 40.7251 278.504 35.0252L281.639 20.9708L295.186 23.9932L288.653 53.2733C288.418 54.3274 288.157 55.1298 287.775 55.7413C292.499 51.0986 294.501 43.5945 295.773 37.8946L298.7 24.7771L313.262 28.026Z" fill="black"/>
<path d="M334.884 50.777C335.347 59.8122 340.351 67.313 350.378 72.853C349.033 73.4501 347.073 74.9786 346.003 76.0078C335.715 69.7448 331.16 61.5517 330.509 50.5923L334.884 50.777ZM347.242 52.4638L348.113 52.7613L349.01 52.8566L351.661 55.2419C344.766 65.5247 335.228 68.9443 324.326 68.6852C324.159 67.3178 323.657 65.2016 323.071 63.9449C332.629 64.6745 341.572 61.3896 346.971 53.2587L347.242 52.4638ZM325.068 35.5871L358.112 46.8785L356.612 51.2693L323.568 39.9779L325.068 35.5871ZM332.935 47.5747L347.697 52.619L346.196 57.0097L330.147 51.5257L332.935 47.5747ZM336.458 33.1808L341.19 34.7976C338.856 40.6367 332.028 58.7627 317.738 64.9547C317.206 63.4201 316.156 61.7931 314.914 60.3543C328.753 55.2342 334.653 37.721 336.458 33.1808Z" fill="black"/>
<path d="M366.489 88.9752L392.569 57.6435L396.069 59.3184L370.025 90.6673L366.489 88.9752Z" fill="black"/>
</svg>
