<svg width="226" height="70" viewBox="0 0 226 70" fill="none" xmlns="http://www.w3.org/2000/svg">
<path d="M26.633 62.4667L5.68872 37.4788L8.48276 36.1266L29.427 61.1146L26.633 62.4667Z" fill="black"/>
<path d="M47.1395 29.6104L45.0947 30.3874C45.3419 32.8053 45.5109 35.1779 45.6056 37.2722C46.3889 37.7257 47.2257 38.1318 48.0173 38.6162C48.2915 35.2975 47.7619 32.1932 47.1395 29.6104ZM53.9908 42.3886L52.6528 45.6929C52.0159 45.1672 51.2306 44.5818 50.3443 43.9901C49.7011 46.0494 48.7404 48.1601 47.2747 50.2399C46.5987 49.6915 45.2197 48.867 44.3539 48.601C45.8959 46.4347 46.9101 44.2765 47.4812 42.071C45.7889 41.065 44.0265 40.0446 42.5383 39.1829C42.5363 37.0639 42.3777 34.3574 42.0851 31.521L40.5185 32.1043L39.2798 28.8247C40.0136 28.5959 40.8093 28.3507 41.6977 28.0807C41.4216 25.8029 41.0527 23.5499 40.657 21.569L43.8129 20.86C44.1612 22.7873 44.4744 24.9559 44.7485 27.1017L46.3316 26.5802L45.804 24.6014L48.8341 23.7934L49.3205 25.6177L50.1698 25.325L50.92 28.1388L50.079 28.4623C50.9075 31.8182 51.6638 36.0212 51.103 40.3767C52.2243 41.1044 53.2363 41.795 53.9908 42.3886ZM57.2166 46.1651L54.0277 45.7568C54.4545 43.7553 54.4402 40.8447 54.195 38.5588L57.1942 38.7526C57.394 41.117 57.5506 44.1883 57.2166 46.1651ZM57.6868 38.9856L60.1006 37.9777C60.9498 39.6721 61.7454 41.9107 62.1494 43.4258L59.6057 44.5677C59.2862 42.9969 58.4742 40.6965 57.6868 38.9856ZM60.8613 37.9736L63.038 36.6977C63.9511 38.0108 64.9879 39.7877 65.5032 40.975L63.2501 42.3375C62.7884 41.1027 61.7744 39.2867 60.8613 37.9736ZM68.1397 38.3181L66.3381 39.7589C65.796 38.8437 64.7035 37.479 63.7038 36.5865L65.4457 35.2941C66.4763 36.1784 67.5749 37.4421 68.1397 38.3181ZM56.0669 31.6679L56.578 33.5849L60.5358 32.5297L60.0247 30.6127L56.0669 31.6679ZM57.5679 21.3986L53.6102 22.4538L54.0636 24.1544L58.0214 23.0991L57.5679 21.3986ZM59.2662 27.768L58.7881 25.9747L54.8303 27.0299L55.3085 28.8233L59.2662 27.768ZM63.9988 31.6064L70.0591 29.9905C70.0591 29.9905 70.2982 30.8872 70.3827 31.3283C71.9696 38.5223 72.357 41.4659 71.8169 42.6697C71.4664 43.5911 70.8831 44.0115 70.0194 44.3743C69.2793 44.7041 68.0425 45.0338 66.6738 45.3657C66.3564 44.4236 65.6309 43.193 64.9363 42.4509C66.0514 42.2861 67.0718 42.014 67.5356 41.8903C67.9685 41.7749 68.1684 41.6554 68.3643 41.272C68.6962 40.6536 68.4489 38.7325 67.437 34.0677L54.0796 37.6291L49.43 20.1903L65.8175 15.821L66.6584 18.9748L61.031 20.4752L61.4844 22.1758L66.1842 20.9227L66.9509 23.7983L62.2511 25.0514L62.7292 26.8447L67.46 25.5834L68.2184 28.428L63.4877 29.6893L63.9988 31.6064Z" fill="black"/>
<path d="M85.4675 21.5377L83.3191 21.9496C83.1447 24.3738 82.901 26.7399 82.6324 28.819C83.3255 29.4011 84.0796 29.9457 84.7755 30.5597C85.6192 27.3384 85.6341 24.1892 85.4675 21.5377ZM90.0071 35.3078L88.1182 38.331C87.5817 37.7032 86.9094 36.9908 86.1386 36.2549C85.1492 38.172 83.8382 40.0849 82.0351 41.8801C81.464 41.2231 80.2483 40.1726 79.4415 39.7611C81.3347 37.8938 82.7067 35.9434 83.6504 33.8698C82.1574 32.5864 80.5979 31.2768 79.281 30.1708C79.6453 28.0834 79.9569 25.3902 80.1589 22.5459L78.5151 22.8497L77.8618 19.4054C78.6241 19.3069 79.4502 19.2028 80.372 19.0904C80.4937 16.7992 80.5197 14.5164 80.4724 12.4969L83.7033 12.344C83.7132 14.3025 83.647 16.4926 83.546 18.6535L85.1954 18.4135L85.0178 16.3732L88.1419 16.1012L88.3057 17.982L89.1928 17.8406L89.4454 20.7416L88.5611 20.9149C88.7971 24.3635 88.8156 28.634 87.5104 32.827C88.4891 33.7375 89.3666 34.5926 90.0071 35.3078ZM92.5316 39.5849L89.4613 38.6316C90.2276 36.734 90.7166 33.8648 90.8701 31.5708L93.7907 32.2801C93.5789 34.6434 93.2022 37.6956 92.5316 39.5849ZM94.2357 32.5947L96.7873 32.0192C97.3309 33.8349 97.7276 36.1773 97.8636 37.7394L95.1608 38.4245C95.1177 36.8222 94.7154 34.416 94.2357 32.5947ZM97.5372 32.1466L99.9018 31.2662C100.574 32.7174 101.288 34.6467 101.591 35.9052L99.1359 36.8577C98.8946 35.5618 98.2096 33.5978 97.5372 32.1466ZM104.647 33.744L102.623 34.8517C102.247 33.8565 101.407 32.3236 100.577 31.2717L102.516 30.2998C103.378 31.349 104.242 32.7835 104.647 33.744ZM93.9049 25.1072L94.077 27.0837L98.1576 26.7284L97.9855 24.7519L93.9049 25.1072ZM97.1583 15.2518L93.0777 15.6071L93.2304 17.3605L97.3109 17.0052L97.1583 15.2518ZM97.7301 21.819L97.5691 19.97L93.4885 20.3253L93.6495 22.1743L97.7301 21.819ZM101.728 26.4175L107.976 25.8734C107.976 25.8734 108.057 26.798 108.064 27.247C108.384 34.6071 108.256 37.5733 107.516 38.6656C107.012 39.5125 106.365 39.8259 105.451 40.0339C104.665 40.2308 103.39 40.3418 101.985 40.4321C101.835 39.4494 101.333 38.1119 100.777 37.2609C101.904 37.2912 102.956 37.1996 103.434 37.158C103.88 37.1191 104.098 37.036 104.357 36.6922C104.791 36.1405 104.88 34.2055 104.689 29.436L90.9172 30.6352L89.3516 12.6552L106.248 11.184L106.531 14.4357L100.729 14.9409L100.881 16.6943L105.727 16.2724L105.985 19.2372L101.14 19.6591L101.301 21.5081L106.178 21.0834L106.433 24.0163L101.556 24.441L101.728 26.4175Z" fill="black"/>
<path d="M141.347 21.3465L137.712 21.0301C137.928 23.7149 138.347 26.2889 139.01 28.6273C139.964 26.5261 140.754 24.0895 141.347 21.3465ZM129.524 23.9468L130.562 24.9366C131.163 24.3143 131.742 23.5617 132.295 22.7426L127.832 22.354C127.304 22.8862 126.779 23.3865 126.192 23.8494L128.838 24.0798L129.524 23.9468ZM126.006 16.7665L125.82 18.9025L126.33 18.9469C126.965 18.2955 127.565 17.6732 128.11 16.9497L126.006 16.7665ZM147.149 21.8517L145.268 21.6879C144.187 26.3478 142.765 30.1427 140.792 33.2473C142.03 35.6356 143.752 37.6165 145.974 39.0306C145.047 39.7207 143.737 41.1164 143.071 42.1184C141.017 40.6226 139.382 38.7457 138.16 36.5514C136.191 38.5 133.842 40.0299 130.946 41.1911C130.673 40.268 129.71 38.4174 129.078 37.5594C132.191 36.4814 134.578 34.8904 136.407 32.7048C135.718 30.6534 135.171 28.4536 134.8 26.0764C134.255 26.7999 133.71 27.5234 133.142 28.1484C132.769 27.6341 131.948 26.7276 131.21 25.9887C129.841 27.315 128.12 28.6427 126.452 29.7181L126.383 30.515C128.246 30.5166 130.14 30.521 132.003 30.5226L131.723 33.7424C129.857 33.7727 127.96 33.8002 126.097 33.7986L125.822 36.9547C125.678 38.6124 125.316 39.4482 124.156 39.8611C122.996 40.274 121.494 40.1754 119.486 40.0005C119.445 39.0012 119.08 37.6525 118.682 36.6863C119.923 36.8265 121.294 36.9458 121.708 36.9819C122.125 36.9861 122.261 36.9016 122.289 36.5828L122.528 33.8412C120.309 33.8728 118.188 33.8809 116.418 33.9195L116.33 30.5069C118.129 30.503 120.374 30.5379 122.816 30.5257L122.969 28.7724C123.883 28.2416 124.877 27.5251 125.809 26.7712L122.494 26.4825C121.303 27.2461 120.028 27.8738 118.724 28.4669C118.277 27.6893 117.13 26.1118 116.455 25.3785C118.746 24.518 120.871 23.3539 122.859 21.921L117.185 21.4269L117.468 18.1752L122.313 18.5971L122.499 16.4612L118.865 16.1447L119.143 12.9568L122.777 13.2733L123.029 10.3722L126.536 10.6776L126.284 13.5786L129.121 13.8256L128.943 15.8659C129.854 14.6283 130.678 13.2866 131.376 11.902L134.762 13.2247C133.603 15.4687 132.206 17.4991 130.698 19.3272L132.961 19.5242L132.742 22.0427C134.472 19.1419 135.822 15.437 136.77 11.5686L140.574 12.5102C140.103 14.2358 139.565 15.9877 138.974 17.6066L147.454 18.345L147.149 21.8517Z" fill="black"/>
<path d="M181.501 26.7202L161.805 21.4687L161.302 23.3548L180.998 28.6063L181.501 26.7202ZM165.173 30.9444L174.359 32.7642C173.934 32.1211 173.501 31.5089 173.114 30.975L174.901 30.3586L169.552 28.9324C168.158 29.6869 166.658 30.3466 165.173 30.9444ZM160.307 26.4674L160.966 23.9939L157.534 23.0788L159.109 17.1731L170.982 20.3388C170.908 19.6235 170.811 18.8691 170.642 18.261L174.509 18.166C174.795 19.2029 175.032 20.4252 175.125 21.4435L186.133 24.3783L184.558 30.284L181.28 29.4102L180.621 31.8838L176.972 30.911C178.455 32.9289 180.077 35.4148 180.85 37.1112L177.424 38.2842C177.162 37.6514 176.787 36.8228 176.296 35.9303C162.179 33.3583 160.476 33.0368 159.107 33.2018C159.103 32.4721 159.045 30.7014 158.905 29.7367C159.61 29.8253 160.397 29.6047 161.397 29.2089C161.983 29.0007 163.318 28.4627 164.852 27.6793L160.307 26.4674ZM168.524 43.5945L180.459 46.7767L179.593 50.0232L152.198 42.7191L153.064 39.4725L164.751 42.5887L165.46 39.9296L156.463 37.5306L157.304 34.3768L166.301 36.7758L166.928 34.4259L170.7 35.4316L170.073 37.7815L179.535 40.3042L178.694 43.458L169.233 40.9354L168.524 43.5945Z" fill="black"/>
<path d="M195.367 60.8604L216.312 35.8725L219.106 37.2246L198.19 62.2265L195.367 60.8604Z" fill="black"/>
</svg>
