<svg width="139" height="127" viewBox="0 0 139 127" fill="none" xmlns="http://www.w3.org/2000/svg">
<path d="M101.697 117.402C145.965 103.011 138.556 59.2868 132.132 46.8335C125.71 34.3844 98.9209 -2.97946 57.4194 2.55531C3.66023 9.7248 -4.8328 71.74 6.23426 95.2628C17.3013 118.786 46.3615 135.39 101.697 117.402Z" fill="white" fill-opacity="0.9" stroke="#FED27B" stroke-width="3"/>
<path d="M79.0835 66.4088C77.0418 66.4088 75.0293 66.9615 73.2502 68.0087V46.0473C73.2502 43.733 72.3283 41.5134 70.6873 39.8769C69.0464 38.2404 66.8208 37.321 64.5002 37.321C62.3127 37.321 60.271 38.1645 58.6668 39.5898C57.0627 38.1354 54.9918 37.321 52.8335 37.321V43.1386C53.607 43.1386 54.3489 43.445 54.8959 43.9905C55.4429 44.536 55.7502 45.2759 55.7502 46.0473V75.1352H61.5835V46.0473C61.5835 45.2759 61.8908 44.536 62.4378 43.9905C62.9847 43.445 63.7266 43.1386 64.5002 43.1386C65.2737 43.1386 66.0156 43.445 66.5626 43.9905C67.1095 44.536 67.4168 45.2759 67.4168 46.0473V78.044C67.4168 79.5869 66.8022 81.0666 65.7083 82.1576C64.6143 83.2486 63.1306 83.8615 61.5835 83.8615V89.6791C64.9377 89.6791 68.146 88.2247 70.3335 85.665C71.3358 86.8225 72.5584 87.7702 73.9305 88.4531C75.3026 89.136 76.797 89.5406 78.3271 89.6434C79.8571 89.7462 81.3924 89.5452 82.844 89.052C84.2956 88.5589 85.6346 87.7833 86.7835 86.7703C91.6543 82.6398 92.2085 75.2806 87.9502 70.4229C86.8481 69.1579 85.4857 68.1446 83.9556 67.4519C82.4256 66.7592 80.7638 66.4034 79.0835 66.4088ZM79.0835 83.8615C77.5364 83.8615 76.0527 83.2486 74.9587 82.1576C73.8647 81.0666 73.2502 79.5869 73.2502 78.044C73.2502 76.501 73.8647 75.0213 74.9587 73.9303C76.0527 72.8393 77.5364 72.2264 79.0835 72.2264C80.6306 72.2264 82.1143 72.8393 83.2083 73.9303C84.3022 75.0213 84.9168 76.501 84.9168 78.044C84.9168 79.5869 84.3022 81.0666 83.2083 82.1576C82.1143 83.2486 80.6306 83.8615 79.0835 83.8615Z" fill="#FED27B"/>
</svg>
