<svg width="135" height="123" viewBox="0 0 135 123" fill="none" xmlns="http://www.w3.org/2000/svg">
<path d="M99.6969 115.402C143.965 101.011 136.556 57.2868 130.132 44.8335C123.71 32.3844 96.9209 -4.97946 55.4194 0.555306C1.66023 7.7248 -6.8328 69.74 4.23426 93.2628C15.3013 116.786 44.3615 133.39 99.6969 115.402Z" fill="#FED27B"/>
<path d="M77.0835 64.4088C75.0418 64.4088 73.0293 64.9615 71.2502 66.0087V44.0473C71.2502 41.733 70.3283 39.5134 68.6873 37.8769C67.0464 36.2404 64.8208 35.321 62.5002 35.321C60.3127 35.321 58.271 36.1645 56.6668 37.5898C55.0627 36.1354 52.9918 35.321 50.8335 35.321V41.1386C51.607 41.1386 52.3489 41.445 52.8959 41.9905C53.4429 42.536 53.7502 43.2759 53.7502 44.0473V73.1352H59.5835V44.0473C59.5835 43.2759 59.8908 42.536 60.4378 41.9905C60.9847 41.445 61.7266 41.1386 62.5002 41.1386C63.2737 41.1386 64.0156 41.445 64.5626 41.9905C65.1095 42.536 65.4168 43.2759 65.4168 44.0473V76.044C65.4168 77.5869 64.8022 79.0666 63.7083 80.1576C62.6143 81.2486 61.1306 81.8615 59.5835 81.8615V87.6791C62.9377 87.6791 66.146 86.2247 68.3335 83.665C69.3358 84.8225 70.5584 85.7702 71.9305 86.4531C73.3026 87.136 74.797 87.5406 76.3271 87.6434C77.8571 87.7462 79.3924 87.5452 80.844 87.052C82.2956 86.5589 83.6346 85.7833 84.7835 84.7703C89.6543 80.6398 90.2085 73.2806 85.9502 68.4229C84.8481 67.1579 83.4857 66.1446 81.9556 65.4519C80.4256 64.7592 78.7638 64.4034 77.0835 64.4088ZM77.0835 81.8615C75.5364 81.8615 74.0527 81.2486 72.9587 80.1576C71.8647 79.0666 71.2502 77.5869 71.2502 76.044C71.2502 74.501 71.8647 73.0213 72.9587 71.9303C74.0527 70.8393 75.5364 70.2264 77.0835 70.2264C78.6306 70.2264 80.1143 70.8393 81.2083 71.9303C82.3022 73.0213 82.9168 74.501 82.9168 76.044C82.9168 77.5869 82.3022 79.0666 81.2083 80.1576C80.1143 81.2486 78.6306 81.8615 77.0835 81.8615Z" fill="white"/>
</svg>
