<svg width="130" height="128" viewBox="0 0 130 128" fill="none" xmlns="http://www.w3.org/2000/svg">
<path d="M86.1622 123.435C51.3188 137.684 32.5644 114.733 24.6738 106.896C0.336699 82.7239 -0.946448 61.0965 0.334562 49.6465C1.61557 38.1966 16.9877 -1.24213 68.2281 0.030085C119.468 1.3023 128.798 37.9675 129.717 47.1018C130.998 59.824 129.717 105.624 86.1622 123.435Z" fill="#ADEBFF"/>
<path d="M66.9478 44.5574C52.8567 44.5574 41.3276 53.6665 41.3276 64.9129C41.3276 70.3071 45.555 74.7598 50.9608 75.0906H51.5757C54.2937 75.0906 56.9003 74.0183 58.8222 72.1096C60.7441 70.2009 61.8238 67.6122 61.8238 64.9129C61.8238 62.2136 60.7441 59.6248 58.8222 57.7161C56.9003 55.8074 54.2937 54.7351 51.5757 54.7351C51.3553 54.7351 51.2504 54.4671 51.4152 54.3208C55.6739 50.543 61.2238 48.5033 66.9478 48.6285C71.3507 48.5791 75.6569 49.7529 79.4211 51.987C79.6197 52.1049 79.8734 52.076 80.0372 51.9133L82.5118 49.4557C82.7408 49.2283 82.6976 48.8465 82.4199 48.6821C77.7491 45.9155 72.394 44.4856 66.9478 44.5574ZM51.5757 59.824C52.9347 59.824 54.238 60.3601 55.199 61.3145C56.1599 62.2688 56.6998 63.5632 56.6998 64.9129C56.6998 67.7372 54.3427 70.0017 51.5757 70.0017C50.301 70.0081 49.0697 69.5423 48.1222 68.6954C47.1748 67.8486 46.5791 66.6814 46.4517 65.4217V64.404C46.5791 63.1444 47.1748 61.9771 48.1222 61.1303C49.0697 60.2834 50.301 59.8176 51.5757 59.824ZM82.9348 54.7351H82.32C79.602 54.7351 76.9954 55.8074 75.0735 57.7161C73.1516 59.6248 72.0719 62.2136 72.0719 64.9129C72.0719 67.6122 73.1516 70.2009 75.0735 72.1096C76.9954 74.0183 79.602 75.0906 82.32 75.0906C82.5403 75.0906 82.6453 75.3587 82.4804 75.5049C78.2218 79.2827 72.6719 81.3224 66.9478 81.1972C62.545 81.2466 58.2387 80.0728 54.4746 77.8387C54.276 77.7208 54.0223 77.7497 53.8584 77.9124L51.4096 80.3445C51.1805 80.5719 51.2239 80.9537 51.5017 81.1181C56.1661 83.8773 61.4976 85.2683 66.9478 85.2683C81.0389 85.2683 92.568 76.1593 92.568 64.9129C92.568 59.5187 88.3407 55.0659 82.9348 54.7351ZM82.32 70.0017C80.961 70.0017 79.6577 69.4656 78.6967 68.5112C77.7358 67.5569 77.1959 66.2625 77.1959 64.9129C77.1959 62.0885 79.553 59.824 82.32 59.824C83.5946 59.8176 84.826 60.2834 85.7734 61.1303C86.7209 61.9771 87.3165 63.1444 87.444 64.404V65.4217C87.3165 66.6814 86.7209 67.8486 85.7734 68.6954C84.826 69.5423 83.5946 70.0081 82.32 70.0017Z" fill="white"/>
</svg>
