<svg width="128" height="128" viewBox="0 0 128 128" fill="none" xmlns="http://www.w3.org/2000/svg">
<path d="M10.7897 31.1184C-11.1 58.4091 5.31729 87.0644 16.2622 97.9807C36.7836 121.178 57.3056 128 68.2505 128C79.1953 128 109.294 123.906 121.607 91.1575C133.92 58.4086 128.447 25.6602 105.189 9.28578C81.9316 -7.08867 38.1519 -2.99506 10.7897 31.1184Z" fill="#FED27B"/>
<path d="M84.7162 83.4727C84.4039 83.3207 84.3505 82.9014 84.5865 82.6466C87.8429 79.1308 87.8429 73.0963 87.8429 70.2745C87.8429 67.6119 86.7852 65.0584 84.9025 63.1757C83.0198 61.293 80.4663 60.2353 77.8037 60.2353C76.3411 60.2353 74.8785 60.5832 73.5607 61.2211C73.2109 61.3904 72.7841 61.1463 72.7841 60.7577V50.1961C72.7841 48.1992 71.9908 46.284 70.5788 44.872C69.1668 43.46 67.2516 42.6667 65.2547 42.6667C63.5243 42.6667 61.9 43.2818 60.5766 44.3364C60.3777 44.495 60.0929 44.4945 59.8937 44.3362C58.5668 43.2823 56.9187 42.7044 55.2155 42.7044C53.5138 42.7044 51.8671 43.2813 50.5408 44.3334C50.34 44.4927 50.0527 44.4917 49.8532 44.3307C48.6567 43.3652 47.2023 42.7876 45.6759 42.6837C45.4004 42.6649 45.1763 42.8905 45.1763 43.1667V47.1863C45.1763 47.4624 45.4023 47.6813 45.673 47.7359C46.1536 47.833 46.5991 48.0696 46.951 48.4214C47.4216 48.8921 47.6861 49.5305 47.6861 50.1961V74.7941C47.6861 75.0703 47.9099 75.2941 48.1861 75.2941H52.2057C52.4818 75.2941 52.7057 75.0703 52.7057 74.7941V50.1961C52.7057 49.5305 52.9701 48.8921 53.4408 48.4214C53.9115 47.9507 54.5498 47.6863 55.2155 47.6863C55.8811 47.6863 56.5195 47.9507 56.9902 48.4214C57.4609 48.8921 57.7253 49.5305 57.7253 50.1961V74.7941C57.7253 75.0703 57.9491 75.2941 58.2253 75.2941H62.2449C62.521 75.2941 62.7449 75.0703 62.7449 74.7941V50.1961C62.7449 49.5305 63.0093 48.8921 63.48 48.4214C63.9507 47.9507 64.5891 47.6863 65.2547 47.6863C65.9203 47.6863 66.5587 47.9507 67.0294 48.4214C67.5001 48.8921 67.7645 49.5305 67.7645 50.1961V70.2745C67.7645 73.0963 67.7645 79.1308 71.0209 82.6466C71.257 82.9014 71.2035 83.3207 70.8912 83.4727C69.2395 84.2769 67.4877 84.8852 65.6645 85.2546C65.4277 85.3025 65.2547 85.509 65.2547 85.7506V89.8529C65.2547 90.1291 65.4767 90.354 65.7519 90.3308C69.0195 90.055 74.7162 87.2723 77.5722 85.7809C77.7181 85.7047 77.8893 85.7047 78.0352 85.7809C80.8912 87.2723 86.588 90.055 89.8555 90.3308C90.1307 90.354 90.3527 90.1291 90.3527 89.8529V85.7506C90.3527 85.509 90.1798 85.3025 89.9429 85.2546C88.1198 84.8852 86.3679 84.2769 84.7162 83.4727ZM77.8037 65.2549C79.135 65.2549 80.4118 65.7838 81.3531 66.7251C82.2945 67.6665 82.8233 68.9432 82.8233 70.2745C82.8233 77.6031 81.468 80.3137 77.8037 80.3137C74.1394 80.3137 72.7841 77.6031 72.7841 70.2745C72.7841 68.9432 73.313 67.6665 74.2543 66.7251C75.1957 65.7838 76.4724 65.2549 77.8037 65.2549Z" fill="white"/>
</svg>
