<svg width="134" height="132" viewBox="0 0 134 132" fill="none" xmlns="http://www.w3.org/2000/svg">
<path d="M88.1622 125.435C53.3188 139.684 34.5644 116.733 26.6738 108.896C2.3367 84.7239 1.05355 63.0965 2.33456 51.6465C3.61557 40.1966 18.9877 0.757868 70.2281 2.03008C121.468 3.3023 130.798 39.9675 131.717 49.1018C132.998 61.824 131.717 107.624 88.1622 125.435Z" fill="white" fill-opacity="0.9" stroke="#ADEBFF" stroke-width="3"/>
<path d="M68.9478 46.5574C54.8567 46.5574 43.3276 55.6665 43.3276 66.9129C43.3276 72.3071 47.555 76.7598 52.9608 77.0906H53.5757C56.2937 77.0906 58.9003 76.0183 60.8222 74.1096C62.7441 72.2009 63.8238 69.6122 63.8238 66.9129C63.8238 64.2136 62.7441 61.6248 60.8222 59.7161C58.9003 57.8074 56.2937 56.7351 53.5757 56.7351C53.3553 56.7351 53.2504 56.4671 53.4152 56.3208C57.6739 52.543 63.2238 50.5033 68.9478 50.6285C73.3507 50.5791 77.6569 51.7529 81.4211 53.987C81.6197 54.1049 81.8734 54.076 82.0372 53.9133L84.5118 51.4557C84.7408 51.2283 84.6976 50.8465 84.4199 50.6821C79.7491 47.9155 74.394 46.4856 68.9478 46.5574ZM53.5757 61.824C54.9347 61.824 56.238 62.3601 57.199 63.3145C58.1599 64.2688 58.6998 65.5632 58.6998 66.9129C58.6998 69.7372 56.3427 72.0017 53.5757 72.0017C52.301 72.0081 51.0697 71.5423 50.1222 70.6954C49.1748 69.8486 48.5791 68.6814 48.4517 67.4217V66.404C48.5791 65.1444 49.1748 63.9771 50.1222 63.1303C51.0697 62.2834 52.301 61.8176 53.5757 61.824ZM84.9348 56.7351H84.32C81.602 56.7351 78.9954 57.8074 77.0735 59.7161C75.1516 61.6248 74.0719 64.2136 74.0719 66.9129C74.0719 69.6122 75.1516 72.2009 77.0735 74.1096C78.9954 76.0183 81.602 77.0906 84.32 77.0906C84.5403 77.0906 84.6453 77.3587 84.4804 77.5049C80.2218 81.2827 74.6719 83.3224 68.9478 83.1972C64.545 83.2466 60.2387 82.0728 56.4746 79.8387C56.276 79.7208 56.0223 79.7497 55.8584 79.9124L53.4096 82.3445C53.1805 82.5719 53.2239 82.9537 53.5017 83.1181C58.1661 85.8773 63.4976 87.2683 68.9478 87.2683C83.0389 87.2683 94.568 78.1593 94.568 66.9129C94.568 61.5187 90.3407 57.0659 84.9348 56.7351ZM84.32 72.0017C82.961 72.0017 81.6577 71.4656 80.6967 70.5112C79.7358 69.5569 79.1959 68.2625 79.1959 66.9129C79.1959 64.0885 81.553 61.824 84.32 61.824C85.5946 61.8176 86.826 62.2834 87.7734 63.1303C88.7209 63.9771 89.3165 65.1444 89.444 66.404V67.4217C89.3165 68.6814 88.7209 69.8486 87.7734 70.6954C86.826 71.5423 85.5946 72.0081 84.32 72.0017Z" fill="#ADEBFF"/>
</svg>
