<svg width="133" height="123" viewBox="0 0 133 123" fill="none" xmlns="http://www.w3.org/2000/svg">
<path d="M52.8198 0.0274035C-4.45715 1.0705 -3.7812 53.4838 3.35335 78.2597C9.35995 99.1185 29.5207 126.688 67.1393 122.591C127.012 116.07 136.125 66.5216 132.219 49.5714C131.018 44.3584 124.416 -1.27647 52.8198 0.0274035Z" fill="#FED27B"/>
<path d="M77.1868 53.931C76.8713 53.7222 76.871 53.2483 77.1865 53.0395C79.5739 51.4586 81.5593 49.3341 82.9773 46.835C84.4509 44.2379 85.264 41.3204 85.3487 38.3395C85.3566 38.0632 85.1319 37.839 84.8556 37.839H80.6491C80.3729 37.839 80.1501 38.063 80.1395 38.339C80.0141 41.6154 78.6597 44.7316 76.3363 47.0588C73.8951 49.504 70.584 50.8777 67.1316 50.8777C63.6791 50.8777 60.3681 49.504 57.9268 47.0588C55.6035 44.7316 54.249 41.6154 54.1236 38.339C54.1131 38.063 53.8902 37.839 53.6141 37.839H49.4071C49.1309 37.839 48.9064 38.0631 48.9139 38.3391C49.0771 44.2841 52.1419 49.7732 57.0805 53.0419C57.395 53.2501 57.3956 53.7224 57.0816 53.9314C48.9907 59.316 46.4475 70.1014 51.5106 78.5198C56.6395 87.1775 67.8345 89.9938 76.4781 84.7783C85.1217 79.6672 87.9596 68.4539 82.7526 59.7962C81.3644 57.4398 79.4597 55.4351 77.1868 53.931ZM67.1316 82.1706C63.6791 82.1706 60.3681 80.7969 57.9268 78.3517C55.4856 75.9064 54.1141 72.59 54.1141 69.1319C54.1141 65.6738 55.4856 62.3574 57.9268 59.9121C60.3681 57.4669 63.6791 56.0932 67.1316 56.0932C70.584 56.0932 73.8951 57.4669 76.3363 59.9121C78.7776 62.3574 80.1491 65.6738 80.1491 69.1319C80.1491 72.59 78.7776 75.9064 76.3363 78.3517C73.8951 80.7969 70.584 82.1706 67.1316 82.1706Z" fill="white"/>
</svg>
