<svg width="129" height="129" viewBox="0 0 129 129" fill="none" xmlns="http://www.w3.org/2000/svg">
<path d="M10.874 31.3615C-11.1867 58.8654 5.35883 87.7446 16.3892 98.7462C37.071 122.125 57.7533 129 68.7837 129C79.814 129 110.148 124.874 122.557 91.8697C134.966 58.8649 129.451 25.8607 106.011 9.35832C82.5716 -7.14405 38.45 -3.01846 10.874 31.3615Z" fill="#CAD6FF"/>
<path d="M90.3442 73.9921C90.6203 73.9921 90.8442 74.2159 90.8442 74.4921V78.9929C90.8442 79.269 90.6203 79.4929 90.3442 79.4929H72.041C71.7649 79.4929 71.541 79.269 71.541 78.9929V74.1614C71.541 73.92 71.7149 73.7136 71.9512 73.6639C79.9916 71.9702 85.1935 64.2285 83.702 56.1145C82.1853 47.8633 74.2986 42.4725 66.0258 43.9853C57.753 45.5255 52.3482 53.3641 53.8648 61.6153C54.9703 67.6394 59.6351 72.4013 65.6163 73.664C65.8526 73.7138 66.0258 73.92 66.0258 74.1615V78.9929C66.0258 79.269 65.802 79.4929 65.5258 79.4929H47.2227C46.9465 79.4929 46.7227 79.269 46.7227 78.9929V74.4921C46.7227 74.2159 46.9465 73.9921 47.2227 73.9921H53.483C53.9398 73.9921 54.1654 73.4211 53.8477 73.0928C52.1705 71.3599 50.8113 69.3423 49.8361 67.1316C48.6869 64.5266 48.096 61.7109 48.1015 58.8649C48.1015 53.394 50.2804 48.1472 54.1591 44.2787C58.0377 40.4102 63.2982 38.2369 68.7834 38.2369C74.2686 38.2369 79.5291 40.4102 83.4078 44.2787C87.2864 48.1472 89.4654 53.394 89.4654 58.8649C89.4654 64.1816 87.413 69.2865 83.7229 73.0916C83.4046 73.4199 83.6299 73.9921 84.0872 73.9921H90.3442ZM90.8442 82.7433C90.8442 82.4671 90.6203 82.2433 90.3442 82.2433H47.2227C46.9465 82.2433 46.7227 82.4671 46.7227 82.7433V87.2441C46.7227 87.5202 46.9465 87.7441 47.2227 87.7441H90.3442C90.6203 87.7441 90.8442 87.5202 90.8442 87.2441V82.7433Z" fill="white"/>
</svg>
