<svg width="133" height="133" viewBox="0 0 133 133" fill="none" xmlns="http://www.w3.org/2000/svg">
<path d="M12.874 33.3615C-9.18673 60.8654 7.35883 89.7446 18.3892 100.746C39.071 124.125 59.7533 131 70.7837 131C81.814 131 112.148 126.874 124.557 93.8697C136.966 60.8649 131.451 27.8607 108.011 11.3583C84.5716 -5.14405 40.45 -1.01846 12.874 33.3615Z" fill="white" fill-opacity="0.9" stroke="#CAD6FF" stroke-width="3"/>
<path d="M92.3442 75.9921C92.6203 75.9921 92.8442 76.2159 92.8442 76.4921V80.9929C92.8442 81.269 92.6203 81.4929 92.3442 81.4929H74.041C73.7649 81.4929 73.541 81.269 73.541 80.9929V76.1614C73.541 75.92 73.7149 75.7136 73.9512 75.6639C81.9916 73.9702 87.1935 66.2285 85.702 58.1145C84.1853 49.8633 76.2986 44.4725 68.0258 45.9853C59.753 47.5255 54.3482 55.3641 55.8648 63.6153C56.9703 69.6394 61.6351 74.4013 67.6163 75.664C67.8526 75.7138 68.0258 75.92 68.0258 76.1615V80.9929C68.0258 81.269 67.802 81.4929 67.5258 81.4929H49.2227C48.9465 81.4929 48.7227 81.269 48.7227 80.9929V76.4921C48.7227 76.2159 48.9465 75.9921 49.2227 75.9921H55.483C55.9398 75.9921 56.1654 75.4211 55.8477 75.0928C54.1705 73.3599 52.8113 71.3423 51.8361 69.1316C50.6869 66.5266 50.096 63.7109 50.1015 60.8649C50.1015 55.394 52.2804 50.1472 56.1591 46.2787C60.0377 42.4102 65.2982 40.2369 70.7834 40.2369C76.2686 40.2369 81.5291 42.4102 85.4078 46.2787C89.2864 50.1472 91.4654 55.394 91.4654 60.8649C91.4654 66.1816 89.413 71.2865 85.7229 75.0916C85.4046 75.4199 85.6299 75.9921 86.0872 75.9921H92.3442ZM92.8442 84.7433C92.8442 84.4671 92.6203 84.2433 92.3442 84.2433H49.2227C48.9465 84.2433 48.7227 84.4671 48.7227 84.7433V89.2441C48.7227 89.5202 48.9465 89.7441 49.2227 89.7441H92.3442C92.6203 89.7441 92.8442 89.5202 92.8442 89.2441V84.7433Z" fill="#CAD6FF"/>
</svg>
