<svg width="139" height="127" viewBox="0 0 139 127" fill="none" xmlns="http://www.w3.org/2000/svg">
<path d="M101.697 117.402C145.965 103.011 138.556 59.2868 132.132 46.8335C125.71 34.3844 98.9209 -2.97946 57.4194 2.55531C3.66023 9.7248 -4.8328 71.74 6.23426 95.2628C17.3013 118.786 46.3615 135.39 101.697 117.402Z" fill="white" fill-opacity="0.9" stroke="#CAD6FF" stroke-width="3"/>
<path d="M85.0031 47.5008C85.0031 47.2704 85.1606 47.07 85.3841 47.0141C88.825 46.1537 92.1724 45.0567 95.4481 43.7013C95.7012 43.5966 95.8209 43.3067 95.7173 43.0532L93.9926 38.8313C93.8874 38.5737 93.5921 38.4518 93.3349 38.5578C85.4298 41.8149 76.9636 43.4985 68.4109 43.5125C59.8566 43.5265 51.3835 41.8699 43.4666 38.6375C43.2107 38.533 42.9176 38.6537 42.8116 38.909L41.0915 43.0516C40.9861 43.3056 41.1055 43.5973 41.3596 43.7024C44.6344 45.0573 47.981 46.154 51.4209 47.0141C51.6444 47.07 51.8019 47.2704 51.8019 47.5008V83.7988C51.8019 84.0292 51.6444 84.2296 51.4209 84.2855C47.98 85.1459 44.6326 86.243 41.357 87.5983C41.1039 87.7031 40.9842 87.9929 41.0878 88.2465L42.8134 92.4707C42.9183 92.7274 43.212 92.8495 43.4689 92.7451C51.3864 89.5273 59.8532 87.8719 68.4025 87.8719C76.9519 87.8719 85.4187 89.5273 93.3362 92.7451C93.5931 92.8495 93.8868 92.7274 93.9916 92.4707L95.7173 88.2465C95.8209 87.9929 95.7012 87.7031 95.4481 87.5983C92.1724 86.243 88.825 85.1459 85.3841 84.2855C85.1606 84.2296 85.0031 84.0292 85.0031 83.7988V47.5008ZM57.3355 83.0844V48.7691C57.3355 48.4631 57.6078 48.229 57.9107 48.2727C61.3766 48.7722 64.8896 49.0455 68.4025 49.0455C71.9155 49.0455 75.4285 48.7722 78.8944 48.2727C79.1972 48.229 79.4696 48.4631 79.4696 48.7691V82.5287C79.4696 82.8354 79.1962 83.0696 78.8928 83.0252C71.7532 81.9795 64.4963 82.0071 57.3628 83.1078C57.3484 83.11 57.3355 83.0989 57.3355 83.0844Z" fill="#CAD6FF" fill-opacity="0.9"/>
</svg>
