<svg width="144" height="132" viewBox="0 0 144 132" fill="none" xmlns="http://www.w3.org/2000/svg">
<path d="M38.6108 9.90702C-7.29701 24.8824 0.386159 70.3844 7.04848 83.344C13.7085 96.2991 41.4896 135.182 84.5282 129.422C140.278 121.961 149.086 57.425 137.609 32.946C126.132 8.46698 95.9956 -8.81221 38.6108 9.90702Z" fill="white" fill-opacity="0.9" stroke="#CAD6FF" stroke-width="3"/>
<path d="M82.0039 65.4499C81.8085 65.6461 81.4909 65.6461 81.2955 65.4499L73.3962 57.5213C73.2008 57.3252 72.8832 57.3252 72.6877 57.5213L64.7884 65.4499C64.593 65.6461 64.2754 65.6461 64.08 65.4499L56.1815 57.5221C55.9858 57.3257 55.6676 57.326 55.4723 57.5229L49.6102 63.4325C49.4149 63.6293 49.0967 63.6297 48.901 63.4333L45.5337 60.0535C45.3391 59.8582 45.3393 59.5423 45.5342 59.3472L55.4723 49.3991C55.6678 49.2034 55.985 49.2036 56.1802 49.3996L64.08 57.3287C64.2754 57.5248 64.593 57.5248 64.7884 57.3287L72.6877 49.4001C72.8832 49.2039 73.2008 49.2039 73.3962 49.4001L81.2955 57.3287C81.4909 57.5248 81.8085 57.5248 82.0039 57.3287L89.9037 49.3996C90.0989 49.2036 90.4161 49.2034 90.6116 49.3991L100.55 59.3472C100.745 59.5423 100.745 59.8582 100.55 60.0535L97.1829 63.4333C96.9872 63.6297 96.669 63.6293 96.4737 63.4325L90.6116 57.5229C90.4163 57.326 90.0981 57.3257 89.9024 57.5221L82.0039 65.4499ZM89.9024 74.8014C90.0981 74.605 90.4163 74.6053 90.6116 74.8022L96.4737 80.7118C96.669 80.9086 96.9872 80.909 97.1829 80.7125L100.55 77.3328C100.745 77.1375 100.745 76.8215 100.55 76.6265L90.6116 66.6784C90.4161 66.4827 90.0989 66.4829 89.9037 66.6789L82.0039 74.608C81.8085 74.8041 81.4909 74.8041 81.2955 74.608L73.3962 66.6794C73.2008 66.4832 72.8832 66.4832 72.6877 66.6794L64.7884 74.608C64.593 74.8041 64.2754 74.8041 64.08 74.608L56.1802 66.6789C55.985 66.4829 55.6678 66.4827 55.4723 66.6784L45.5342 76.6265C45.3393 76.8215 45.3391 77.1375 45.5337 77.3328L48.901 80.7125C49.0967 80.909 49.4149 80.9086 49.6102 80.7118L55.4723 74.8022C55.6676 74.6053 55.9858 74.605 56.1815 74.8014L64.08 82.7292C64.2754 82.9254 64.593 82.9254 64.7884 82.7292L72.6877 74.8006C72.8832 74.6045 73.2008 74.6045 73.3962 74.8006L81.2955 82.7292C81.4909 82.9254 81.8085 82.9254 82.0039 82.7292L89.9024 74.8014Z" fill="#CAD6FF"/>
</svg>
