<svg width="131" height="131" viewBox="0 0 131 131" fill="none" xmlns="http://www.w3.org/2000/svg">
<path d="M54.7055 131C23.8195 131 8.74415 103.34 5.06724 89.5106C-4.58465 57.7021 -0.448122 28.6596 17.4768 13.4468C35.4017 -1.76597 64.2654 -8.18505 107.101 17.5957C143.307 39.386 129.163 76.1418 118.132 93.6596C109.859 106.106 85.5916 131 54.7055 131Z" fill="#FFA79D"/>
<path d="M86.9196 79.8297C86.6435 79.8297 86.4212 80.0538 86.4046 80.3295C86.2833 82.3479 85.4302 84.2592 83.9965 85.6972C82.445 87.2533 80.3408 88.1276 78.1466 88.1276C75.9876 88.0186 73.9459 87.1093 72.4173 85.5762C70.8975 84.0518 69.9927 82.0187 69.8755 79.867C69.8742 79.8422 69.8748 79.8173 69.8772 79.7926C70.32 75.3521 71.2562 70.9668 72.6312 66.7191C74.1204 61.9893 75.0304 57.1212 75.3889 52.1701C75.2941 48.5322 73.8109 45.0696 71.2454 42.4963C68.6798 39.923 65.2275 38.4355 61.6005 38.3403C57.9735 38.4355 54.5212 39.923 51.9556 42.4963C49.3901 45.0696 47.9069 48.5322 47.8121 52.1701C48.2258 56.402 49.1909 60.551 50.5698 64.6169L50.8776 65.6461C50.9928 66.0311 50.6269 66.3931 50.2351 66.304C44.6968 65.0449 39.0565 68.2394 37.3053 73.7446C35.4025 79.5808 38.6566 85.8042 44.4753 87.6573C50.294 89.5105 56.4712 86.2744 58.3189 80.4382C58.6774 79.3595 58.8428 78.1978 58.8428 77.0637C58.4016 72.2786 57.464 67.5488 55.837 63.0127C54.62 59.5126 53.7804 55.8919 53.3326 52.2125C53.3292 52.1843 53.3281 52.1558 53.3297 52.1274C53.4481 49.9777 54.3527 47.9467 55.8712 46.4236C57.3998 44.8905 59.4415 43.9812 61.6005 43.8722C66.0555 44.0929 69.6329 47.6692 69.8716 52.1326C69.873 52.1575 69.8723 52.1826 69.8698 52.2074C69.4202 56.6513 68.4969 61.0341 67.1159 65.2808C65.6267 70.0105 64.7167 74.8786 64.3582 79.8297C64.453 83.4676 65.9362 86.9302 68.5017 89.5035C71.0673 92.0768 74.5196 93.5644 78.1466 93.6595C81.8035 93.6595 85.3107 92.2024 87.8965 89.6088C90.3646 87.1333 91.8004 83.816 91.926 80.3297C91.936 80.0537 91.7112 79.8297 91.435 79.8297H86.9196ZM47.8121 82.5956C46.3493 82.5956 44.9465 82.0128 43.9122 80.9754C42.8778 79.938 42.2967 78.5309 42.2967 77.0637C42.2967 75.5966 42.8778 74.1895 43.9122 73.1521C44.9465 72.1146 46.3493 71.5318 47.8121 71.5318C49.2749 71.5318 50.6777 72.1146 51.7121 73.1521C52.7464 74.1895 53.3275 75.5966 53.3275 77.0637C53.3275 78.5309 52.7464 79.938 51.7121 80.9754C50.6777 82.0128 49.2749 82.5956 47.8121 82.5956Z" fill="white"/>
</svg>
