<svg width="127" height="130" viewBox="0 0 127 130" fill="none" xmlns="http://www.w3.org/2000/svg">
<path d="M116.295 98.3954C138.013 70.6782 121.724 41.5752 110.865 30.4883C90.5037 6.92822 70.1421 1.01707e-05 59.2828 9.19891e-06C48.4234 8.22713e-06 18.5601 4.15758 6.34335 37.4182C-5.87344 70.6788 -0.443754 103.939 22.6324 120.569C45.7085 137.199 89.1462 133.042 116.295 98.3954Z" fill="#FFA79D"/>
<path d="M72.9577 41.4893C70.1205 41.4893 67.3103 42.2361 64.8513 43.7297C64.0161 44.1809 63.2207 44.7749 62.4994 45.424C62.3007 45.6028 61.9977 45.6028 61.799 45.424C61.0777 44.7749 60.2823 44.1809 59.4471 43.7297C56.9881 42.2361 54.1779 41.4893 51.3407 41.4893C47.0408 41.4893 42.917 43.2377 39.8765 46.35C36.8361 49.4623 35.1279 53.6835 35.1279 58.085C35.1279 62.4865 36.8361 66.7077 39.8765 69.82C42.799 72.8114 46.7222 74.5429 50.8407 74.6729C51.1167 74.6816 51.3407 74.4569 51.3407 74.1807V69.6488C51.3407 69.3727 51.1167 69.1501 50.8408 69.137C48.1561 69.0099 45.6068 67.8623 43.6979 65.9083C41.6709 63.8334 40.5322 61.0193 40.5322 58.085C40.5322 55.1507 41.6709 52.3366 43.6979 50.2617C45.7249 48.1868 48.4741 47.0212 51.3407 47.0212C52.8745 47.0283 54.3896 47.367 55.7866 48.0153C57.1278 48.6377 58.3311 49.5318 59.3242 50.6431C59.4042 50.7326 59.4471 50.8489 59.4471 50.9689V96.3084C59.4471 96.5845 59.6709 96.8084 59.9471 96.8084H64.3513C64.6275 96.8084 64.8513 96.5845 64.8513 96.3084V50.9697C64.8513 50.8492 64.8946 50.7326 64.974 50.642C65.1501 50.4409 65.3296 50.2432 65.5269 50.0637C66.5571 49.0618 67.7702 48.2777 69.0968 47.7562C70.4234 47.2347 71.8374 46.9861 73.2579 47.0247C74.6785 47.0632 76.0776 47.3881 77.3754 47.9808C78.6731 48.5735 79.844 49.4223 80.8209 50.4786C82.7914 52.6061 83.8557 55.4477 83.7796 58.3784C83.7036 61.309 82.4936 64.0888 80.4156 66.1063C78.4854 67.9521 76.0538 69.016 73.4576 69.1372C73.1817 69.1501 72.9577 69.3727 72.9577 69.6488V74.1807C72.9577 74.4569 73.1817 74.6816 73.4577 74.6729C77.5762 74.5429 81.4994 72.8114 84.4219 69.82C87.4623 66.7077 89.1705 62.4865 89.1705 58.085C89.1705 53.6835 87.4623 49.4623 84.4219 46.35C81.3814 43.2377 77.2576 41.4893 72.9577 41.4893Z" fill="white"/>
</svg>
