<svg width="130" height="135" viewBox="0 0 130 135" fill="none" xmlns="http://www.w3.org/2000/svg">
<path d="M54.1185 135C26.7721 135 10.4402 110.388 5.6926 98.0818C-7.12603 59.7433 2.84402 21.4055 24.2084 8.62608C45.5728 -4.1533 76.9072 -2.73337 98.2716 12.8859C119.636 28.5051 132.455 51.224 129.606 75.3629C126.757 99.5017 88.3016 135 54.1185 135Z" fill="#ADEBFF"/>
<path d="M80.7064 77.9595C80.5113 77.7645 80.1952 77.7643 79.9999 77.959L76.6649 81.2838C76.4684 81.4797 76.469 81.7982 76.6663 81.9933L79.1468 84.4472C79.4644 84.7614 79.2419 85.3027 78.7952 85.3027H75.4823C73.9713 85.3027 72.5222 84.7043 71.4538 83.6391C70.3854 82.574 69.7851 81.1293 69.7851 79.6229V51.2243C69.7851 48.9648 68.8848 46.7978 67.2821 45.2C65.6795 43.6023 63.5058 42.7047 61.2394 42.7047C59.2546 42.7047 57.3927 43.4155 55.8822 44.6321C55.6845 44.7914 55.4003 44.7909 55.2024 44.6319C53.6884 43.4152 51.7986 42.7474 49.845 42.7474C47.893 42.7474 46.0046 43.4142 44.4911 44.629C44.2917 44.7891 44.005 44.7881 43.8068 44.6264C42.4223 43.4963 40.7278 42.8259 38.9504 42.7196C38.6748 42.7032 38.4507 42.9286 38.4507 43.2047V47.8844C38.4507 48.1606 38.6762 48.38 38.9482 48.4281C39.5189 48.529 40.0495 48.802 40.4649 49.2162C40.9992 49.7488 41.2993 50.4711 41.2993 51.2243V79.1229C41.2993 79.3991 41.5231 79.6229 41.7993 79.6229H46.4964C46.7726 79.6229 46.9964 79.3991 46.9964 79.1229V51.2243C46.9964 50.4711 47.2966 49.7488 47.8308 49.2162C48.365 48.6836 49.0895 48.3844 49.845 48.3844C50.6005 48.3844 51.3251 48.6836 51.8593 49.2162C52.3935 49.7488 52.6936 50.4711 52.6936 51.2243V79.1229C52.6936 79.3991 52.9175 79.6229 53.1936 79.6229H57.8908C58.1669 79.6229 58.3908 79.3991 58.3908 79.1229V51.2243C58.3908 50.4711 58.6909 49.7488 59.2251 49.2162C59.7593 48.6836 60.4839 48.3844 61.2394 48.3844C61.9949 48.3844 62.7194 48.6836 63.2536 49.2162C63.7878 49.7488 64.0879 50.4711 64.0879 51.2243V79.6229C64.0879 82.6357 65.2884 85.525 67.4253 87.6553C69.5621 89.7856 72.4603 90.9824 75.4823 90.9824H78.7952C79.2419 90.9824 79.4644 91.5236 79.1468 91.8378L76.6663 94.2917C76.469 94.4869 76.4684 94.8054 76.6649 95.0013L79.9999 98.326C80.1952 98.5207 80.5113 98.5205 80.7064 98.3255L90.5394 88.4961C90.7347 88.3009 90.7347 87.9842 90.5394 87.7889L80.7064 77.9595Z" fill="white"/>
</svg>
