<svg width="1280" height="1350" viewBox="0 0 1280 1350" fill="none" xmlns="http://www.w3.org/2000/svg">
<path fill-rule="evenodd" clip-rule="evenodd" d="M734.956 322.834C764.195 296.267 833.248 231.476 842.833 209.583C849.85 193.557 804.014 225.748 755.36 259.917C748.607 264.66 741.801 269.44 735.074 274.135C752.325 254.125 771.06 229.773 778.482 211.938C790.051 184.136 775.712 193.01 767.097 200.922C746.6 222.118 709.588 258.862 674.58 290.12L678.224 283.381C683.822 274.901 694.705 252.453 693.462 230.5C692.218 208.546 667.734 252.53 655.648 277.266C647.367 291.377 634.806 312.349 621.913 333.079C619.827 334.528 617.812 335.878 615.876 337.119C596.049 349.831 582.053 360.748 572.553 369.318C562.338 375.279 552.272 381.34 542.475 387.237C518.146 401.884 495.483 415.528 476.356 424.162C438.066 441.447 293.323 457.311 166.871 471.17C82.7349 480.392 6.69652 488.726 -24.4981 496L-24.4981 740C-13.2435 731.079 107.067 684.752 219.961 641.281C307.804 607.457 391.157 575.361 415.149 563.961C483.682 531.398 501.098 523.616 577.074 543.642C637.38 559.537 675.31 596.94 698.746 620.052C717.997 639.037 727.469 648.378 731.531 628.228C738.914 591.608 706.189 560.976 675.74 532.476C669.039 526.204 662.449 520.035 656.42 513.929C622.998 480.073 620.174 464.137 622.633 439.583C625.091 415.029 649.51 405.744 661.274 402.979C668.594 401.259 674.407 394.648 679.102 389.308C681.953 386.065 684.393 383.291 686.507 382.365C688.335 381.565 691.335 381.398 694.862 381.201C702.131 380.797 711.641 380.267 717.766 373.813C726.863 364.227 752.287 365.559 770.293 382.111C776.031 387.386 782.234 395.62 788.162 403.489C800.837 420.314 812.254 435.47 815.183 416.464C819.192 390.443 800.952 339.693 734.956 322.834Z" fill="url(#paint0_linear_0_1)"/>
<path d="M734.956 322.834L734.338 325.256L729.838 324.107L733.275 320.983L734.956 322.834ZM755.36 259.917L753.923 257.872L755.36 259.917ZM735.074 274.135L736.505 276.185L733.18 272.502L735.074 274.135ZM778.482 211.938L780.79 212.898L780.79 212.898L778.482 211.938ZM767.097 200.922L765.3 199.185L765.351 199.131L765.406 199.081L767.097 200.922ZM674.58 290.12L676.245 291.984L672.381 288.93L674.58 290.12ZM678.224 283.381L676.025 282.192L676.078 282.095L676.138 282.004L678.224 283.381ZM693.462 230.5L695.958 230.358L693.462 230.5ZM655.648 277.266L657.894 278.363L657.852 278.449L657.804 278.531L655.648 277.266ZM621.913 333.079L624.036 334.399L623.764 334.837L623.34 335.132L621.913 333.079ZM615.876 337.119L617.226 339.224L615.876 337.119ZM572.553 369.318L574.228 371.174L574.036 371.347L573.813 371.477L572.553 369.318ZM542.475 387.237L541.186 385.096L542.475 387.237ZM476.356 424.162L475.328 421.884L476.356 424.162ZM166.871 471.17L166.599 468.685L166.871 471.17ZM-24.4981 496L-26.9981 496L-26.9981 494.016L-25.0658 493.565L-24.4981 496ZM-24.4981 740L-22.9451 741.959L-26.9981 745.172L-26.9981 740L-24.4981 740ZM219.961 641.281L220.86 643.614L219.961 641.281ZM415.149 563.961L414.076 561.703L415.149 563.961ZM577.074 543.642L576.437 546.059L577.074 543.642ZM698.746 620.052L700.501 618.272L698.746 620.052ZM731.531 628.228L733.982 628.722L731.531 628.228ZM675.74 532.476L677.448 530.651L675.74 532.476ZM656.42 513.929L654.641 515.685L656.42 513.929ZM661.274 402.979L661.846 405.413L661.274 402.979ZM679.102 389.308L680.98 390.958L680.98 390.958L679.102 389.308ZM686.507 382.365L685.504 380.075L685.504 380.075L686.507 382.365ZM694.862 381.201L695.001 383.698L695.001 383.698L694.862 381.201ZM717.766 373.813L715.952 372.092L717.766 373.813ZM770.293 382.111L768.602 383.952L770.293 382.111ZM788.162 403.489L786.165 404.993L788.162 403.489ZM815.183 416.464L817.653 416.845L815.183 416.464ZM845.123 210.586C842.555 216.452 836.196 224.869 827.936 234.414C819.604 244.044 809.115 255.071 798.038 266.218C775.88 288.515 751.273 311.386 736.637 324.684L733.275 320.983C747.878 307.715 772.417 284.907 794.492 262.694C805.531 251.585 815.93 240.649 824.155 231.143C832.453 221.553 838.319 213.661 840.543 208.581L845.123 210.586ZM753.923 257.872C778.223 240.805 801.917 224.164 818.657 213.801C826.959 208.662 833.8 204.905 838.208 203.5C839.328 203.143 840.43 202.89 841.439 202.851C842.402 202.813 843.687 202.956 844.723 203.854C845.85 204.832 846.103 206.181 846.037 207.281C845.974 208.343 845.613 209.469 845.123 210.586L840.543 208.581C840.931 207.694 841.034 207.194 841.046 206.984C841.057 206.81 840.997 207.242 841.447 207.632C841.806 207.943 842.05 207.831 841.633 207.847C841.261 207.861 840.643 207.971 839.727 208.263C835.994 209.454 829.651 212.876 821.289 218.052C804.702 228.32 781.15 244.86 756.796 261.963L753.923 257.872ZM733.643 272.084C740.367 267.392 747.17 262.614 753.923 257.872L756.796 261.963C750.045 266.705 743.235 271.487 736.505 276.185L733.643 272.084ZM780.79 212.898C773.195 231.148 754.205 255.774 736.967 275.767L733.18 272.502C750.446 252.476 768.924 228.398 776.174 210.977L780.79 212.898ZM765.406 199.081C767.628 197.041 770.258 194.9 772.796 193.286C774.064 192.48 775.364 191.77 776.617 191.275C777.835 190.794 779.212 190.433 780.566 190.546C782.054 190.67 783.471 191.376 784.369 192.845C785.172 194.161 785.377 195.8 785.292 197.5C785.121 200.91 783.7 205.904 780.79 212.898L776.174 210.977C779.048 204.07 780.173 199.747 780.298 197.25C780.361 195.996 780.151 195.533 780.102 195.452C780.094 195.438 780.121 195.482 780.188 195.521C780.245 195.554 780.252 195.537 780.151 195.528C779.897 195.507 779.351 195.571 778.454 195.925C777.593 196.265 776.586 196.802 775.479 197.505C773.267 198.912 770.874 200.848 768.788 202.764L765.406 199.081ZM672.915 288.255C707.864 257.05 744.83 220.352 765.3 199.185L768.894 202.66C748.369 223.885 711.312 260.674 676.245 291.984L672.915 288.255ZM680.423 284.57L676.779 291.309L672.381 288.93L676.025 282.192L680.423 284.57ZM695.958 230.358C697.244 253.069 686.054 276.057 680.311 284.758L676.138 282.004C681.589 273.745 692.167 251.837 690.966 230.641L695.958 230.358ZM653.402 276.168C659.46 263.769 668.667 246.457 676.56 234.959C678.538 232.078 680.463 229.518 682.261 227.475C684.018 225.479 685.812 223.792 687.549 222.862C688.431 222.391 689.478 222.016 690.61 222.044C691.833 222.076 692.934 222.575 693.783 223.465C694.572 224.29 695.056 225.353 695.369 226.449C695.687 227.563 695.874 228.874 695.958 230.358L690.966 230.641C690.894 229.381 690.744 228.463 690.561 227.822C690.373 227.162 690.192 226.943 690.168 226.919C690.167 226.917 690.206 226.957 690.289 226.994C690.373 227.032 690.446 227.042 690.482 227.043C690.526 227.044 690.356 227.031 689.908 227.271C688.986 227.765 687.673 228.895 686.014 230.779C684.397 232.616 682.598 234.998 680.682 237.789C673.001 248.978 663.922 266.026 657.894 278.363L653.402 276.168ZM619.79 331.758C632.67 311.049 645.22 290.096 653.492 276L657.804 278.531C649.514 292.658 636.942 313.648 624.036 334.399L619.79 331.758ZM614.527 335.014C616.433 333.792 618.422 332.46 620.487 331.026L623.34 335.132C621.232 336.596 619.191 337.964 617.226 339.224L614.527 335.014ZM570.878 367.461C580.496 358.785 594.605 347.787 614.527 335.014L617.226 339.224C597.492 351.876 583.609 362.711 574.228 371.174L570.878 367.461ZM541.186 385.096C550.98 379.199 561.061 373.13 571.293 367.158L573.813 371.477C563.616 377.428 553.563 383.48 543.764 389.379L541.186 385.096ZM475.328 421.884C494.291 413.323 516.812 399.769 541.186 385.096L543.764 389.379C519.48 403.999 496.676 417.732 477.385 426.441L475.328 421.884ZM166.599 468.685C229.834 461.755 297.595 454.328 354.332 446.474C382.7 442.548 408.281 438.519 429.143 434.398C450.072 430.263 466.044 426.075 475.328 421.884L477.385 426.441C467.524 430.892 451.044 435.168 430.112 439.303C409.115 443.451 383.427 447.495 355.017 451.427C298.196 459.292 230.36 466.727 167.144 473.655L166.599 468.685ZM-25.0658 493.565C6.31818 486.247 82.5728 477.895 166.599 468.685L167.144 473.655C82.8971 482.889 7.07485 491.205 -23.9304 498.435L-25.0658 493.565ZM-26.9981 740L-26.9981 496L-21.9981 496L-21.9981 740L-26.9981 740ZM220.86 643.614C164.408 665.351 106.121 687.795 60.5405 705.92C37.7483 714.983 18.1513 722.958 3.55692 729.222C-3.7423 732.355 -9.76907 735.05 -14.3099 737.233C-18.9432 739.461 -21.794 741.047 -22.9451 741.959L-26.0511 738.041C-24.3885 736.723 -21.0177 734.91 -16.4763 732.727C-11.8425 730.499 -5.74155 727.772 1.58499 724.627C16.2422 718.337 35.889 710.341 58.693 701.274C104.305 683.137 162.62 660.682 219.063 638.948L220.86 643.614ZM416.222 566.219C392.117 577.673 308.625 609.82 220.86 643.614L219.063 638.948C306.984 605.093 390.197 573.049 414.076 561.703L416.222 566.219ZM576.437 546.059C538.53 536.068 515.596 533.121 493.707 536.551C471.723 539.996 450.59 549.889 416.222 566.219L414.076 561.703C448.241 545.47 470.083 535.192 492.933 531.611C515.879 528.015 539.641 531.19 577.711 541.224L576.437 546.059ZM696.99 621.832C673.569 598.735 636.048 561.771 576.437 546.059L577.711 541.224C638.713 557.303 677.05 595.146 700.501 618.272L696.99 621.832ZM733.982 628.722C732.953 633.825 731.485 637.705 729.118 639.939C727.858 641.128 726.363 641.832 724.683 641.991C723.057 642.144 721.434 641.77 719.877 641.125C716.823 639.859 713.441 637.293 709.764 634.046C706.043 630.76 701.786 626.562 696.99 621.832L700.501 618.272C705.33 623.034 709.478 627.123 713.074 630.298C716.714 633.512 719.564 635.583 721.792 636.506C722.876 636.955 723.656 637.065 724.214 637.013C724.718 636.965 725.186 636.775 725.686 636.303C726.84 635.214 728.078 632.706 729.081 627.734L733.982 628.722ZM677.448 530.651C692.625 544.857 708.628 559.821 719.87 575.873C731.141 591.966 737.862 609.479 733.982 628.722L729.081 627.734C732.584 610.357 726.633 594.244 715.775 578.741C704.888 563.197 689.303 548.595 674.031 534.301L677.448 530.651ZM658.199 512.172C664.187 518.237 670.74 524.372 677.448 530.651L674.031 534.301C667.338 528.036 660.71 521.833 654.641 515.685L658.199 512.172ZM625.12 439.832C623.908 451.945 624.034 461.593 628.388 472.328C632.779 483.156 641.566 495.323 658.199 512.172L654.641 515.685C637.852 498.678 628.516 485.95 623.754 474.207C618.955 462.372 618.9 451.775 620.145 439.334L625.12 439.832ZM661.846 405.413C656.148 406.752 647.452 409.661 639.935 415.131C632.464 420.568 626.261 428.443 625.12 439.832L620.145 439.334C621.463 426.169 628.699 417.124 636.993 411.089C645.241 405.087 654.636 401.971 660.702 400.545L661.846 405.413ZM680.98 390.958C678.65 393.608 675.91 396.73 672.8 399.398C669.687 402.069 666.048 404.425 661.846 405.413L660.702 400.545C663.82 399.813 666.747 398.003 669.544 395.603C672.344 393.201 674.859 390.348 677.225 387.657L680.98 390.958ZM687.509 384.655C686.893 384.925 686.025 385.575 684.837 386.747C683.682 387.887 682.422 389.318 680.98 390.958L677.225 387.657C678.633 386.055 680.018 384.478 681.325 383.188C682.598 381.932 684.006 380.731 685.504 380.075L687.509 384.655ZM695.001 383.698C693.216 383.797 691.666 383.884 690.338 384.04C688.983 384.199 688.075 384.408 687.509 384.655L685.504 380.075C686.767 379.522 688.273 379.248 689.756 379.074C691.267 378.897 692.981 378.802 694.723 378.705L695.001 383.698ZM719.579 375.534C712.656 382.829 702.047 383.305 695.001 383.698L694.723 378.705C702.215 378.288 710.626 377.705 715.952 372.092L719.579 375.534ZM768.602 383.952C759.997 376.042 749.629 371.784 740.382 370.641C730.999 369.482 723.342 371.57 719.579 375.534L715.952 372.092C721.287 366.471 730.89 364.431 740.995 365.679C751.236 366.944 762.583 371.628 771.985 380.271L768.602 383.952ZM786.165 404.993C780.188 397.058 774.134 389.038 768.602 383.952L771.985 380.271C777.928 385.734 784.281 394.181 790.159 401.985L786.165 404.993ZM817.653 416.845C817.268 419.343 816.724 421.427 815.98 423.079C815.24 424.724 814.218 426.126 812.776 426.975C809.674 428.801 806.353 427.261 803.851 425.43C801.185 423.479 798.315 420.398 795.396 416.884C792.452 413.34 789.325 409.187 786.165 404.993L790.159 401.985C793.337 406.203 796.39 410.254 799.243 413.69C802.121 417.156 804.665 419.83 806.804 421.396C809.107 423.081 809.981 422.819 810.24 422.666C810.477 422.527 810.927 422.126 811.421 421.028C811.912 419.937 812.365 418.337 812.712 416.084L817.653 416.845ZM735.575 320.412C802.754 337.573 821.868 389.487 817.653 416.845L812.712 416.084C816.515 391.398 799.151 341.813 734.338 325.256L735.575 320.412Z" fill="white"/>
<path d="M735.5 274L670.5 321.5" stroke="white" stroke-width="5"/>
<path d="M622 333C630 326.5 670 294 675.5 289" stroke="white" stroke-width="5"/>
<path d="M733 322.5C714.804 318.698 666.943 314.082 621 334.031" stroke="white" stroke-width="4"/>
<path fill-rule="evenodd" clip-rule="evenodd" d="M1046.05 470.039C1047.06 430.547 1050.99 335.938 1061.3 314.378C1068.85 298.594 1074.43 354.327 1080.35 413.486L1080.35 413.505C1081.17 421.711 1082 429.982 1082.84 438.138C1086.72 412.003 1092.91 381.907 1101.57 364.635C1115.06 337.712 1117.71 354.365 1117.34 366.056C1114.69 395.422 1111.06 447.446 1110.27 494.37L1112.98 487.21C1115.75 477.432 1125.63 454.526 1143.06 441.124C1160.49 427.722 1143.19 474.995 1132.36 500.306C1127.09 515.795 1119.42 539.006 1112.15 562.31C1112.42 564.837 1112.71 567.246 1113.04 569.523C1116.37 592.843 1117.25 610.573 1116.97 623.365C1119.13 634.99 1121.12 646.568 1123.05 657.835C1127.86 685.823 1132.34 711.894 1138.3 732.016C1152.02 778.338 1202.46 865.647 1244.62 938.629C1263.52 971.335 1280.75 1001.16 1292.27 1023.14L1139.76 1164.01C1138.69 1138.49 1088.55 928.217 1072.45 869.691C1052.33 796.533 1046.84 778.264 982.041 733.83C930.606 698.56 877.508 694.284 844.7 691.642C817.748 689.472 804.489 688.404 817.089 672.163C839.988 642.648 884.56 647.41 926.03 651.84C935.156 652.815 944.132 653.774 952.693 654.348C1000.16 657.53 1014.07 649.256 1031.05 631.352C1048.03 613.449 1039.11 588.896 1033.52 578.183C1030.04 571.518 1031.24 562.798 1032.22 555.754C1032.81 551.477 1033.32 547.818 1032.64 545.613C1032.05 543.706 1030.21 541.326 1028.06 538.527C1023.62 532.76 1017.8 525.214 1018.69 516.361C1020 503.211 1002.38 484.833 978.086 482.016C970.344 481.119 960.057 481.803 950.227 482.456C929.209 483.853 910.275 485.112 922.75 470.478C939.831 450.441 990.168 431.091 1046.05 470.039Z" fill="url(#paint1_linear_0_1)"/>
<path d="M1046.05 470.039L1044.62 472.09L1048.43 474.746L1048.55 470.103L1046.05 470.039ZM1080.35 413.486L1077.86 413.735L1077.86 413.735L1080.35 413.486ZM1080.35 413.505L1082.84 413.256L1082.84 413.255L1080.35 413.505ZM1082.84 438.138L1080.35 438.395L1085.31 438.505L1082.84 438.138ZM1101.57 364.635L1099.33 363.515L1099.33 363.515L1101.57 364.635ZM1117.34 366.056L1119.83 366.282L1119.84 366.208L1119.84 366.134L1117.34 366.056ZM1110.27 494.37L1107.77 494.328L1112.6 495.257L1110.27 494.37ZM1112.98 487.21L1115.32 488.098L1115.36 487.995L1115.39 487.89L1112.98 487.21ZM1143.06 441.124L1141.54 439.142L1141.54 439.142L1143.06 441.124ZM1132.36 500.306L1130.07 499.323L1130.03 499.41L1130 499.501L1132.36 500.306ZM1112.15 562.31L1109.77 561.565L1109.61 562.058L1109.67 562.571L1112.15 562.31ZM1113.04 569.523L1115.51 569.169L1115.51 569.169L1113.04 569.523ZM1116.97 623.365L1114.47 623.309L1114.46 623.567L1114.51 623.821L1116.97 623.365ZM1123.05 657.835L1120.59 658.259L1120.59 658.259L1123.05 657.835ZM1138.3 732.016L1140.69 731.305L1140.69 731.305L1138.3 732.016ZM1244.62 938.629L1242.46 939.879L1242.46 939.879L1244.62 938.629ZM1292.27 1023.14L1293.97 1024.97L1295.38 1023.67L1294.49 1021.98L1292.27 1023.14ZM1139.76 1164.01L1137.26 1164.11L1137.49 1169.51L1141.46 1165.84L1139.76 1164.01ZM1072.45 869.691L1074.86 869.028L1074.86 869.028L1072.45 869.691ZM982.041 733.83L983.455 731.768L983.455 731.768L982.041 733.83ZM844.7 691.642L844.9 689.15L844.9 689.15L844.7 691.642ZM817.089 672.163L819.064 673.696L819.064 673.696L817.089 672.163ZM926.03 651.84L926.295 649.354L926.295 649.354L926.03 651.84ZM952.693 654.348L952.861 651.854L952.861 651.854L952.693 654.348ZM1031.05 631.352L1032.87 633.073L1032.87 633.073L1031.05 631.352ZM1033.52 578.183L1035.73 577.026L1035.73 577.026L1033.52 578.183ZM1032.22 555.754L1029.74 555.412L1029.74 555.412L1032.22 555.754ZM1032.64 545.613L1035.03 544.876L1035.03 544.876L1032.64 545.613ZM1028.06 538.527L1030.04 537.001L1030.04 537.001L1028.06 538.527ZM1018.69 516.361L1021.17 516.609L1018.69 516.361ZM978.086 482.016L977.798 484.5L977.798 484.5L978.086 482.016ZM950.227 482.456L950.061 479.962L950.061 479.962L950.227 482.456ZM922.75 470.478L924.653 472.1L922.75 470.478ZM1059.05 313.299C1056.29 319.076 1054.07 329.39 1052.24 341.879C1050.39 354.479 1048.9 369.624 1047.7 385.293C1045.29 416.635 1044.06 450.207 1043.55 469.975L1048.55 470.103C1049.05 450.379 1050.29 416.9 1052.68 385.675C1053.88 370.059 1055.36 355.042 1057.19 342.604C1059.02 330.057 1061.17 320.46 1063.56 315.456L1059.05 313.299ZM1082.84 413.237C1079.88 383.69 1077 354.88 1073.91 335.436C1072.37 325.794 1070.75 318.16 1068.93 313.904C1068.47 312.824 1067.94 311.824 1067.31 311.035C1066.71 310.281 1065.76 309.402 1064.41 309.204C1062.93 308.99 1061.74 309.68 1060.95 310.448C1060.19 311.19 1059.57 312.199 1059.05 313.299L1063.56 315.456C1063.98 314.583 1064.29 314.179 1064.44 314.032C1064.56 313.911 1064.28 314.238 1063.69 314.152C1063.22 314.084 1063.14 313.826 1063.4 314.152C1063.63 314.443 1063.95 314.982 1064.33 315.867C1065.87 319.471 1067.42 326.508 1068.97 336.221C1072.03 355.487 1074.9 384.123 1077.86 413.735L1082.84 413.237ZM1082.84 413.255L1082.84 413.236L1077.86 413.735L1077.86 413.754L1082.84 413.255ZM1085.33 437.882C1084.49 429.73 1083.66 421.462 1082.84 413.256L1077.86 413.754C1078.69 421.959 1079.51 430.234 1080.35 438.395L1085.33 437.882ZM1099.33 363.515C1090.48 381.189 1084.24 411.658 1080.37 437.771L1085.31 438.505C1089.19 412.348 1095.35 382.626 1103.8 365.754L1099.33 363.515ZM1119.84 366.134C1119.94 363.119 1119.84 359.729 1119.4 356.753C1119.18 355.266 1118.87 353.818 1118.43 352.546C1118 351.31 1117.37 350.031 1116.4 349.08C1115.33 348.035 1113.87 347.423 1112.18 347.704C1110.65 347.955 1109.28 348.871 1108.05 350.046C1105.58 352.403 1102.73 356.742 1099.33 363.515L1103.8 365.754C1107.15 359.065 1109.69 355.39 1111.5 353.663C1112.41 352.796 1112.9 352.652 1112.99 352.637C1113 352.634 1112.95 352.642 1112.88 352.617C1112.82 352.595 1112.83 352.579 1112.9 352.65C1113.08 352.828 1113.39 353.283 1113.71 354.194C1114.01 355.068 1114.26 356.181 1114.46 357.478C1114.84 360.072 1114.93 363.148 1114.85 365.979L1119.84 366.134ZM1112.76 494.412C1113.55 447.567 1117.18 395.607 1119.83 366.282L1114.85 365.831C1112.2 395.236 1108.56 447.324 1107.77 494.328L1112.76 494.412ZM1110.65 486.323L1107.93 493.482L1112.6 495.257L1115.32 488.098L1110.65 486.323ZM1141.54 439.142C1123.51 453.007 1113.41 476.498 1110.58 486.531L1115.39 487.89C1118.08 478.367 1127.76 456.046 1144.59 443.106L1141.54 439.142ZM1134.66 501.29C1140.09 488.602 1147.18 470.322 1150.73 456.834C1151.62 453.454 1152.3 450.324 1152.67 447.628C1153.03 444.993 1153.14 442.533 1152.71 440.611C1152.49 439.635 1152.09 438.597 1151.33 437.759C1150.5 436.854 1149.41 436.347 1148.18 436.284C1147.04 436.227 1145.92 436.555 1144.88 437.034C1143.83 437.521 1142.72 438.236 1141.54 439.142L1144.59 443.106C1145.59 442.337 1146.38 441.851 1146.99 441.571C1147.61 441.282 1147.89 441.276 1147.93 441.278C1147.93 441.278 1147.87 441.274 1147.79 441.236C1147.71 441.197 1147.65 441.148 1147.63 441.121C1147.6 441.089 1147.72 441.21 1147.83 441.705C1148.06 442.726 1148.06 444.458 1147.72 446.945C1147.38 449.37 1146.75 452.288 1145.89 455.562C1142.44 468.688 1135.47 486.699 1130.07 499.323L1134.66 501.29ZM1114.54 563.054C1121.8 539.774 1129.46 516.583 1134.73 501.112L1130 499.501C1124.72 515.006 1117.04 538.238 1109.77 561.565L1114.54 563.054ZM1115.51 569.169C1115.19 566.927 1114.9 564.549 1114.64 562.048L1109.67 562.571C1109.93 565.125 1110.23 567.565 1110.56 569.877L1115.51 569.169ZM1119.47 623.42C1119.75 610.469 1118.86 592.6 1115.51 569.169L1110.56 569.877C1113.88 593.086 1114.75 610.678 1114.47 623.309L1119.47 623.42ZM1125.52 657.412C1123.58 646.147 1121.59 634.553 1119.43 622.908L1114.51 623.821C1116.67 635.427 1118.65 646.988 1120.59 658.259L1125.52 657.412ZM1140.69 731.305C1134.79 711.357 1130.33 685.451 1125.52 657.412L1120.59 658.259C1125.39 686.195 1129.89 712.431 1135.9 732.726L1140.69 731.305ZM1246.79 937.378C1225.7 900.879 1202.57 860.845 1183 824.149C1163.4 787.4 1147.47 754.195 1140.69 731.305L1135.9 732.726C1142.84 756.159 1159 789.77 1178.59 826.502C1198.21 863.286 1221.38 903.397 1242.46 939.879L1246.79 937.378ZM1294.49 1021.98C1282.94 999.947 1265.67 970.066 1246.79 937.378L1242.46 939.879C1261.37 972.604 1278.57 1002.38 1290.06 1024.3L1294.49 1021.98ZM1141.46 1165.84L1293.97 1024.97L1290.58 1021.3L1138.06 1162.17L1141.46 1165.84ZM1070.04 870.354C1078.08 899.567 1094.63 966.727 1109.31 1029.8C1116.65 1061.32 1123.51 1091.81 1128.61 1116C1131.16 1128.1 1133.26 1138.61 1134.76 1146.88C1136.27 1155.21 1137.14 1161.12 1137.26 1164.11L1142.26 1163.9C1142.12 1160.51 1141.18 1154.27 1139.68 1145.99C1138.17 1137.65 1136.06 1127.09 1133.5 1114.97C1128.4 1090.73 1121.52 1060.21 1114.18 1028.66C1099.5 965.583 1082.93 898.342 1074.86 869.028L1070.04 870.354ZM980.627 735.892C1012.96 758.061 1030.17 773.498 1041.88 792.31C1053.63 811.204 1059.95 833.666 1070.04 870.354L1074.86 869.028C1064.83 832.558 1058.34 809.307 1046.12 789.669C1033.85 769.948 1015.92 754.033 983.455 731.768L980.627 735.892ZM844.499 694.134C877.287 696.774 929.785 701.029 980.627 735.892L983.455 731.768C931.427 696.092 877.729 691.794 844.9 689.15L844.499 694.134ZM815.114 670.631C811.923 674.744 809.945 678.391 809.8 681.642C809.723 683.373 810.166 684.964 811.144 686.34C812.09 687.671 813.434 688.655 814.94 689.413C817.894 690.898 822.045 691.781 826.906 692.444C831.825 693.114 837.784 693.593 844.499 694.134L844.9 689.15C838.139 688.606 832.334 688.137 827.581 687.489C822.769 686.834 819.34 686.028 817.185 684.945C816.137 684.418 815.544 683.899 815.219 683.442C814.926 683.03 814.764 682.551 814.795 681.864C814.865 680.28 815.955 677.703 819.064 673.696L815.114 670.631ZM926.295 649.354C905.624 647.146 883.841 644.809 864.343 646.785C844.796 648.767 827.147 655.121 815.114 670.631L819.064 673.696C829.93 659.691 846.017 653.668 864.847 651.76C883.728 649.846 904.965 652.104 925.764 654.326L926.295 649.354ZM952.861 651.854C944.357 651.283 935.432 650.33 926.295 649.354L925.764 654.326C934.88 655.3 943.906 656.264 952.526 656.842L952.861 651.854ZM1029.24 629.632C1020.86 638.464 1013.47 644.671 1002.5 648.39C991.436 652.14 976.484 653.437 952.861 651.854L952.526 656.842C976.371 658.441 992.106 657.192 1004.11 653.125C1016.2 649.026 1024.26 642.145 1032.87 633.073L1029.24 629.632ZM1031.3 579.34C1034.01 584.529 1037.49 593.013 1038.26 602.278C1039.02 611.486 1037.12 621.328 1029.24 629.632L1032.87 633.073C1041.97 623.473 1044.09 612.087 1043.24 601.864C1042.4 591.699 1038.62 582.55 1035.73 577.026L1031.3 579.34ZM1029.74 555.412C1029.26 558.906 1028.68 563.02 1028.7 567.118C1028.71 571.22 1029.3 575.514 1031.3 579.34L1035.73 577.026C1034.25 574.187 1033.71 570.789 1033.7 567.104C1033.69 563.414 1034.2 559.647 1034.69 556.097L1029.74 555.412ZM1030.25 546.35C1030.45 546.993 1030.52 548.075 1030.41 549.74C1030.3 551.358 1030.04 553.247 1029.74 555.412L1034.69 556.097C1034.99 553.984 1035.28 551.905 1035.4 550.074C1035.52 548.289 1035.51 546.438 1035.03 544.876L1030.25 546.35ZM1026.08 540.053C1027.17 541.469 1028.12 542.699 1028.87 543.806C1029.63 544.937 1030.07 545.76 1030.25 546.35L1035.03 544.876C1034.62 543.559 1033.84 542.239 1033 541.003C1032.15 539.743 1031.1 538.384 1030.04 537.001L1026.08 540.053ZM1016.2 516.112C1015.2 526.119 1021.77 534.463 1026.08 540.053L1030.04 537.001C1025.46 531.057 1020.41 524.309 1021.17 516.609L1016.2 516.112ZM977.798 484.5C989.408 485.846 999.405 490.912 1006.31 497.167C1013.32 503.513 1016.74 510.674 1016.2 516.112L1021.17 516.609C1021.95 508.898 1017.22 500.295 1009.67 493.461C1002.02 486.534 991.06 481.004 978.374 479.533L977.798 484.5ZM950.393 484.951C960.306 484.292 970.333 483.634 977.798 484.5L978.374 479.533C970.355 478.603 959.809 479.314 950.061 479.962L950.393 484.951ZM920.848 468.856C919.208 470.78 917.986 472.553 917.221 474.196C916.459 475.831 916.065 477.521 916.365 479.168C917.01 482.708 920.345 484.217 923.366 484.915C926.585 485.658 930.793 485.818 935.36 485.732C939.967 485.644 945.154 485.299 950.393 484.951L950.061 479.962C944.791 480.312 939.73 480.648 935.265 480.732C930.761 480.818 927.074 480.639 924.491 480.043C921.711 479.401 921.338 478.568 921.284 478.272C921.235 478.001 921.245 477.399 921.753 476.307C922.258 475.223 923.174 473.835 924.653 472.1L920.848 468.856ZM1047.48 467.988C990.596 428.343 938.805 447.791 920.848 468.856L924.653 472.1C940.856 453.092 989.739 433.84 1044.62 472.09L1047.48 467.988Z" fill="white"/>
<path d="M1082.66 437.721L1089.17 517.964" stroke="white" stroke-width="5"/>
<path d="M1112.15 562.194C1111.85 551.891 1110.32 500.375 1110.51 492.944" stroke="white" stroke-width="5"/>
<path d="M1047.58 471.301C1062.35 482.592 1097.11 515.809 1112.03 563.624" stroke="white" stroke-width="4"/>
<defs>
<linearGradient id="paint0_linear_0_1" x1="856.019" y1="372.816" x2="-109.398" y2="797.291" gradientUnits="userSpaceOnUse">
<stop offset="0.212426" stop-color="#FFF7EC"/>
<stop offset="0.553844" stop-color="#FFE8E5" stop-opacity="0.67"/>
<stop offset="1" stop-color="#FFC9C3"/>
</linearGradient>
<linearGradient id="paint1_linear_0_1" x1="938.967" y1="395.96" x2="1245.65" y2="1213.96" gradientUnits="userSpaceOnUse">
<stop offset="0.212426" stop-color="#FFF7EC"/>
<stop offset="0.534375" stop-color="#FFE8E5" stop-opacity="0"/>
</linearGradient>
</defs>
</svg>
