<svg width="364" height="116" viewBox="0 0 364 116" fill="none" xmlns="http://www.w3.org/2000/svg">
<path d="M44.3125 103.929L49.2886 101.751L14.3784 56.6362L9.35103 58.837L44.3125 103.929Z" fill="#FED27B"/>
<path d="M71.3914 46.71L72.7686 52.1958L99.9258 45.3779L98.5486 39.8922L71.3914 46.71ZM76.3577 55.6828L81.8529 77.5716L87.8275 76.0716L82.3323 54.1829L76.3577 55.6828ZM79.6166 54.8647L80.9529 60.1875L93.8797 56.9422L95.7751 64.4919L82.8482 67.7372L84.2118 73.1687L103.168 68.4098L98.5723 50.1058L79.6166 54.8647ZM59.418 39.0344L71.5947 87.5373L77.8952 85.9556L67.273 43.6446L104.424 34.3177L102.87 28.1259L59.418 39.0344ZM99.2306 29.0395L109.498 69.9383C109.73 70.8616 109.486 71.2693 108.576 71.5555C107.653 71.7873 104.503 72.5781 101.597 73.1922C102.984 74.5762 104.711 77.3181 105.378 79.0559C109.995 77.8969 112.942 76.9839 114.733 75.3795C116.592 73.8157 116.78 71.8054 115.935 68.4379L105.64 27.4304L99.2306 29.0395Z" fill="#FED27B"/>
<path d="M151.798 21.034L152.229 26.2803L167.354 25.0375L166.923 19.7912L151.798 21.034ZM152.541 29.4012L152.918 33.9778L168.043 32.7349L167.666 28.1583L152.541 29.4012ZM152.69 37.3678L153.066 41.9444L168.694 40.6602L168.318 36.0836L152.69 37.3678ZM148.728 21.2863L149.659 32.6161C150.063 37.5275 150.047 43.4849 144.977 48.1156C146.385 48.8427 149.024 50.8734 150.013 51.9721C155.81 46.6074 156.265 38.4787 155.752 32.2278L154.812 20.7864L148.728 21.2863ZM164.355 20.0021L166.286 43.4989C166.346 44.2245 166.136 44.4103 165.36 44.5303C164.634 44.5899 162.127 44.8521 159.941 44.9193C160.893 46.2458 162.207 48.554 162.735 50.1963C166.251 49.9073 168.921 49.5756 170.796 48.4663C172.676 47.4127 173.166 45.8554 172.932 43.009L170.997 19.4564L164.355 20.0021ZM129.238 33.0018L129.646 37.9691L141.757 36.9738L141.349 32.0066L129.238 33.0018ZM125.528 24.0917L127.67 50.1559L133.753 49.656L131.611 23.5918L125.528 24.0917ZM128.486 23.8487L128.912 29.0392L138.959 28.2136L140.023 41.162L129.976 41.9875L130.398 47.1222L146.528 45.7968L144.616 22.5232L128.486 23.8487ZM125.902 66.933L126.379 72.7375L178.507 68.4539L178.03 62.6495L125.902 66.933ZM131.456 53.8342L132.731 69.3499L138.926 68.8408L138.077 58.5156L142.821 58.1258L143.67 68.451L149.809 67.9465L148.961 57.6213L153.76 57.2269L154.609 67.5521L160.692 67.0522L159.844 56.727L164.755 56.3234L165.604 66.6486L172.134 66.112L170.859 50.5963L131.456 53.8342Z" fill="#FED27B"/>
<path d="M191.995 28.1962L191.459 34.7262L231.476 38.0145L232.013 31.4846L191.995 28.1962ZM229.389 31.269L229.266 32.7759C222.988 41.475 208.859 52.7317 196.43 58.3406C197.887 59.7527 199.838 61.992 200.775 63.5861C213.766 57.2929 228.351 45.9613 237.067 34.9341L232.263 31.168L230.896 31.3928L229.389 31.269ZM209.493 21.7676C211.319 24.8395 213.719 29.1385 214.629 31.7418L221.35 28.5856C220.208 26.0756 217.622 21.9861 215.786 19.0258L209.493 21.7676ZM198.433 57.2129C195.307 56.956 190.655 59.5518 186.279 63.5749L190.621 70.2248C193.142 66.8921 195.966 63.3033 197.752 63.4501C198.979 63.5509 200.665 65.5999 202.946 67.2482C206.665 69.8575 211.01 71.0012 217.93 71.5699C223.456 72.024 231.911 72.3816 235.952 72.4328C236.159 70.5956 237.565 67.1711 238.437 65.4448C233.015 65.7859 224.434 65.5865 218.686 65.1141C212.602 64.6142 207.779 63.8245 204.45 61.2473C201.537 59.0974 200.274 57.3642 198.433 57.2129Z" fill="#FED27B"/>
<path d="M249.948 54.4775L299.211 66.8451L297.861 72.2222L248.598 59.8546L249.948 54.4775ZM272.165 57.2837L278.737 58.9337L272.846 82.3975L266.274 80.7476L272.165 57.2837ZM275.651 47.7662L274.711 51.5139L278.73 52.523L279.671 48.7753L275.651 47.7662ZM277.697 39.619L276.77 43.3124L280.789 44.3215L281.716 40.6281L277.697 39.619ZM273.343 33.5028L288.66 37.3481L283.287 58.748L267.971 54.9027L273.343 33.5028ZM279.948 29.7336L285.568 32.1839C283.923 34.369 282.25 36.6627 281.012 38.1419L276.981 36.0327C278.015 34.2137 279.307 31.5937 279.948 29.7336ZM296.127 54.2922L300.514 54.2966C300.687 57.5157 300.629 61.6581 300.368 64.3064L295.723 64.4104C296.119 61.6808 296.232 57.552 296.127 54.2922ZM263.552 45.3638L267.966 45.4904C268.017 48.7366 267.837 52.9061 267.494 55.6493L262.822 55.6311C263.287 52.8608 263.535 48.6506 263.552 45.3638ZM254.945 41.9326C254.919 40.8868 254.717 38.2381 254.488 36.8525C255.303 36.8262 256.254 36.2566 257.315 35.2526C258.348 34.3572 261.815 30.6664 264.06 26.7841L268.674 29.7903C265.737 33.6719 261.74 37.6339 258.546 40.0075L258.505 40.1705C258.505 40.1705 255.19 40.955 254.945 41.9326ZM254.945 41.9326L255.75 38.2663L258.29 37.3452L266.153 38.684C265.554 39.9194 264.941 41.6709 264.628 42.6892C257.525 41.7722 255.923 41.7163 254.945 41.9326ZM252.095 52.5917C252.137 51.5052 251.936 48.8565 251.625 47.335C252.82 47.4041 254.125 46.5769 255.865 45.397C257.604 44.217 263.68 39.3335 267.719 34.285L271.695 37.9968C266.882 42.9088 260.793 47.6157 255.357 50.6391L255.316 50.802C255.316 50.802 252.327 51.6683 252.095 52.5917ZM252.095 52.5917L252.86 48.8574L255.455 47.95L266.957 49.5097C266.426 50.7044 265.854 52.5238 265.609 53.5015C255.111 52.3094 253.264 52.3076 252.095 52.5917ZM287.18 50.3718C287.181 49.2173 286.98 46.5686 286.71 45.1151C287.511 45.143 288.49 44.4649 289.536 43.5152C290.583 42.5655 294.078 38.766 296.431 34.911L301.263 37.7409C298.271 41.8397 294.125 45.9373 290.849 48.406L290.822 48.5146C290.822 48.5146 287.439 49.3398 287.18 50.3718ZM287.18 50.3718L287.985 46.4745L290.635 45.5807L299.638 46.975C299.026 48.2647 298.372 50.1791 298.045 51.2518C289.951 50.1436 288.212 50.1691 287.18 50.3718ZM284.874 61.1672C284.861 60.067 284.688 57.3097 284.431 55.8019C285.64 55.8166 286.917 55.098 288.671 53.8638C290.465 52.6975 296.622 47.9499 300.769 42.9287L304.827 46.7764C299.932 51.5524 293.775 56.3 288.258 59.1876L288.217 59.3505C288.217 59.3505 285.119 60.1895 284.874 61.1672ZM284.874 61.1672L285.638 57.4329L288.396 56.5664L300.156 58.4795C299.558 59.7149 298.863 61.5613 298.618 62.539C287.971 61.0208 286.083 60.9511 284.874 61.1672ZM262.433 65.0023L267.251 68.3482C262.263 72.1191 254.804 74.4614 247.836 74.6175C247.322 72.7562 245.994 69.7669 244.895 68.1631C251.333 68.509 258.369 67.3887 262.433 65.0023ZM278.18 72.6509L283.059 69.5455C287.185 73.1216 292.857 78.5872 295.502 82.0804L290.147 85.7015C287.787 82.2222 282.346 76.5259 278.18 72.6509Z" fill="#FED27B"/>
<path d="M314.353 101.596L349.366 56.5264L354.342 58.7047L319.38 103.797L314.353 101.596Z" fill="#FED27B"/>
</svg>
