<svg width="226" height="70" viewBox="0 0 226 70" fill="none" xmlns="http://www.w3.org/2000/svg">
<path d="M26.633 62.4667L5.68872 37.4788L8.48276 36.1266L29.427 61.1146L26.633 62.4667Z" fill="black"/>
<path d="M47.2431 28.2582L47.6883 29.9278L61.3548 26.284L60.9097 24.6143L47.2431 28.2582ZM46.1137 24.0221L46.5506 25.6609L60.2172 22.017L59.7802 20.3783L46.1137 24.0221ZM60.6946 42.6878L72.3514 39.5798L73.2005 42.7646L45.9601 50.0275L45.111 46.8428L56.8915 43.7018L56.3309 41.5993L48.3535 43.7262L47.5868 40.8507L55.5642 38.7237L55.0613 36.8376L48.5063 38.5853C47.9229 39.9994 47.222 41.3454 46.4861 42.4358C45.6018 41.9761 43.8126 41.2277 42.8232 40.9948C44.4517 38.9047 45.7731 36.0354 46.2432 33.3269L44.8209 33.7061L41.7541 22.2039L62.8723 16.5733L65.9391 28.0754L47.449 33.0053L50.2132 33.0632C50.0834 33.6939 49.9535 34.3247 49.77 35.0028L54.2534 33.8075L53.7505 31.9213L57.5536 30.9073L58.0565 32.7934L67.7653 30.2048L68.5733 33.235L58.8644 35.8236L59.3673 37.7097L67.6538 35.5003L68.4205 38.3759L60.134 40.5852L60.6946 42.6878Z" fill="black"/>
<path d="M98.8103 33.4813L99.0851 36.6373L109.223 35.7546L109.506 39.0063L85.5963 41.0882L85.3132 37.8365L95.419 36.9566L95.1442 33.8005L87.0468 34.5056L86.7609 31.222L94.8582 30.5169L94.5224 26.6595L92.8413 29.1186C92.1981 28.3716 91.0808 27.3446 89.9372 26.3842C89.2942 27.8535 88.4724 29.1136 87.4372 30.1352C86.848 29.6405 85.4923 28.827 84.6163 28.3572C84.7236 32.9091 84.3707 38.0792 82.7397 41.8509C82.0147 41.2716 80.2599 40.3002 79.3339 39.9953C81.4264 35.2519 81.0375 28.5725 80.6294 23.8862L79.8772 15.2469L92.4058 14.156C91.9885 13.4214 91.5421 12.7215 91.0721 12.12L94.6064 10.6559C95.3966 11.615 96.1688 12.7362 96.7732 13.7757L107.007 12.8847L107.312 16.3914L83.9124 18.4289L84.3621 23.5933C84.4815 24.9641 84.5828 26.4971 84.6287 28.1313C86.8296 26.1088 87.7829 23.0385 87.9613 19.5539L91.4029 19.6075C91.3226 20.8994 91.1703 22.1011 90.914 23.2156C92.217 24.1621 93.6005 25.2944 94.4752 26.1176L93.8229 18.6259L97.489 18.3067L98.1691 26.1171C99.8945 24.1681 100.785 21.4887 101 18.4186L104.415 18.5388C104.311 19.929 104.075 21.2666 103.728 22.4531C105.468 23.6186 107.346 24.9005 108.423 25.8346L106.501 28.4753C105.661 27.6812 104.144 26.4962 102.668 25.4042C102.011 26.7141 101.181 27.8785 100.204 28.8308C99.8202 28.4788 99.0314 27.9051 98.2857 27.4561L98.5244 30.1977L106.909 29.4677L107.195 32.7512L98.8103 33.4813Z" fill="black"/>
<path d="M120.867 32.9899L121.117 30.1208L127.876 30.7093L127.626 33.5784L120.867 32.9899ZM126.171 18.1942L126.443 15.07L125.104 14.9534L124.832 18.0776L126.171 18.1942ZM129.165 26.2282L129.565 21.6376L128.194 21.5182L127.836 25.6307C127.792 26.1408 127.853 26.1782 128.108 26.2004L128.745 26.2559C129 26.2781 129.096 26.2864 129.165 26.2282ZM119.731 34.9788L128.338 35.7283L128.968 28.4917L128.904 28.4861L127.629 28.3751C125.971 28.2307 125.572 27.6499 125.758 25.514L126.122 21.3378L124.655 21.2101L124.453 23.5373C124.289 25.4182 123.707 27.6802 121.849 29.0924C121.564 28.6821 120.825 27.9432 120.372 27.6147L119.731 34.9788ZM122.551 21.0269L120.957 20.8881L120.386 27.4553C121.899 26.3022 122.232 24.6931 122.349 23.3541L122.551 21.0269ZM118.154 14.3483L118.461 11.195L133.635 12.5163L133.361 15.6724L129.376 15.3254L129.104 18.4496L132.897 18.7799L131.004 40.5216L127.944 40.2552L128.083 38.6612L119.475 37.9117L119.298 39.952L116.396 39.6994L118.328 17.5113L121.899 17.8222L122.171 14.6981L118.154 14.3483ZM137.642 37.6948L140.926 37.9807C142.074 38.0807 142.334 37.3003 142.86 33.1061C143.604 33.7812 145.143 34.5576 146.109 34.8987C145.257 40.253 144.159 41.7956 140.971 41.518L136.763 41.1516C133.32 40.8518 132.334 39.6416 132.667 35.8161L133.791 22.905L142.175 23.635L142.736 17.1954L134.256 16.457L134.57 12.8546L146.716 13.9122L145.528 27.5566L137.239 26.8349L136.434 36.0799C136.323 37.3551 136.463 37.5921 137.642 37.6948Z" fill="black"/>
<path d="M166.852 26.8877L161.874 25.5604C162.377 26.6549 162.838 27.9041 162.933 28.7904L160.829 29.3553L164.137 30.2374C165.013 29.3119 166.128 27.9864 166.852 26.8877ZM162.991 38.5095L162.464 40.4883C164.469 40.7913 166.537 41.1107 168.573 41.4219L167.786 44.6231C162.287 43.8854 156.371 42.9704 152.174 42.315L152.6 38.852C154.373 39.1591 156.587 39.5507 158.972 39.9216L159.59 37.6026L154.952 36.366L155.744 33.3977L160.382 34.6343L160.934 32.5627L155.708 31.1695L156.5 28.2011L159.839 29.0915C159.623 28.0402 159.124 26.6819 158.644 25.6265L160.451 25.1812L156.586 24.1507L157.394 21.1205L161.599 22.2417L161.987 20.7885L160.113 21.4812C159.961 20.3145 159.26 18.4717 158.567 17.0948L161.181 16.2351C161.626 17.0493 162.115 18.0738 162.465 18.9951L163.347 15.6867L166.223 16.4534L164.475 23.0084L165.897 23.3876L167.645 16.8326L170.582 17.6158L169.626 21.2025C170.498 20.5408 171.378 19.8482 171.939 19.2359L174.394 21.5795C172.803 22.5793 171.149 23.5626 169.921 24.1955L169.074 23.2741L168.835 24.1708L172.854 25.2425L172.046 28.2727L168.027 27.201L169.931 28.5036C169.125 29.4148 168.258 30.3094 167.446 31.1195L170.166 31.845L169.375 34.8133L164.335 33.4695L163.783 35.5412L168.421 36.7778L167.629 39.7461L162.991 38.5095ZM185.21 29.8285L184.295 33.2606L181.945 32.634L178.35 46.1151C177.848 48.0012 177.229 48.8298 175.928 49.1123C174.681 49.4421 173.01 49.1289 170.606 48.4549C170.676 47.447 170.54 45.7217 170.301 44.6312C171.861 45.1135 173.407 45.5257 173.902 45.6576C174.428 45.7978 174.654 45.6926 174.795 45.167L178.389 31.686L171.741 29.9135L172.656 26.4814L179.304 28.2539L181.365 20.5239L184.921 21.472L182.86 29.2019L185.21 29.8285ZM175.262 40.0591L171.711 40.3375C172.012 38.4638 171.828 35.3017 171.348 32.756L174.65 32.5436C175.217 35.013 175.518 38.107 175.262 40.0591Z" fill="black"/>
<path d="M195.367 60.8604L216.312 35.8725L219.106 37.2246L198.19 62.2265L195.367 60.8604Z" fill="black"/>
</svg>
