<svg width="435" height="51" viewBox="0 0 435 51" fill="none" xmlns="http://www.w3.org/2000/svg">
<path d="M9.27734 1.9375C10.1888 1.83984 11.0026 2.03516 11.7188 2.52344C12.1419 2.91406 12.4023 3.40234 12.5 3.98828C12.6628 5.8112 12.6628 7.30859 12.5 8.48047C12.4349 9.26172 12.793 9.65234 13.5742 9.65234H16.748C17.334 9.65234 17.985 9.97786 18.7012 10.6289C19.4824 11.7357 19.8242 12.8099 19.7266 13.8516C19.4661 19.2552 18.6523 24.4635 17.2852 29.4766C16.6992 31.6576 16.0807 33.4642 15.4297 34.8965C15.0716 35.6777 15.2507 36.4753 15.9668 37.2891L16.8457 38.2656C17.5293 39.0469 17.985 39.0469 18.2129 38.2656C18.6361 36.638 18.8802 34.8314 18.9453 32.8457C19.0104 32.2598 19.1732 31.7064 19.4336 31.1855C20.3451 29.916 21.4681 29.6068 22.8027 30.2578C23.4212 30.5508 23.8118 30.974 23.9746 31.5273C24.1699 32.1133 24.2188 32.8132 24.1211 33.627C23.6003 37.8587 22.6237 41.765 21.1914 45.3457C20.8008 46.2246 20.459 46.8757 20.166 47.2988C19.1569 48.8939 17.9362 49.2845 16.5039 48.4707C15.2995 47.5918 14.9577 46.5013 15.4785 45.1992C15.8366 44.5482 15.625 44.1087 14.8438 43.8809C14.2904 43.7507 13.7533 43.3438 13.2324 42.6602C12.4837 41.8138 11.8815 41.765 11.4258 42.5137C9.50521 45.248 7.71484 47.2663 6.05469 48.5684C4.88281 49.5775 3.74349 49.61 2.63672 48.666C1.33464 47.4616 1.1556 46.1595 2.09961 44.7598C3.79232 43.0345 5.63151 40.9349 7.61719 38.4609C8.26823 37.6797 8.26823 36.8984 7.61719 36.1172L4.44336 32.4062C3.23893 31.0065 2.79948 29.5417 3.125 28.0117C3.22266 27.4909 3.43424 26.8398 3.75977 26.0586C4.44336 23.9102 5.20833 20.7201 6.05469 16.4883C6.1849 15.6745 5.87565 15.2676 5.12695 15.2676C3.36914 15.3652 2.29492 14.5352 1.9043 12.7773C1.77409 11.638 2.19727 10.694 3.17383 9.94531C3.92253 9.65234 4.78516 9.55469 5.76172 9.65234C6.54297 9.65234 6.96615 9.26172 7.03125 8.48047C7.16146 6.72266 7.21029 5.27409 7.17773 4.13477C7.27539 3.02799 7.97526 2.29557 9.27734 1.9375ZM23.4863 3.25586H45.7031C47.1354 3.38607 47.8841 4.19987 47.9492 5.69727C47.8516 7.0319 47.1029 7.81315 45.7031 8.04102H38.623C37.8092 8.04102 37.4023 8.39909 37.4023 9.11523C37.4023 9.89648 37.793 10.2871 38.5742 10.2871H45.3125C46.1263 10.3522 46.7285 10.7591 47.1191 11.5078C47.5098 12.5169 47.347 13.4772 46.6309 14.3887C46.2402 14.7793 45.8008 15.0072 45.3125 15.0723H38.623C37.8092 15.0723 37.4023 15.4303 37.4023 16.1465C37.4023 16.9277 37.793 17.3184 38.5742 17.3184H45.3125C46.1263 17.3835 46.7285 17.7904 47.1191 18.5391C47.5098 19.5482 47.347 20.5085 46.6309 21.4199C46.2402 21.8105 45.8008 22.0384 45.3125 22.1035H38.623C37.8092 22.1035 37.4023 22.4616 37.4023 23.1777C37.4023 23.9264 37.793 24.3008 38.5742 24.3008H45.752C47.8353 24.5286 48.9583 25.5866 49.1211 27.4746V33.5781C49.1211 37.3542 48.8932 40.4792 48.4375 42.9531C47.8516 45.7526 46.8424 47.6569 45.4102 48.666C44.1406 49.3822 42.7246 49.7891 41.1621 49.8867H38.623C37.2559 49.8216 36.0026 49.5449 34.8633 49.0566C33.9193 48.2103 33.5612 47.2663 33.7891 46.2246C33.9193 45.7363 33.724 45.4759 33.2031 45.4434C32.0638 45.1829 31.4453 44.4668 31.3477 43.2949C31.1198 39.3236 30.7454 35.7428 30.2246 32.5527C30.1595 31.3158 30.7129 30.4857 31.8848 30.0625C33.8379 29.737 34.9121 30.7949 35.1074 33.2363C35.7259 37.11 36.0352 40.3001 36.0352 42.8066C35.9701 43.5879 36.3281 43.946 37.1094 43.8809C38.6393 44.1413 39.8438 44.2552 40.7227 44.2227C41.2109 44.1901 41.6829 43.8971 42.1387 43.3438C42.627 42.3021 42.9199 41 43.0176 39.4375C43.2454 37.1263 43.3757 35.0267 43.4082 33.1387V30.5996C43.4733 29.8509 42.985 29.3626 41.9434 29.1348H23.4375C21.5169 28.7767 20.459 27.6536 20.2637 25.7656V6.47852C20.4264 4.88346 21.5007 3.80924 23.4863 3.25586ZM26.3672 8.13867C25.944 8.36654 25.7812 8.78971 25.8789 9.4082C25.8789 9.99414 26.2695 10.2871 27.0508 10.2871H30.6152C31.3965 10.2871 31.7871 9.91276 31.7871 9.16406C31.7871 8.41536 31.3965 8.04102 30.6152 8.04102H27.9297C27.1484 8.04102 26.6276 8.07357 26.3672 8.13867ZM31.7871 16.1953C31.7871 15.4466 31.3965 15.0723 30.6152 15.0723H27.0996C26.2858 15.0723 25.8789 15.4303 25.8789 16.1465C25.8789 16.9277 26.2695 17.3184 27.0508 17.3184H30.6152C31.3965 17.3184 31.7871 16.944 31.7871 16.1953ZM14.1113 15.3652C13.9486 15.3001 13.4928 15.2676 12.7441 15.2676C11.9954 15.2676 11.5234 15.6582 11.3281 16.4395C10.5794 20.0853 9.84701 23.2754 9.13086 26.0098C8.87044 26.7259 8.72396 27.377 8.69141 27.9629C8.59375 28.679 8.83789 29.2812 9.42383 29.7695C9.74935 30.0951 10.0749 30.4368 10.4004 30.7949C11.0514 31.5436 11.5234 31.5273 11.8164 30.7461C13.2812 26.6771 14.209 21.8594 14.5996 16.293C14.6647 15.8698 14.502 15.5605 14.1113 15.3652ZM31.7871 23.2266C31.7871 22.4779 31.4128 22.1035 30.6641 22.1035H27.0996C26.2858 22.1035 25.8789 22.2988 25.8789 22.6895C25.8138 23.3079 26.0254 23.7962 26.5137 24.1543C26.8066 24.252 27.3438 24.3008 28.125 24.3008H30.6152C31.3965 24.3008 31.7871 23.9427 31.7871 23.2266ZM37.5977 29.916C38.7695 29.623 39.6647 30.0462 40.2832 31.1855C41.2272 34.1152 41.8294 36.7194 42.0898 38.998C42.1875 40.7884 41.3411 41.7161 39.5508 41.7812C38.7695 41.6836 38.151 41.3092 37.6953 40.6582C37.5 40.3327 37.3372 39.6816 37.207 38.7051C37.0117 36.8822 36.5723 34.929 35.8887 32.8457C35.6934 32.1296 35.791 31.4785 36.1816 30.8926C36.5397 30.3392 37.0117 30.0137 37.5977 29.916ZM25.0977 31.332C25.9115 30.1276 26.9857 29.8509 28.3203 30.502C29.1992 31.153 29.6061 31.9993 29.541 33.041C29.5736 34.7988 29.6224 36.5892 29.6875 38.4121V43.9785C29.7201 45.7363 28.9551 46.7617 27.3926 47.0547C25.9928 47.0221 25.1628 46.3385 24.9023 45.0039C24.9023 44.0273 24.9349 43.0508 25 42.0742V38.7051L24.7559 32.3086C24.7233 32.0156 24.8372 31.6901 25.0977 31.332ZM64.2773 1.9375C65.1888 1.83984 66.0026 2.03516 66.7188 2.52344C67.1419 2.91406 67.4023 3.40234 67.5 3.98828C67.6628 5.8112 67.6628 7.30859 67.5 8.48047C67.4349 9.26172 67.793 9.65234 68.5742 9.65234H71.748C72.334 9.65234 72.985 9.97786 73.7012 10.6289C74.4824 11.7357 74.8242 12.8099 74.7266 13.8516C74.4661 19.2552 73.6523 24.4635 72.2852 29.4766C71.6992 31.6576 71.0807 33.4642 70.4297 34.8965C70.0716 35.6777 70.2507 36.4753 70.9668 37.2891L71.8457 38.2656C72.5293 39.0469 72.985 39.0469 73.2129 38.2656C73.6361 36.638 73.8802 34.8314 73.9453 32.8457C74.0104 32.2598 74.1732 31.7064 74.4336 31.1855C75.3451 29.916 76.4681 29.6068 77.8027 30.2578C78.4212 30.5508 78.8118 30.974 78.9746 31.5273C79.1699 32.1133 79.2188 32.8132 79.1211 33.627C78.6003 37.8587 77.6237 41.765 76.1914 45.3457C75.8008 46.2246 75.459 46.8757 75.166 47.2988C74.1569 48.8939 72.9362 49.2845 71.5039 48.4707C70.2995 47.5918 69.9577 46.5013 70.4785 45.1992C70.8366 44.5482 70.625 44.1087 69.8438 43.8809C69.2904 43.7507 68.7533 43.3438 68.2324 42.6602C67.4837 41.8138 66.8815 41.765 66.4258 42.5137C64.5052 45.248 62.7148 47.2663 61.0547 48.5684C59.8828 49.5775 58.7435 49.61 57.6367 48.666C56.3346 47.4616 56.1556 46.1595 57.0996 44.7598C58.7923 43.0345 60.6315 40.9349 62.6172 38.4609C63.2682 37.6797 63.2682 36.8984 62.6172 36.1172L59.4434 32.4062C58.2389 31.0065 57.7995 29.5417 58.125 28.0117C58.2227 27.4909 58.4342 26.8398 58.7598 26.0586C59.4434 23.9102 60.2083 20.7201 61.0547 16.4883C61.1849 15.6745 60.8757 15.2676 60.127 15.2676C58.3691 15.3652 57.2949 14.5352 56.9043 12.7773C56.7741 11.638 57.1973 10.694 58.1738 9.94531C58.9225 9.65234 59.7852 9.55469 60.7617 9.65234C61.543 9.65234 61.9661 9.26172 62.0312 8.48047C62.1615 6.72266 62.2103 5.27409 62.1777 4.13477C62.2754 3.02799 62.9753 2.29557 64.2773 1.9375ZM78.4863 3.25586H100.703C102.135 3.38607 102.884 4.19987 102.949 5.69727C102.852 7.0319 102.103 7.81315 100.703 8.04102H93.623C92.8092 8.04102 92.4023 8.39909 92.4023 9.11523C92.4023 9.89648 92.793 10.2871 93.5742 10.2871H100.312C101.126 10.3522 101.729 10.7591 102.119 11.5078C102.51 12.5169 102.347 13.4772 101.631 14.3887C101.24 14.7793 100.801 15.0072 100.312 15.0723H93.623C92.8092 15.0723 92.4023 15.4303 92.4023 16.1465C92.4023 16.9277 92.793 17.3184 93.5742 17.3184H100.312C101.126 17.3835 101.729 17.7904 102.119 18.5391C102.51 19.5482 102.347 20.5085 101.631 21.4199C101.24 21.8105 100.801 22.0384 100.312 22.1035H93.623C92.8092 22.1035 92.4023 22.4616 92.4023 23.1777C92.4023 23.9264 92.793 24.3008 93.5742 24.3008H100.752C102.835 24.5286 103.958 25.5866 104.121 27.4746V33.5781C104.121 37.3542 103.893 40.4792 103.438 42.9531C102.852 45.7526 101.842 47.6569 100.41 48.666C99.1406 49.3822 97.7246 49.7891 96.1621 49.8867H93.623C92.2559 49.8216 91.0026 49.5449 89.8633 49.0566C88.9193 48.2103 88.5612 47.2663 88.7891 46.2246C88.9193 45.7363 88.724 45.4759 88.2031 45.4434C87.0638 45.1829 86.4453 44.4668 86.3477 43.2949C86.1198 39.3236 85.7454 35.7428 85.2246 32.5527C85.1595 31.3158 85.7129 30.4857 86.8848 30.0625C88.8379 29.737 89.9121 30.7949 90.1074 33.2363C90.7259 37.11 91.0352 40.3001 91.0352 42.8066C90.9701 43.5879 91.3281 43.946 92.1094 43.8809C93.6393 44.1413 94.8438 44.2552 95.7227 44.2227C96.2109 44.1901 96.6829 43.8971 97.1387 43.3438C97.627 42.3021 97.9199 41 98.0176 39.4375C98.2454 37.1263 98.3757 35.0267 98.4082 33.1387V30.5996C98.4733 29.8509 97.985 29.3626 96.9434 29.1348H78.4375C76.5169 28.7767 75.459 27.6536 75.2637 25.7656V6.47852C75.4264 4.88346 76.5007 3.80924 78.4863 3.25586ZM81.3672 8.13867C80.944 8.36654 80.7812 8.78971 80.8789 9.4082C80.8789 9.99414 81.2695 10.2871 82.0508 10.2871H85.6152C86.3965 10.2871 86.7871 9.91276 86.7871 9.16406C86.7871 8.41536 86.3965 8.04102 85.6152 8.04102H82.9297C82.1484 8.04102 81.6276 8.07357 81.3672 8.13867ZM86.7871 16.1953C86.7871 15.4466 86.3965 15.0723 85.6152 15.0723H82.0996C81.2858 15.0723 80.8789 15.4303 80.8789 16.1465C80.8789 16.9277 81.2695 17.3184 82.0508 17.3184H85.6152C86.3965 17.3184 86.7871 16.944 86.7871 16.1953ZM69.1113 15.3652C68.9486 15.3001 68.4928 15.2676 67.7441 15.2676C66.9954 15.2676 66.5234 15.6582 66.3281 16.4395C65.5794 20.0853 64.847 23.2754 64.1309 26.0098C63.8704 26.7259 63.724 27.377 63.6914 27.9629C63.5938 28.679 63.8379 29.2812 64.4238 29.7695C64.7493 30.0951 65.0749 30.4368 65.4004 30.7949C66.0514 31.5436 66.5234 31.5273 66.8164 30.7461C68.2812 26.6771 69.209 21.8594 69.5996 16.293C69.6647 15.8698 69.502 15.5605 69.1113 15.3652ZM86.7871 23.2266C86.7871 22.4779 86.4128 22.1035 85.6641 22.1035H82.0996C81.2858 22.1035 80.8789 22.2988 80.8789 22.6895C80.8138 23.3079 81.0254 23.7962 81.5137 24.1543C81.8066 24.252 82.3438 24.3008 83.125 24.3008H85.6152C86.3965 24.3008 86.7871 23.9427 86.7871 23.2266ZM92.5977 29.916C93.7695 29.623 94.6647 30.0462 95.2832 31.1855C96.2272 34.1152 96.8294 36.7194 97.0898 38.998C97.1875 40.7884 96.3411 41.7161 94.5508 41.7812C93.7695 41.6836 93.151 41.3092 92.6953 40.6582C92.5 40.3327 92.3372 39.6816 92.207 38.7051C92.0117 36.8822 91.5723 34.929 90.8887 32.8457C90.6934 32.1296 90.791 31.4785 91.1816 30.8926C91.5397 30.3392 92.0117 30.0137 92.5977 29.916ZM80.0977 31.332C80.9115 30.1276 81.9857 29.8509 83.3203 30.502C84.1992 31.153 84.6061 31.9993 84.541 33.041C84.5736 34.7988 84.6224 36.5892 84.6875 38.4121V43.9785C84.7201 45.7363 83.9551 46.7617 82.3926 47.0547C80.9928 47.0221 80.1628 46.3385 79.9023 45.0039C79.9023 44.0273 79.9349 43.0508 80 42.0742V38.7051L79.7559 32.3086C79.7233 32.0156 79.8372 31.6901 80.0977 31.332ZM134.316 1.69336C135.033 1.5306 135.732 1.5957 136.416 1.88867C137.262 2.2793 137.751 2.89779 137.881 3.74414C137.979 4.19987 138.418 4.42773 139.199 4.42773H155.703C156.842 4.62305 157.721 5.29036 158.34 6.42969C158.796 7.4388 158.812 9.0013 158.389 11.1172L158.193 12.0938C157.965 12.8099 157.461 13.3796 156.68 13.8027C155.671 14.2259 154.645 13.9004 153.604 12.8262C153.441 12.5658 153.294 12.5658 153.164 12.8262C152.904 13.1842 152.529 13.4121 152.041 13.5098H148.281C147.467 13.5098 147.061 13.6725 147.061 13.998C147.061 14.3887 147.451 14.584 148.232 14.584H155.947C157.249 14.9746 157.705 15.8047 157.314 17.0742C156.989 17.7578 156.484 18.1322 155.801 18.1973C155.573 18.1973 155.54 18.5716 155.703 19.3203V21.5176C155.508 23.1777 154.499 24.1217 152.676 24.3496H136.074C134.87 24.252 134.04 23.6172 133.584 22.4453C133.356 21.9245 133.275 20.8991 133.34 19.3691C133.535 18.5879 133.486 18.1647 133.193 18.0996C132.607 17.9368 132.217 17.5625 132.021 16.9766C131.956 16.651 131.761 16.472 131.436 16.4395C131.045 16.3418 130.866 16.4232 130.898 16.6836C130.931 17.2044 130.622 17.6927 129.971 18.1484C129.613 18.3112 128.945 18.3926 127.969 18.3926H127.383C126.569 18.3926 126.162 18.5879 126.162 18.9785C126.162 19.4017 126.553 19.5645 127.334 19.4668L130.459 18.9297C131.631 18.7669 132.412 19.4342 132.803 20.9316C132.868 21.6478 132.705 22.25 132.314 22.7383C131.143 23.5195 129.287 24.0241 126.748 24.252C121.67 24.8704 117.503 25.2122 114.248 25.2773C113.239 25.1146 112.604 24.5286 112.344 23.5195C112.181 22.6081 112.474 21.7943 113.223 21.0781C113.516 20.8503 113.841 20.7201 114.199 20.6875C115.957 20.5247 117.747 20.3945 119.57 20.2969C120.352 20.2318 120.742 19.9062 120.742 19.3203C120.742 18.7018 120.352 18.3926 119.57 18.3926H117.178C116.624 18.2949 116.152 18.0182 115.762 17.5625C115.404 16.7812 115.452 16.0651 115.908 15.4141C116.266 14.9909 116.657 14.7793 117.08 14.7793H119.57C120.352 14.7793 120.742 14.5677 120.742 14.1445C120.742 13.7214 120.352 13.5098 119.57 13.5098H117.764C116.982 13.5098 116.429 13.64 116.104 13.9004C115.485 14.3561 114.834 14.4863 114.15 14.291C112.946 13.998 112.279 13.1842 112.148 11.8496V7.55273C112.409 5.82747 113.451 4.78581 115.273 4.42773H131.191C131.973 4.42773 132.38 4.18359 132.412 3.69531C132.64 2.6862 133.275 2.01888 134.316 1.69336ZM133.242 10.043C133.926 9.22917 133.877 8.82227 133.096 8.82227H119.131C118.35 8.82227 117.926 8.83854 117.861 8.87109C117.764 8.90365 117.601 9.05013 117.373 9.31055C117.178 9.66862 117.487 9.84766 118.301 9.84766H129.58C130.329 9.97786 130.801 10.401 130.996 11.1172C131.029 11.5404 131.452 11.4753 132.266 10.9219C132.559 10.694 132.884 10.401 133.242 10.043ZM153.555 9.11523C153.229 8.82227 152.692 8.72461 151.943 8.82227H141.201C140.42 8.82227 139.915 8.98503 139.688 9.31055C139.46 9.66862 139.736 9.84766 140.518 9.84766H152.09C152.48 9.91276 152.806 10.0755 153.066 10.3359C153.229 10.5312 153.408 10.4499 153.604 10.0918C153.831 9.70117 153.815 9.37565 153.555 9.11523ZM128.262 13.5098H127.383C126.569 13.5098 126.162 13.7051 126.162 14.0957C126.162 14.5514 126.553 14.7793 127.334 14.7793H128.555C129.271 14.8118 129.613 14.6165 129.58 14.1934C129.645 13.7702 129.206 13.5423 128.262 13.5098ZM141.641 14.0469C141.608 13.6888 141.201 13.5098 140.42 13.5098H137.637C136.855 13.5098 136.302 13.6725 135.977 13.998C135.586 14.3887 135.798 14.584 136.611 14.584H140.469C141.25 14.584 141.641 14.4049 141.641 14.0469ZM141.641 19.3691C141.641 18.5879 141.266 18.1973 140.518 18.1973H139.053C138.239 18.1973 137.93 18.5879 138.125 19.3691C138.027 19.7923 138.19 20.1504 138.613 20.4434C138.776 20.5085 139.297 20.541 140.176 20.541C141.152 20.541 141.641 20.1504 141.641 19.3691ZM150.918 19.1738C151.048 18.5228 150.739 18.1973 149.99 18.1973H148.281C147.467 18.1973 147.061 18.5716 147.061 19.3203C147.061 20.1341 147.451 20.541 148.232 20.541H150.088C150.739 20.3457 151.016 19.89 150.918 19.1738ZM118.984 25.375H151.016C152.448 25.6354 153.311 26.4492 153.604 27.8164V40.2676C153.538 41.1139 153.05 41.8464 152.139 42.4648C151.553 42.7578 151.65 43.002 152.432 43.1973C154.548 43.653 156.338 44.2064 157.803 44.8574C159.072 45.6712 159.43 46.7617 158.877 48.1289C158.128 49.724 156.761 50.196 154.775 49.5449C151.162 48.5358 147.581 47.901 144.033 47.6406C143.35 47.6081 142.699 47.3314 142.08 46.8105C141.169 45.7689 140.973 44.7109 141.494 43.6367C141.787 43.1484 141.543 42.9043 140.762 42.9043H129.482C128.701 42.9043 128.408 43.1322 128.604 43.5879C129.222 45.541 128.392 46.8431 126.113 47.4941C123.053 48.5358 119.798 49.3008 116.348 49.7891C115.469 49.9518 114.769 50.0169 114.248 49.9844C112.458 49.5612 111.628 48.5195 111.758 46.8594C111.855 45.7201 112.555 44.9551 113.857 44.5645C115.973 44.1738 118.122 43.7507 120.303 43.2949C121.117 43.0345 121.068 42.9043 120.156 42.9043C119.212 43.002 118.366 42.7904 117.617 42.2695C116.999 41.8138 116.641 41.1628 116.543 40.3164V27.7676C116.901 26.4329 117.715 25.6354 118.984 25.375ZM147.793 28.9395C147.695 28.8743 147.272 28.8418 146.523 28.8418H123.623C122.842 28.8418 122.419 28.8581 122.354 28.8906C122.158 29.0859 122.093 29.3301 122.158 29.623C122.158 29.916 122.549 30.0625 123.33 30.0625H146.816C147.598 30.0625 147.988 29.916 147.988 29.623C148.086 29.3626 148.021 29.1348 147.793 28.9395ZM148.037 34.1641C148.005 33.7409 147.598 33.5293 146.816 33.5293H123.379C122.565 33.5293 122.158 33.7246 122.158 34.1152C122.158 34.571 122.549 34.7988 123.33 34.7988H146.816C147.598 34.7988 148.005 34.5872 148.037 34.1641ZM148.037 38.6562C148.037 38.3633 147.663 38.2168 146.914 38.2168H123.379C122.565 38.2168 122.158 38.3633 122.158 38.6562C122.061 38.9818 122.158 39.2259 122.451 39.3887C122.549 39.4212 122.988 39.4375 123.77 39.4375H146.426C147.207 39.4375 147.646 39.4212 147.744 39.3887C147.972 39.2259 148.07 38.9818 148.037 38.6562ZM189.316 1.69336C190.033 1.5306 190.732 1.5957 191.416 1.88867C192.262 2.2793 192.751 2.89779 192.881 3.74414C192.979 4.19987 193.418 4.42773 194.199 4.42773H210.703C211.842 4.62305 212.721 5.29036 213.34 6.42969C213.796 7.4388 213.812 9.0013 213.389 11.1172L213.193 12.0938C212.965 12.8099 212.461 13.3796 211.68 13.8027C210.671 14.2259 209.645 13.9004 208.604 12.8262C208.441 12.5658 208.294 12.5658 208.164 12.8262C207.904 13.1842 207.529 13.4121 207.041 13.5098H203.281C202.467 13.5098 202.061 13.6725 202.061 13.998C202.061 14.3887 202.451 14.584 203.232 14.584H210.947C212.249 14.9746 212.705 15.8047 212.314 17.0742C211.989 17.7578 211.484 18.1322 210.801 18.1973C210.573 18.1973 210.54 18.5716 210.703 19.3203V21.5176C210.508 23.1777 209.499 24.1217 207.676 24.3496H191.074C189.87 24.252 189.04 23.6172 188.584 22.4453C188.356 21.9245 188.275 20.8991 188.34 19.3691C188.535 18.5879 188.486 18.1647 188.193 18.0996C187.607 17.9368 187.217 17.5625 187.021 16.9766C186.956 16.651 186.761 16.472 186.436 16.4395C186.045 16.3418 185.866 16.4232 185.898 16.6836C185.931 17.2044 185.622 17.6927 184.971 18.1484C184.613 18.3112 183.945 18.3926 182.969 18.3926H182.383C181.569 18.3926 181.162 18.5879 181.162 18.9785C181.162 19.4017 181.553 19.5645 182.334 19.4668L185.459 18.9297C186.631 18.7669 187.412 19.4342 187.803 20.9316C187.868 21.6478 187.705 22.25 187.314 22.7383C186.143 23.5195 184.287 24.0241 181.748 24.252C176.67 24.8704 172.503 25.2122 169.248 25.2773C168.239 25.1146 167.604 24.5286 167.344 23.5195C167.181 22.6081 167.474 21.7943 168.223 21.0781C168.516 20.8503 168.841 20.7201 169.199 20.6875C170.957 20.5247 172.747 20.3945 174.57 20.2969C175.352 20.2318 175.742 19.9062 175.742 19.3203C175.742 18.7018 175.352 18.3926 174.57 18.3926H172.178C171.624 18.2949 171.152 18.0182 170.762 17.5625C170.404 16.7812 170.452 16.0651 170.908 15.4141C171.266 14.9909 171.657 14.7793 172.08 14.7793H174.57C175.352 14.7793 175.742 14.5677 175.742 14.1445C175.742 13.7214 175.352 13.5098 174.57 13.5098H172.764C171.982 13.5098 171.429 13.64 171.104 13.9004C170.485 14.3561 169.834 14.4863 169.15 14.291C167.946 13.998 167.279 13.1842 167.148 11.8496V7.55273C167.409 5.82747 168.451 4.78581 170.273 4.42773H186.191C186.973 4.42773 187.38 4.18359 187.412 3.69531C187.64 2.6862 188.275 2.01888 189.316 1.69336ZM188.242 10.043C188.926 9.22917 188.877 8.82227 188.096 8.82227H174.131C173.35 8.82227 172.926 8.83854 172.861 8.87109C172.764 8.90365 172.601 9.05013 172.373 9.31055C172.178 9.66862 172.487 9.84766 173.301 9.84766H184.58C185.329 9.97786 185.801 10.401 185.996 11.1172C186.029 11.5404 186.452 11.4753 187.266 10.9219C187.559 10.694 187.884 10.401 188.242 10.043ZM208.555 9.11523C208.229 8.82227 207.692 8.72461 206.943 8.82227H196.201C195.42 8.82227 194.915 8.98503 194.688 9.31055C194.46 9.66862 194.736 9.84766 195.518 9.84766H207.09C207.48 9.91276 207.806 10.0755 208.066 10.3359C208.229 10.5312 208.408 10.4499 208.604 10.0918C208.831 9.70117 208.815 9.37565 208.555 9.11523ZM183.262 13.5098H182.383C181.569 13.5098 181.162 13.7051 181.162 14.0957C181.162 14.5514 181.553 14.7793 182.334 14.7793H183.555C184.271 14.8118 184.613 14.6165 184.58 14.1934C184.645 13.7702 184.206 13.5423 183.262 13.5098ZM196.641 14.0469C196.608 13.6888 196.201 13.5098 195.42 13.5098H192.637C191.855 13.5098 191.302 13.6725 190.977 13.998C190.586 14.3887 190.798 14.584 191.611 14.584H195.469C196.25 14.584 196.641 14.4049 196.641 14.0469ZM196.641 19.3691C196.641 18.5879 196.266 18.1973 195.518 18.1973H194.053C193.239 18.1973 192.93 18.5879 193.125 19.3691C193.027 19.7923 193.19 20.1504 193.613 20.4434C193.776 20.5085 194.297 20.541 195.176 20.541C196.152 20.541 196.641 20.1504 196.641 19.3691ZM205.918 19.1738C206.048 18.5228 205.739 18.1973 204.99 18.1973H203.281C202.467 18.1973 202.061 18.5716 202.061 19.3203C202.061 20.1341 202.451 20.541 203.232 20.541H205.088C205.739 20.3457 206.016 19.89 205.918 19.1738ZM173.984 25.375H206.016C207.448 25.6354 208.311 26.4492 208.604 27.8164V40.2676C208.538 41.1139 208.05 41.8464 207.139 42.4648C206.553 42.7578 206.65 43.002 207.432 43.1973C209.548 43.653 211.338 44.2064 212.803 44.8574C214.072 45.6712 214.43 46.7617 213.877 48.1289C213.128 49.724 211.761 50.196 209.775 49.5449C206.162 48.5358 202.581 47.901 199.033 47.6406C198.35 47.6081 197.699 47.3314 197.08 46.8105C196.169 45.7689 195.973 44.7109 196.494 43.6367C196.787 43.1484 196.543 42.9043 195.762 42.9043H184.482C183.701 42.9043 183.408 43.1322 183.604 43.5879C184.222 45.541 183.392 46.8431 181.113 47.4941C178.053 48.5358 174.798 49.3008 171.348 49.7891C170.469 49.9518 169.769 50.0169 169.248 49.9844C167.458 49.5612 166.628 48.5195 166.758 46.8594C166.855 45.7201 167.555 44.9551 168.857 44.5645C170.973 44.1738 173.122 43.7507 175.303 43.2949C176.117 43.0345 176.068 42.9043 175.156 42.9043C174.212 43.002 173.366 42.7904 172.617 42.2695C171.999 41.8138 171.641 41.1628 171.543 40.3164V27.7676C171.901 26.4329 172.715 25.6354 173.984 25.375ZM202.793 28.9395C202.695 28.8743 202.272 28.8418 201.523 28.8418H178.623C177.842 28.8418 177.419 28.8581 177.354 28.8906C177.158 29.0859 177.093 29.3301 177.158 29.623C177.158 29.916 177.549 30.0625 178.33 30.0625H201.816C202.598 30.0625 202.988 29.916 202.988 29.623C203.086 29.3626 203.021 29.1348 202.793 28.9395ZM203.037 34.1641C203.005 33.7409 202.598 33.5293 201.816 33.5293H178.379C177.565 33.5293 177.158 33.7246 177.158 34.1152C177.158 34.571 177.549 34.7988 178.33 34.7988H201.816C202.598 34.7988 203.005 34.5872 203.037 34.1641ZM203.037 38.6562C203.037 38.3633 202.663 38.2168 201.914 38.2168H178.379C177.565 38.2168 177.158 38.3633 177.158 38.6562C177.061 38.9818 177.158 39.2259 177.451 39.3887C177.549 39.4212 177.988 39.4375 178.77 39.4375H201.426C202.207 39.4375 202.646 39.4212 202.744 39.3887C202.972 39.2259 203.07 38.9818 203.037 38.6562ZM229.424 3.1582H261.309C262.383 3.25586 263.262 3.92318 263.945 5.16016C264.173 5.61589 264.32 6.08789 264.385 6.57617V19.7598C263.994 21.6478 262.871 22.7871 261.016 23.1777H249.785C248.971 23.1777 248.564 23.6009 248.564 24.4473C248.564 25.3587 248.955 25.8145 249.736 25.8145H264.385C265.785 25.9121 266.566 26.7422 266.729 28.3047C266.696 29.7695 265.947 30.7298 264.482 31.1855H249.785C248.971 31.1855 248.564 31.7064 248.564 32.748C248.564 33.8223 248.955 34.3594 249.736 34.3594H263.164C264.434 34.4896 265.199 35.1569 265.459 36.3613C265.622 37.0775 265.54 37.7285 265.215 38.3145C264.792 39.1934 264.124 39.6816 263.213 39.7793H249.785C248.971 39.7793 248.564 40.1699 248.564 40.9512V41.9766C248.564 42.7904 248.955 43.1973 249.736 43.1973H266.484C267.884 43.2949 268.665 44.1087 268.828 45.6387C268.861 47.2012 268.096 48.1777 266.533 48.5684H224.004C222.799 48.4707 222.035 47.7871 221.709 46.5176C221.546 45.834 221.644 45.1667 222.002 44.5156C222.425 43.7344 223.092 43.2949 224.004 43.1973H241.631C242.412 43.1973 242.803 42.8066 242.803 42.0254V40.9512C242.803 40.1699 242.412 39.7793 241.631 39.7793H228.154C226.852 39.4863 226.152 38.7702 226.055 37.6309C225.99 36.9473 225.697 36.752 225.176 37.0449C224.232 37.5007 223.32 37.4681 222.441 36.9473C221.693 36.459 221.253 35.8405 221.123 35.0918C220.83 34.0501 221.172 33.0736 222.148 32.1621C225.241 29.8509 227.471 27.2467 228.838 24.3496C229.326 23.5684 229.18 23.0475 228.398 22.7871C227.259 22.1035 226.527 21.1107 226.201 19.8086V6.33203C226.689 4.44401 227.764 3.38607 229.424 3.1582ZM232.793 8.62695C232.272 8.82227 231.995 9.22917 231.963 9.84766C231.963 10.2057 232.337 10.3848 233.086 10.3848H257.5C258.281 10.3848 258.672 10.2057 258.672 9.84766C258.639 9.19661 258.232 8.75716 257.451 8.5293H234.307C233.525 8.5293 233.021 8.56185 232.793 8.62695ZM258.623 16.3418C258.623 15.9512 258.232 15.7559 257.451 15.7559H233.184C232.37 15.7559 231.963 15.9349 231.963 16.293C231.995 17.0742 232.386 17.5788 233.135 17.8066H257.451C258.2 17.5462 258.59 17.0579 258.623 16.3418ZM242.803 24.5449C242.803 23.6335 242.428 23.1777 241.68 23.1777H235.186C234.372 23.1777 234.079 23.3405 234.307 23.666C234.437 23.9915 234.535 24.431 234.6 24.9844C234.535 25.5378 234.893 25.8145 235.674 25.8145H241.631C242.412 25.8145 242.803 25.3913 242.803 24.5449ZM242.803 32.7969C242.803 31.7227 242.412 31.1855 241.631 31.1855H232.5C231.719 31.1855 230.97 31.5762 230.254 32.3574L229.521 33.1875C228.87 33.9688 228.936 34.3594 229.717 34.3594H241.631C242.412 34.3594 242.803 33.8385 242.803 32.7969ZM301.611 1.69336C302.393 1.66081 303.06 1.82357 303.613 2.18164C304.59 2.86523 305.013 3.71159 304.883 4.7207C304.883 5.53451 305.273 5.94141 306.055 5.94141H321.191C323.568 6.49479 324.382 7.86198 323.633 10.043C323.21 10.8893 322.412 11.3939 321.24 11.5566H316.26C315.479 11.5566 315.202 11.6543 315.43 11.8496C316.211 12.696 316.504 13.5911 316.309 14.5352L315.82 16.6348C315.625 17.416 315.885 18.1973 316.602 18.9785C319.759 22.5592 321.908 25.1471 323.047 26.7422C323.763 28.2721 323.421 29.5417 322.021 30.5508C320.524 31.2995 319.287 31.0391 318.311 29.7695C317.139 28.0443 315.918 26.3027 314.648 24.5449C314.03 23.7637 313.509 23.7637 313.086 24.5449C312.207 26.4655 311.035 28.2559 309.57 29.916C308.366 31.153 307.275 31.4785 306.299 30.8926C305.745 30.6322 305.469 30.7461 305.469 31.2344C305.469 31.7878 305.859 32.0645 306.641 32.0645H318.408C320.231 32.4551 321.045 33.5293 320.85 35.2871C320.752 36.5566 319.938 37.403 318.408 37.8262H306.689C305.876 37.8262 305.469 38.2168 305.469 38.998V42.2207C305.469 43.0345 305.859 43.4414 306.641 43.4414H321.387C322.168 43.5391 322.786 43.9134 323.242 44.5645C324.023 46.127 323.828 47.429 322.656 48.4707C322.331 48.7637 321.924 48.959 321.436 49.0566H285.059C283.952 48.8939 283.203 48.1615 282.812 46.8594C282.65 46.1107 282.764 45.4108 283.154 44.7598C283.675 43.946 284.375 43.5065 285.254 43.4414H298.535C299.316 43.4414 299.707 43.0508 299.707 42.2695V38.998C299.707 38.2168 299.316 37.8262 298.535 37.8262H287.939C286.442 37.5658 285.596 36.7357 285.4 35.3359C285.335 34.6523 285.498 33.9688 285.889 33.2852C286.41 32.5039 287.077 32.097 287.891 32.0645H298.535C299.316 32.0645 299.707 31.6087 299.707 30.6973C299.707 29.7533 299.561 29.4603 299.268 29.8184C298.682 30.4043 297.868 30.6484 296.826 30.5508C296.143 30.4857 295.54 30.0788 295.02 29.3301L292.871 25.5703C292.383 24.724 291.943 24.6751 291.553 25.4238C291.032 26.4329 290.218 27.6536 289.111 29.0859C287.874 30.9089 286.556 31.6901 285.156 31.4297C284.831 31.2995 284.635 31.625 284.57 32.4062C284.408 38.2331 283.317 43.36 281.299 47.7871C280.322 49.3171 279.085 49.7565 277.588 49.1055C276.416 48.4219 275.863 47.5267 275.928 46.4199C275.993 45.8014 276.204 45.1504 276.562 44.4668C277.832 40.9512 278.613 37.0449 278.906 32.748L279.102 29.3301V9.45703C279.167 8.80599 279.411 8.15495 279.834 7.50391C280.615 6.5599 281.559 6.03906 282.666 5.94141H297.949C298.73 5.94141 299.121 5.55078 299.121 4.76953C299.121 2.97917 299.951 1.95378 301.611 1.69336ZM285.791 11.5566C285.303 11.6868 284.977 11.9473 284.814 12.3379C284.749 12.5332 284.717 13.0215 284.717 13.8027V24.5449C284.717 25.3262 285.026 25.2936 285.645 24.4473C287.923 20.9967 289.307 17.4974 289.795 13.9492C289.893 13.2656 290.055 12.7122 290.283 12.2891C290.609 11.8008 290.381 11.5566 289.6 11.5566H285.791ZM299.756 12.7285C300.016 11.9473 299.756 11.5566 298.975 11.5566H295.752C294.971 11.5566 294.743 11.8008 295.068 12.2891C295.426 13.5911 295.28 15.3327 294.629 17.5137C294.368 18.2949 294.531 19.0762 295.117 19.8574C296.387 21.5501 297.624 23.2591 298.828 24.9844C299.414 25.8307 299.707 25.8633 299.707 25.082V13.0215C299.74 12.9238 299.756 12.8262 299.756 12.7285ZM311.572 11.8984C311.898 11.6706 311.654 11.5566 310.84 11.5566H306.104C305.322 11.5566 305.062 11.8008 305.322 12.2891C305.42 12.7773 305.469 13.5098 305.469 14.4863V24.7891C305.469 25.5703 305.794 25.5866 306.445 24.8379C308.138 22.5592 309.342 20.0202 310.059 17.2207L310.84 13.3145C310.938 12.696 311.182 12.224 311.572 11.8984ZM333.857 3.25586H354.023C354.772 3.25586 355.439 3.69531 356.025 4.57422C356.188 5.02995 356.383 5.0625 356.611 4.67188C357.197 3.89062 357.93 3.48372 358.809 3.45117H372.725C373.376 3.51628 374.027 3.71159 374.678 4.03711C375.85 4.85091 376.468 5.92513 376.533 7.25977V21.9082C376.501 23.3405 375.671 24.4961 374.043 25.375C373.555 25.6029 373.066 25.7493 372.578 25.8145H363.789C363.268 25.8796 362.861 26.2214 362.568 26.8398C362.503 27.0026 362.471 27.4746 362.471 28.2559V40.5117C362.731 42.2695 363.675 43.181 365.303 43.2461C367.842 43.6367 369.925 43.5065 371.553 42.8555C372.269 42.5951 372.741 42.0579 372.969 41.2441C373.327 39.877 373.473 38.3633 373.408 36.7031C373.538 35.2057 374.401 34.2943 375.996 33.9688C377.656 33.8711 378.665 34.75 379.023 36.6055V40.2676C379.056 42.6764 378.535 44.6784 377.461 46.2734C376.159 47.6081 374.222 48.4056 371.65 48.666L370.088 48.8125H367.451C364.424 48.7474 361.82 48.2754 359.639 47.3965C357.946 46.485 357.018 44.9225 356.855 42.709V23.6172C356.953 22.9661 357.23 22.3151 357.686 21.6641C358.467 20.7852 359.313 20.2969 360.225 20.1992H369.209C370.316 20.0365 370.885 19.4342 370.918 18.3926V10.5801C370.885 9.79883 370.381 9.27799 369.404 9.01758H358.857C357.881 8.95247 357.1 8.51302 356.514 7.69922C356.318 7.21094 356.123 7.16211 355.928 7.55273C355.472 8.26888 354.854 8.69206 354.072 8.82227H350.264C349.45 8.82227 349.043 9.21289 349.043 9.99414V11.7031C349.043 12.5169 349.434 12.9238 350.215 12.9238H352.607C354.137 13.0866 355.146 14.0306 355.635 15.7559L355.732 16.1953V45.1992C355.505 46.8594 354.398 47.9824 352.412 48.5684H335.273C333.776 48.373 332.686 47.4128 332.002 45.6875C332.035 45.5898 332.018 45.4759 331.953 45.3457V16C332.214 14.4049 333.19 13.3796 334.883 12.9238H337.422C338.203 12.9238 338.594 12.5332 338.594 11.752V9.99414C338.594 9.21289 338.203 8.82227 337.422 8.82227H333.857C332.1 8.43164 331.286 7.35742 331.416 5.59961C331.611 4.33008 332.425 3.54883 333.857 3.25586ZM344.453 10.043C344.453 9.22917 344.258 8.82227 343.867 8.82227C343.411 8.82227 343.184 9.21289 343.184 9.99414V11.6543C343.184 12.4681 343.395 12.875 343.818 12.875C344.242 12.875 344.453 12.4844 344.453 11.7031V10.043ZM344.453 19.5156C344.453 18.7018 344.258 18.2949 343.867 18.2949C343.411 18.2949 343.184 18.6855 343.184 19.4668V22.8359C342.923 26.1562 342.451 28.7604 341.768 30.6484C341.117 32.6341 339.928 33.5781 338.203 33.4805C337.65 33.3177 337.373 33.6107 337.373 34.3594C337.373 35.1406 337.764 35.5312 338.545 35.5312H349.141C349.922 35.5312 350.312 35.0918 350.312 34.2129C350.312 33.3014 349.922 32.8457 349.141 32.8457C347.806 32.9108 346.797 32.8294 346.113 32.6016C345.202 32.1784 344.648 31.3971 344.453 30.2578V19.5156ZM350.117 18.9297C349.889 18.5391 349.564 18.3438 349.141 18.3438C349.076 18.3438 349.043 18.7344 349.043 19.5156V27.084C349.108 27.5072 349.385 27.8001 349.873 27.9629C350.166 27.9954 350.312 27.6211 350.312 26.8398V20.5898C350.312 19.8086 350.247 19.2552 350.117 18.9297ZM338.35 18.3926C337.992 18.4251 337.715 18.6042 337.52 18.9297C337.422 19.2227 337.373 19.7598 337.373 20.541V26.5469L337.422 27.8652C337.454 27.9303 337.52 27.9466 337.617 27.9141C338.236 26.5469 338.561 25.1146 338.594 23.6172V19.5645C338.594 18.7832 338.512 18.3926 338.35 18.3926ZM350.312 41.7812C350.345 41.2279 349.987 40.9512 349.238 40.9512H338.594C337.78 40.9512 337.373 41.1465 337.373 41.5371C337.243 42.0905 337.471 42.5951 338.057 43.0508C338.35 43.1484 338.887 43.1973 339.668 43.1973H349.189C349.938 42.9694 350.312 42.4974 350.312 41.7812ZM395.107 1.79102C396.149 1.33529 397.158 1.44922 398.135 2.13281C398.721 2.58854 399.046 3.17448 399.111 3.89062V12.4844C399.111 13.2982 399.404 13.7051 399.99 13.7051C400.609 13.7051 400.918 13.3145 400.918 12.5332V3.98828C401.048 2.62109 401.781 1.80729 403.115 1.54688C404.808 1.35156 405.882 2.14909 406.338 3.93945V12.4844C406.338 13.2982 406.729 13.7051 407.51 13.7051H409.512C410.488 13.7051 411.253 13.7702 411.807 13.9004C412.393 14.2585 412.767 14.0469 412.93 13.2656C413.385 12.3216 414.069 11.7845 414.98 11.6543H422.793C423.574 11.6543 423.965 11.2637 423.965 10.4824V4.47656C424.095 3.69531 424.372 3.04427 424.795 2.52344C425.902 1.44922 427.155 1.31901 428.555 2.13281C429.368 2.78385 429.759 3.53255 429.727 4.37891V10.4336C429.727 11.2474 430.117 11.6543 430.898 11.6543C433.079 11.4915 434.202 12.4355 434.268 14.4863C434.333 15.2025 434.072 15.8535 433.486 16.4395C432.835 17.0905 431.989 17.3509 430.947 17.2207C430.133 17.2207 429.727 17.6113 429.727 18.3926V44.7598C429.694 45.4434 429.531 46.0944 429.238 46.7129C428.945 47.3965 428.392 48.015 427.578 48.5684C426.341 49.2194 425.039 49.5938 423.672 49.6914C421.589 49.8867 419.375 49.7402 417.031 49.252C414.362 48.6009 413.385 47.2174 414.102 45.1016C414.915 43.4414 416.071 42.8717 417.568 43.3926C419.261 43.7507 420.889 43.9297 422.451 43.9297C423.33 43.8971 423.835 43.4089 423.965 42.4648V18.3926C423.965 17.6113 423.574 17.2207 422.793 17.2207H416.641C415.664 17.2207 414.867 17.123 414.248 16.9277C413.662 16.5697 413.337 16.5859 413.271 16.9766C412.816 18.3112 412.067 19.0111 411.025 19.0762H409.561C408.779 19.0762 408.258 19.4668 407.998 20.248C407.77 20.834 407.575 21.4362 407.412 22.0547C407.217 22.8359 407.51 23.2266 408.291 23.2266C409.398 23.1289 410.277 23.2103 410.928 23.4707C411.676 23.8288 412.116 24.4147 412.246 25.2285C412.409 25.9447 412.344 26.5957 412.051 27.1816C411.562 28.0931 410.911 28.5814 410.098 28.6465H404.141C403.327 28.6465 402.92 29.0371 402.92 29.8184V31.4297C402.92 32.2435 403.311 32.6504 404.092 32.6504H409.023C410.326 32.7806 411.074 33.4316 411.27 34.6035C411.465 35.3197 411.383 36.0033 411.025 36.6543C410.635 37.403 409.984 37.8587 409.072 38.0215H404.141C403.327 38.0215 402.92 38.4121 402.92 39.1934V40.8047C402.92 41.5859 403.311 41.8952 404.092 41.7324C406.077 41.2767 407.965 40.7396 409.756 40.1211C410.7 39.9258 411.53 40.1048 412.246 40.6582C413.092 41.5697 413.402 42.5462 413.174 43.5879C413.141 44.1087 412.816 44.5807 412.197 45.0039C410.602 45.8828 408.649 46.5501 406.338 47.0059C401.878 47.9824 397.142 48.666 392.129 49.0566H389.59C388.809 48.959 388.158 48.8451 387.637 48.7148C386.855 48.3568 386.383 47.8034 386.221 47.0547C385.96 45.9805 386.172 45.0039 386.855 44.125C387.279 43.7018 387.865 43.4577 388.613 43.3926C390.762 43.3926 393.268 43.2461 396.133 42.9531C396.914 42.8555 397.305 42.416 397.305 41.6348V39.1934C397.305 38.4121 396.914 38.0215 396.133 38.0215H389.883C389.232 37.9564 388.662 37.6634 388.174 37.1426C387.295 35.6126 387.425 34.2943 388.564 33.1875C388.857 32.9271 389.313 32.748 389.932 32.6504H396.133C396.914 32.6504 397.305 32.2598 397.305 31.4785V29.8184C397.305 29.0371 396.914 28.6465 396.133 28.6465H389.443C387.816 28.2559 387.067 27.2467 387.197 25.6191C387.36 24.4473 388.06 23.666 389.297 23.2754C389.948 23.2103 390.615 23.194 391.299 23.2266C392.08 23.2266 392.373 22.8359 392.178 22.0547L391.689 20.248C391.494 19.4668 391.006 19.0762 390.225 19.0762C388.988 19.1738 388.044 19.0762 387.393 18.7832C386.351 18.0345 385.895 17.0742 386.025 15.9023C386.416 14.5352 387.197 13.8027 388.369 13.7051H392.52C393.301 13.7051 393.691 13.3145 393.691 12.5332V3.98828C393.789 2.94661 394.261 2.21419 395.107 1.79102ZM409.902 4.28125C410.814 3.5651 411.872 3.54883 413.076 4.23242C414.15 4.98112 414.508 5.92513 414.15 7.06445C413.857 8.23633 413.304 9.53841 412.49 10.9707C411.416 12.7285 410.212 13.4121 408.877 13.0215C407.152 12.4681 406.501 11.3939 406.924 9.79883C407.119 9.24544 407.461 8.5944 407.949 7.8457C408.34 7.19466 408.633 6.54362 408.828 5.89258C409.023 5.30664 409.382 4.76953 409.902 4.28125ZM387.734 4.08594C389.036 3.5 390.16 3.77669 391.104 4.91602C392.243 7.0319 392.845 9.01758 392.91 10.873C392.878 11.459 392.65 11.931 392.227 12.2891C391.283 13.168 390.306 13.3796 389.297 12.9238C388.483 12.4681 387.995 11.8984 387.832 11.2148C387.474 9.84766 387.035 8.54557 386.514 7.30859C385.993 6.07161 386.4 4.9974 387.734 4.08594ZM402.285 20.2969C402.546 19.4831 402.301 19.0762 401.553 19.0762H398.135C397.354 19.0762 397.044 19.4668 397.207 20.248L397.646 22.1035C397.874 22.8848 398.379 23.2754 399.16 23.2754H400.186C400.967 23.2754 401.488 22.8848 401.748 22.1035L402.285 20.2969ZM414.15 19.6621C415.745 18.8483 417.015 19.2552 417.959 20.8828C420.075 25.9284 421.458 30.1602 422.109 33.5781C422.305 34.457 422.142 35.1895 421.621 35.7754C421.165 36.3288 420.579 36.6543 419.863 36.752C418.301 36.9147 417.259 36.0684 416.738 34.2129C415.924 30.9251 414.622 27.0189 412.832 22.4941C412.539 21.485 412.979 20.541 414.15 19.6621Z" fill="#FED27B"/>
</svg>
