<?xml version="1.0" encoding="utf-8"?>
<!-- Generator: Adobe Illustrator 25.0.0, SVG Export Plug-In . SVG Version: 6.00 Build 0)  -->
<svg version="1.1" id="圖層_1" xmlns="http://www.w3.org/2000/svg" xmlns:xlink="http://www.w3.org/1999/xlink" x="0px" y="0px"
	 viewBox="0 0 1280 1350" style="enable-background:new 0 0 1280 1350;" xml:space="preserve">
<style type="text/css">
	.st0{fill-rule:evenodd;clip-rule:evenodd;fill:url(#SVGID_1_);}
	.st1{fill:none;stroke:#F5F5F5;stroke-width:5;}
	.st2{fill:none;stroke:#F5F5F5;stroke-width:4;}
	.st3{fill-rule:evenodd;clip-rule:evenodd;fill:url(#SVGID_2_);}
</style>
<linearGradient id="SVGID_1_" gradientUnits="userSpaceOnUse" x1="845.9128" y1="998.0591" x2="-119.5041" y2="573.584" gradientTransform="matrix(1 0 0 -1 0 1347.8898)">
	<stop  offset="0.2124" style="stop-color:#FFF7EC"/>
	<stop  offset="0.5538" style="stop-color:#FFE8E5;stop-opacity:0.67"/>
	<stop  offset="1" style="stop-color:#FFC9C3"/>
</linearGradient>
<path class="st0" d="M735,322.8c29.2-26.6,98.3-91.4,107.9-113.3c7-16-38.8,16.2-87.5,50.3c-6.8,4.7-13.6,9.5-20.3,14.2
	c17.3-20,36-44.4,43.4-62.2c11.6-27.8-2.8-18.9-11.4-11c-20.5,21.2-57.5,57.9-92.5,89.2l3.6-6.7c5.6-8.5,16.5-30.9,15.2-52.9
	c-1.2-22-25.7,22-37.8,46.8c-8.3,14.1-20.8,35.1-33.7,55.8c-2.1,1.4-4.1,2.8-6,4c-19.8,12.7-33.8,23.6-43.3,32.2
	c-10.2,6-20.3,12-30.1,17.9c-24.3,14.6-47,28.3-66.1,36.9c-38.3,17.3-183,33.1-309.5,47C82.7,480.4,6.7,488.7-24.5,496v244
	c11.3-8.9,131.6-55.2,244.5-98.7c87.8-33.8,171.2-65.9,195.2-77.3c68.5-32.6,85.9-40.3,161.9-20.3c60.3,15.9,98.2,53.3,121.7,76.4
	c19.3,19,28.7,28.3,32.8,8.2c7.4-36.6-25.3-67.3-55.8-95.8c-6.7-6.3-13.3-12.4-19.3-18.5c-33.4-33.9-36.2-49.8-33.8-74.3
	c2.5-24.6,26.9-33.8,38.6-36.6c7.3-1.7,13.1-8.3,17.8-13.7c2.9-3.2,5.3-6,7.4-6.9c1.8-0.8,4.8-1,8.4-1.2c7.3-0.4,16.8-0.9,22.9-7.4
	c9.1-9.6,34.5-8.3,52.5,8.3c5.7,5.3,11.9,13.5,17.9,21.4c12.7,16.8,24.1,32,27,13C819.2,390.4,801,339.7,735,322.8z"/>
<path class="st1" d="M735.5,274l-65,47.5"/>
<path class="st1" d="M622,333c8-6.5,48-39,53.5-44"/>
<path class="st2" d="M733,322.5c-18.2-3.8-66.1-8.4-112,11.5"/>
<linearGradient id="SVGID_2_" gradientUnits="userSpaceOnUse" x1="921.4874" y1="945.3763" x2="1228.1704" y2="127.3763" gradientTransform="matrix(1 0 0 -1 0 1347.8898)">
	<stop  offset="0.2124" style="stop-color:#FFF7EC"/>
	<stop  offset="0.5344" style="stop-color:#FFE8E5;stop-opacity:0"/>
</linearGradient>
<path class="st3" d="M1046.1,470c1-39.5,4.9-134.1,15.2-155.7c7.5-15.8,13.1,39.9,19,99.1v0c0.8,8.2,1.7,16.5,2.5,24.6
	c3.9-26.1,10.1-56.2,18.7-73.5c13.5-26.9,16.1-10.3,15.8,1.4c-2.7,29.4-6.3,81.4-7.1,128.3l2.7-7.2c2.8-9.8,12.7-32.7,30.1-46.1
	c17.4-13.4,0.1,33.9-10.7,59.2c-5.3,15.5-12.9,38.7-20.2,62c0.3,2.5,0.6,4.9,0.9,7.2c3.3,23.3,4.2,41,3.9,53.8
	c2.2,11.6,4.2,23.2,6.1,34.5c4.8,28,9.3,54.1,15.2,74.2c13.7,46.3,64.2,133.6,106.3,206.6c18.9,32.7,36.1,62.5,47.7,84.5
	L1139.8,1164c-1.1-25.5-51.2-235.8-67.3-294.3c-20.1-73.2-25.6-91.4-90.4-135.9c-51.4-35.3-104.5-39.5-137.3-42.2
	c-27-2.2-40.2-3.2-27.6-19.5c22.9-29.5,67.5-24.8,108.9-20.3c9.1,1,18.1,1.9,26.7,2.5c47.5,3.2,61.4-5.1,78.4-23
	c17-17.9,8.1-42.5,2.5-53.2c-3.5-6.7-2.3-15.4-1.3-22.4c0.6-4.3,1.1-7.9,0.4-10.1c-0.6-1.9-2.4-4.3-4.6-7.1
	c-4.4-5.8-10.3-13.3-9.4-22.2c1.3-13.2-16.3-31.5-40.6-34.3c-7.7-0.9-18-0.2-27.9,0.4c-21,1.4-40,2.7-27.5-12
	C939.8,450.4,990.2,431.1,1046.1,470z"/>
<path class="st1" d="M1082.7,437.7l6.5,80.2"/>
<path class="st1" d="M1112.2,562.2c-0.3-10.3-1.8-61.8-1.6-69.2"/>
<path class="st2" d="M1047.6,471.3c14.8,11.3,49.5,44.5,64.5,92.3"/>
</svg>
