<svg width="2000" height="1125" viewBox="0 0 2000 1125" fill="none" xmlns="http://www.w3.org/2000/svg">
<path d="M1620.1 78.8418L1579.92 137.044C1524.9 216.752 1431.29 260.748 1334.81 252.247C1241.73 244.046 1150.61 285.301 1094.83 360.269C1027.15 451.224 909.622 491.417 800.68 460.034L693.776 429.239C602.548 402.959 506.587 452.016 474.464 541.355L465.214 567.083C435.482 649.774 342.694 690.861 261.483 657.296C203.503 633.333 136.782 646.939 92.815 691.692L62.8206 722.222C14.9486 770.948 -7.24994 839.335 2.87726 906.888L4.64032 918.649C33.1414 1108.76 261.648 1190.86 404.626 1062.36L575.384 908.884L585.626 901.48C684.512 829.983 816.851 825.506 920.343 890.157L996.301 937.607C1097.86 1001.05 1227.43 998.021 1325.91 929.897L1366.44 901.859C1430.3 857.688 1508.79 839.995 1585.42 852.498L1688.83 869.371C1872.78 879.166 2020.64 719.894 1997.22 537.181L1948.71 158.685C1934.33 46.538 1821.83 -25.1501 1714.11 9.19576C1675.93 21.3688 1642.87 45.8634 1620.1 78.8418Z" fill="url(#paint0_linear_61_542)"/>
<defs>
<linearGradient id="paint0_linear_61_542" x1="1529.23" y1="-225.568" x2="950.548" y2="1077.63" gradientUnits="userSpaceOnUse">
<stop stop-color="#FFA79D"/>
<stop offset="0.440625" stop-color="#FFECD0"/>
<stop offset="0.883333" stop-color="#FFF4E4"/>
</linearGradient>
</defs>
</svg>
