<svg width="93" height="31" viewBox="0 0 93 31" fill="none" xmlns="http://www.w3.org/2000/svg">
<path d="M2 24.5L2.15751 24.3184C6.86159 18.8963 15.3229 18.984 19.9573 24.4659V24.4659C24.6007 29.9584 33.0962 29.9925 37.7396 24.5V24.5C42.383 19.0075 50.8497 19.0075 55.4931 24.5V24.5C60.1364 29.9925 68.6031 29.9925 73.2465 24.5V24.5C77.8899 19.0075 86.3566 19.0075 91 24.5V24.5" stroke="#FED27B" stroke-width="4" stroke-linecap="round"/>
<path d="M2 6.5L2.15751 6.31845C6.86159 0.896255 15.3229 0.984025 19.9573 6.4659V6.4659C24.6007 11.9584 33.0962 11.9925 37.7396 6.5V6.5C42.383 1.00749 50.8497 1.00749 55.4931 6.5V6.5C60.1364 11.9925 68.6031 11.9925 73.2465 6.5V6.5C77.8899 1.00749 86.3566 1.00749 91 6.5V6.5" stroke="#FFA79D" stroke-width="4" stroke-linecap="round"/>
</svg>
