<svg width="32" height="32" viewBox="0 0 32 32" fill="none" xmlns="http://www.w3.org/2000/svg">
<g clip-path="url(#clip0_399_1401)">
<rect width="32" height="32" rx="16" fill="url(#paint0_linear_399_1401)"/>
<path fill-rule="evenodd" clip-rule="evenodd" d="M16 32C24.8366 32 32 24.8366 32 16C32 7.16344 24.8366 0 16 0C7.16344 0 0 7.16344 0 16C0 24.8366 7.16344 32 16 32ZM9.53808 23.1277C9.89742 23.487 10.3292 23.6667 10.8333 23.6667H21.8333C22.3369 23.6673 22.7683 23.4879 23.1277 23.1286C23.487 22.7692 23.6667 22.3375 23.6667 21.8333V19.0833H21.8333V21.8333H10.8333V19.0833H9V21.8333C8.99939 22.3369 9.17875 22.7683 9.53808 23.1277ZM11.75 15.4167L16.3333 20L20.9167 15.4167L19.6333 14.0875L17.25 16.4708V9H15.4167V16.4708L13.0333 14.0875L11.75 15.4167Z" fill="white"/>
</g>
<defs>
<linearGradient id="paint0_linear_399_1401" x1="27.0476" y1="24.7619" x2="3.42857" y2="6.47619" gradientUnits="userSpaceOnUse">
<stop stop-color="#FFA79D"/>
<stop offset="1" stop-color="#FCF8BF"/>
</linearGradient>
<clipPath id="clip0_399_1401">
<rect width="32" height="32" rx="16" fill="white"/>
</clipPath>
</defs>
</svg>
