<svg width="153" height="143" viewBox="0 0 153 143" fill="none" xmlns="http://www.w3.org/2000/svg">
<path d="M51.5927 120.667L27.2632 122.748L27.6266 120.862L51.9561 118.781L51.5927 120.667Z" fill="#FED27B"/>
<path d="M51.0886 87.3129L56.0737 79.1087L65.2829 84.7046L64.1612 86.5505L56.7159 82.0265L53.9243 86.6208L61.4516 91.1947L60.3798 92.9586L51.0886 87.3129ZM43.1319 78.5465L44.2785 76.6595L54.4927 82.866L53.3461 84.753L43.1319 78.5465ZM48.1531 80.0811L51.1816 75.097L52.9865 76.1938L49.9581 81.1778L48.1531 80.0811ZM58.2742 90.4154L62.1004 84.1187L63.8848 85.203L60.0587 91.4997L58.2742 90.4154ZM38.6239 90.4948L43.3823 93.3862L46.6351 88.033L41.8767 85.1416L38.6239 90.4948ZM36.3729 91.149L41.4577 82.7808L48.9235 87.3172L43.8387 95.6855L36.3729 91.149ZM39.6751 90.937L39.9649 89.9055C41.1407 90.1426 42.5744 90.6486 43.4117 91.0731L43.138 92.1706C42.2722 91.7006 40.8385 91.1946 39.6751 90.937ZM51.9949 97.4681L52.6321 96.1422C53.8972 96.602 55.4363 97.3968 56.3878 98.0031L55.7338 99.403C54.8072 98.7557 53.2476 97.9485 51.9949 97.4681ZM53.258 95.3431L53.7553 94.0164C55.0506 94.2418 56.6821 94.6995 57.6468 95.1454L57.1532 96.5585C56.1804 96.0797 54.5614 95.6014 53.258 95.3431ZM54.4758 93.2466L54.7804 91.7748C56.1593 91.7701 57.8414 92.0059 58.8809 92.3287L58.58 93.887C57.5734 93.5562 55.8627 93.2749 54.4758 93.2466ZM50.356 99.0559L51.6254 98.0299C52.768 99.0612 54.1186 100.444 54.7416 101.637L53.3323 102.662C52.7422 101.461 51.4701 100.042 50.356 99.0559ZM41.893 86.6399L42.8978 85.8182C43.699 86.8105 44.7214 87.9935 45.2889 88.8157L44.5282 89.4206C43.8537 88.5895 42.6957 87.3524 41.893 86.6399ZM44.9704 96.4574L50.13 87.9661L51.6478 88.8883L46.4881 97.3797L44.9704 96.4574ZM39.1684 88.0735L39.9162 86.8429L46.0693 90.5817L46.2188 90.3356L51.5515 93.576L50.5047 95.2988L45.172 92.0585L45.3215 91.8124L39.1684 88.0735ZM47.6255 98.6044L53.184 89.4567L54.6812 90.3665L49.1228 99.5142L47.6255 98.6044Z" fill="#FED27B"/>
<path d="M61.4594 60.9253L73.0123 50.9494L74.1574 52.2754L62.6045 62.2514L61.4594 60.9253ZM66.9496 64.4925L75.5779 57.0419L76.6602 58.2952L68.0319 65.7458L66.9496 64.4925ZM64.9105 62.131L73.5388 54.6804L74.6054 55.9156L65.9771 63.3662L64.9105 62.131ZM71.5192 66.9202L73.1976 68.8638L78.8287 64.0013L77.1504 62.0577L71.5192 66.9202ZM68.8202 67.0628L77.7756 59.3298L81.6342 63.7984L72.6789 71.5314L68.8202 67.0628ZM63.9995 55.7513L65.0465 53.7691C66.005 53.9244 67.3078 54.258 68.0534 54.5339L66.9782 56.6672C66.2872 56.3443 64.9869 55.9768 63.9995 55.7513ZM56.0225 63.3688L56.6377 61.474C58.2262 61.6244 60.2317 61.8904 61.3834 62.196L60.8911 64.2699C59.7419 63.9305 57.6085 63.553 56.0225 63.3688ZM58.4083 67.27L62.3319 63.882L63.5397 65.2807L59.616 68.6687L58.4083 67.27ZM68.8685 72.4434C72.0083 73.9496 74.5455 72.2977 78.0307 69.3199C79.9381 67.6729 82.6595 65.1327 84.462 63.2909C84.5239 63.8399 84.9779 64.8431 85.2949 65.3938C83.6088 67.04 81.3333 69.0684 79.2806 70.8408C75.0482 74.4955 72.2682 75.9765 68.1633 73.9402L68.8685 72.4434ZM65.6613 68.8393L66.0609 68.4942L66.3202 68.2069L67.4224 67.7942C70.2085 72.2693 70.9596 76.1869 70.0652 79.3374C69.5648 79.1987 68.4841 79.0855 67.9532 79.1317C68.8616 76.2545 68.2295 72.805 65.8965 69.1118L65.6613 68.8393ZM63.9692 73.1225L62.8869 71.8691L63.2816 70.8941L66.188 68.3844L67.3463 69.7625L64.8395 71.9271C64.3854 72.3192 63.9891 72.8517 63.9692 73.1225ZM63.9692 73.1225C63.5465 72.8533 62.5608 72.3727 62.1149 72.1869C62.3428 71.8633 62.5237 71.4852 62.5369 70.8395C62.6295 69.8083 62.2847 65.9204 62.0553 64.4062L62.0082 64.3517L62.308 63.7441L63.837 63.3116C64.0317 65.2997 64.3551 69.0159 64.3393 71.0907C64.3393 71.0907 63.6241 72.7229 63.9692 73.1225Z" fill="#FED27B"/>
<path d="M95.4763 38.4554L97.4218 37.6334L104.764 55.0099L102.819 55.8319L95.4763 38.4554ZM95.1886 44.804L96.2815 47.3906L103.312 44.4201L102.219 41.8335L95.1886 44.804ZM93.4138 40.6036L94.4787 43.1238L101.509 40.1533L100.444 37.6331L93.4138 40.6036ZM90.778 39.6069L101.677 35.0016L106.049 45.348L95.1497 49.9532L90.778 39.6069ZM96.1221 52.0696L107.11 47.427L107.885 49.2619L96.8974 53.9045L96.1221 52.0696ZM97.1867 57.1172L109.832 51.7741L110.617 53.6311L97.9714 58.9743L97.1867 57.1172ZM89.2286 51.7255L90.0837 48.4461L95.268 60.7158L93.3668 61.5191L89.2286 51.7255ZM92.2826 47.3607L94.0063 47.9872C93.534 49.1508 93.0676 50.39 92.6379 51.2229L91.3799 50.7123C91.6966 49.7969 92.1045 48.2957 92.2826 47.3607ZM83.5601 46.0177L89.6396 43.4489L90.443 45.3501L84.3634 47.919L83.5601 46.0177ZM90.3041 49.7078C91.1881 50.0117 94.4672 51.5443 95.2372 51.9485L94.8418 54.0957C93.68 53.2578 90.9527 51.6744 89.7331 51.0694L90.3041 49.7078ZM89.0206 43.7104L89.3965 43.5516L89.6907 43.3231L91.1289 43.7055C91.3105 48.2665 90.0933 53.3403 88.4001 56.6091C88.0024 56.0997 87.0584 55.2219 86.6343 54.9582C88.2652 52.1586 89.4005 47.6926 89.1981 44.1305L89.0206 43.7104ZM84.3771 42.1551L85.4788 40.5693C86.5471 41.1861 87.8066 42.0088 88.5221 42.5923L87.4289 44.383C86.7168 43.7459 85.4106 42.8128 84.3771 42.1551Z" fill="#FED27B"/>
<path d="M126.176 54.1498L131.804 30.382L133.698 30.2983L128.094 54.065L126.176 54.1498Z" fill="#FED27B"/>
</svg>
