<svg width="51" height="51" viewBox="0 0 51 51" fill="none" xmlns="http://www.w3.org/2000/svg">
<path d="M25.4997 17.1666L17.1663 25.4999L25.4997 33.8332L28.4163 30.9166L25.083 27.5832L33.833 27.5832L33.833 23.4166L25.083 23.4166L28.4163 20.0832L25.4997 17.1666ZM25.4997 4.66657C28.3816 4.66657 31.0899 5.21379 33.6247 6.30824C36.1594 7.40268 38.3643 8.88671 40.2393 10.7603C42.1143 12.6353 43.5983 14.8402 44.6913 17.3749C45.7844 19.9096 46.3316 22.618 46.333 25.4999C46.333 28.3819 45.7858 31.0902 44.6913 33.6249C43.5969 36.1596 42.1129 38.3645 40.2393 40.2395C38.3643 42.1145 36.1594 43.5985 33.6247 44.6916C31.0899 45.7846 28.3816 46.3319 25.4997 46.3333C22.6177 46.3332 19.9094 45.786 17.3747 44.6916C14.8399 43.5971 12.6351 42.1131 10.7601 40.2395C8.88508 38.3645 7.40036 36.1596 6.30592 33.6249C5.21147 31.0902 4.66494 28.3819 4.66633 25.4999C4.66633 22.618 5.21355 19.9096 6.308 17.3749C7.40244 14.8402 8.88647 12.6353 10.7601 10.7603C12.6351 8.88532 14.8399 7.4006 17.3747 6.30616C19.9094 5.21171 22.6177 4.66518 25.4997 4.66657Z" fill="#FFA79D"/>
</svg>
