<svg width="120" height="132" viewBox="0 0 120 132" fill="none" xmlns="http://www.w3.org/2000/svg">
<path d="M58.3673 0.0185792C1.18679 1.0838 -3.40177 44.8467 1.45151 66.5951C6.30525 89.6748 25.8075 135.035 64.9868 131.84C104.166 128.644 117.49 87.0117 119.255 66.5951C122.785 43.9591 115.548 -1.04664 58.3673 0.0185792Z" fill="#ADEBFF"/>
<path d="M82.1938 63.1001C82.1938 62.824 81.97 62.6001 81.6938 62.6001H77.4192C77.1354 62.6001 76.9083 62.3642 76.9217 62.0807C77.2593 54.9408 78.8249 47.9053 81.5033 41.2755C81.6061 41.0209 81.4869 40.7301 81.2339 40.6233L77.3619 38.9877C77.1067 38.88 76.8124 39.0001 76.7076 39.2564C73.7323 46.5314 72.014 54.2642 71.6268 62.1213C71.6136 62.3889 71.3935 62.6001 71.1256 62.6001H50.9063C50.6383 62.6001 50.4182 62.3887 50.4051 62.1211C50.0202 54.2508 48.2946 46.5336 45.3221 39.2525C45.2181 38.9977 44.9266 38.8769 44.6721 38.9816L40.6754 40.6244C40.4182 40.7301 40.2969 41.0251 40.403 41.2821C43.1285 47.8847 44.7192 54.9167 45.1063 62.0773C45.1217 62.362 44.8941 62.6001 44.6089 62.6001H40.3379C40.0617 62.6001 39.8379 62.824 39.8379 63.1001V67.4262C39.8379 67.7024 40.0617 67.9262 40.3379 67.9262H44.6118C44.8959 67.9262 45.123 68.1626 45.1093 68.4463C44.7627 75.5916 43.214 82.6261 40.5292 89.2505C40.426 89.5052 40.5452 89.7964 40.7983 89.9033L44.6695 91.5385C44.9248 91.6463 45.2192 91.5259 45.324 91.2694C48.2953 83.9896 50.0203 76.2739 50.4051 68.4053C50.4182 68.1376 50.6383 67.9262 50.9063 67.9262H71.1254C71.3934 67.9262 71.6135 68.1376 71.6266 68.4053C72.0115 76.2755 73.7371 83.9927 76.7096 91.2738C76.8136 91.5287 77.1051 91.6494 77.3596 91.5448L81.3563 89.902C81.6135 89.7963 81.7348 89.5012 81.6287 89.2442C78.9032 82.6417 77.3125 75.6096 76.9254 68.4491C76.91 68.1643 77.1376 67.9262 77.4228 67.9262H81.6938C81.97 67.9262 82.1938 67.7024 82.1938 67.4262V63.1001Z" fill="white"/>
</svg>
