<svg width="132" height="132" viewBox="0 0 132 132" fill="none" xmlns="http://www.w3.org/2000/svg">
<path d="M12.7897 33.1184C-9.10002 60.4091 7.31729 89.0644 18.2622 99.9807C38.7836 123.178 59.3056 130 70.2505 130C81.1953 130 111.294 125.906 123.607 93.1575C135.92 60.4086 130.447 27.6602 107.189 11.2858C83.9316 -5.08867 40.1519 -0.995058 12.7897 33.1184Z" fill="white" fill-opacity="0.9" stroke="#FED27B" stroke-width="3"/>
<path d="M86.7162 85.4727C86.4039 85.3207 86.3505 84.9014 86.5865 84.6466C89.8429 81.1308 89.8429 75.0963 89.8429 72.2745C89.8429 69.6119 88.7852 67.0584 86.9025 65.1757C85.0198 63.293 82.4663 62.2353 79.8037 62.2353C78.3411 62.2353 76.8785 62.5832 75.5607 63.2211C75.2109 63.3904 74.7841 63.1463 74.7841 62.7577V52.1961C74.7841 50.1992 73.9908 48.284 72.5788 46.872C71.1668 45.46 69.2516 44.6667 67.2547 44.6667C65.5243 44.6667 63.9 45.2818 62.5766 46.3364C62.3777 46.495 62.0929 46.4945 61.8937 46.3362C60.5668 45.2823 58.9187 44.7044 57.2155 44.7044C55.5138 44.7044 53.8671 45.2813 52.5408 46.3334C52.34 46.4927 52.0527 46.4917 51.8532 46.3307C50.6567 45.3652 49.2023 44.7876 47.6759 44.6837C47.4004 44.6649 47.1763 44.8905 47.1763 45.1667V49.1863C47.1763 49.4624 47.4023 49.6813 47.673 49.7359C48.1536 49.833 48.5991 50.0696 48.951 50.4214C49.4216 50.8921 49.6861 51.5305 49.6861 52.1961V76.7941C49.6861 77.0703 49.9099 77.2941 50.1861 77.2941H54.2057C54.4818 77.2941 54.7057 77.0703 54.7057 76.7941V52.1961C54.7057 51.5305 54.9701 50.8921 55.4408 50.4214C55.9115 49.9507 56.5498 49.6863 57.2155 49.6863C57.8811 49.6863 58.5195 49.9507 58.9902 50.4214C59.4609 50.8921 59.7253 51.5305 59.7253 52.1961V76.7941C59.7253 77.0703 59.9491 77.2941 60.2253 77.2941H64.2449C64.521 77.2941 64.7449 77.0703 64.7449 76.7941V52.1961C64.7449 51.5305 65.0093 50.8921 65.48 50.4214C65.9507 49.9507 66.5891 49.6863 67.2547 49.6863C67.9203 49.6863 68.5587 49.9507 69.0294 50.4214C69.5001 50.8921 69.7645 51.5305 69.7645 52.1961V72.2745C69.7645 75.0963 69.7645 81.1308 73.0209 84.6466C73.257 84.9014 73.2035 85.3207 72.8912 85.4727C71.2395 86.2769 69.4877 86.8852 67.6645 87.2546C67.4277 87.3025 67.2547 87.509 67.2547 87.7506V91.8529C67.2547 92.1291 67.4767 92.354 67.7519 92.3308C71.0195 92.055 76.7162 89.2723 79.5722 87.7809C79.7181 87.7047 79.8893 87.7047 80.0352 87.7809C82.8912 89.2723 88.588 92.055 91.8555 92.3308C92.1307 92.354 92.3527 92.1291 92.3527 91.8529V87.7506C92.3527 87.509 92.1798 87.3025 91.9429 87.2546C90.1198 86.8852 88.3679 86.2769 86.7162 85.4727ZM79.8037 67.2549C81.135 67.2549 82.4118 67.7838 83.3531 68.7251C84.2945 69.6665 84.8233 70.9432 84.8233 72.2745C84.8233 79.6031 83.468 82.3137 79.8037 82.3137C76.1394 82.3137 74.7841 79.6031 74.7841 72.2745C74.7841 70.9432 75.313 69.6665 76.2543 68.7251C77.1957 67.7838 78.4724 67.2549 79.8037 67.2549Z" fill="#FED27B"/>
</svg>
