<svg width="137" height="127" viewBox="0 0 137 127" fill="none" xmlns="http://www.w3.org/2000/svg">
<path d="M54.8198 2.0274C-2.45715 3.0705 -1.7812 55.4838 5.35335 80.2597C11.3599 101.119 31.5207 128.688 69.1393 124.591C129.012 118.07 138.125 68.5216 134.219 51.5714C133.018 46.3584 126.416 0.723533 54.8198 2.0274Z" fill="white" fill-opacity="0.9" stroke="#FED27B" stroke-width="3"/>
<path d="M79.1868 55.931C78.8713 55.7222 78.871 55.2483 79.1865 55.0395C81.5739 53.4586 83.5593 51.3341 84.9773 48.835C86.4509 46.2379 87.264 43.3204 87.3487 40.3395C87.3566 40.0632 87.1319 39.839 86.8556 39.839H82.6491C82.3729 39.839 82.1501 40.063 82.1395 40.339C82.0141 43.6154 80.6597 46.7316 78.3363 49.0588C75.8951 51.504 72.584 52.8777 69.1316 52.8777C65.6791 52.8777 62.3681 51.504 59.9268 49.0588C57.6035 46.7316 56.249 43.6154 56.1236 40.339C56.1131 40.063 55.8902 39.839 55.6141 39.839H51.4071C51.1309 39.839 50.9064 40.0631 50.9139 40.3391C51.0771 46.2841 54.1419 51.7732 59.0805 55.0419C59.395 55.2501 59.3956 55.7224 59.0816 55.9314C50.9907 61.316 48.4475 72.1014 53.5106 80.5198C58.6395 89.1775 69.8345 91.9938 78.4781 86.7783C87.1217 81.6672 89.9596 70.4539 84.7526 61.7962C83.3644 59.4398 81.4597 57.4351 79.1868 55.931ZM69.1316 84.1706C65.6791 84.1706 62.3681 82.7969 59.9268 80.3517C57.4856 77.9064 56.1141 74.59 56.1141 71.1319C56.1141 67.6738 57.4856 64.3574 59.9268 61.9121C62.3681 59.4669 65.6791 58.0932 69.1316 58.0932C72.584 58.0932 75.8951 59.4669 78.3363 61.9121C80.7776 64.3574 82.1491 67.6738 82.1491 71.1319C82.1491 74.59 80.7776 77.9064 78.3363 80.3517C75.8951 82.7969 72.584 84.1706 69.1316 84.1706Z" fill="#FED27B"/>
</svg>
