<svg width="135" height="123" viewBox="0 0 135 123" fill="none" xmlns="http://www.w3.org/2000/svg">
<path d="M99.6969 115.402C143.965 101.011 136.556 57.2868 130.132 44.8335C123.71 32.3844 96.9209 -4.97946 55.4194 0.555306C1.66023 7.7248 -6.8328 69.74 4.23426 93.2628C15.3013 116.786 44.3615 133.39 99.6969 115.402Z" fill="#CAD6FF" fill-opacity="0.9"/>
<path d="M83.0031 45.5008C83.0031 45.2704 83.1606 45.07 83.3841 45.0141C86.825 44.1537 90.1724 43.0567 93.4481 41.7013C93.7012 41.5966 93.8209 41.3067 93.7173 41.0532L91.9926 36.8313C91.8874 36.5737 91.5921 36.4518 91.3349 36.5578C83.4298 39.8149 74.9636 41.4985 66.4109 41.5125C57.8566 41.5265 49.3835 39.8699 41.4666 36.6375C41.2107 36.533 40.9176 36.6537 40.8116 36.909L39.0915 41.0516C38.9861 41.3056 39.1055 41.5973 39.3596 41.7024C42.6344 43.0573 45.981 44.154 49.4209 45.0141C49.6444 45.07 49.8019 45.2704 49.8019 45.5008V81.7988C49.8019 82.0292 49.6444 82.2296 49.4209 82.2855C45.98 83.1459 42.6326 84.243 39.357 85.5983C39.1039 85.7031 38.9842 85.9929 39.0878 86.2465L40.8134 90.4707C40.9183 90.7274 41.212 90.8495 41.4689 90.7451C49.3864 87.5273 57.8532 85.8719 66.4025 85.8719C74.9519 85.8719 83.4187 87.5273 91.3362 90.7451C91.5931 90.8495 91.8868 90.7274 91.9916 90.4707L93.7173 86.2465C93.8209 85.9929 93.7012 85.7031 93.4481 85.5983C90.1724 84.243 86.825 83.1459 83.3841 82.2855C83.1606 82.2296 83.0031 82.0292 83.0031 81.7988V45.5008ZM55.3355 81.0844V46.7691C55.3355 46.4631 55.6078 46.229 55.9107 46.2727C59.3766 46.7722 62.8896 47.0455 66.4025 47.0455C69.9155 47.0455 73.4285 46.7722 76.8944 46.2727C77.1972 46.229 77.4696 46.4631 77.4696 46.7691V80.5287C77.4696 80.8354 77.1962 81.0696 76.8928 81.0252C69.7532 79.9795 62.4963 80.0071 55.3628 81.1078C55.3484 81.11 55.3355 81.0989 55.3355 81.0844Z" fill="white"/>
</svg>
