<svg width="140" height="128" viewBox="0 0 140 128" fill="none" xmlns="http://www.w3.org/2000/svg">
<path d="M36.6108 7.90702C-9.29701 22.8824 -1.61384 68.3844 5.04848 81.344C11.7085 94.2991 39.4896 133.182 82.5282 127.422C138.278 119.961 147.086 55.425 135.609 30.946C124.132 6.46698 93.9956 -10.8122 36.6108 7.90702Z" fill="#CAD6FF"/>
<path d="M80.0039 63.4499C79.8085 63.6461 79.4909 63.6461 79.2955 63.4499L71.3962 55.5213C71.2008 55.3252 70.8832 55.3252 70.6877 55.5213L62.7884 63.4499C62.593 63.6461 62.2754 63.6461 62.08 63.4499L54.1815 55.5221C53.9858 55.3257 53.6676 55.326 53.4723 55.5229L47.6102 61.4325C47.4149 61.6293 47.0967 61.6297 46.901 61.4333L43.5337 58.0535C43.3391 57.8582 43.3393 57.5423 43.5342 57.3472L53.4723 47.3991C53.6678 47.2034 53.985 47.2036 54.1802 47.3996L62.08 55.3287C62.2754 55.5248 62.593 55.5248 62.7884 55.3287L70.6877 47.4001C70.8832 47.2039 71.2008 47.2039 71.3962 47.4001L79.2955 55.3287C79.4909 55.5248 79.8085 55.5248 80.0039 55.3287L87.9037 47.3996C88.0989 47.2036 88.4161 47.2034 88.6116 47.3991L98.5497 57.3472C98.7446 57.5423 98.7448 57.8582 98.5502 58.0535L95.1829 61.4333C94.9872 61.6297 94.669 61.6293 94.4737 61.4325L88.6116 55.5229C88.4163 55.326 88.0981 55.3257 87.9024 55.5221L80.0039 63.4499ZM87.9024 72.8014C88.0981 72.605 88.4163 72.6053 88.6116 72.8022L94.4737 78.7118C94.669 78.9086 94.9872 78.909 95.1829 78.7125L98.5502 75.3328C98.7448 75.1375 98.7446 74.8215 98.5497 74.6265L88.6116 64.6784C88.4161 64.4827 88.0989 64.4829 87.9037 64.6789L80.0039 72.608C79.8085 72.8041 79.4909 72.8041 79.2955 72.608L71.3962 64.6794C71.2008 64.4832 70.8832 64.4832 70.6877 64.6794L62.7884 72.608C62.593 72.8041 62.2754 72.8041 62.08 72.608L54.1802 64.6789C53.985 64.4829 53.6678 64.4827 53.4723 64.6784L43.5342 74.6265C43.3393 74.8215 43.3391 75.1375 43.5337 75.3328L46.901 78.7125C47.0967 78.909 47.4149 78.9086 47.6102 78.7118L53.4723 72.8022C53.6676 72.6053 53.9858 72.605 54.1815 72.8014L62.08 80.7292C62.2754 80.9254 62.593 80.9254 62.7884 80.7292L70.6877 72.8006C70.8832 72.6045 71.2008 72.6045 71.3962 72.8006L79.2955 80.7292C79.4909 80.9254 79.8085 80.9254 80.0039 80.7292L87.9024 72.8014Z" fill="white"/>
</svg>
