<svg width="135" height="135" viewBox="0 0 135 135" fill="none" xmlns="http://www.w3.org/2000/svg">
<path d="M56.7055 133C25.8195 133 10.7442 105.34 7.06724 91.5106C-2.58465 59.7021 1.55188 30.6596 19.4768 15.4468C37.4017 0.234034 66.2654 -6.18505 109.101 19.5957C145.307 41.386 131.163 78.1418 120.132 95.6596C111.859 108.106 87.5916 133 56.7055 133Z" fill="white" fill-opacity="0.9" stroke="#FFA79D" stroke-width="4"/>
<path d="M88.9196 81.8297C88.6435 81.8297 88.4212 82.0538 88.4046 82.3295C88.2833 84.3479 87.4302 86.2592 85.9965 87.6972C84.445 89.2533 82.3408 90.1276 80.1466 90.1276C77.9876 90.0186 75.9459 89.1093 74.4173 87.5762C72.8975 86.0518 71.9927 84.0187 71.8755 81.867C71.8742 81.8422 71.8748 81.8173 71.8772 81.7926C72.32 77.3521 73.2562 72.9668 74.6312 68.7191C76.1204 63.9893 77.0304 59.1212 77.3889 54.1701C77.2941 50.5322 75.8109 47.0696 73.2454 44.4963C70.6798 41.923 67.2275 40.4355 63.6005 40.3403C59.9735 40.4355 56.5212 41.923 53.9556 44.4963C51.3901 47.0696 49.9069 50.5322 49.8121 54.1701C50.2258 58.402 51.1909 62.551 52.5698 66.6169L52.8776 67.6461C52.9928 68.0311 52.6269 68.3931 52.2351 68.304C46.6968 67.0449 41.0565 70.2394 39.3053 75.7446C37.4025 81.5808 40.6566 87.8042 46.4753 89.6573C52.294 91.5105 58.4712 88.2744 60.3189 82.4382C60.6774 81.3595 60.8428 80.1978 60.8428 79.0637C60.4016 74.2786 59.464 69.5488 57.837 65.0127C56.62 61.5126 55.7804 57.8919 55.3326 54.2125C55.3292 54.1843 55.3281 54.1558 55.3297 54.1274C55.4481 51.9777 56.3527 49.9467 57.8712 48.4236C59.3998 46.8905 61.4415 45.9812 63.6005 45.8722C68.0555 46.0929 71.6329 49.6692 71.8716 54.1326C71.873 54.1575 71.8723 54.1826 71.8698 54.2074C71.4202 58.6513 70.4969 63.0341 69.1159 67.2808C67.6267 72.0105 66.7167 76.8786 66.3582 81.8297C66.453 85.4676 67.9362 88.9302 70.5017 91.5035C73.0673 94.0768 76.5196 95.5644 80.1466 95.6595C83.8035 95.6595 87.3107 94.2024 89.8965 91.6088C92.3646 89.1333 93.8004 85.816 93.926 82.3297C93.936 82.0537 93.7112 81.8297 93.435 81.8297H88.9196ZM49.8121 84.5956C48.3493 84.5956 46.9465 84.0128 45.9122 82.9754C44.8778 81.938 44.2967 80.5309 44.2967 79.0637C44.2967 77.5966 44.8778 76.1895 45.9122 75.1521C46.9465 74.1146 48.3493 73.5318 49.8121 73.5318C51.2749 73.5318 52.6777 74.1146 53.7121 75.1521C54.7464 76.1895 55.3275 77.5966 55.3275 79.0637C55.3275 80.5309 54.7464 81.938 53.7121 82.9754C52.6777 84.0128 51.2749 84.5956 49.8121 84.5956Z" fill="#FFA79D"/>
</svg>
