<svg width="131" height="134" viewBox="0 0 131 134" fill="none" xmlns="http://www.w3.org/2000/svg">
<path d="M118.295 100.395C140.013 72.6782 123.724 43.5752 112.865 32.4883C92.5037 8.92822 72.1421 2.00001 61.2828 2.00001C50.4234 2.00001 20.5601 6.15758 8.34335 39.4182C-3.87344 72.6788 1.55625 105.939 24.6324 122.569C47.7085 139.199 91.1462 135.042 118.295 100.395Z" fill="white" fill-opacity="0.9" stroke="#FFA79D" stroke-width="3"/>
<path d="M74.9577 43.4893C72.1205 43.4893 69.3103 44.2361 66.8513 45.7297C66.0161 46.1809 65.2207 46.7749 64.4994 47.424C64.3007 47.6028 63.9977 47.6028 63.799 47.424C63.0777 46.7749 62.2823 46.1809 61.4471 45.7297C58.9881 44.2361 56.1779 43.4893 53.3407 43.4893C49.0408 43.4893 44.917 45.2377 41.8765 48.35C38.8361 51.4623 37.1279 55.6835 37.1279 60.085C37.1279 64.4865 38.8361 68.7077 41.8765 71.82C44.799 74.8114 48.7222 76.5429 52.8407 76.6729C53.1167 76.6816 53.3407 76.4569 53.3407 76.1807V71.6488C53.3407 71.3727 53.1167 71.1501 52.8408 71.137C50.1561 71.0099 47.6068 69.8623 45.6979 67.9083C43.6709 65.8334 42.5322 63.0193 42.5322 60.085C42.5322 57.1507 43.6709 54.3366 45.6979 52.2617C47.7249 50.1868 50.4741 49.0212 53.3407 49.0212C54.8745 49.0283 56.3896 49.367 57.7866 50.0153C59.1278 50.6377 60.3311 51.5318 61.3242 52.6431C61.4042 52.7326 61.4471 52.8489 61.4471 52.9689V98.3084C61.4471 98.5845 61.6709 98.8084 61.9471 98.8084H66.3513C66.6275 98.8084 66.8513 98.5845 66.8513 98.3084V52.9697C66.8513 52.8492 66.8946 52.7326 66.974 52.642C67.1501 52.4409 67.3296 52.2432 67.5269 52.0637C68.5571 51.0618 69.7702 50.2777 71.0968 49.7562C72.4234 49.2347 73.8374 48.9861 75.2579 49.0247C76.6785 49.0632 78.0776 49.3881 79.3754 49.9808C80.6731 50.5735 81.844 51.4223 82.8209 52.4786C84.7914 54.6061 85.8557 57.4477 85.7796 60.3784C85.7036 63.309 84.4936 66.0888 82.4156 68.1063C80.4854 69.9521 78.0538 71.016 75.4576 71.1372C75.1817 71.1501 74.9577 71.3727 74.9577 71.6488V76.1807C74.9577 76.4569 75.1817 76.6816 75.4577 76.6729C79.5762 76.5429 83.4994 74.8114 86.4219 71.82C89.4623 68.7077 91.1705 64.4865 91.1705 60.085C91.1705 55.6835 89.4623 51.4623 86.4219 48.35C83.3814 45.2377 79.2576 43.4893 74.9577 43.4893Z" fill="#FFA79D"/>
</svg>
