<svg width="132" height="127" viewBox="0 0 132 127" fill="none" xmlns="http://www.w3.org/2000/svg">
<path d="M33.865 8.7071C1.73677 21.0278 1.59173 52.9999 5.53524 67.4459C11.5822 96.822 25.7107 112.459 35.0412 117.747C44.3716 123.035 72.0504 134.141 98.7079 112.615C125.365 91.0879 136.861 60.9695 125.114 35.9959C113.367 11.0222 74.0252 -6.69382 33.865 8.7071Z" fill="white" fill-opacity="0.9" stroke="#FFA79D" stroke-width="3"/>
<path d="M93.7713 38.0458C94.0474 38.0458 94.2713 38.2696 94.2713 38.5458V63.9837C94.2713 64.2598 94.0474 64.4837 93.7713 64.4837H89.3843C89.1082 64.4837 88.8843 64.2598 88.8843 63.9837V48.2525C88.8843 47.8093 88.3504 47.5852 88.0341 47.8957L63.4184 72.0574C63.2184 72.2537 63.2187 72.576 63.4191 72.7719L68.8839 78.1125C69.0843 78.3084 69.0846 78.6307 68.8847 78.8269L65.7753 81.879C65.5805 82.0702 65.2684 82.0698 65.074 81.8782L59.6068 76.4884C59.4123 76.2967 59.1 76.2965 58.9052 76.488L45.3581 89.8104C45.1636 90.0017 44.8519 90.0018 44.6572 89.8108L41.547 86.7579C41.3472 86.5618 41.3473 86.2398 41.5473 86.0439L55.0935 72.7727C55.2937 72.5764 55.2935 72.2539 55.093 72.0579L49.6286 66.7176C49.4282 66.5217 49.4278 66.1995 49.6278 66.0032L52.7372 62.9511C52.932 62.7599 53.2441 62.7603 53.4385 62.9519L58.906 68.342C59.1004 68.5336 59.4125 68.534 59.6073 68.3428L84.2136 44.1902C84.5331 43.8766 84.3111 43.3334 83.8634 43.3334H67.8366C67.5605 43.3334 67.3366 43.1095 67.3366 42.8334V38.5458C67.3366 38.2696 67.5605 38.0458 67.8366 38.0458H93.7713Z" fill="#FFA79D"/>
</svg>
