<svg width="134" height="139" viewBox="0 0 134 139" fill="none" xmlns="http://www.w3.org/2000/svg">
<path d="M56.1185 137C28.7721 137 12.4402 112.388 7.6926 100.082C-5.12603 61.7433 4.84402 23.4055 26.2084 10.6261C47.5728 -2.1533 78.9072 -0.733369 100.272 14.8859C121.636 30.5051 134.455 53.224 131.606 77.3629C128.757 101.502 90.3016 137 56.1185 137Z" fill="white" fill-opacity="0.9" stroke="#ADEBFF" stroke-width="3"/>
<path d="M82.7064 79.9595C82.5113 79.7645 82.1952 79.7643 81.9999 79.959L78.6649 83.2838C78.4684 83.4797 78.469 83.7982 78.6663 83.9933L81.1468 86.4472C81.4644 86.7614 81.2419 87.3027 80.7952 87.3027H77.4823C75.9713 87.3027 74.5222 86.7043 73.4538 85.6391C72.3854 84.574 71.7851 83.1293 71.7851 81.6229V53.2243C71.7851 50.9648 70.8848 48.7978 69.2821 47.2C67.6795 45.6023 65.5058 44.7047 63.2394 44.7047C61.2546 44.7047 59.3927 45.4155 57.8822 46.6321C57.6845 46.7914 57.4003 46.7909 57.2024 46.6319C55.6884 45.4152 53.7986 44.7474 51.845 44.7474C49.893 44.7474 48.0046 45.4142 46.4911 46.629C46.2917 46.7891 46.005 46.7881 45.8068 46.6264C44.4223 45.4963 42.7278 44.8259 40.9504 44.7196C40.6748 44.7032 40.4507 44.9286 40.4507 45.2047V49.8844C40.4507 50.1606 40.6762 50.38 40.9482 50.4281C41.5189 50.529 42.0495 50.802 42.4649 51.2162C42.9992 51.7488 43.2993 52.4711 43.2993 53.2243V81.1229C43.2993 81.3991 43.5231 81.6229 43.7993 81.6229H48.4964C48.7726 81.6229 48.9964 81.3991 48.9964 81.1229V53.2243C48.9964 52.4711 49.2966 51.7488 49.8308 51.2162C50.365 50.6836 51.0895 50.3844 51.845 50.3844C52.6005 50.3844 53.3251 50.6836 53.8593 51.2162C54.3935 51.7488 54.6936 52.4711 54.6936 53.2243V81.1229C54.6936 81.3991 54.9175 81.6229 55.1936 81.6229H59.8908C60.1669 81.6229 60.3908 81.3991 60.3908 81.1229V53.2243C60.3908 52.4711 60.6909 51.7488 61.2251 51.2162C61.7593 50.6836 62.4839 50.3844 63.2394 50.3844C63.9949 50.3844 64.7194 50.6836 65.2536 51.2162C65.7878 51.7488 66.0879 52.4711 66.0879 53.2243V81.6229C66.0879 84.6357 67.2884 87.525 69.4253 89.6553C71.5621 91.7856 74.4603 92.9824 77.4823 92.9824H80.7952C81.2419 92.9824 81.4644 93.5236 81.1468 93.8378L78.6663 96.2917C78.469 96.4869 78.4684 96.8054 78.6649 97.0013L81.9999 100.326C82.1952 100.521 82.5113 100.521 82.7064 100.326L92.5394 90.4961C92.7347 90.3009 92.7347 89.9842 92.5394 89.7889L82.7064 79.9595Z" fill="#ADEBFF"/>
</svg>
