<svg width="2232" height="789" viewBox="0 0 2232 789" fill="none" xmlns="http://www.w3.org/2000/svg">
<path d="M32.4986 316.761C-41.7532 445.369 30.3577 578.365 76.6606 686.905C93.0055 725.186 109.013 761.614 136.792 777.653C164.571 793.691 204.107 789.366 245.462 784.328C362.609 770.226 513.83 766.135 588.067 637.554C662.318 508.946 562.195 329.522 365.792 381.012C312.198 185.151 106.75 188.153 32.4986 316.761Z" fill="url(#paint0_linear_0_1)"/>
<path d="M763.395 330.029C817.738 424.154 928.423 427.117 1014.16 437.488C1044.41 441.137 1073.35 444.322 1093.69 432.584C1114.02 420.846 1125.74 394.204 1137.68 366.148C1171.61 286.737 1224.36 189.392 1170.03 95.286C1115.68 1.16056 965.32 -1.03675 926.084 142.291C782.33 104.587 709.052 235.903 763.395 330.029Z" fill="url(#paint1_linear_0_1)"/>
<path d="M1641.93 427.071C1685.91 560.914 1825.56 594.034 1931.6 629.937C1969.01 642.589 2004.89 654.309 2033.8 644.809C2062.71 635.308 2084.66 604.615 2107.25 572.185C2171.37 480.427 2264.11 370.906 2220.14 237.09C2176.16 103.246 1985.96 60.5717 1898.15 232.021C1725.76 146.048 1597.94 293.227 1641.93 427.071Z" fill="url(#paint2_linear_0_1)"/>
<path d="M1477.9 55.1014C1465.53 110.863 1507.36 151.314 1536.89 185.776C1547.32 197.929 1557.4 209.442 1569.44 212.114C1581.49 214.785 1595.49 208.628 1610.08 201.999C1651.42 183.282 1706.42 164.299 1718.79 108.549C1731.16 52.7867 1673.69 -1.45616 1607.59 40.1384C1565.29 -25.5137 1490.27 -0.660397 1477.9 55.1014Z" fill="url(#paint3_linear_0_1)"/>
<defs>
<linearGradient id="paint0_linear_0_1" x1="123.774" y1="-342.797" x2="-0.630559" y2="1218.43" gradientUnits="userSpaceOnUse">
<stop offset="0.106817" stop-color="white" stop-opacity="0"/>
<stop offset="0.922929" stop-color="#FFCE6C"/>
</linearGradient>
<linearGradient id="paint1_linear_0_1" x1="726.13" y1="278.996" x2="1216.93" y2="519.358" gradientUnits="userSpaceOnUse">
<stop offset="0.212426" stop-color="#FFF7EC"/>
<stop offset="0.553844" stop-color="#FFE8E5" stop-opacity="0.67"/>
<stop offset="1" stop-color="#FFC9C3"/>
</linearGradient>
<linearGradient id="paint2_linear_0_1" x1="1608.18" y1="352.434" x2="2167.15" y2="787.602" gradientUnits="userSpaceOnUse">
<stop offset="0.212426" stop-color="#FFF7EC"/>
<stop offset="0.553844" stop-color="#FFE8E5" stop-opacity="0.67"/>
<stop offset="1" stop-color="#FFC9C3"/>
</linearGradient>
<linearGradient id="paint3_linear_0_1" x1="1725.5" y1="-187.5" x2="1358.65" y2="216.912" gradientUnits="userSpaceOnUse">
<stop stop-color="white" stop-opacity="0"/>
<stop offset="1" stop-color="#FFCE6C"/>
</linearGradient>
</defs>
</svg>
